<svg width="36" height="36" viewBox="0 0 36 36" fill="none" xmlns="http://www.w3.org/2000/svg">
<path fill-rule="evenodd" clip-rule="evenodd" d="M25.1974 17.0998C23.2264 17.0998 21.0597 18.4167 18.7174 21.5398L18.6998 21.5633L18.6807 21.5855C16.2018 24.4776 13.5745 26.0998 10.7974 26.0998C8.02025 26.0998 5.39302 24.4776 2.91406 21.5855L4.28072 20.4141C6.60176 23.122 8.77454 24.2998 10.7974 24.2998C12.8148 24.2998 14.9813 23.1283 17.2954 20.4359C19.7479 17.1737 22.3753 15.2998 25.1974 15.2998C28.0264 15.2998 30.6597 17.1829 33.1174 20.4598L31.6774 21.5398C29.3351 18.4167 27.1684 17.0998 25.1974 17.0998Z" fill="#005BAC"/>
<path fill-rule="evenodd" clip-rule="evenodd" d="M4.5 17.9996C4.5 15.0173 6.91766 12.5996 9.9 12.5996C12.8823 12.5996 15.3 15.0173 15.3 17.9996V19.7996H13.5V17.9996C13.5 16.0114 11.8882 14.3996 9.9 14.3996C7.91177 14.3996 6.3 16.0114 6.3 17.9996V19.7996H4.5V17.9996Z" fill="#005BAC"/>
<path fill-rule="evenodd" clip-rule="evenodd" d="M6.29688 8.1C6.29688 6.11177 7.90865 4.5 9.89687 4.5C11.8851 4.5 13.4969 6.11177 13.4969 8.1C13.4969 10.0882 11.8851 11.7 9.89687 11.7C7.90865 11.7 6.29688 10.0882 6.29688 8.1ZM9.89687 6.3C8.90276 6.3 8.09687 7.10589 8.09687 8.1C8.09687 9.09411 8.90276 9.9 9.89687 9.9C10.891 9.9 11.6969 9.09411 11.6969 8.1C11.6969 7.10589 10.891 6.3 9.89687 6.3Z" fill="#005BAC"/>
<path fill-rule="evenodd" clip-rule="evenodd" d="M25.1984 21.5998C22.7132 21.5998 20.6984 23.6145 20.6984 26.0998C20.6984 28.5851 22.7132 30.5998 25.1984 30.5998C27.6837 30.5998 29.6984 28.5851 29.6984 26.0998C29.6984 23.6145 27.6837 21.5998 25.1984 21.5998ZM18.8984 26.0998C18.8984 22.6204 21.719 19.7998 25.1984 19.7998C28.6778 19.7998 31.4984 22.6204 31.4984 26.0998C31.4984 29.5792 28.6778 32.3998 25.1984 32.3998C21.719 32.3998 18.8984 29.5792 18.8984 26.0998Z" fill="#005BAC"/>
<path fill-rule="evenodd" clip-rule="evenodd" d="M25.1969 22.5C25.6939 22.5 26.0969 22.9029 26.0969 23.4V25.2H26.9969C27.4939 25.2 27.8969 25.6029 27.8969 26.1C27.8969 26.5971 27.4939 27 26.9969 27H25.1969C24.6998 27 24.2969 26.5971 24.2969 26.1L24.2969 23.4C24.2969 22.9029 24.6998 22.5 25.1969 22.5Z" fill="#005BAC"/>
</svg>
