<svg width="32" height="32" viewBox="0 0 32 32" fill="none" xmlns="http://www.w3.org/2000/svg">
<rect width="32" height="32" rx="16" fill="#CFF1FF"/>
<path fill-rule="evenodd" clip-rule="evenodd" d="M9.59766 22.8C9.59766 19.0445 12.6421 16 16.3977 16C20.1532 16 23.1977 19.0445 23.1977 22.8V25.6H21.5977V22.8C21.5977 19.9281 19.2695 17.6 16.3977 17.6C13.5258 17.6 11.1977 19.9281 11.1977 22.8V25.6H9.59766V22.8Z" fill="#005BAC"/>
<path fill-rule="evenodd" clip-rule="evenodd" d="M11.9961 9.60156C11.9961 7.39242 13.787 5.60156 15.9961 5.60156H16.7961C19.0052 5.60156 20.7961 7.39242 20.7961 9.60156V10.4016C20.7961 12.6107 19.0052 14.4016 16.7961 14.4016H15.9961C13.787 14.4016 11.9961 12.6107 11.9961 10.4016V9.60156ZM15.9961 7.20156C14.6706 7.20156 13.5961 8.27608 13.5961 9.60156V10.4016C13.5961 11.727 14.6706 12.8016 15.9961 12.8016H16.7961C18.1216 12.8016 19.1961 11.727 19.1961 10.4016V9.60156C19.1961 8.27608 18.1216 7.20156 16.7961 7.20156H15.9961Z" fill="#005BAC"/>
</svg>
