<svg width="32" height="32" viewBox="0 0 32 32" fill="none" xmlns="http://www.w3.org/2000/svg">
<rect width="32" height="32" rx="16" fill="#CFF1FF"/>
<path fill-rule="evenodd" clip-rule="evenodd" d="M10.3333 8V24H9V8H10.3333ZM22.3333 24V8H23.6667V24H22.3333Z" fill="#005BAC"/>
<path fill-rule="evenodd" clip-rule="evenodd" d="M10.6749 8C10.9373 8.09899 11.2969 8.19845 11.75 8.28909C12.9018 8.51944 14.5226 8.66667 16.3333 8.66667C18.1441 8.66667 19.7649 8.51944 20.9166 8.28909C21.3698 8.19845 21.7293 8.09899 21.9918 8C21.7293 7.901 21.3698 7.80155 20.9166 7.71091C19.7649 7.48056 18.1441 7.33333 16.3333 7.33333C14.5226 7.33333 12.9018 7.48056 11.75 7.71091C11.2969 7.80155 10.9373 7.90101 10.6749 8ZM11.4885 6.40347C12.7496 6.15125 14.4622 6 16.3333 6C18.2045 6 19.917 6.15125 21.1781 6.40347C21.8032 6.52848 22.3522 6.68499 22.7611 6.87832C22.9638 6.97418 23.1679 7.09557 23.3305 7.25452C23.4943 7.41456 23.6667 7.66551 23.6667 8C23.6667 8.33449 23.4943 8.58544 23.3305 8.74548C23.1679 8.90443 22.9638 9.02582 22.7611 9.12168C22.3522 9.31501 21.8032 9.47152 21.1781 9.59653C19.917 9.84875 18.2045 10 16.3333 10C14.4622 10 12.7496 9.84875 11.4885 9.59653C10.8635 9.47152 10.3144 9.31501 9.90558 9.12168C9.70285 9.02582 9.49876 8.90443 9.33613 8.74548C9.17239 8.58544 9 8.33449 9 8C9 7.66551 9.17239 7.41456 9.33613 7.25452C9.49876 7.09557 9.70285 6.97418 9.90558 6.87832C10.3144 6.68499 10.8635 6.52848 11.4885 6.40347Z" fill="#005BAC"/>
<path fill-rule="evenodd" clip-rule="evenodd" d="M22.4002 11.7891C22.4002 11.7891 22.3333 11.8604 22.3333 11.9987H23.6667C23.6667 12.3332 23.4943 12.5842 23.3305 12.7442C23.1679 12.9032 22.9638 13.0246 22.7611 13.1204C22.3522 13.3138 21.8032 13.4703 21.1781 13.5953C19.917 13.8475 18.2045 13.9987 16.3333 13.9987C14.4622 13.9987 12.7496 13.8475 11.4885 13.5953C10.8635 13.4703 10.3144 13.3138 9.90558 13.1204C9.70285 13.0246 9.49876 12.9032 9.33613 12.7442C9.17239 12.5842 9 12.3332 9 11.9987H10.3333C10.3333 11.8604 10.2664 11.7891 10.2665 11.7891C10.2665 11.7891 10.267 11.7896 10.2681 11.7907C10.2831 11.8053 10.3409 11.8514 10.4755 11.9151C10.7414 12.0408 11.1687 12.1716 11.75 12.2878C12.9018 12.5182 14.5226 12.6654 16.3333 12.6654C18.1441 12.6654 19.7649 12.5182 20.9166 12.2878C21.498 12.1716 21.9253 12.0408 22.1911 11.9151C22.3257 11.8514 22.3836 11.8053 22.3986 11.7907C22.3997 11.7896 22.4002 11.7891 22.4002 11.7891Z" fill="#005BAC"/>
<path fill-rule="evenodd" clip-rule="evenodd" d="M22.4002 15.7891C22.4002 15.7891 22.3333 15.8604 22.3333 15.9987H23.6667C23.6667 16.3332 23.4943 16.5842 23.3305 16.7442C23.1679 16.9032 22.9638 17.0246 22.7611 17.1204C22.3522 17.3138 21.8032 17.4703 21.1781 17.5953C19.917 17.8475 18.2045 17.9987 16.3333 17.9987C14.4622 17.9987 12.7496 17.8475 11.4885 17.5953C10.8635 17.4703 10.3144 17.3138 9.90558 17.1204C9.70285 17.0246 9.49876 16.9032 9.33613 16.7442C9.17239 16.5842 9 16.3332 9 15.9987H10.3333C10.3333 15.8604 10.2664 15.7891 10.2665 15.7891C10.2665 15.7891 10.267 15.7896 10.2681 15.7907C10.2831 15.8053 10.3409 15.8514 10.4755 15.9151C10.7414 16.0408 11.1687 16.1716 11.75 16.2878C12.9018 16.5182 14.5226 16.6654 16.3333 16.6654C18.1441 16.6654 19.7649 16.5182 20.9166 16.2878C21.498 16.1716 21.9253 16.0408 22.1911 15.9151C22.3257 15.8514 22.3836 15.8053 22.3986 15.7907C22.3997 15.7896 22.4002 15.7891 22.4002 15.7891Z" fill="#005BAC"/>
<path fill-rule="evenodd" clip-rule="evenodd" d="M22.4002 19.7891C22.4002 19.7891 22.3333 19.8604 22.3333 19.9987H23.6667C23.6667 20.3332 23.4943 20.5842 23.3305 20.7442C23.1679 20.9032 22.9638 21.0246 22.7611 21.1204C22.3522 21.3138 21.8032 21.4703 21.1781 21.5953C19.917 21.8475 18.2045 21.9987 16.3333 21.9987C14.4622 21.9987 12.7496 21.8475 11.4885 21.5953C10.8635 21.4703 10.3144 21.3138 9.90558 21.1204C9.70285 21.0246 9.49876 20.9032 9.33613 20.7442C9.17239 20.5842 9 20.3332 9 19.9987H10.3333C10.3333 19.8604 10.2664 19.7891 10.2665 19.7891C10.2665 19.7891 10.267 19.7896 10.2681 19.7907C10.2831 19.8053 10.3409 19.8514 10.4755 19.9151C10.7414 20.0408 11.1687 20.1716 11.75 20.2878C12.9018 20.5182 14.5226 20.6654 16.3333 20.6654C18.1441 20.6654 19.7649 20.5182 20.9166 20.2878C21.498 20.1716 21.9253 20.0408 22.1911 19.9151C22.3257 19.8514 22.3836 19.8053 22.3986 19.7907C22.3997 19.7896 22.4002 19.7891 22.4002 19.7891Z" fill="#005BAC"/>
<path fill-rule="evenodd" clip-rule="evenodd" d="M22.4002 23.7891C22.4002 23.7891 22.3333 23.8604 22.3333 23.9987H23.6667C23.6667 24.3332 23.4943 24.5842 23.3305 24.7442C23.1679 24.9032 22.9638 25.0246 22.7611 25.1204C22.3522 25.3138 21.8032 25.4703 21.1781 25.5953C19.917 25.8475 18.2045 25.9987 16.3333 25.9987C14.4622 25.9987 12.7496 25.8475 11.4885 25.5953C10.8635 25.4703 10.3144 25.3138 9.90558 25.1204C9.70285 25.0246 9.49876 24.9032 9.33613 24.7442C9.17239 24.5842 9 24.3332 9 23.9987H10.3333C10.3333 23.8604 10.2664 23.7891 10.2665 23.7891C10.2665 23.7891 10.267 23.7896 10.2681 23.7907C10.2831 23.8053 10.3409 23.8514 10.4755 23.9151C10.7414 24.0408 11.1687 24.1716 11.75 24.2878C12.9018 24.5182 14.5226 24.6654 16.3333 24.6654C18.1441 24.6654 19.7649 24.5182 20.9166 24.2878C21.498 24.1716 21.9253 24.0408 22.1911 23.9151C22.3257 23.8514 22.3836 23.8053 22.3986 23.7907C22.3997 23.7896 22.4002 23.7891 22.4002 23.7891Z" fill="#005BAC"/>
</svg>
