<svg width="36" height="36" viewBox="0 0 36 36" fill="none" xmlns="http://www.w3.org/2000/svg">
<path fill-rule="evenodd" clip-rule="evenodd" d="M30.353 33.2646C22.1146 30.9108 13.8859 30.9108 5.64748 33.2646C5.16955 33.4011 4.67141 33.1244 4.53486 32.6465C4.39831 32.1685 4.67505 31.6704 5.15298 31.5338C13.7146 29.0877 22.2859 29.0877 30.8475 31.5338C31.3254 31.6704 31.6022 32.1685 31.4656 32.6465C31.3291 33.1244 30.8309 33.4011 30.353 33.2646Z" fill="#005BAC"/>
<path fill-rule="evenodd" clip-rule="evenodd" d="M29.5616 12.4107L23.4924 10.7302C24.7381 10.3081 25.8329 10.2641 26.7965 10.5309C27.7602 10.7978 28.687 11.4014 29.5616 12.4107ZM27.2484 8.78857C25.1333 8.20294 22.8441 8.74446 20.4523 10.1714C20.1443 10.3552 19.9779 10.7086 20.0299 11.0687C20.082 11.4288 20.3424 11.7255 20.6909 11.822L31.4594 14.8036C31.808 14.9001 32.1771 14.7777 32.3964 14.4927C32.6157 14.2078 32.6426 13.8157 32.4648 13.4974C31.0839 11.0259 29.3634 9.3742 27.2484 8.78857Z" fill="#005BAC"/>
<path fill-rule="evenodd" clip-rule="evenodd" d="M10.7608 16.454L19.593 11.1847C17.3927 10.8967 15.6124 11.2206 14.1968 12.0652C12.7811 12.9097 11.6196 14.3409 10.7608 16.454ZM13.3188 10.4938C15.7463 9.04557 18.7808 8.91215 22.2955 9.88532C22.6401 9.98071 22.8921 10.2796 22.9349 10.6434C22.9777 11.0072 22.8028 11.3649 22.4914 11.5507L9.61832 19.2307C9.30687 19.4165 8.91966 19.3941 8.63614 19.1739C8.35262 18.9537 8.22819 18.5788 8.32051 18.2227C9.26228 14.5908 10.8913 11.942 13.3188 10.4938Z" fill="#005BAC"/>
<path fill-rule="evenodd" clip-rule="evenodd" d="M12.2587 6.97232L20.0621 9.13293C19.0197 7.36967 17.8706 6.41815 16.6704 6.08585C15.4702 5.75354 14.0147 5.98388 12.2587 6.97232ZM17.1222 4.34347C19.4601 4.9908 21.2422 7.0772 22.5881 10.1874C22.7262 10.5065 22.6724 10.8745 22.4495 11.1348C22.2266 11.3952 21.874 11.5021 21.5415 11.41L9.87564 8.17997C9.5432 8.08792 9.28949 7.81313 9.22247 7.47251C9.15544 7.13188 9.28688 6.78536 9.56086 6.58037C12.2314 4.58231 14.7843 3.69614 17.1222 4.34347Z" fill="#005BAC"/>
<path fill-rule="evenodd" clip-rule="evenodd" d="M20.5414 10.8015C21.0375 10.7712 21.4643 11.1488 21.4946 11.6449C21.9274 18.7281 21.0509 25.1593 18.8422 30.9219C18.6643 31.3861 18.1438 31.6181 17.6797 31.4402C17.2156 31.2623 16.9835 30.7419 17.1614 30.2777C19.2644 24.7908 20.1176 18.622 19.698 11.7547C19.6676 11.2586 20.0453 10.8318 20.5414 10.8015Z" fill="#005BAC"/>
<path fill-rule="evenodd" clip-rule="evenodd" d="M22.5605 30.2797C24.8819 24.186 24.8819 18.1141 22.5605 12.0204C22.3836 11.556 22.6167 11.036 23.0812 10.859C23.5457 10.6821 24.0657 10.9152 24.2426 11.3797C26.7212 17.886 26.7212 24.4141 24.2426 30.9204C24.0657 31.3849 23.5457 31.618 23.0812 31.4411C22.6167 31.2641 22.3836 30.7441 22.5605 30.2797Z" fill="#005BAC"/>
<path fill-rule="evenodd" clip-rule="evenodd" d="M7.65312 4.49922C5.91343 4.49922 4.50312 5.90952 4.50312 7.64922C4.50312 9.38892 5.91343 10.7992 7.65312 10.7992C9.39282 10.7992 10.8031 9.38892 10.8031 7.64922C10.8031 5.90952 9.39282 4.49922 7.65312 4.49922ZM2.70312 7.64922C2.70312 4.91541 4.91932 2.69922 7.65312 2.69922C10.3869 2.69922 12.6031 4.91541 12.6031 7.64922C12.6031 10.383 10.3869 12.5992 7.65312 12.5992C4.91932 12.5992 2.70312 10.383 2.70312 7.64922Z" fill="#005BAC"/>
</svg>
