<svg width="36" height="36" viewBox="0 0 36 36" fill="none" xmlns="http://www.w3.org/2000/svg">
<path fill-rule="evenodd" clip-rule="evenodd" d="M18 26.9996C18 26.5026 18.4029 26.0996 18.9 26.0996L29.7 26.0996C30.1971 26.0996 30.6 26.5026 30.6 26.9996C30.6 27.4967 30.1971 27.8996 29.7 27.8996L18.9 27.8996C18.4029 27.8996 18 27.4967 18 26.9996Z" fill="#005BAC"/>
<path fill-rule="evenodd" clip-rule="evenodd" d="M15.3031 22.5C15.8002 22.5 16.2031 22.9029 16.2031 23.4L16.2031 27C16.2031 27.4971 15.8002 27.9 15.3031 27.9C14.8061 27.9 14.4031 27.4971 14.4031 27L14.4031 23.4C14.4031 22.9029 14.8061 22.5 15.3031 22.5Z" fill="#005BAC"/>
<path fill-rule="evenodd" clip-rule="evenodd" d="M22.9382 17.0998C19.9301 17.0998 16.9274 17.4531 14.9711 19.9405C14.1322 21.0071 13.7764 22.2203 13.6376 23.4972C13.5348 24.4434 13.5534 25.3566 13.572 26.2693C13.5793 26.6272 13.5865 26.9851 13.5865 27.3448C13.5865 27.3448 13.5865 27.3447 13.5865 27.3448V29.733C13.5865 30.23 13.1836 30.633 12.6865 30.633C12.1894 30.633 11.7865 30.23 11.7865 29.733V27.3448C11.7865 27.0568 11.7801 26.7437 11.7734 26.4128C11.7541 25.4664 11.7317 24.3735 11.8481 23.3027C12.0096 21.8171 12.4423 20.2441 13.5563 18.8277C16.0828 15.6154 19.9046 15.2998 22.9382 15.2998C26.3588 15.2998 29.8128 17.0147 31.5756 19.6842C32.4847 21.061 32.8972 23.0298 33.0966 24.5402C33.1991 25.3162 33.2501 26.0128 33.2756 26.5155C33.2884 26.7673 33.2948 26.9717 33.2981 27.1144C33.2997 27.1858 33.3005 27.2419 33.3009 27.2808L33.3013 27.3263L33.3014 27.339L33.3014 27.3428V27.344C33.3014 27.3442 33.3014 27.3447 32.8799 27.3448L33.3014 27.344V30.9271C33.3014 31.4241 32.8984 31.8271 32.4014 31.8271C31.9043 31.8271 31.5014 31.4241 31.5014 30.9271V27.3451L31.5014 27.3436L31.5013 27.3357L31.501 27.3002C31.5007 27.2681 31.5 27.2192 31.4985 27.1553C31.4956 27.0275 31.4898 26.84 31.4779 26.6068C31.4542 26.1393 31.4067 25.4925 31.3121 24.7759C31.1174 23.3011 30.7414 21.6875 30.0735 20.6761C28.6823 18.5692 25.8272 17.0998 22.9382 17.0998Z" fill="#005BAC"/>
<path fill-rule="evenodd" clip-rule="evenodd" d="M8.10156 31.2956C8.10156 30.1404 9.07785 29.291 10.1716 29.291H31.297C32.4041 29.291 33.3016 30.1885 33.3016 31.2956C33.3016 32.4026 32.4041 33.3001 31.297 33.3001H10.1716C9.07785 33.3001 8.10156 32.4508 8.10156 31.2956ZM10.1716 31.091C9.97293 31.091 9.90156 31.2307 9.90156 31.2956C9.90156 31.3604 9.97293 31.5001 10.1716 31.5001H31.297C31.41 31.5001 31.5016 31.4085 31.5016 31.2956C31.5016 31.1826 31.41 31.091 31.297 31.091H10.1716Z" fill="#005BAC"/>
<path fill-rule="evenodd" clip-rule="evenodd" d="M5.36979 4.85542C4.88651 5.25052 4.50313 5.9633 4.50313 6.93353C4.50313 9.56562 6.2059 11.3669 7.93646 11.3669C9.66702 11.3669 11.3698 9.56563 11.3698 6.93353C11.3698 5.9633 10.9864 5.25052 10.5031 4.85542V6.93353C10.5031 7.43059 10.1002 7.83353 9.60313 7.83353H6.26979C6.0311 7.83353 5.80218 7.73871 5.6334 7.56992C5.46461 7.40114 5.36979 7.17222 5.36979 6.93353L5.36979 4.85542ZM2.70313 6.93353C2.70312 4.79331 4.12295 2.7002 6.26979 2.7002C6.50849 2.7002 6.73741 2.79502 6.90619 2.9638C7.07497 3.13258 7.16979 3.3615 7.16979 3.6002L7.16979 6.03353H8.70313V3.6002C8.70313 3.10314 9.10607 2.7002 9.60313 2.7002C11.75 2.7002 13.1698 4.79331 13.1698 6.93353C13.1698 10.1925 10.9924 13.1669 7.93646 13.1669C4.88055 13.1669 2.70313 10.1925 2.70313 6.93353Z" fill="#005BAC"/>
<path fill-rule="evenodd" clip-rule="evenodd" d="M9.60052 11.3672C10.0976 11.3672 10.5005 11.7701 10.5005 12.2672V19.9339C10.5005 21.3514 9.35139 22.5005 7.93385 22.5005C6.51632 22.5005 5.36719 21.3514 5.36719 19.9339L5.36719 12.2672H7.16719V19.9339C7.16719 20.3573 7.51044 20.7005 7.93385 20.7005C8.35727 20.7005 8.70052 20.3573 8.70052 19.9339V12.2672C8.70052 11.7701 9.10346 11.3672 9.60052 11.3672Z" fill="#005BAC"/>
</svg>
