<svg width="76" height="76" viewBox="0 0 76 76" fill="none" xmlns="http://www.w3.org/2000/svg">
<path fill-rule="evenodd" clip-rule="evenodd" d="M45.3661 13.0889C44.2461 13.5673 43.0895 14.5543 42.2576 15.9952C40.2886 19.4056 40.4062 23.1512 41.9371 25.5698C42.315 26.1668 42.3304 26.9241 41.9772 27.536L30.9241 46.6805C30.5708 47.2924 29.9073 47.6577 29.2013 47.6289C26.3422 47.5125 23.0408 49.2825 21.0717 52.6908L21.07 52.6938C20.2381 54.1346 19.9616 55.6298 20.1073 56.839C20.1387 57.0992 20.1881 57.3405 20.2533 57.5629L22.5658 53.5574C23.0905 52.6487 24.2525 52.3373 25.1613 52.862L31.5436 56.5468C31.98 56.7988 32.2985 57.2138 32.4289 57.7005C32.5593 58.1873 32.491 58.7059 32.2391 59.1423L29.9265 63.1478C30.1517 63.093 30.3854 63.0152 30.6264 62.9122C31.7464 62.4338 32.9031 61.4468 33.7349 60.0059C35.7039 56.5956 35.5864 52.8501 34.0556 50.4315C33.6777 49.8346 33.6623 49.0772 34.0155 48.4654L45.0688 29.3206C45.422 28.7088 46.0856 28.3434 46.7915 28.3722C49.6513 28.4885 52.9537 26.7175 54.9226 23.3073C55.7544 21.8665 56.0309 20.3713 55.8852 19.1621C55.8539 18.9019 55.8044 18.6606 55.7393 18.4382L53.4267 22.4437C53.1748 22.8801 52.7598 23.1985 52.273 23.3289C51.7863 23.4593 51.2677 23.3911 50.8313 23.1391L44.4489 19.4543C44.0125 19.2023 43.6941 18.7873 43.5637 18.3006C43.4332 17.8138 43.5015 17.2952 43.7535 16.8588L46.066 12.8533C45.8408 12.9081 45.6072 12.9859 45.3661 13.0889ZM43.8734 9.59436C45.8202 8.76278 48.0779 8.6518 50.0338 9.78102C50.4702 10.033 50.7886 10.448 50.919 10.9347C51.0495 11.4215 50.9812 11.9401 50.7292 12.3765L47.9944 17.1134L51.0858 18.8982L53.8207 14.1613C54.0726 13.7249 54.4876 13.4065 54.9744 13.2761C55.4611 13.1456 55.9797 13.2139 56.4161 13.4659C58.372 14.5951 59.4047 16.6058 59.658 18.7076C59.9111 20.8086 59.4167 23.1233 58.2135 25.2073C55.8756 29.2566 51.9022 31.8609 47.8227 32.1507L37.8435 49.4352C39.6324 53.1132 39.3638 57.8565 37.0258 61.9059C35.8226 63.99 34.0653 65.5754 32.1192 66.4067C30.1724 67.2383 27.9146 67.3493 25.9588 66.2201C25.5224 65.9681 25.2039 65.5531 25.0735 65.0664C24.9431 64.5796 25.0114 64.061 25.2633 63.6246L27.9982 58.8877L24.9067 57.1029L22.1719 61.8398C21.6472 62.7485 20.4852 63.0599 19.5764 62.5352C17.6206 61.406 16.5878 59.3953 16.3346 57.2935C16.0816 55.1937 16.5753 52.8804 17.7771 50.7973L17.7791 50.7938C20.117 46.7444 24.0905 44.14 28.1702 43.8504L38.1492 26.5662C36.3601 22.8882 36.6287 18.1447 38.9667 14.0952C40.1699 12.0111 41.9273 10.4257 43.8734 9.59436Z" fill="#005BAC"/>
</svg>
