<svg width="76" height="76" viewBox="0 0 76 76" fill="none" xmlns="http://www.w3.org/2000/svg">
<path fill-rule="evenodd" clip-rule="evenodd" d="M45.6016 20.8996H11.4016V17.0996H49.4016V53.1996H26.6016V49.3996H45.6016V20.8996ZM7.60156 49.3996H11.4016V53.1996H7.60156V49.3996Z" fill="#005BAC"/>
<path fill-rule="evenodd" clip-rule="evenodd" d="M45.6016 22.7998H63.115L70.3016 32.9626V53.1998H64.6016V49.3998H66.5016V34.1704L61.1481 26.5998H49.4016V51.2998H45.6016V22.7998Z" fill="#005BAC"/>
<path fill-rule="evenodd" clip-rule="evenodd" d="M19.0047 51.3C17.9553 51.3 17.1047 52.1507 17.1047 53.2C17.1047 54.2493 17.9553 55.1 19.0047 55.1C20.054 55.1 20.9047 54.2493 20.9047 53.2C20.9047 52.1507 20.054 51.3 19.0047 51.3ZM13.3047 53.2C13.3047 50.052 15.8567 47.5 19.0047 47.5C22.1527 47.5 24.7047 50.052 24.7047 53.2C24.7047 56.348 22.1527 58.9 19.0047 58.9C15.8567 58.9 13.3047 56.348 13.3047 53.2Z" fill="#005BAC"/>
<path fill-rule="evenodd" clip-rule="evenodd" d="M57.0047 51.3C55.9553 51.3 55.1047 52.1507 55.1047 53.2C55.1047 54.2493 55.9553 55.1 57.0047 55.1C58.054 55.1 58.9047 54.2493 58.9047 53.2C58.9047 52.1507 58.054 51.3 57.0047 51.3ZM51.3047 53.2C51.3047 50.052 53.8567 47.5 57.0047 47.5C60.1527 47.5 62.7047 50.052 62.7047 53.2C62.7047 56.348 60.1527 58.9 57.0047 58.9C53.8567 58.9 51.3047 56.348 51.3047 53.2Z" fill="#005BAC"/>
<path fill-rule="evenodd" clip-rule="evenodd" d="M22.8016 28.4992H7.60156V24.6992H22.8016V28.4992Z" fill="#005BAC"/>
<path fill-rule="evenodd" clip-rule="evenodd" d="M22.8016 36.0998H7.60156V32.2998H22.8016V36.0998Z" fill="#005BAC"/>
<path fill-rule="evenodd" clip-rule="evenodd" d="M22.8016 43.6994H7.60156V39.8994H22.8016V43.6994Z" fill="#005BAC"/>
</svg>
