<svg width="76" height="76" viewBox="0 0 76 76" fill="none" xmlns="http://www.w3.org/2000/svg">
<path fill-rule="evenodd" clip-rule="evenodd" d="M66.5047 32.3H19.0047V28.5H70.3047V70.3H13.3047V66.5H66.5047V32.3Z" fill="#005BAC"/>
<path fill-rule="evenodd" clip-rule="evenodd" d="M5.70312 62.7V28.5H9.50312V62.7H5.70312Z" fill="#005BAC"/>
<path fill-rule="evenodd" clip-rule="evenodd" d="M13.3031 24.7004C11.2044 24.7004 9.50312 26.4017 9.50312 28.5004H5.70312C5.70312 24.303 9.10576 20.9004 13.3031 20.9004C17.5005 20.9004 20.9031 24.303 20.9031 28.5004V62.7004C20.9031 63.7497 20.0525 64.6004 19.0031 64.6004C17.9538 64.6004 17.1031 63.7497 17.1031 62.7004C17.1031 60.6017 15.4018 58.9004 13.3031 58.9004C11.2044 58.9004 9.50312 60.6017 9.50312 62.7004C9.50312 64.7991 11.2044 66.5004 13.3031 66.5004V70.3004C9.10576 70.3004 5.70312 66.8978 5.70312 62.7004C5.70312 58.503 9.10576 55.1004 13.3031 55.1004C14.6874 55.1004 15.9853 55.4705 17.1031 56.1171V28.5004C17.1031 26.4017 15.4018 24.7004 13.3031 24.7004Z" fill="#005BAC"/>
<path fill-rule="evenodd" clip-rule="evenodd" d="M24.7031 36.0996H62.7031V62.6996H24.7031V36.0996ZM28.5031 39.8996V58.8996H58.9031V39.8996H28.5031Z" fill="#005BAC"/>
<path fill-rule="evenodd" clip-rule="evenodd" d="M65.0951 5.76487C65.5918 5.89788 66.0133 6.22649 66.2635 6.67567L70.0661 13.5029C70.5656 14.3995 70.2626 15.5307 69.382 16.0577L49.0419 28.2305C48.6759 28.4496 48.2468 28.5391 47.8238 28.4847L41.5639 27.6795C40.9788 27.6043 40.4618 27.2615 40.1647 26.7519C39.8677 26.2422 39.8242 25.6234 40.0471 25.0772L42.5044 19.0552C42.6598 18.6742 42.9348 18.354 43.2878 18.1427L63.6279 5.96986C64.0691 5.70583 64.5985 5.63187 65.0951 5.76487ZM45.7832 21.0778L44.4987 24.2257L47.6555 24.6317L65.8501 13.7429L63.8975 10.2371L45.7832 21.0778Z" fill="#005BAC"/>
</svg>
