<svg width="76" height="76" viewBox="0 0 76 76" fill="none" xmlns="http://www.w3.org/2000/svg">
<path fill-rule="evenodd" clip-rule="evenodd" d="M43.7031 46.7875C43.7031 39.9668 49.2324 34.4375 56.0531 34.4375C62.8738 34.4375 68.4031 39.9668 68.4031 46.7875V51.3H64.6031V46.7875C64.6031 42.0655 60.7752 38.2375 56.0531 38.2375C51.3311 38.2375 47.5031 42.0655 47.5031 46.7875V51.3H43.7031V46.7875Z" fill="#005BAC"/>
<path fill-rule="evenodd" clip-rule="evenodd" d="M47.8828 22.8002C47.8828 18.6028 51.2854 15.2002 55.4828 15.2002H56.6228C60.8202 15.2002 64.2228 18.6028 64.2228 22.8002V24.2252C64.2228 28.4226 60.8202 31.8252 56.6228 31.8252H55.4828C51.2854 31.8252 47.8828 28.4226 47.8828 24.2252V22.8002ZM55.4828 19.0002C53.3841 19.0002 51.6828 20.7015 51.6828 22.8002V24.2252C51.6828 26.3239 53.3841 28.0252 55.4828 28.0252H56.6228C58.7215 28.0252 60.4228 26.3239 60.4228 24.2252V22.8002C60.4228 20.7015 58.7215 19.0002 56.6228 19.0002H55.4828Z" fill="#005BAC"/>
<path fill-rule="evenodd" clip-rule="evenodd" d="M5.70312 54.3871C5.70312 47.5664 11.2324 42.0371 18.0531 42.0371C24.8738 42.0371 30.4031 47.5664 30.4031 54.3871V58.8996H26.6031V54.3871C26.6031 49.6651 22.7752 45.8371 18.0531 45.8371C13.3311 45.8371 9.50313 49.6651 9.50313 54.3871V58.8996H5.70312V54.3871Z" fill="#005BAC"/>
<path fill-rule="evenodd" clip-rule="evenodd" d="M9.88281 30.3998C9.88281 26.2024 13.2854 22.7998 17.4828 22.7998H18.6228C22.8202 22.7998 26.2228 26.2024 26.2228 30.3998V31.8248C26.2228 36.0222 22.8202 39.4248 18.6228 39.4248H17.4828C13.2854 39.4248 9.88281 36.0222 9.88281 31.8248V30.3998ZM17.4828 26.5998C15.3841 26.5998 13.6828 28.3011 13.6828 30.3998V31.8248C13.6828 33.9235 15.3841 35.6248 17.4828 35.6248H18.6228C20.7215 35.6248 22.4228 33.9235 22.4228 31.8248V30.3998C22.4228 28.3011 20.7215 26.5998 18.6228 26.5998H17.4828Z" fill="#005BAC"/>
<path fill-rule="evenodd" clip-rule="evenodd" d="M26.6063 51.3006L68.4062 51.3006V55.1006L26.6063 55.1006V51.3006Z" fill="#005BAC"/>
</svg>
