<svg width="76" height="76" viewBox="0 0 76 76" fill="none" xmlns="http://www.w3.org/2000/svg">
<path fill-rule="evenodd" clip-rule="evenodd" d="M20.9031 9.5002C14.6071 9.5002 9.50312 14.6041 9.50312 20.9002C9.50312 27.1962 14.6071 32.3002 20.9031 32.3002C27.1992 32.3002 32.3031 27.1962 32.3031 20.9002C32.3031 14.6041 27.1992 9.5002 20.9031 9.5002ZM5.70312 20.9002C5.70312 12.5055 12.5084 5.7002 20.9031 5.7002C29.2979 5.7002 36.1031 12.5055 36.1031 20.9002C36.1031 29.2949 29.2979 36.1002 20.9031 36.1002C12.5084 36.1002 5.70312 29.2949 5.70312 20.9002Z" fill="#005BAC"/>
<path fill-rule="evenodd" clip-rule="evenodd" d="M5.70312 41.7998H9.50312V66.4998H68.4031V70.2998H5.70312V41.7998Z" fill="#005BAC"/>
<path fill-rule="evenodd" clip-rule="evenodd" d="M50.0221 47.3252L63.3197 51.8782L62.0887 55.4733L50.4149 51.4762L37.8291 58.6583L31.5863 55.8083L19.9459 62.4509L18.0625 59.1505L31.3936 51.5431L37.6364 54.3931L50.0221 47.3252Z" fill="#005BAC"/>
<path fill-rule="evenodd" clip-rule="evenodd" d="M22.8 20.1136V7.60059H19V21.6876L29.0565 31.7441L31.7435 29.0571L22.8 20.1136Z" fill="#005BAC"/>
<path fill-rule="evenodd" clip-rule="evenodd" d="M53.2062 24.7008V32.3008H49.4062V24.7008H53.2062Z" fill="#005BAC"/>
<path fill-rule="evenodd" clip-rule="evenodd" d="M60.8 17.0998V32.2998H57V17.0998H60.8Z" fill="#005BAC"/>
<path fill-rule="evenodd" clip-rule="evenodd" d="M68.4016 9.50078V32.3008H64.6016V9.50078H68.4016Z" fill="#005BAC"/>
</svg>
