<svg width="165" height="20" viewBox="0 0 165 20" fill="none" xmlns="http://www.w3.org/2000/svg">
<g clip-path="url(#clip0_1793_444)">
<mask id="mask0_1793_444" style="mask-type:luminance" maskUnits="userSpaceOnUse" x="0" y="0" width="165" height="20">
<path d="M164.198 0H0.53125V20H164.198V0Z" fill="white"/>
</mask>
<g mask="url(#mask0_1793_444)">
<path d="M110.226 5.18522C110.055 4.68625 109.792 3.88838 109.695 3.59079L109.665 3.50199C109.625 3.37803 109.546 3.27068 109.438 3.19692C109.33 3.12316 109.201 3.0872 109.071 3.09473L107.245 3.09685C107.185 3.08906 107.124 3.09691 107.068 3.11961C107.012 3.14232 106.963 3.1791 106.926 3.22636C106.889 3.27361 106.864 3.32971 106.855 3.38915C106.846 3.44859 106.853 3.50934 106.875 3.56542C106.919 3.70364 107.29 4.78853 107.491 5.33983C107.542 5.47184 107.635 5.58315 107.757 5.65587C107.879 5.72859 108.021 5.75848 108.162 5.74075L109.791 5.73811C110.05 5.73811 110.151 5.66093 110.204 5.58826C110.242 5.52845 110.264 5.46006 110.268 5.38951C110.272 5.31896 110.258 5.24857 110.227 5.18496" fill="#1A1311"/>
<path d="M106.068 3.48491C106.027 3.36451 105.947 3.26099 105.84 3.19048C105.734 3.11997 105.607 3.08643 105.48 3.09509L103.655 3.09747C103.593 3.09019 103.531 3.09872 103.475 3.12223C103.418 3.14575 103.368 3.18346 103.33 3.23172C103.295 3.27964 103.273 3.33526 103.265 3.39373C103.257 3.45219 103.264 3.51171 103.284 3.5671C103.331 3.71193 103.7 4.79576 103.9 5.34045C103.95 5.47297 104.043 5.58482 104.165 5.65777C104.287 5.73072 104.43 5.76047 104.571 5.74216L106.21 5.73952C106.285 5.74905 106.361 5.74061 106.432 5.7149C106.503 5.6892 106.566 5.64698 106.617 5.59178C106.657 5.53268 106.681 5.46421 106.686 5.39318C106.691 5.32215 106.677 5.25103 106.646 5.1869C106.445 4.59755 106.102 3.59168 106.067 3.48517" fill="#1A1311"/>
<path d="M36.1489 17.681C36.1559 18.1174 36.0322 18.546 35.7937 18.9123C35.5551 19.2786 35.2125 19.566 34.8093 19.738C34.4061 19.91 33.9606 19.9588 33.5295 19.8782C33.0983 19.7976 32.701 19.5912 32.3881 19.2853C32.0752 18.9794 31.8608 18.5878 31.7722 18.1604C31.6835 17.7329 31.7247 17.2889 31.8904 16.8847C32.0561 16.4806 32.3389 16.1346 32.7028 15.8909C33.0667 15.6471 33.4952 15.5165 33.9339 15.5157C34.5162 15.5106 35.0767 15.7359 35.4921 16.142C35.9075 16.548 36.1437 17.1016 36.1489 17.681Z" fill="#009DE8"/>
<path d="M37.4705 2.27138C37.5619 2.06718 37.6093 1.84618 37.6096 1.62263C37.6099 1.39908 37.5631 1.17795 37.4723 0.973505C37.3814 0.769058 37.2484 0.585836 37.082 0.435658C36.9156 0.28548 36.7193 0.171683 36.506 0.101606C35.5904 -0.225842 34.6942 0.273391 34.2235 1.09426C33.4622 2.42282 29.5158 9.7546 28.8541 10.9706C28.1925 12.1865 27.3592 13.9237 26.6662 13.6594C26.0287 13.4163 25.2796 10.7523 24.9593 9.99061C24.3922 8.63853 23.2386 7.0322 21.3131 7.44105C19.8412 7.75159 19.0051 8.88695 17.674 11.3918C16.943 12.7674 16.4845 13.6745 15.8192 14.5651C14.4517 16.394 13.6814 13.3885 13.2299 11.835C12.6237 9.74931 11.5176 6.79884 9.10604 6.80228C7.75826 6.80439 6.32203 7.57822 4.53411 10.4164C3.49127 12.0716 1.05071 16.7069 0.690793 17.5325C0.592245 17.7313 0.535905 17.9482 0.525283 18.1697C0.514661 18.3911 0.549984 18.6124 0.629053 18.8197C0.708121 19.0269 0.829241 19.2158 0.984866 19.3745C1.14049 19.5331 1.32729 19.6582 1.53362 19.7419C2.42904 20.1177 3.30852 19.7274 3.83578 18.9226C5.55039 16.3104 6.02108 15.2903 6.89817 14.0891C7.83768 12.8124 9.11374 11.6667 10.0904 14.7372C10.7051 16.6693 11.7795 19.8378 14.6722 19.8582C16.4128 19.8701 18.2148 18.3962 19.0584 16.9907C20.0115 15.4018 20.2506 14.5535 20.9776 13.7865C21.3495 13.3959 21.9004 13.2545 22.4223 14.3896C22.927 15.4869 23.9685 18.9551 25.8247 19.7113C28.4453 20.7784 30.9117 15.5802 31.7633 13.9234C32.4504 12.5875 37.1679 2.97438 37.4705 2.2727" fill="#009DE8"/>
<path d="M58.7758 3.74922C58.6974 3.68102 58.6062 3.6289 58.5075 3.59584C58.4088 3.56278 58.3046 3.54942 58.2007 3.55655H58.2132C57.437 3.55655 42.2757 3.5769 42.2757 3.5769C42.1971 3.57629 42.1192 3.5925 42.0474 3.62441C41.9756 3.65633 41.9115 3.70321 41.8595 3.7619C41.7702 3.86618 41.7217 3.99891 41.7227 4.13586V6.11456C41.7272 6.25706 41.7877 6.39213 41.891 6.4909C41.9943 6.58967 42.1324 6.64431 42.2757 6.64313H42.3655L53.9831 6.62754H54.4548C54.793 6.62754 54.8875 6.68753 54.9667 6.78981C55.1423 7.01604 54.9603 7.3752 54.9356 7.46109C54.5964 8.75676 53.9886 9.96751 53.1512 11.0156C52.3138 12.0636 51.2653 12.9258 50.0731 13.5468L49.9368 13.6179L49.8455 13.4952C49.2529 12.6976 48.8071 12.1474 48.2916 11.5091L48.2183 11.4143C48.137 11.2956 48.0307 11.196 47.9069 11.1222C47.783 11.0485 47.6446 11.0024 47.5011 10.9872L44.8111 10.9911C44.7328 10.9858 44.6547 11.0051 44.588 11.0462C44.5213 11.0874 44.4692 11.1484 44.4392 11.2205C44.4118 11.2874 44.4012 11.3599 44.4084 11.4318C44.4156 11.5036 44.4403 11.5726 44.4804 11.6328C46.455 14.1134 48.2273 16.747 49.7804 19.5085C49.8383 19.6166 49.9252 19.7066 50.0314 19.7686C50.1376 19.8305 50.2589 19.862 50.382 19.8595H53.2991C53.3679 19.8598 53.4352 19.8404 53.4932 19.8036C53.5511 19.7668 53.5972 19.7142 53.6258 19.652C53.6598 19.5932 53.6776 19.5265 53.6776 19.4587C53.6776 19.3909 53.6598 19.3242 53.6258 19.2654C53.1382 18.3373 52.588 17.4432 51.979 16.5892L51.8812 16.4473L52.0246 16.349C55.4334 13.9961 58.6209 11.0012 58.9237 4.22519C58.9333 4.14004 58.9251 4.05382 58.8997 3.97196C58.8742 3.8901 58.832 3.8141 58.7758 3.74922Z" fill="#1A1311"/>
<path d="M75.161 3.52688C75.1073 3.46635 75.0406 3.41855 74.9658 3.38695C74.8911 3.35535 74.8102 3.34077 74.7291 3.34426C74.4231 3.34796 72.9707 3.35483 72.0854 3.358C71.9534 3.3655 71.8256 3.4073 71.7149 3.47922C71.6041 3.55114 71.5143 3.65067 71.4543 3.7679C69.9423 7.16317 65.5534 9.72673 59.5219 10.7162C59.1322 10.7915 58.9447 11.0162 58.9375 11.2728L58.941 13.3186C58.9394 13.393 58.9544 13.4667 58.9849 13.5346C59.0154 13.6025 59.0606 13.6629 59.1173 13.7113C59.1837 13.7684 59.2613 13.811 59.3452 13.8362C59.4292 13.8615 59.5175 13.8689 59.6045 13.858C62.5213 13.5086 64.7674 12.942 66.5407 12.142L66.7923 12.0281L66.8024 19.2885C66.8028 19.362 66.818 19.4346 66.8472 19.5021C66.8764 19.5695 66.919 19.6304 66.9724 19.6812C67.0257 19.7319 67.0888 19.7715 67.1579 19.7975C67.2269 19.8235 67.3005 19.8354 67.3743 19.8324H67.4927L69.6517 19.8293C69.7868 19.825 69.9154 19.7708 70.0125 19.6774C70.1096 19.5839 70.1683 19.4578 70.1771 19.3237L70.1636 10.4683L70.2411 10.4155C72.5213 8.88974 74.5039 6.39436 75.2575 3.95766C75.2754 3.88319 75.2761 3.80565 75.2596 3.73086C75.2431 3.65607 75.2097 3.58597 75.1621 3.52582" fill="#1A1311"/>
<path d="M87.3569 10.5995L87.3659 10.4348L92.4587 10.4213C92.6056 10.4199 92.746 10.361 92.8495 10.2572C92.9452 10.1581 93.0018 10.0279 93.0088 9.89064L93.0056 7.92172C93.008 7.78486 92.9573 7.65234 92.8641 7.55172C92.8116 7.49468 92.7476 7.44943 92.6762 7.41899C92.6048 7.38854 92.5276 7.37361 92.45 7.37518H92.3934L87.3925 7.37677L87.389 3.86681C87.3889 3.7926 87.3736 3.71918 87.3441 3.65103C87.3146 3.58288 87.2714 3.52142 87.2173 3.47037C87.1632 3.41932 87.0992 3.37976 87.0292 3.3541C86.9592 3.32843 86.8847 3.31719 86.8102 3.32106H86.7305L84.5612 3.32449C84.4894 3.32383 84.4182 3.33731 84.3517 3.36414C84.2852 3.39098 84.2247 3.43065 84.1736 3.48086C84.1226 3.53108 84.082 3.59085 84.0543 3.65672C84.0266 3.7226 84.0123 3.79328 84.0121 3.86469L84.0167 7.381L76.3757 7.38919C76.2981 7.38681 76.2208 7.40036 76.1487 7.42901C76.0766 7.45766 76.0112 7.50078 75.9565 7.55569C75.8539 7.66211 75.798 7.80468 75.8009 7.95212L75.8041 9.93029C75.8064 10.0019 75.8229 10.0723 75.8527 10.1375C75.8825 10.2027 75.925 10.2614 75.9777 10.3102C76.0305 10.359 76.0924 10.3969 76.1599 10.4217C76.2274 10.4465 76.2992 10.4578 76.3712 10.4549H76.4445L83.9912 10.4409L83.9789 10.6259C83.7109 14.9115 81.6149 16.1344 77.6762 16.9256C77.333 17.0049 77.1372 17.1712 77.1372 17.4645L77.1404 19.4995C77.139 19.57 77.1541 19.6398 77.1845 19.7034C77.2149 19.7671 77.2597 19.8229 77.3155 19.8663C77.4324 19.9605 77.5809 20.007 77.7309 19.9964C84.329 19.101 87.0195 16.392 87.3566 10.5989" fill="#1A1311"/>
<path d="M109.96 7.50417C109.862 7.41357 109.734 7.36177 109.6 7.35855H109.506L98.456 7.37414L98.4496 3.86418C98.4511 3.79139 98.4379 3.71903 98.4108 3.6514C98.3837 3.58376 98.3433 3.52222 98.2919 3.4704C98.2355 3.4157 98.1687 3.37286 98.0954 3.34443C98.022 3.31601 97.9437 3.30258 97.865 3.30496H97.8475L95.7355 3.30813C95.6635 3.30802 95.5921 3.32206 95.5256 3.34944C95.459 3.37682 95.3986 3.417 95.3477 3.46768C95.2968 3.51836 95.2564 3.57853 95.2289 3.64476C95.2014 3.71099 95.1874 3.78196 95.1875 3.85361L95.205 15.6164C95.205 18.5441 96.3828 19.7752 99.6606 19.7752H99.9231L109.886 19.7575C110.022 19.7488 110.15 19.6898 110.245 19.592C110.34 19.4943 110.395 19.3648 110.399 19.2289L110.395 17.2285C110.395 17.1566 110.381 17.0854 110.354 17.019C110.326 16.9526 110.286 16.8922 110.234 16.8414C110.183 16.7905 110.123 16.7502 110.056 16.7227C109.989 16.6952 109.918 16.6811 109.845 16.6812L100.746 16.6902H100.733C99.9066 16.6902 99.2978 16.6373 98.944 16.354C98.5012 15.9909 98.4581 15.4668 98.4658 14.648L98.46 10.4195L109.573 10.4034C109.647 10.4048 109.719 10.3917 109.787 10.3646C109.855 10.3376 109.917 10.2973 109.969 10.246C110.021 10.1948 110.062 10.1337 110.09 10.0663C110.118 9.99898 110.132 9.92675 110.131 9.85393L110.128 7.89267C110.13 7.8196 110.115 7.7471 110.086 7.67999C110.057 7.61288 110.014 7.55268 109.96 7.50338" fill="#1A1311"/>
<path d="M124.659 19.7516H116.238C115.954 19.7463 115.683 19.6299 115.484 19.4276C115.285 19.2252 115.175 18.9531 115.176 18.6701C115.176 15.7601 117.301 14.2265 119.586 13.145C121.993 12.0046 123.196 11.5329 123.196 10.1956C123.196 9.07503 122.054 8.54382 120.449 8.54382C119.228 8.48053 118.02 8.82671 117.02 9.52695C116.866 9.62929 116.684 9.68441 116.499 9.68553C116.365 9.69417 116.231 9.67587 116.104 9.63172C115.977 9.58756 115.861 9.51846 115.762 9.42854C115.663 9.33861 115.583 9.22972 115.527 9.10836C115.471 8.987 115.44 8.85566 115.436 8.72221C115.436 7.95578 116.159 7.48351 117.381 6.99194C118.402 6.6169 119.481 6.42392 120.569 6.42188C123.517 6.42188 125.602 7.73907 125.602 10.1578C125.602 12.1827 124.198 13.3028 121.692 14.5227C119.507 15.5846 117.943 16.3516 117.943 17.6294H124.66C124.942 17.6303 125.212 17.7426 125.412 17.9417C125.611 18.1408 125.722 18.4104 125.722 18.6913C125.719 18.9711 125.606 19.2386 125.408 19.4369C125.209 19.6352 124.941 19.7486 124.66 19.7529" fill="#009DE8"/>
<path d="M133.48 19.9889C129.73 19.9889 127.625 16.8038 127.625 13.2053C127.625 9.60677 129.73 6.42188 133.48 6.42188C137.229 6.42188 139.335 9.60703 139.335 13.2053C139.335 16.8035 137.23 19.9889 133.48 19.9889ZM133.48 8.5454C131.514 8.5454 130.031 10.3938 130.031 13.2053C130.031 16.0167 131.515 17.8654 133.48 17.8654C135.445 17.8654 136.929 16.017 136.929 13.2053C136.929 10.3935 135.445 8.5454 133.48 8.5454Z" fill="#009DE8"/>
<path d="M150.754 19.7496H142.328C142.044 19.7441 141.773 19.6276 141.574 19.4252C141.375 19.2227 141.265 18.9506 141.266 18.6676C141.266 15.7565 143.392 14.2221 145.678 13.1401C148.086 11.9992 149.289 11.528 149.289 10.1896C149.289 9.06854 148.146 8.53732 146.541 8.53732C145.319 8.47402 144.111 8.82029 143.111 9.52073C142.956 9.62303 142.775 9.67814 142.589 9.6793C142.455 9.68787 142.321 9.66951 142.194 9.62531C142.068 9.58111 141.951 9.51198 141.852 9.42204C141.753 9.33211 141.673 9.22321 141.617 9.10185C141.561 8.9805 141.531 8.84917 141.527 8.71572C141.527 7.94929 142.249 7.47649 143.472 6.98465C144.494 6.60925 145.573 6.41609 146.662 6.41406C149.61 6.41406 151.697 7.73205 151.697 10.1516C151.697 12.1776 150.293 13.2989 147.786 14.5186C145.599 15.5808 144.034 16.348 144.034 17.6266H150.755C151.037 17.6277 151.308 17.7401 151.507 17.9392C151.706 18.1383 151.818 18.4078 151.817 18.6888C151.814 18.9686 151.701 19.2362 151.503 19.4346C151.304 19.633 151.036 19.7465 150.755 19.7509" fill="#009DE8"/>
<path d="M158.822 19.987C157.117 19.987 155.372 19.6135 154.048 18.5313C153.917 18.4292 153.809 18.3014 153.729 18.156C153.65 18.0105 153.601 17.8504 153.587 17.6856C153.581 17.5441 153.605 17.4031 153.656 17.271C153.707 17.1389 153.785 17.0185 153.884 16.9173C153.984 16.8161 154.103 16.7361 154.234 16.6822C154.366 16.6283 154.507 16.6016 154.649 16.6039C154.863 16.6047 155.071 16.6661 155.251 16.7809C156.454 17.5675 157.296 17.9612 158.821 17.9612C160.628 17.9612 161.79 17.0362 161.79 15.5811C161.79 14.1843 160.526 13.3191 159.022 13.3191C157.981 13.2956 156.952 13.5395 156.033 14.0271C155.854 14.121 155.654 14.1684 155.451 14.1648C154.628 14.1648 154.268 13.6336 154.348 13.063L155.231 7.61423C155.26 7.33811 155.395 7.08376 155.608 6.90419C155.82 6.72463 156.095 6.63371 156.373 6.65039H162.03C162.174 6.64649 162.317 6.67134 162.451 6.72346C162.585 6.77559 162.707 6.85393 162.811 6.95387C162.914 7.0538 162.996 7.17331 163.052 7.30531C163.108 7.43732 163.137 7.57916 163.137 7.72246C163.137 7.86575 163.108 8.00759 163.052 8.1396C162.996 8.27161 162.914 8.39111 162.811 8.49104C162.707 8.59098 162.585 8.66932 162.451 8.72145C162.317 8.77357 162.174 8.79842 162.03 8.79453H157.275L156.793 11.7648C157.54 11.4346 158.344 11.2541 159.16 11.2336C162.39 11.2336 164.195 13.0434 164.195 15.5021C164.195 18.3151 161.788 19.987 158.82 19.987" fill="#009DE8"/>
</g>
</g>
<defs>
<clipPath id="clip0_1793_444">
<rect width="164.828" height="20" fill="white"/>
</clipPath>
</defs>
</svg>
