<svg width="161" height="20" viewBox="0 0 161 20" fill="none" xmlns="http://www.w3.org/2000/svg">
<mask id="mask0_1793_469" style="mask-type:luminance" maskUnits="userSpaceOnUse" x="0" y="0" width="161" height="20">
<path d="M160.714 0H0V20H160.714V0Z" fill="white"/>
</mask>
<g mask="url(#mask0_1793_469)">
<path d="M121.547 19.754H113.3C113.02 19.746 112.754 19.6282 112.56 19.4259C112.366 19.2237 112.259 18.9531 112.262 18.6725C112.262 15.7626 114.342 14.2284 116.581 13.1478C118.937 12.0072 120.115 11.5353 120.115 10.1987C120.115 9.07886 118.997 8.54695 117.425 8.54695C116.228 8.4849 115.046 8.83148 114.071 9.52999C113.92 9.63261 113.743 9.68828 113.56 9.68997C113.429 9.6974 113.297 9.67826 113.173 9.63367C113.049 9.58908 112.935 9.51995 112.838 9.43041C112.741 9.34086 112.663 9.23272 112.609 9.11242C112.555 8.99211 112.525 8.8621 112.522 8.73012C112.522 7.96304 113.229 7.49112 114.427 7C115.425 6.62515 116.482 6.43201 117.548 6.42969C120.435 6.42969 122.476 7.74708 122.476 10.1659C122.476 12.1912 121.102 13.3118 118.648 14.5308C116.508 15.593 114.974 16.3593 114.974 17.6375H121.547C121.825 17.6411 122.09 17.7549 122.285 17.9539C122.479 18.153 122.587 18.4212 122.585 18.6997C122.584 18.9772 122.475 19.2432 122.281 19.4414C122.087 19.6396 121.824 19.7543 121.547 19.7612" fill="#00AAEB"/>
<path d="M130.182 19.9885C126.508 19.9885 124.449 16.8034 124.449 13.2048C124.449 9.60617 126.511 6.42188 130.182 6.42188C133.854 6.42188 135.915 9.60697 135.915 13.2048C135.915 16.8026 133.854 19.9885 130.182 19.9885ZM130.182 8.54474C128.258 8.54474 126.805 10.3932 126.805 13.2048C126.805 16.0163 128.258 17.8648 130.182 17.8648C132.106 17.8648 133.559 16.0163 133.559 13.2048C133.559 10.3932 132.106 8.54474 130.182 8.54474Z" fill="#00AAEB"/>
<path d="M147.108 19.754H138.863C138.583 19.746 138.317 19.6282 138.123 19.4259C137.928 19.2237 137.821 18.9531 137.824 18.6725C137.824 15.7626 139.905 14.2284 142.144 13.1478C144.5 12.0072 145.678 11.5353 145.678 10.1987C145.678 9.07886 144.56 8.54695 142.988 8.54695C141.791 8.48484 140.608 8.83142 139.633 9.52999C139.483 9.63261 139.305 9.68828 139.123 9.68997C138.991 9.6974 138.86 9.67826 138.735 9.63367C138.611 9.58908 138.498 9.51995 138.401 9.43041C138.304 9.34086 138.226 9.23272 138.172 9.11242C138.117 8.99211 138.088 8.8621 138.085 8.73012C138.085 7.96304 138.792 7.49112 139.99 7C140.988 6.62515 142.045 6.43201 143.111 6.42969C145.997 6.42969 148.039 7.74708 148.039 10.1659C148.039 12.1912 146.664 13.3118 144.211 14.5308C142.07 15.593 140.537 16.3593 140.537 17.6375H147.114C147.392 17.6411 147.658 17.7549 147.852 17.9539C148.047 18.153 148.155 18.4212 148.152 18.6997C148.151 18.9772 148.042 19.2432 147.848 19.4414C147.654 19.6396 147.391 19.7543 147.114 19.7612" fill="#00AAEB"/>
<path d="M107.409 5.17991C107.242 4.68079 106.984 3.88332 106.888 3.58577L106.859 3.49698C106.822 3.37355 106.744 3.26622 106.639 3.19212C106.533 3.11803 106.406 3.08146 106.278 3.08825H104.49C104.429 3.08122 104.368 3.0903 104.312 3.11459C104.256 3.13888 104.207 3.17752 104.171 3.22662C104.137 3.2741 104.116 3.32896 104.108 3.38649C104.101 3.44402 104.107 3.50251 104.127 3.55697C104.171 3.69535 104.533 4.77998 104.731 5.33109C104.78 5.46193 104.871 5.57259 104.99 5.64517C105.109 5.71775 105.249 5.748 105.387 5.73102H106.984C107.238 5.73102 107.337 5.65104 107.389 5.58145C107.426 5.52185 107.447 5.45411 107.451 5.3843C107.455 5.3145 107.441 5.24482 107.412 5.18151" fill="black"/>
<path d="M103.342 3.48593C103.303 3.36637 103.225 3.26323 103.121 3.19273C103.017 3.12222 102.893 3.08833 102.767 3.09639H100.98C100.92 3.08891 100.858 3.09738 100.802 3.12096C100.746 3.14453 100.697 3.18239 100.66 3.23077C100.627 3.2789 100.605 3.3345 100.597 3.39285C100.589 3.4512 100.596 3.51057 100.616 3.56591C100.662 3.71069 101.023 4.79452 101.219 5.33923C101.267 5.47056 101.358 5.58167 101.477 5.65434C101.596 5.72701 101.737 5.75692 101.875 5.73917H103.481C103.554 5.74869 103.629 5.7402 103.698 5.71443C103.768 5.68865 103.83 5.64637 103.88 5.59119C103.919 5.53182 103.942 5.46339 103.947 5.39249C103.952 5.3216 103.938 5.25064 103.908 5.18646C103.711 4.59695 103.375 3.59151 103.341 3.48513" fill="black"/>
<path d="M34.8774 17.6731C34.8781 18.1019 34.7517 18.5213 34.5144 18.8783C34.277 19.2352 33.9393 19.5136 33.5439 19.6784C33.1485 19.8431 32.7133 19.8867 32.2932 19.8037C31.873 19.7207 31.4869 19.5149 31.1836 19.2121C30.8803 18.9094 30.6735 18.5234 30.5892 18.1029C30.5049 17.6825 30.5471 17.2464 30.7102 16.8499C30.8734 16.4535 31.1503 16.1143 31.506 15.8754C31.8616 15.6365 32.2799 15.5086 32.7082 15.5078C33.2825 15.507 33.8337 15.7346 34.2405 16.1406C34.6473 16.5467 34.8764 17.0979 34.8774 17.6731Z" fill="#00AAEB"/>
<path d="M36.1679 2.27009C36.258 2.06649 36.3048 1.84637 36.3054 1.62369C36.306 1.401 36.2603 1.18063 36.1713 0.97657C36.0823 0.772505 35.9519 0.589204 35.7884 0.438306C35.6249 0.287409 35.4318 0.172213 35.2215 0.100033C34.7919 -0.0342574 34.3282 -0.00761536 33.9168 0.174998C33.5054 0.357612 33.1743 0.683748 32.9851 1.09267C32.2399 2.42126 28.375 9.75289 27.7273 10.9687C27.0795 12.1845 26.2632 13.9218 25.5843 13.6571C24.9613 13.4171 24.2265 10.7495 23.9126 9.98805C23.3536 8.63627 22.2274 7.02852 20.3424 7.43806C18.9048 7.74841 18.0821 8.88423 16.7786 11.3886C16.255 12.4912 15.6479 13.552 14.9624 14.5617C13.6245 16.391 12.8698 13.3851 12.4273 11.8318C11.8339 9.74649 10.75 6.79256 8.38904 6.79896C7.06959 6.79896 5.66307 7.57484 3.91231 10.4128C2.89556 12.0701 0.505842 16.7054 0.152815 17.5308C0.0560821 17.7292 0.000733985 17.9451 -0.00984838 18.1656C-0.0204307 18.386 0.0139748 18.6063 0.0912667 18.813C0.168559 19.0197 0.287114 19.2084 0.439691 19.3677C0.592268 19.527 0.775663 19.6534 0.978674 19.7393C1.38895 19.9069 1.84673 19.9159 2.26331 19.7648C2.67989 19.6136 3.02559 19.3129 3.23341 18.921C4.91069 16.3086 5.37314 15.2888 6.23175 14.0874C7.15185 12.8076 8.40103 11.6646 9.35787 14.7353C9.9601 16.6678 11.012 19.8369 13.8442 19.8545C15.5486 19.8665 17.313 18.3923 18.1388 16.9869C19.0717 15.3984 19.3065 14.5497 20.0182 13.7826C20.3816 13.3923 20.9215 13.2507 21.4327 14.3857C21.9263 15.4832 22.9502 18.9514 24.7641 19.7073C27.3303 20.7743 29.7456 15.576 30.5794 13.9186C31.2519 12.5828 35.8716 2.96917 36.1703 2.26769" fill="#00AAEB"/>
<path d="M57.0305 3.74902C56.9546 3.68147 56.8662 3.62965 56.7702 3.59656C56.6742 3.56347 56.5726 3.54977 56.4714 3.55625H56.4833L40.8775 3.57625C40.8003 3.57565 40.724 3.59179 40.6537 3.62355C40.5834 3.6553 40.5208 3.70193 40.4701 3.76022C40.3824 3.86508 40.3349 3.99778 40.336 4.13456V6.11344C40.3393 6.25497 40.3979 6.38956 40.4991 6.48838C40.6003 6.58721 40.7361 6.64241 40.8775 6.64216H40.9653L52.3397 6.62696H52.8013C53.1328 6.62696 53.2246 6.68695 53.3029 6.78694C53.4746 7.0133 53.2965 7.37244 53.2726 7.45803C52.9449 8.74805 52.3522 9.95549 51.5325 11.0033C50.7127 12.0511 49.6838 12.9162 48.5115 13.5435L48.3781 13.6146L48.2886 13.4923C47.708 12.6924 47.2719 12.1437 46.7671 11.5062L46.6952 11.411C46.6165 11.2929 46.513 11.1935 46.3918 11.1197C46.2707 11.0459 46.1349 10.9995 45.994 10.9839H43.3582C43.2811 10.9788 43.2044 10.9983 43.139 11.0395C43.0736 11.0807 43.0228 11.1416 42.994 11.2134C42.9672 11.2803 42.9568 11.3526 42.9638 11.4243C42.9707 11.496 42.9948 11.565 43.034 11.6254C44.97 14.1085 46.706 16.7416 48.2256 19.5001C48.2814 19.6078 48.3662 19.6977 48.4703 19.7597C48.5745 19.8218 48.6938 19.8535 48.815 19.8512H51.6712C51.7387 19.8513 51.8048 19.8317 51.8615 19.795C51.9182 19.7582 51.963 19.7058 51.9906 19.6441C52.0238 19.5851 52.0412 19.5186 52.0412 19.4509C52.0412 19.3832 52.0238 19.3167 51.9906 19.2577C51.5134 18.3304 50.9744 17.4362 50.3773 16.5814L50.2814 16.4398L50.422 16.3414C53.7606 13.9906 56.8835 10.9959 57.179 4.22015C57.1891 4.1345 57.1814 4.04769 57.1566 3.96513C57.1317 3.88257 57.0901 3.80601 57.0344 3.74022" fill="black"/>
<path d="M73.0746 3.51877C73.0224 3.45855 72.9573 3.41088 72.8842 3.37931C72.811 3.34774 72.7317 3.33307 72.6521 3.3364C72.3526 3.3364 70.9301 3.3468 70.0635 3.35C69.9336 3.35799 69.808 3.40013 69.6995 3.47216C69.591 3.5442 69.5033 3.64359 69.4453 3.76033C67.9645 7.15659 63.6667 9.72018 57.7603 10.7088C57.3785 10.784 57.1956 11.0088 57.1876 11.2687V13.3148C57.186 13.3889 57.2006 13.4625 57.2304 13.5303C57.2602 13.5982 57.3045 13.6587 57.3601 13.7075C57.425 13.7647 57.5013 13.8074 57.5839 13.8326C57.6666 13.8579 57.7537 13.8651 57.8394 13.8539C60.1767 13.6335 62.4664 13.0549 64.6283 12.1382L64.8743 12.0246L64.8839 19.285C64.8838 19.3579 64.8983 19.43 64.9265 19.4971C64.9548 19.5642 64.9962 19.6249 65.0484 19.6757C65.1005 19.7264 65.1623 19.7661 65.2301 19.7925C65.2979 19.8188 65.3703 19.8312 65.443 19.829H65.5588H67.673C67.8061 19.8236 67.9324 19.7689 68.0275 19.6755C68.1226 19.5821 68.1795 19.4566 68.1874 19.3234L68.1738 10.4681L68.2537 10.4161C70.541 8.84746 72.2633 6.58302 73.1657 3.9579C73.1833 3.88348 73.184 3.80607 73.1678 3.73133C73.1516 3.6566 73.119 3.58643 73.0722 3.52597" fill="black"/>
<path d="M85.0137 10.6013L85.0224 10.4365L90.0096 10.4229C90.081 10.4221 90.1515 10.4073 90.2172 10.3791C90.2828 10.351 90.3423 10.3101 90.3921 10.2589C90.4856 10.1591 90.5405 10.0293 90.5471 9.89259V7.92331C90.5486 7.85121 90.5356 7.77955 90.5088 7.7126C90.4821 7.64565 90.4421 7.58479 90.3913 7.53365C90.3406 7.48251 90.28 7.44213 90.2133 7.41494C90.1466 7.38775 90.0752 7.3743 90.0032 7.37539H89.9488H85.052V3.86636C85.0524 3.79277 85.0379 3.71986 85.0093 3.65208C84.9807 3.58429 84.9386 3.52302 84.8857 3.47201C84.8327 3.42099 84.7699 3.38128 84.7012 3.3553C84.6324 3.32931 84.5591 3.31759 84.4857 3.32084H84.4058H82.2813C82.2073 3.32007 82.1341 3.33491 82.0662 3.3644C81.9984 3.3939 81.9375 3.43738 81.8875 3.49202C81.7953 3.59261 81.744 3.72417 81.7438 3.86076L81.7486 7.38019L74.2663 7.38819C74.1901 7.38588 74.1142 7.39948 74.0436 7.42813C73.9729 7.45677 73.9089 7.49983 73.8558 7.55457C73.7552 7.66119 73.7004 7.80306 73.7032 7.9497V9.92779C73.705 9.99918 73.7209 10.0695 73.75 10.1347C73.7792 10.1999 73.821 10.2586 73.873 10.3074C73.9251 10.3563 73.9863 10.3942 74.0531 10.4191C74.12 10.444 74.1911 10.4554 74.2623 10.4525H74.3342L81.7238 10.4381L81.7118 10.6237C81.4491 14.9094 79.3956 16.1324 75.5403 16.9235C75.204 17.0035 75.0123 17.169 75.0123 17.4626V19.4991C75.0108 19.5694 75.0255 19.6391 75.0553 19.7028C75.085 19.7664 75.1291 19.8224 75.184 19.8662C75.2979 19.96 75.4435 20.0064 75.5906 19.9958C82.0513 19.1007 84.6862 16.3916 85.0153 10.5981" fill="black"/>
<path d="M107.152 7.50426C107.057 7.4139 106.931 7.36206 106.8 7.35868H106.708L95.8871 7.37388L95.8808 3.86404C95.8823 3.7915 95.8695 3.71936 95.843 3.65181C95.8166 3.58426 95.777 3.52263 95.7266 3.4705C95.6719 3.41594 95.6066 3.37312 95.5348 3.34466C95.4629 3.31619 95.3861 3.30267 95.3089 3.30493H95.2921H93.2243C93.1532 3.30535 93.083 3.3198 93.0175 3.34746C92.9521 3.37512 92.8927 3.41545 92.8428 3.46613C92.793 3.5168 92.7536 3.57684 92.7269 3.64278C92.7003 3.70873 92.6869 3.7793 92.6875 3.85044L92.7043 15.6134C92.7043 18.5409 93.8576 19.7727 97.0676 19.7727H97.3248L107.08 19.7551C107.215 19.7454 107.34 19.686 107.434 19.5884C107.527 19.4908 107.58 19.362 107.583 19.2272V17.2275C107.584 17.1562 107.57 17.0855 107.544 17.0194C107.517 16.9533 107.477 16.8931 107.427 16.8423C107.377 16.7915 107.318 16.751 107.252 16.7233C107.187 16.6955 107.116 16.6809 107.045 16.6804L98.1347 16.6892H98.1227C97.5179 16.7646 96.9047 16.647 96.3704 16.3532C95.9367 15.9901 95.8911 15.4662 95.9023 14.6471L95.8967 10.419L106.779 10.403C106.851 10.4039 106.923 10.3902 106.99 10.3629C107.056 10.3355 107.117 10.295 107.168 10.2438C107.219 10.1925 107.259 10.1316 107.286 10.0645C107.313 9.9975 107.326 9.92573 107.325 9.85348V7.8922C107.326 7.81927 107.312 7.74688 107.283 7.67976C107.255 7.61263 107.213 7.55228 107.159 7.50266" fill="black"/>
<path d="M152.683 12.925C153.136 12.4695 153.68 12.1134 154.278 11.8793C154.876 11.6452 155.516 11.5382 156.158 11.5652C158.986 11.5652 160.711 13.3937 160.711 15.7142C160.711 18.1522 158.571 19.9807 155.626 19.9807C152.072 19.9807 150.207 17.857 150.207 15.0655C150.207 11.1925 152.249 8.95046 154.644 7.4363C155.526 6.82866 156.558 6.47509 157.628 6.41406C158.177 6.41406 158.586 6.70922 158.586 7.24033C158.586 7.81064 158.154 8.0666 157.291 8.45934C155.426 9.3048 153.443 10.6806 152.677 12.9226M155.661 13.5513C154.07 13.5513 152.853 14.436 152.853 15.7534C152.853 17.1691 153.933 17.993 155.582 17.993C157.035 17.993 158.351 17.1667 158.351 15.7318C158.351 14.452 157.428 13.5489 155.661 13.5489" fill="#00AAEB"/>
</g>
</svg>
