<svg width="101" height="44" viewBox="0 0 101 44" fill="none" xmlns="http://www.w3.org/2000/svg">
<path d="M100.068 31.5276C100.068 35.8398 96.2834 40.2079 91.4348 40.2079C86.5861 40.2079 82.2891 36.7127 82.2891 31.5066V13.0355C82.2891 9.38668 85.9361 4.64844 91.3259 4.64844C96.2202 4.64844 100.064 8.84546 100.064 13.0599V18.102H95.5667V13.3533C95.5667 11.157 93.3496 9.1667 91.2696 9.1667C88.5502 9.1667 86.7864 11.1116 86.7864 13.7932V31.6288C86.7864 33.6366 88.768 35.7141 91.2169 35.7141C93.3707 35.7141 95.5245 34.1359 95.5245 31.4787V26.7265H100.064V31.5206L100.068 31.5276Z" fill="#005BAC"/>
<path d="M83.1285 0.380859L73.8142 43.9294H73.375L82.6894 0.380859H83.1285Z" fill="#005BAC"/>
<path d="M57.2735 0.380859L47.9591 43.9294H47.5234L56.8343 0.380859H57.2735Z" fill="#005BAC"/>
<path d="M72.0314 9.36479V4.73828H63.2687H60.7003H58.6133V40.1162H60.7003H63.216H72.0314V35.4897H63.223L63.2406 23.9252H72.0314V19.2987H63.2476L63.2617 9.36479H72.0314Z" fill="#005BAC"/>
<path d="M49.1912 4.73828H43.3025H38.3766H32.4844V9.36479H38.3766V40.1162H43.2428L43.2955 9.36479H49.1912V4.73828Z" fill="#005BAC"/>
<path d="M13.0157 8.87891C10.5703 8.87891 8.57812 10.8587 8.57812 13.2959V31.5575C8.57812 33.9912 10.5668 35.9745 13.0157 35.9745C15.4646 35.9745 17.4533 33.9947 17.4533 31.5575V13.2959C17.4533 10.8622 15.4646 8.87891 13.0157 8.87891Z" fill="#005BAC"/>
<path d="M0.472656 0.380859V43.9259H22.1054L31.4198 0.380859H0.472656ZM21.7225 31.5583C21.7225 36.3384 17.8154 40.2247 13.0124 40.2247C8.20944 40.2247 4.3024 36.3349 4.3024 31.5583V13.2967C4.3024 8.51653 8.20944 4.63026 13.0124 4.63026C17.8154 4.63026 21.7225 8.52002 21.7225 13.2967V31.5583Z" fill="#005BAC"/>
</svg>
