<svg xmlns="http://www.w3.org/2000/svg" width="205.008" height="25.563" viewBox="0 0 205.008 25.563">
  <g id="LOGODATA" transform="translate(-0.002)">
    <path id="パス_3578" data-name="パス 3578" d="M155.62,25.25H145.06a1.366,1.366,0,0,1-1.33-1.38c0-3.72,2.66-5.68,5.53-7.06,3.02-1.46,4.52-2.06,4.52-3.77,0-1.43-1.43-2.11-3.44-2.11a6.769,6.769,0,0,0-4.3,1.26,1.135,1.135,0,0,1-.65.2,1.261,1.261,0,0,1-1.33-1.23c0-.98.91-1.58,2.44-2.21a11.41,11.41,0,0,1,4-.73c3.7,0,6.31,1.68,6.31,4.78,0,2.59-1.76,4.02-4.9,5.58-2.74,1.36-4.7,2.34-4.7,3.97h8.42a1.36,1.36,0,0,1,0,2.72Z" fill="#00abeb"/>
    <path id="パス_3579" data-name="パス 3579" d="M166.68,25.56c-4.7,0-7.34-4.07-7.34-8.67s2.64-8.67,7.34-8.67,7.34,4.07,7.34,8.67S171.38,25.56,166.68,25.56Zm0-14.63c-2.46,0-4.32,2.36-4.32,5.96s1.86,5.96,4.32,5.96S171,20.49,171,16.89s-1.86-5.96-4.32-5.96Z" fill="#00abeb"/>
    <path id="パス_3580" data-name="パス 3580" d="M188.35,25.25H177.79a1.366,1.366,0,0,1-1.33-1.38c0-3.72,2.66-5.68,5.53-7.06,3.02-1.46,4.52-2.06,4.52-3.77,0-1.43-1.43-2.11-3.44-2.11a6.769,6.769,0,0,0-4.3,1.26,1.135,1.135,0,0,1-.65.2,1.261,1.261,0,0,1-1.33-1.23c0-.98.91-1.58,2.44-2.21a11.41,11.41,0,0,1,4-.73c3.7,0,6.31,1.68,6.31,4.78,0,2.59-1.76,4.02-4.9,5.58-2.74,1.36-4.7,2.34-4.7,3.97h8.42a1.36,1.36,0,0,1,0,2.72Z" fill="#00abeb"/>
    <path id="パス_3581" data-name="パス 3581" d="M137.52,6.63c-.21-.64-.54-1.66-.67-2.04l-.04-.11a.726.726,0,0,0-.74-.52h-2.29a.456.456,0,0,0-.41.18.471.471,0,0,0-.06.42c.05.18.52,1.56.77,2.27a.8.8,0,0,0,.84.51h2.04a.591.591,0,0,0,.52-.19.558.558,0,0,0,.03-.52"/>
    <path id="パス_3582" data-name="パス 3582" d="M132.31,4.46a.724.724,0,0,0-.74-.5h-2.29a.473.473,0,0,0-.41.17.458.458,0,0,0-.06.43c.06.18.52,1.57.77,2.27a.793.793,0,0,0,.84.51h2.06a.6.6,0,0,0,.51-.19.566.566,0,0,0,.04-.52c-.25-.75-.68-2.04-.73-2.18"/>
    <path id="パス_3583" data-name="パス 3583" d="M44.65,22.6a2.775,2.775,0,1,1-2.78-2.77,2.785,2.785,0,0,1,2.78,2.77" fill="#00abeb"/>
    <path id="パス_3584" data-name="パス 3584" d="M46.31,2.9A2.05,2.05,0,0,0,45.1.13,2.372,2.372,0,0,0,42.24,1.4c-.95,1.7-5.9,11.07-6.73,12.63s-1.87,3.78-2.74,3.44c-.8-.31-1.74-3.72-2.14-4.69-.71-1.73-2.16-3.78-4.57-3.26-1.85.4-2.89,1.85-4.56,5.05a30.318,30.318,0,0,1-2.33,4.06c-1.71,2.34-2.68-1.5-3.25-3.49-.76-2.67-2.15-6.44-5.17-6.43-1.69,0-3.49.99-5.73,4.62C3.71,15.43.65,21.36.2,22.42a2.071,2.071,0,0,0,1.06,2.82,2.294,2.294,0,0,0,2.89-1.05c2.15-3.34,2.74-4.64,3.84-6.18,1.18-1.63,2.78-3.1,4,.83.77,2.47,2.12,6.52,5.74,6.55,2.18.02,4.44-1.87,5.5-3.67,1.19-2.03,1.49-3.12,2.41-4.1.47-.5,1.16-.68,1.81.77.63,1.4,1.94,5.84,4.27,6.8,3.29,1.36,6.38-5.28,7.44-7.4.86-1.71,6.78-14,7.16-14.9" fill="#00abeb"/>
    <path id="パス_3585" data-name="パス 3585" d="M73.02,4.79a.971.971,0,0,0-.72-.25h.02c-.97,0-19.98.03-19.98.03a.687.687,0,0,0-.52.23.735.735,0,0,0-.17.48V7.81a.7.7,0,0,0,.69.68h.11l14.56-.02h.59c.42,0,.54.08.64.21.22.29,0,.75-.04.86a12.227,12.227,0,0,1-6.1,7.78l-.17.09-.11-.16c-.74-1.02-1.3-1.72-1.95-2.54l-.09-.12a1.249,1.249,0,0,0-.9-.55H55.51a.486.486,0,0,0-.47.3.57.57,0,0,0,.05.53,75.144,75.144,0,0,1,6.64,10.07.831.831,0,0,0,.75.45h3.66a.439.439,0,0,0,.41-.27.493.493,0,0,0,0-.49,28.253,28.253,0,0,0-2.07-3.42l-.12-.18.18-.13c4.27-3.01,8.27-6.83,8.65-15.5A.857.857,0,0,0,73,4.79"/>
    <path id="パス_3586" data-name="パス 3586" d="M93.56,4.5a.642.642,0,0,0-.54-.23c-.38,0-2.2.01-3.31.02a.949.949,0,0,0-.79.52c-1.9,4.34-7.4,7.62-14.96,8.88-.49.1-.72.38-.73.71v2.62a.671.671,0,0,0,.22.5.8.8,0,0,0,.61.19,29.6,29.6,0,0,0,8.7-2.19l.32-.15v9.28a.715.715,0,0,0,.73.7h2.86a.692.692,0,0,0,.66-.65l-.02-11.32.1-.07A16.538,16.538,0,0,0,93.7,5.05a.63.63,0,0,0-.12-.55"/>
    <path id="パス_3587" data-name="パス 3587" d="M108.85,13.55v-.21l6.4-.02a.709.709,0,0,0,.49-.21.743.743,0,0,0,.2-.47V10.12a.7.7,0,0,0-.7-.7H108.9V4.94a.694.694,0,0,0-.73-.7h-2.82a.665.665,0,0,0-.5.22.693.693,0,0,0-.18.47v4.5l-9.57.01a.713.713,0,0,0-.53.21.724.724,0,0,0-.2.51v2.53a.691.691,0,0,0,.71.67h.09l9.46-.02-.02.24c-.34,5.48-2.96,7.04-7.9,8.05-.43.1-.68.31-.68.69v2.6a.575.575,0,0,0,.22.47.759.759,0,0,0,.52.17c8.27-1.14,11.65-4.61,12.07-12.01"/>
    <path id="パス_3588" data-name="パス 3588" d="M137.19,9.59a.661.661,0,0,0-.45-.19h-.12l-13.85.02V4.93a.668.668,0,0,0-.21-.5.738.738,0,0,0-.54-.21h-2.67a.693.693,0,0,0-.69.7l.02,15.04c0,3.74,1.48,5.32,5.59,5.32h.33l12.49-.02a.687.687,0,0,0,.64-.68V22.02a.693.693,0,0,0-.69-.7H125.63l-.02.01a3.7,3.7,0,0,1-2.24-.43c-.56-.46-.61-1.13-.6-2.18V13.31l13.93-.02a.689.689,0,0,0,.7-.7V10.08a.672.672,0,0,0-.22-.5"/>
    <path id="パス_3589" data-name="パス 3589" d="M204.75,10.54c-3.63,4.53-5.06,7.99-5.06,13.43a1.51,1.51,0,0,1-3.02,0c0-5.47,1.49-9.4,4.33-12.77h-8.21a1.36,1.36,0,0,1,0-2.72h10.83a1.215,1.215,0,0,1,1.39,1.34,1.116,1.116,0,0,1-.25.73Z" fill="#00abeb"/>
  </g>
</svg>
