<svg width="557" height="55" viewBox="0 0 557 55" fill="none" xmlns="http://www.w3.org/2000/svg">
<path d="M538.753 54.7956C534.821 54.7956 531.383 53.93 528.44 52.1989C525.522 50.443 523.247 48.007 521.614 44.8909C519.982 41.7501 519.166 38.0899 519.166 33.9104C519.166 29.533 519.97 25.7492 521.577 22.5589C523.185 19.3439 525.423 16.8709 528.292 15.1397C531.185 13.3838 534.573 12.5059 538.456 12.5059C542.487 12.5059 545.912 13.4333 548.732 15.2881C551.576 17.1429 553.703 19.7891 555.112 23.2267C556.547 26.6643 557.165 30.7572 556.967 35.5055H550.29V33.1314C550.216 28.2099 549.214 24.5374 547.285 22.1138C545.356 19.6654 542.487 18.4413 538.679 18.4413C534.598 18.4413 531.494 19.752 529.368 22.3735C527.241 24.9949 526.177 28.754 526.177 33.6507C526.177 38.3743 527.241 42.0345 529.368 44.6312C531.494 47.228 534.524 48.5263 538.456 48.5263C541.102 48.5263 543.402 47.9204 545.356 46.7086C547.31 45.4968 548.843 43.7533 549.956 41.478L556.299 43.6667C554.741 47.2032 552.392 49.9483 549.251 51.9021C546.135 53.8311 542.636 54.7956 538.753 54.7956ZM523.951 35.5055V30.2008H553.554V35.5055H523.951Z" fill="#444444"/>
<path d="M494.443 53.6835V13.6196H500.342V23.3017L499.377 22.0404C499.847 20.8039 500.453 19.6662 501.195 18.6275C501.962 17.5889 502.815 16.7356 503.754 16.0679C504.793 15.2271 505.968 14.5841 507.279 14.1389C508.589 13.6937 509.925 13.4341 511.285 13.3599C512.645 13.261 513.919 13.3475 515.106 13.6196V19.8146C513.721 19.4437 512.2 19.3447 510.543 19.5179C508.886 19.691 507.353 20.2969 505.943 21.3356C504.657 22.2506 503.656 23.3635 502.938 24.6742C502.246 25.985 501.764 27.407 501.492 28.9403C501.22 30.4489 501.084 31.9946 501.084 33.5773V53.6835H494.443Z" fill="#444444"/>
<path d="M464.797 54.7218C462.225 54.7218 460.012 54.3137 458.157 53.4976C456.327 52.6815 454.806 51.5933 453.594 50.2331C452.382 48.873 451.43 47.3644 450.738 45.7074C450.045 44.0504 449.551 42.3564 449.254 40.6252C448.982 38.8941 448.846 37.2742 448.846 35.7656V13.6191H455.523V33.6882C455.523 35.5678 455.696 37.3855 456.042 39.1414C456.389 40.8973 456.97 42.48 457.786 43.8897C458.627 45.2993 459.74 46.4122 461.125 47.2284C462.534 48.0445 464.29 48.4525 466.392 48.4525C468.049 48.4525 469.558 48.1681 470.918 47.5993C472.278 47.0305 473.441 46.1897 474.405 45.0768C475.37 43.9391 476.111 42.5048 476.631 40.7736C477.15 39.0424 477.41 37.0269 477.41 34.7269L481.75 36.0624C481.75 39.9204 481.045 43.2467 479.636 46.0413C478.251 48.8359 476.285 50.9874 473.737 52.496C471.215 53.9799 468.235 54.7218 464.797 54.7218ZM478.152 53.6831V42.9623H477.41V13.6191H484.05V53.6831H478.152Z" fill="#444444"/>
<path d="M441.455 53.6831C439.081 54.153 436.732 54.3384 434.407 54.2395C432.107 54.1653 430.054 53.7078 428.249 52.867C426.444 52.0014 425.071 50.6659 424.131 48.8606C423.34 47.2778 422.907 45.6826 422.833 44.0751C422.784 42.4429 422.759 40.6005 422.759 38.5478V2.49023H429.362V38.251C429.362 39.8833 429.374 41.2806 429.399 42.4429C429.449 43.6053 429.708 44.6069 430.178 45.4477C431.068 47.0305 432.478 47.9579 434.407 48.2299C436.361 48.502 438.71 48.4278 441.455 48.0073V53.6831ZM414.635 19.0723V13.6191H441.455V19.0723H414.635Z" fill="#444444"/>
<path d="M389.446 54.7218C386.874 54.7218 384.66 54.3137 382.805 53.4976C380.975 52.6815 379.454 51.5933 378.242 50.2331C377.031 48.873 376.079 47.3644 375.386 45.7074C374.694 44.0504 374.199 42.3564 373.902 40.6252C373.63 38.8941 373.494 37.2742 373.494 35.7656V13.6191H380.171V33.6882C380.171 35.5678 380.345 37.3855 380.691 39.1414C381.037 40.8973 381.618 42.48 382.434 43.8897C383.275 45.2993 384.388 46.4122 385.773 47.2284C387.183 48.0445 388.939 48.4525 391.041 48.4525C392.698 48.4525 394.206 48.1681 395.566 47.5993C396.927 47.0305 398.089 46.1897 399.053 45.0768C400.018 43.9391 400.76 42.5048 401.279 40.7736C401.799 39.0424 402.058 37.0269 402.058 34.7269L406.399 36.0624C406.399 39.9204 405.694 43.2467 404.284 46.0413C402.899 48.8359 400.933 50.9874 398.386 52.496C395.863 53.9799 392.883 54.7218 389.446 54.7218ZM402.8 53.6831V42.9623H402.058V13.6191H408.698V53.6831H402.8Z" fill="#444444"/>
<path d="M336.416 53.6833V0.264648H367.577V6.86778H343.019V23.6724H363.125V30.2755H343.019V53.6833H336.416Z" fill="#444444"/>
<path d="M295.097 54.7956C291.164 54.7956 287.727 53.93 284.784 52.1989C281.866 50.443 279.59 48.007 277.958 44.8909C276.326 41.7501 275.51 38.0899 275.51 33.9104C275.51 29.533 276.314 25.7492 277.921 22.5589C279.529 19.3439 281.767 16.8709 284.635 15.1397C287.529 13.3838 290.917 12.5059 294.8 12.5059C298.831 12.5059 302.256 13.4333 305.076 15.2881C307.92 17.1429 310.046 19.7891 311.456 23.2267C312.89 26.6643 313.509 30.7572 313.311 35.5055H306.634V33.1314C306.559 28.2099 305.558 24.5374 303.629 22.1138C301.7 19.6654 298.831 18.4413 295.022 18.4413C290.942 18.4413 287.838 19.752 285.711 22.3735C283.584 24.9949 282.521 28.754 282.521 33.6507C282.521 38.3743 283.584 42.0345 285.711 44.6312C287.838 47.228 290.868 48.5263 294.8 48.5263C297.446 48.5263 299.746 47.9204 301.7 46.7086C303.653 45.4968 305.187 43.7533 306.3 41.478L312.643 43.6667C311.085 47.2032 308.736 49.9483 305.595 51.9021C302.479 53.8311 298.979 54.7956 295.097 54.7956ZM280.295 35.5055V30.2008H309.898V35.5055H280.295Z" fill="#444444"/>
<path d="M261.414 53.6833V33.6142C261.414 31.7099 261.241 29.8798 260.894 28.1239C260.573 26.368 259.992 24.7976 259.151 23.4127C258.335 22.0031 257.222 20.8902 255.812 20.0741C254.427 19.2579 252.671 18.8499 250.545 18.8499C248.888 18.8499 247.379 19.1343 246.019 19.7031C244.683 20.2472 243.533 21.088 242.569 22.2256C241.604 23.3633 240.85 24.7976 240.306 26.5288C239.787 28.2352 239.527 30.2508 239.527 32.5755L235.187 31.24C235.187 27.3573 235.879 24.031 237.264 21.2611C238.674 18.4665 240.64 16.3273 243.162 14.8435C245.71 13.3349 248.702 12.5806 252.14 12.5806C254.736 12.5806 256.95 12.9887 258.78 13.8048C260.61 14.6209 262.131 15.7091 263.343 17.0693C264.555 18.4047 265.507 19.9133 266.199 21.595C266.892 23.252 267.374 24.946 267.646 26.6772C267.943 28.3836 268.091 30.0035 268.091 31.5368V53.6833H261.414ZM232.85 53.6833V0.264648H238.785V29.7562H239.527V53.6833H232.85Z" fill="#444444"/>
<path d="M224.744 53.6831C222.37 54.153 220.021 54.3384 217.696 54.2395C215.396 54.1653 213.343 53.7078 211.538 52.867C209.733 52.0014 208.36 50.6659 207.42 48.8606C206.629 47.2778 206.196 45.6826 206.122 44.0751C206.073 42.4429 206.048 40.6005 206.048 38.5478V2.49023H212.651V38.251C212.651 39.8833 212.663 41.2806 212.688 42.4429C212.738 43.6053 212.997 44.6069 213.467 45.4477C214.357 47.0305 215.767 47.9579 217.696 48.2299C219.65 48.502 221.999 48.4278 224.744 48.0073V53.6831ZM197.924 19.0723V13.6191H224.744V19.0723H197.924Z" fill="#444444"/>
<path d="M161.054 54.7956C157.121 54.7956 153.684 53.93 150.741 52.1989C147.823 50.443 145.547 48.007 143.915 44.8909C142.283 41.7501 141.467 38.0899 141.467 33.9104C141.467 29.533 142.271 25.7492 143.878 22.5589C145.486 19.3439 147.724 16.8709 150.592 15.1397C153.486 13.3838 156.874 12.5059 160.757 12.5059C164.788 12.5059 168.213 13.4333 171.033 15.2881C173.877 17.1429 176.003 19.7891 177.413 23.2267C178.847 26.6643 179.466 30.7572 179.268 35.5055H172.591V33.1314C172.516 28.2099 171.515 24.5374 169.586 22.1138C167.657 19.6654 164.788 18.4413 160.979 18.4413C156.899 18.4413 153.795 19.752 151.668 22.3735C149.541 24.9949 148.478 28.754 148.478 33.6507C148.478 38.3743 149.541 42.0345 151.668 44.6312C153.795 47.228 156.825 48.5263 160.757 48.5263C163.403 48.5263 165.703 47.9204 167.657 46.7086C169.611 45.4968 171.144 43.7533 172.257 41.478L178.6 43.6667C177.042 47.2032 174.693 49.9483 171.552 51.9021C168.436 53.8311 164.936 54.7956 161.054 54.7956ZM146.252 35.5055V30.2008H175.855V35.5055H146.252Z" fill="#444444"/>
<path d="M106.557 53.6833L106.594 0.264648H113.271V32.9094L130.076 13.6193H138.645L120.95 33.6513L140.722 53.6833H131.485L113.271 34.3932V53.6833H106.557Z" fill="#444444"/>
<path d="M76.253 54.7956C73.2606 54.7956 70.7504 54.2515 68.7225 53.1634C66.7193 52.0505 65.1983 50.5914 64.1596 48.786C63.1457 46.9806 62.6387 45.0022 62.6387 42.8506C62.6387 40.7485 63.0344 38.9308 63.8257 37.3975C64.6419 35.8394 65.7795 34.5534 67.2386 33.5394C68.6977 32.5007 70.4412 31.6846 72.4692 31.0911C74.3735 30.5717 76.5003 30.1266 78.8497 29.7556C81.2239 29.3599 83.6228 29.0013 86.0464 28.6798C88.47 28.3583 90.7329 28.0492 92.835 27.7524L90.4609 29.125C90.5351 25.5637 89.8179 22.9299 88.3093 21.2235C86.8254 19.517 84.2534 18.6638 80.5933 18.6638C78.1696 18.6638 76.0428 19.2203 74.2127 20.3332C72.4073 21.4213 71.1337 23.2019 70.3918 25.675L64.1225 23.7831C65.087 20.2713 66.9542 17.5139 69.7241 15.5107C72.4939 13.5075 76.1417 12.5059 80.6675 12.5059C84.3029 12.5059 87.419 13.1612 90.0157 14.472C92.6372 15.758 94.5167 17.7117 95.6543 20.3332C96.2231 21.5697 96.5817 22.9175 96.7301 24.3767C96.8785 25.8111 96.9527 27.3196 96.9527 28.9024V53.6827H91.0915V44.0748L92.4641 44.9651C90.9555 48.2048 88.841 50.6532 86.1206 52.3101C83.4249 53.9671 80.1357 54.7956 76.253 54.7956ZM77.2546 49.2683C79.6288 49.2683 81.6814 48.8478 83.4126 48.007C85.1685 47.1414 86.5781 46.0161 87.6415 44.6312C88.705 43.2216 89.3974 41.6883 89.7189 40.0313C90.0899 38.7947 90.2878 37.4222 90.3125 35.9136C90.3619 34.3803 90.3867 33.2056 90.3867 32.3895L92.6866 33.3911C90.5351 33.6878 88.4206 33.9722 86.3432 34.2443C84.2658 34.5163 82.2997 34.8131 80.4449 35.1346C78.5901 35.4313 76.9207 35.7899 75.4369 36.2104C74.3487 36.5566 73.3224 37.0018 72.3579 37.5458C71.4181 38.0899 70.6515 38.7947 70.0579 39.6603C69.4891 40.5012 69.2047 41.5522 69.2047 42.8135C69.2047 43.9017 69.4768 44.9404 70.0208 45.9296C70.5896 46.9188 71.4552 47.7226 72.6176 48.3408C73.8046 48.9591 75.3503 49.2683 77.2546 49.2683Z" fill="#444444"/>
<path d="M48.5592 53.6827L48.5963 28.0492C48.5963 25.0568 47.7926 22.7197 46.1851 21.038C44.6023 19.3316 42.5373 18.4784 39.99 18.4784C38.5061 18.4784 37.0965 18.8246 35.761 19.5171C34.4256 20.1848 33.3374 21.2482 32.4965 22.7074C31.6557 24.1417 31.2353 25.9842 31.2353 28.2347L27.7482 26.825C27.6988 23.981 28.2799 21.4955 29.4918 19.3687C30.7283 17.2171 32.41 15.5478 34.5368 14.3607C36.6637 13.1736 39.0626 12.5801 41.7335 12.5801C45.913 12.5801 49.2022 13.8537 51.6011 16.401C54 18.9235 55.1995 22.324 55.1995 26.6025L55.1624 53.6827H48.5592ZM0.630859 53.6827V13.6188H6.52916V24.3396H7.27109V53.6827H0.630859ZM24.6321 53.6827L24.6692 28.3089C24.6692 25.2423 23.8779 22.8434 22.2951 21.1122C20.7123 19.3563 18.6102 18.4784 15.9887 18.4784C13.392 18.4784 11.2899 19.3687 9.68235 21.1493C8.07484 22.9299 7.27109 25.2917 7.27109 28.2347L3.78404 26.1573C3.78404 23.5606 4.40231 21.2359 5.63885 19.1832C6.8754 17.1306 8.55709 15.523 10.6839 14.3607C12.8108 13.1736 15.2221 12.5801 17.9177 12.5801C20.6134 12.5801 22.9628 13.1489 24.966 14.2865C26.9692 15.4241 28.5149 17.0564 29.603 19.1832C30.6912 21.2853 31.2353 23.7955 31.2353 26.7138L31.1982 53.6827H24.6321Z" fill="#444444"/>
</svg>
