<svg width="481" height="82" viewBox="0 0 481 82" fill="none" xmlns="http://www.w3.org/2000/svg">
<path d="M241.703 23.7129C244.65 23.7129 246.717 26.0477 246.307 28.9663C245.897 31.8848 243.174 34.2197 240.227 34.2197C237.279 34.2197 235.213 31.8848 235.623 28.9663C236.033 26.0477 238.756 23.7129 241.703 23.7129ZM241.39 25.9383C239.659 25.9383 238.148 27.2516 237.907 28.9663C237.666 30.6809 238.808 31.9943 240.539 31.9943C242.271 31.9943 243.782 30.6809 244.023 28.9663C244.264 27.2516 243.122 25.9383 241.39 25.9383Z" fill="#444444"/>
<path d="M213.108 7.15051C213.261 6.05605 213.41 4.99808 213.564 3.90362C213.697 2.95509 213.735 1.89712 213.542 0.912109C215.401 1.05804 216.849 1.24044 217.839 1.5323C218.303 1.64175 218.567 1.86064 218.526 2.15249C218.495 2.37138 218.39 2.59028 218.113 2.99158C217.877 3.3564 217.752 3.72121 217.644 4.23196C217.51 4.92512 217.428 5.50883 217.227 6.67625C218.957 6.42087 220.582 6.12902 222.449 5.69124C223.096 5.54531 223.117 5.65475 223.088 6.12902C223.07 7.04107 223.026 7.88015 222.903 8.75572C222.841 9.1935 222.683 9.26646 222.378 9.33943C220.664 9.74073 218.855 10.0326 216.53 10.3244C216.05 12.9511 215.818 14.3374 215.386 16.8912C215.515 17.5479 215.517 18.314 215.374 19.3355C215.107 21.2325 214.356 22.9107 212.939 24.0781C212.426 24.8442 212.213 25.5739 212.116 26.267C211.916 27.6898 212.519 28.6383 216.608 28.6383C222.208 28.6383 225.277 27.252 225.687 24.3335C225.887 22.9107 225.929 21.5609 225.59 19.5179C227.108 20.2475 228.188 20.4299 229.162 20.5758C229.488 20.6123 229.779 20.9042 229.807 21.2325C229.963 22.2175 230.031 23.5674 229.795 25.2455C229.149 29.8423 225.017 32.5054 216.333 32.4325C210.181 32.4325 207.501 30.7908 207.998 27.252C208.147 26.1941 208.387 25.5374 208.705 24.8442C208.553 24.8807 208.332 24.8807 208.111 24.8807C205.569 24.8807 204.023 22.5094 204.428 19.6273C204.884 16.3804 207.407 13.8997 210.133 13.8997C211.017 13.8997 211.554 14.0091 212.044 14.1915C212.25 12.9876 212.446 11.8567 212.615 10.6528C210.279 10.7622 208.253 10.7622 206.453 10.7257C206.121 10.7257 206.031 10.5798 206.051 10.1785C206.043 9.44887 206.081 8.3909 206.15 7.11403C208.445 7.29644 210.219 7.25996 213.108 7.15051ZM210.007 16.8912C208.681 16.8912 207.837 17.9127 207.632 19.3719C207.417 20.9042 208.062 21.8162 209.431 21.7798C210.578 21.7433 211.495 20.7218 211.684 19.1166C211.873 17.7667 211.26 16.8912 210.007 16.8912ZM226.335 10.5433C227.405 9.48535 228.465 8.50034 229.052 7.9896C229.388 7.69774 229.535 7.69774 229.846 7.84367C232.266 8.97461 234.763 11.127 236.107 12.8417C236.233 12.9876 236.255 13.0971 236.24 13.2065C236.224 13.316 236.13 13.4619 235.999 13.6078C235.203 14.5563 234.385 15.3954 233.545 16.1251C233.377 16.271 233.257 16.3439 233.109 16.3439C232.999 16.3439 232.867 16.2345 232.745 16.0521C231.332 14.0456 229.114 12.0026 226.335 10.5433Z" fill="#444444"/>
<path d="M193.728 18.9711L192.472 27.9091C192.334 28.8941 192.324 29.2225 192.483 29.4049C192.737 29.6967 193.026 29.7332 194.094 29.7332C195.273 29.7332 195.657 29.6238 196.097 29.113C196.49 28.6752 196.864 27.3254 197.287 24.8447C197.857 25.246 198.658 25.5743 199.469 25.8297C200.386 26.1215 200.381 26.158 200.174 27.1065C199.574 30.0616 198.77 31.5938 197.719 32.2505C196.669 32.9071 195.528 33.1625 193.244 33.1625C191.181 33.1625 190.244 33.0166 189.5 32.5423C188.729 31.9951 188.385 31.3019 188.698 29.0765L191.917 6.16592C192.281 3.57571 192.507 1.97051 192.554 0.328822C193.764 0.365304 194.97 0.438269 196.165 0.584197C196.597 0.65716 196.808 0.730122 196.767 1.02198C196.72 1.35031 196.532 1.64217 196.422 1.89754C196.219 2.29884 195.964 3.06496 195.6 5.65518L194.713 11.9665C196.342 10.0695 197.442 8.53725 198.409 6.89556C198.697 6.4213 198.906 5.98352 199.224 5.29036C200.137 5.87407 200.971 6.49426 201.716 7.2239C202.043 7.51575 202.123 7.73465 202.097 7.91706C202.072 8.09946 201.899 8.28187 201.61 8.50077C201.321 8.71966 201.111 8.90207 200.74 9.44929C199.813 10.7991 198.87 12.003 197.629 13.4988C197.236 13.9366 197.021 14.1555 196.836 14.1555C196.652 14.1555 196.499 13.9366 196.187 13.5353C195.753 12.9516 195.125 12.4408 194.692 12.1125L194.297 14.9216C196.714 16.5997 198.641 18.3509 200.411 20.175C200.538 20.3209 200.565 20.3939 200.549 20.5033C200.529 20.6492 200.44 20.7587 200.22 21.0141L198.401 22.9476C198.181 23.203 198.055 23.3124 197.981 23.3124C197.87 23.3124 197.807 23.2394 197.68 23.0935C196.512 21.7072 195.201 20.2844 193.728 18.9711ZM175.716 19.7372L175.455 21.5978C174.962 25.1 174.796 27.07 174.54 28.8941C174.258 30.9006 173.788 31.8857 172.89 32.5058C171.992 33.126 171.203 33.2355 168.946 33.3085C167.467 33.3449 167.393 33.3449 167.368 32.214C167.343 31.0831 167.066 30.171 166.821 29.5508C167.653 29.6603 168.274 29.6967 169.932 29.6967C170.411 29.6967 170.737 29.4779 170.85 28.6752L171.921 21.0505C171.338 21.2694 170.765 21.4154 170.302 21.5613C169.603 21.8167 169.13 22.0355 168.883 22.218C168.679 22.3639 168.484 22.4368 168.263 22.4368C168.042 22.4368 167.879 22.2909 167.851 21.9626C167.768 20.9776 167.717 19.7737 167.712 18.4968C168.801 18.3509 169.895 18.1685 171.235 17.8036C171.577 17.7307 171.961 17.6212 172.424 17.4753L173.382 10.6532H172.609C170.325 10.6532 169.614 10.7262 169.393 10.7262C169.062 10.7262 169.03 10.6897 169.081 10.3249L169.456 7.66168C169.507 7.29686 169.549 7.26038 169.88 7.26038C170.101 7.26038 170.791 7.33335 173.075 7.33335H173.849L174.116 5.43629C174.444 3.10145 174.534 1.93403 174.549 0.255859C175.907 0.292341 177.075 0.365304 178.271 0.511231C178.634 0.547713 178.866 0.730122 178.841 0.912534C178.8 1.20439 178.621 1.42328 178.475 1.67865C178.192 2.11644 178.085 2.88255 177.736 5.36332L177.459 7.33335C178.933 7.33335 179.533 7.26038 179.754 7.26038C180.122 7.26038 180.154 7.29686 180.102 7.66168L179.728 10.3249C179.677 10.6897 179.635 10.7262 179.267 10.7262C179.046 10.7262 178.461 10.6897 176.993 10.6532L176.213 16.1984C177.491 15.7607 178.778 15.2499 179.95 14.7756C179.757 15.3594 179.53 16.4538 179.402 17.3659C179.263 18.3509 179.216 18.4238 178.475 18.7157C177.655 19.044 176.683 19.4088 175.716 19.7372ZM180.686 7.44279L182.664 5.94703C183.074 5.65518 183.111 5.65518 183.254 5.94703C184.055 7.58872 184.662 9.55874 185.1 11.4193L185.839 6.16592C186.172 3.7946 186.319 2.22588 186.364 0.328822C187.722 0.365304 188.891 0.438269 190.049 0.584197C190.413 0.620678 190.618 0.730122 190.593 0.912534C190.552 1.20439 190.316 1.56921 190.191 1.93403C190.046 2.44477 189.864 3.21089 189.5 5.80111L188.219 14.9216C187.619 19.19 186.836 22.4004 185.369 25.5013C183.775 28.7117 181.637 31.0831 178.381 33.0166C177.903 33.272 177.63 33.3814 177.446 33.3814C177.188 33.3814 177.071 33.1625 176.801 32.7247C176.229 31.8127 175.521 31.0831 174.93 30.5723C178.535 29.0401 180.58 27.07 181.928 24.5528C182.577 23.3489 183.14 21.9626 183.607 20.2115C182.468 20.9776 181.323 21.7802 180.289 22.3274C179.732 22.6193 179.47 22.9111 179.26 23.0935C179.092 23.2394 178.919 23.4219 178.735 23.4219C178.551 23.4219 178.424 23.2759 178.281 22.9841C177.936 22.2909 177.564 21.2694 177.222 20.029C178.069 19.7737 178.736 19.4818 179.414 19.117C180.837 18.4238 182.681 17.3659 184.449 16.0525L184.962 12.4043L184.799 12.5138L182.852 14.046C182.643 14.2284 182.485 14.3014 182.374 14.3014C182.264 14.3014 182.237 14.2284 182.194 14.0095C181.723 11.8571 181.121 9.8506 180.399 8.17243C180.224 7.84409 180.234 7.77113 180.686 7.44279Z" fill="#444444"/>
<path d="M141.898 2.80859C143.5 3.20989 144.627 3.57471 145.65 4.15842C146.23 4.48676 146.421 4.70565 146.375 5.03399C146.339 5.28936 146.25 5.39881 145.668 6.12845C145.207 6.78512 144.952 7.29587 144.42 8.71866C142.753 13.2424 141.606 17.7297 141.217 20.5023C140.965 22.2899 140.87 23.4938 140.838 24.7707C141.847 23.0925 142.68 21.8886 144.107 19.3349C144.273 20.2469 144.67 20.8306 145.073 21.6333C145.158 21.8157 145.275 22.0346 145.254 22.1805C145.218 22.4359 145.124 22.5818 144.988 22.7642C143.874 24.6613 142.954 26.23 142.114 28.273C142.009 28.4918 141.916 28.8931 141.844 29.4039C141.783 29.8417 141.816 30.1335 141.775 30.4254C141.739 30.6808 141.571 30.8267 141.229 30.8997C140.272 31.155 139.21 31.3739 138.126 31.4834C137.863 31.5198 137.741 31.3374 137.703 31.0821C137.031 28.5283 137.082 23.9681 137.537 20.2105C137.998 16.9271 138.962 12.9506 140.471 8.2444C141.329 5.54474 141.683 4.34083 141.898 2.80859ZM147.726 21.6333L151.119 21.3414C151.419 21.3049 151.467 21.4873 151.411 21.8886C151.278 24.4059 152.923 25.2814 156.934 25.3179C159.697 25.3179 161.528 25.1355 164.037 24.8437C164.411 24.8072 164.479 24.8437 164.486 25.3179C164.489 26.084 164.4 27.5068 164.266 28.4554C164.205 28.8931 164.2 28.9296 163.563 29.0026C161.017 29.2945 159.233 29.4039 157.502 29.4039C152.049 29.4039 149.63 28.5283 148.349 26.3759C147.592 25.2085 147.485 23.3479 147.726 21.6333ZM150.361 11.2724C150.685 9.22941 150.813 8.31736 150.974 7.69717C151.072 7.25938 151.198 7.14994 151.577 7.07698C153.807 6.67568 157.969 6.4203 159.663 6.4203C161.874 6.4203 163.558 6.49327 165.085 6.63919C165.854 6.67567 165.917 6.74864 165.866 7.11346C165.712 8.20791 165.573 9.19293 165.356 10.2144C165.273 10.5428 165.142 10.6887 164.816 10.6522C162.626 10.5063 160.72 10.4333 158.842 10.4333C156.373 10.4333 153.948 10.6522 150.361 11.2724Z" fill="#444444"/>
<path d="M128.151 21.7057H105.199C101.957 21.7057 100.805 21.7786 100.584 21.7786C100.253 21.7786 100.221 21.7422 100.272 21.3773L100.667 18.5682C100.718 18.2034 100.76 18.1669 101.092 18.1669C101.313 18.1669 102.445 18.2399 105.686 18.2399H109.186L110.186 11.1259H108.897C105.397 11.1259 104.171 11.1989 103.95 11.1989C103.581 11.1989 103.55 11.1624 103.606 10.7611L104.001 7.952C104.047 7.62366 104.089 7.58718 104.457 7.58718C104.678 7.58718 105.884 7.66015 109.384 7.66015H110.673L110.935 5.79957C111.232 3.68362 111.395 2.26083 111.405 0.619141C112.8 0.655622 114.084 0.692104 115.353 0.838032C115.716 0.874513 115.875 1.05692 115.849 1.23933C115.803 1.56767 115.615 1.85952 115.458 2.18786C115.301 2.5162 115.141 3.39176 114.803 5.79957L114.541 7.66015H122.315L122.576 5.79957C122.874 3.68362 123.037 2.26083 123.046 0.619141C124.441 0.655622 125.689 0.692104 126.994 0.838032C127.358 0.874513 127.516 1.05692 127.491 1.23933C127.445 1.56767 127.256 1.85952 127.099 2.18786C126.943 2.5162 126.783 3.39176 126.445 5.79957L126.183 7.66015H127.988C131.488 7.66015 132.714 7.58718 132.935 7.58718C133.303 7.58718 133.335 7.62366 133.289 7.952L132.894 10.7611C132.838 11.1624 132.796 11.1989 132.427 11.1989C132.206 11.1989 131.001 11.1259 127.501 11.1259H125.696L124.696 18.2399H128.638C131.88 18.2399 132.995 18.1669 133.217 18.1669C133.585 18.1669 133.617 18.2034 133.565 18.5682L133.171 21.3773C133.119 21.7422 133.077 21.7786 132.709 21.7786C132.488 21.7786 131.393 21.7057 128.151 21.7057ZM113.055 18.2399H120.828L121.828 11.1259H114.054L113.055 18.2399ZM119.409 24.4053L121.799 23.1285C122.161 22.9096 122.272 22.9096 122.525 23.2014C124.678 25.9741 127.381 28.2359 131.602 29.9141C130.936 30.4613 130.076 31.3369 129.395 32.2489C128.94 32.8691 128.757 33.1245 128.462 33.1245C128.278 33.1245 128.072 33.0151 127.692 32.8327C123.864 30.7167 121.181 28.3089 119.053 25.0985C118.847 24.7337 118.931 24.6607 119.409 24.4053ZM109.977 22.8366C111.016 23.3109 112.112 23.8946 112.92 24.4418C113.226 24.6242 113.353 24.7702 113.322 24.989C113.281 25.2809 113.034 25.4633 112.677 25.6457C112.357 25.8281 111.942 26.1565 111.433 26.6307C108.99 29.075 105.871 31.0815 102.351 32.7962C101.92 32.9786 101.647 33.088 101.463 33.088C101.168 33.088 101.052 32.8691 100.728 32.2854C100.299 31.4099 99.6432 30.5708 99.0835 30.0965C103.088 28.6008 106.365 26.5213 108.174 24.9161C109.103 24.077 109.548 23.5298 109.977 22.8366Z" fill="#444444"/>
<path d="M81.7179 1.67773C83.4863 1.67773 85.1655 1.78718 86.4825 2.11552C86.9092 2.22496 87.1046 2.40737 87.0636 2.69923C86.9918 3.20997 86.6621 3.72072 86.5904 4.23147C86.4878 4.96111 86.4753 5.83667 86.431 6.67575C86.4037 9.22949 86.5157 11.0536 86.7281 12.9506C88.7085 11.9656 90.1322 11.2725 92.3491 10.178C93.5046 9.55782 94.4759 8.93763 95.1679 8.20799C96.1776 9.41189 96.956 10.6888 97.3753 11.6373C97.4919 11.8562 97.5614 12.148 97.5255 12.4034C97.4743 12.7682 97.2122 13.0601 96.6862 13.133C95.5553 13.3155 94.2412 13.7532 92.9957 14.2275C89.6479 15.5044 86.511 16.8542 83.7383 18.4959C80.2409 20.5754 78.8579 22.29 78.6169 24.0047C78.3195 26.1206 79.797 27.1421 84.5228 27.0691C88.4279 27.0691 92.4896 26.7408 95.3981 26.23C95.8136 26.1571 95.9876 26.23 95.9997 26.6678C96.0455 27.6528 95.9714 28.9662 95.8913 30.0606C95.8717 30.4619 95.5882 30.6444 95.141 30.6808C91.727 31.1186 88.7644 31.2281 84.0856 31.2281C77.1228 31.2281 73.7567 28.9662 74.4232 24.2235C74.9923 20.1741 78.0559 17.5109 82.7457 14.8112C82.2563 12.0021 82.0546 8.71874 82.081 5.90963C82.0949 3.97609 82.0165 2.69923 81.7179 1.67773Z" fill="#444444"/>
<path d="M71.6543 6.38425L69.547 21.3783C69.1881 23.932 68.9253 26.8506 68.6741 28.6382C68.428 30.3893 68.047 31.2649 67.134 31.9945C66.2629 32.6877 65.1904 32.9796 61.7274 32.9796C60.6222 32.9796 60.617 33.016 60.5601 31.8486C60.4826 30.8271 60.316 29.9151 60.0502 29.1854C61.1717 29.3314 62.3455 29.3678 63.1191 29.3678C64.3349 29.3678 64.6757 29.0395 64.8296 27.9451L66.8753 13.3888H60.8335C57.9599 13.3888 56.9918 13.4617 56.7708 13.4617C56.4024 13.4617 56.3707 13.4253 56.4271 13.024C56.4578 12.8051 56.6494 11.966 56.9519 9.81355L57.6595 4.77905C57.9569 2.6631 58.0062 1.78753 58.037 1.56864C58.0934 1.16734 58.1354 1.13086 58.5038 1.13086C58.7248 1.13086 59.6724 1.20382 62.546 1.20382H67.9615C70.8351 1.20382 71.84 1.13086 72.061 1.13086C72.4294 1.13086 72.4612 1.16734 72.4048 1.56864C72.374 1.78753 72.0901 3.28329 71.6543 6.38425ZM60.429 10.7621H67.2445L67.5521 8.57317H60.7366L60.429 10.7621ZM68.2033 3.93997H61.3878L61.0853 6.0924H67.9007L68.2033 3.93997ZM46.373 1.20382H51.457C53.8516 1.20382 54.9671 1.13086 55.1881 1.13086C55.5197 1.13086 55.5514 1.16734 55.495 1.56864C55.4642 1.78753 55.2419 2.84551 54.9343 5.03442L54.2985 9.55818C53.9857 11.7836 53.9158 12.8051 53.8851 13.024C53.8287 13.4253 53.7867 13.4617 53.4551 13.4617C53.2341 13.4617 52.1391 13.3888 49.7445 13.3888H43.7764L42.1152 25.2089C41.4076 30.2434 41.1326 32.7242 41.0967 32.9796C41.0455 33.3444 41.0035 33.3809 40.6351 33.3809H37.5037C37.1353 33.3809 37.1035 33.3444 37.1548 32.9796C37.1907 32.7242 37.613 30.2434 38.3206 25.2089L40.5407 9.41225C41.2533 4.34127 41.5386 1.78753 41.5693 1.56864C41.6257 1.16734 41.6677 1.13086 42.0361 1.13086C42.294 1.13086 43.6837 1.20382 46.373 1.20382ZM50.5189 10.7621L50.8265 8.57317H44.4532L44.1455 10.7621H50.5189ZM51.4777 3.93997H45.1043L44.8018 6.0924H51.1752L51.4777 3.93997ZM48.9096 30.8636H46.2939C45.9255 30.8636 45.8938 30.8271 45.9502 30.4258C45.9809 30.2069 46.1931 29.2219 46.9519 23.8226L47.4031 20.6122C47.8543 17.4018 47.9344 16.3073 47.9703 16.052C48.0216 15.6871 48.0635 15.6507 48.4319 15.6507C48.6898 15.6507 49.5637 15.7236 52.3636 15.7236H57.3371C60.1369 15.7236 61.0314 15.6507 61.2892 15.6507C61.6577 15.6507 61.6894 15.6871 61.6381 16.052C61.6073 16.2708 61.3798 17.3653 61.0107 19.992L60.5031 23.6037C59.7596 28.8936 59.6949 29.8786 59.6692 30.061C59.618 30.4258 59.576 30.4623 59.2076 30.4623H56.5551C56.1867 30.4623 56.155 30.4258 56.2062 30.061L56.3652 28.9301H49.6234L49.4132 30.4258C49.3568 30.8271 49.3148 30.8636 48.9096 30.8636ZM50.0131 26.1574H56.7549L57.1138 23.6037H50.372L50.0131 26.1574ZM51.0846 18.5327L50.7411 20.977H57.4829L57.8264 18.5327H51.0846Z" fill="#444444"/>
<path d="M23.7767 7.88009L24.074 5.76414C24.397 3.46578 24.5387 1.93354 24.5535 0.255374C25.9483 0.291855 27.1906 0.364818 28.4596 0.510746C28.8228 0.547228 29.0234 0.693155 28.9977 0.875565C28.9618 1.13094 28.8206 1.34983 28.7059 1.64169C28.497 2.07947 28.2583 2.99152 27.884 5.65469L27.5712 7.88009H31.4395C34.9761 7.88009 36.2758 7.80713 36.4969 7.80713C36.8284 7.80713 36.8601 7.84361 36.8089 8.20842C36.7781 8.42732 36.5404 9.59474 36.1148 12.6227L35.4739 17.183C34.751 22.3269 34.676 23.3849 34.6401 23.6403C34.5888 24.0051 34.5468 24.0416 34.2153 24.0416H31.0838C30.7523 24.0416 30.7205 24.0051 30.7718 23.6403L30.9718 22.2175H25.5562L24.9051 26.8507C24.3206 31.0096 24.102 33.0891 24.0764 33.2715C24.0251 33.6363 23.9831 33.6728 23.5779 33.6728H20.4833C20.1149 33.6728 20.0832 33.6363 20.1345 33.2715C20.1652 33.0526 20.526 31.0096 21.1054 26.8872L21.7617 22.2175H16.6777L16.4521 23.8227C16.4008 24.1875 16.3589 24.224 16.0273 24.224H13.0064C12.6011 24.224 12.5694 24.1875 12.6207 23.8227C12.6566 23.5673 12.879 22.5093 13.607 17.3289L14.1864 13.2064C14.694 9.59474 14.7792 8.4638 14.8151 8.20842C14.8664 7.84361 14.9084 7.80713 15.3136 7.80713C15.5347 7.80713 16.8138 7.88009 20.3505 7.88009H23.7767ZM32.4997 11.3459H27.0841L26.0433 18.7517H31.4589L32.4997 11.3459ZM18.2056 11.3459L17.1648 18.7517H22.2488L23.2896 11.3459H18.2056ZM5.49303 27.6168L6.67228 19.226C6.85686 17.9126 7.10905 16.3804 7.36123 14.8481C6.44402 15.8696 5.52681 16.8911 4.54104 17.8761C4.23702 18.2045 3.99546 18.3504 3.8481 18.3504C3.6639 18.3504 3.58414 18.1315 3.49831 17.6937C3.40962 16.4898 3.02013 15.067 2.70718 14.4103C6.35741 10.981 9.28432 6.93156 11.3681 2.59022C11.7807 1.75113 12.1197 0.912048 12.3215 0C13.5597 0.364819 14.6607 0.656674 15.7361 1.13094C16.0789 1.31335 16.2477 1.42279 16.2118 1.67817C16.1759 1.93354 16.0398 2.11595 15.7511 2.33484C15.4993 2.55373 15.2321 2.88207 14.7724 3.79412C13.9154 5.4358 12.9847 7.07749 11.9486 8.68269L9.28759 27.6168C8.78513 31.192 8.60757 32.9796 8.58194 33.162C8.53067 33.5269 8.4887 33.5633 8.08345 33.5633H4.98886C4.62046 33.5633 4.58874 33.5269 4.64001 33.162C4.67078 32.9431 4.99056 31.192 5.49303 27.6168Z" fill="#444444"/>
<path d="M179.447 51.3431C180.516 50.0298 181.349 49.0813 182.02 48.4976C182.23 48.3152 182.467 48.2057 182.746 48.3152C185.324 49.3731 187.413 50.7594 189.357 52.6565C189.52 52.8024 189.579 52.9119 189.558 53.0578C189.543 53.1672 189.449 53.3132 189.312 53.4956C188.726 54.2617 187.803 55.3197 187.075 56.0493C186.902 56.2317 186.739 56.3412 186.628 56.3412C186.481 56.3412 186.381 56.2682 186.222 56.0858C184.41 54.2982 182.178 52.62 179.447 51.3431ZM176.155 56.4141C177.536 56.8154 179.022 57.2532 179.802 57.7275C180.182 57.9099 180.335 58.1288 180.294 58.4206C180.269 58.603 180.169 58.7855 180.033 58.9679C179.62 59.5516 179.269 60.2082 179.025 60.9014C178.395 62.762 177.647 65.4616 177.207 67.5411C181.073 64.1483 185.828 61.777 190.322 61.777C195.701 61.777 198.47 64.8779 197.809 69.5841C197.25 73.5606 194.486 76.1873 191.097 77.756C188.455 78.9964 184.537 79.872 181.312 80.2733C180.486 80.3827 180.16 80.3463 179.905 79.799C179.38 78.5586 178.855 77.5736 177.836 76.6981C181.998 76.4427 185.632 75.7495 188.254 74.6551C191.418 73.3782 193.048 71.4812 193.376 69.1463C193.653 67.1763 192.651 65.3887 189.483 65.3887C186.241 65.3887 182.044 67.4681 178.094 70.9339C177.338 71.5906 176.772 72.2108 176.227 72.9404C175.955 73.3052 175.808 73.3052 175.344 73.1958C174.538 72.9039 173.7 72.5756 172.977 72.2108C172.63 72.0649 172.492 71.9919 172.564 71.4812C173.38 67.2493 174.464 62.9444 175.362 59.6975C175.664 58.603 175.981 57.6545 176.155 56.4141Z" fill="#444444"/>
<path d="M148.11 57.8015C148.992 55.722 149.429 54.4451 149.861 53.2048C150.199 52.1103 150.584 50.6875 150.799 49.1553C152.658 49.5566 153.654 49.8119 155.051 50.3592C155.404 50.4686 155.584 50.7605 155.538 51.0888C155.512 51.2712 155.413 51.4536 155.203 51.636C154.768 52.1103 154.527 52.5116 154.271 53.0224C153.582 54.5181 153.024 55.8679 152.33 57.4002C153.34 57.2907 154.45 57.2543 155.224 57.2543C158.687 57.2543 160.169 59.5526 159.622 63.9669C159.017 68.2718 157.603 73.0874 155.982 75.7141C154.585 78.0489 152.663 79.1434 150.526 79.1434C148.758 79.1434 147.71 78.9975 146.936 78.7421C146.514 78.5962 146.339 78.2678 146.416 77.7206C146.469 76.5532 146.539 75.5317 146.193 74.3278C147.763 74.948 148.99 75.1304 150.132 75.1304C151.348 75.1304 151.962 74.6926 152.762 73.1968C153.823 71.1539 154.973 67.6881 155.47 64.1493C155.834 61.5591 155.5 60.793 153.884 60.7565C153 60.7565 151.806 60.866 150.717 61.0119C147.301 68.0164 144.493 73.0509 140.902 78.1584C140.614 78.6326 140.309 78.7056 139.898 78.4867C139.281 78.1584 137.967 77.2828 137.582 76.8815C137.423 76.6991 137.333 76.5532 137.364 76.3343C137.379 76.2248 137.437 76.0789 137.568 75.933C141.228 70.862 143.687 66.9949 146.319 61.6321C144.852 61.851 143.642 62.0699 142.622 62.2523C141.638 62.4347 141.018 62.6536 140.513 62.836C139.972 63.0184 139.54 62.9454 139.401 62.3617C139.188 61.5226 138.967 60.2093 138.787 58.6041C140.408 58.6041 142.045 58.4946 143.686 58.3487C145.254 58.2028 146.643 58.0204 148.11 57.8015ZM161.266 57.5096C162.275 56.8894 163.445 56.1598 164.512 55.6491C164.79 55.5031 164.964 55.5761 165.186 55.8315C167.363 58.1663 169.185 61.1943 170.056 64.6966C170.157 65.0249 170.095 65.2073 169.806 65.4262C169.098 66.0099 167.575 66.8855 166.787 67.2503C166.393 67.4327 166.029 67.3962 165.98 66.9584C165.045 63.1278 163.57 59.9904 161.266 57.5096Z" fill="#444444"/>
<path d="M128.262 52.876L130.405 51.5262C130.609 51.3803 130.752 51.4167 130.947 51.5991C131.966 52.4747 133.087 53.934 133.898 55.5027C134.015 55.7216 133.989 55.904 133.706 56.0864L131.999 57.2174C131.716 57.3998 131.537 57.3633 131.388 57.1079C130.519 55.4297 129.535 54.0434 128.262 52.876ZM131.99 50.4682L134.017 49.1549C134.258 49.0089 134.364 49.0454 134.559 49.2278C135.779 50.2493 136.9 51.7086 137.531 52.9855C137.647 53.2044 137.653 53.4232 137.328 53.6421L135.695 54.7731C135.37 54.992 135.201 54.8825 135.084 54.6636C134.31 53.0949 133.326 51.7086 131.99 50.4682ZM117.962 55.3933C119.434 55.1379 121.49 54.6636 123.367 54.1529C123.788 54.0434 123.91 54.2258 123.905 54.5177C123.903 55.3203 123.865 56.3783 123.794 57.1444C123.764 57.6187 123.638 57.7281 123.144 57.8376C120.773 58.4577 118.838 58.859 116.539 59.2239C112.896 67.3228 110.232 72.9046 107.023 78.9606C106.768 79.4713 106.552 79.4348 106.162 79.3254C105.814 79.1795 104.116 78.4133 103.404 77.9756C103.135 77.7932 103.066 77.5013 103.212 77.2459C106.909 70.8616 109.354 66.046 112.016 59.9535C109.848 60.1724 107.244 60.3548 105.512 60.3548C104.96 60.3548 104.828 60.2454 104.821 59.7711C104.781 59.005 104.771 57.7646 104.771 56.4512C105.53 56.5607 105.972 56.5607 107.482 56.5607C109.324 56.5607 111.329 56.4512 113.502 56.1959C114.075 54.7366 114.595 53.1314 115.064 51.6356C115.365 50.5412 115.592 49.4467 115.756 48.2793C117.668 48.5712 119.142 48.8265 120.255 49.3008C120.534 49.4102 120.609 49.6656 120.578 49.8845C120.557 50.0304 120.532 50.2128 120.312 50.4682C119.945 50.979 119.599 51.3438 119.333 51.9275C118.78 53.2408 118.348 54.4812 117.962 55.3933ZM116.271 72.1385C117.454 71.8466 119.001 71.5912 119.48 71.5912C119.848 71.5912 119.975 71.7372 119.961 72.102C119.881 74.7652 121.578 75.5313 125.115 75.5313C127.178 75.5313 129.877 75.2029 131.376 75.0205C131.676 74.984 131.776 75.057 131.772 75.3489C131.786 76.2974 131.759 77.5378 131.621 78.5228C131.596 78.9606 131.544 79.07 130.949 79.1065C129.671 79.2889 127.693 79.4713 125.883 79.5078C121.056 79.5078 118.644 78.8511 117.227 77.1365C116.212 75.9691 116.048 74.2544 116.271 72.1385ZM120.114 65.2434C120.22 63.9665 120.331 62.6532 120.433 61.9235C120.505 61.4128 120.631 61.3033 121.199 61.1939C123.586 60.7196 126.364 60.3548 128.501 60.3548C129.937 60.3548 131.501 60.5007 132.76 60.7196C133.265 60.7926 133.371 60.8291 133.309 61.2669C133.255 62.1789 133.111 63.2004 132.936 64.1854C132.849 64.8056 132.644 64.9515 132.144 64.8421C130.89 64.5867 129.221 64.4043 127.637 64.4043C125.426 64.4043 122.575 64.7691 120.114 65.2434Z" fill="#444444"/>
<path d="M80.8124 55.4302C81.1761 54.1534 81.4926 52.9495 81.7262 52.0739C82.0992 50.4687 82.1956 49.5202 82.1499 48.5352C84.219 48.754 85.5462 49.0094 86.4631 49.3013C86.9215 49.4472 87.1486 49.6661 87.1076 49.9579C87.0819 50.1404 86.8987 50.3957 86.7677 50.5417C86.4636 50.87 86.0818 51.4902 85.9517 51.8915C85.629 52.8765 85.3791 53.6061 85.0155 54.883C86.8934 54.6276 89.9912 54.0804 92.1312 53.5332C92.6675 53.3872 92.8465 53.4237 92.8536 53.898C92.883 54.7371 92.8551 55.7221 92.732 56.5977C92.6756 56.999 92.5497 57.1084 92.2079 57.1814C88.9422 57.8745 86.8964 58.2758 83.7454 58.6771C82.8041 61.7051 81.9448 64.1494 80.9228 66.7031C84.145 64.2224 88.0239 62.8361 92.0395 62.8361C96.9393 62.8361 99.8139 65.9735 99.2858 69.7311C98.8347 72.9415 97.1383 75.3129 94.0504 77.1005C91.64 78.5233 88.3486 79.3988 84.2459 80.019C83.3043 80.165 82.4048 80.2744 81.4838 80.2744C81.1154 80.2744 80.8831 80.092 80.6858 79.3988C80.2656 78.1949 79.8104 77.5018 79.0605 76.8086C84.4853 76.4803 86.7992 76.006 89.9157 74.8021C92.9165 73.6347 94.5154 71.9565 94.8384 69.6582C95.105 67.7611 93.9256 66.1924 91.1257 66.1924C87.1469 66.1924 83.2434 68.0165 80.8009 70.7161C80.4027 71.1904 79.9727 71.6282 79.5745 72.1025C79.2551 72.5402 79.1241 72.6862 78.7976 72.6497C77.9974 72.5767 76.8381 72.1754 76.1474 71.8471C75.5939 71.5917 75.3933 71.4458 75.4395 71.1174C75.46 70.9715 75.5327 70.7161 75.6894 70.3878C75.9607 69.7676 76.185 69.2204 76.4093 68.6732C77.671 65.4628 78.5661 62.7631 79.7051 59.1149C77.6953 59.2608 75.3487 59.4432 73.4698 59.4432C73.0646 59.4432 72.8692 59.2608 72.8416 58.9325C72.7926 58.4947 72.7501 56.9625 72.7719 55.7586C75.6455 55.7586 77.945 55.6491 80.8124 55.4302Z" fill="#444444"/>
<path d="M53.1452 55.3933C54.6179 55.1379 56.6739 54.6636 58.5509 54.1529C58.9715 54.0434 59.0932 54.2258 59.0891 54.5177C59.0868 55.3203 59.0486 56.3783 58.9778 57.1444C58.948 57.6187 58.8221 57.7281 58.3278 57.8376C55.9565 58.4577 54.0212 58.859 51.7227 59.2239C48.0793 67.3228 45.416 72.9046 42.2071 78.9606C41.9511 79.4713 41.7352 79.4348 41.3453 79.3254C40.9974 79.1795 39.2999 78.4133 38.5878 77.9756C38.3187 77.7932 38.2492 77.5013 38.3956 77.2459C42.0927 70.8616 44.5379 66.046 47.1993 59.9535C45.0318 60.1724 42.4273 60.3548 40.6958 60.3548C40.1432 60.3548 40.0112 60.2454 40.0042 59.7711C39.9645 59.005 39.9546 57.7646 39.955 56.4512C40.7133 56.5607 41.1554 56.5607 42.6658 56.5607C44.5079 56.5607 46.5126 56.4512 48.6853 56.1959C49.2587 54.7366 49.7791 53.1314 50.2472 51.6356C50.5483 50.5412 50.7758 49.4467 50.9399 48.2793C52.8514 48.5712 54.326 48.8265 55.4382 49.3008C55.7176 49.4102 55.7922 49.6656 55.7615 49.8845C55.7409 50.0304 55.7153 50.2128 55.4952 50.4682C55.1287 50.979 54.7827 51.3438 54.5165 51.9275C53.9635 53.2408 53.5313 54.4812 53.1452 55.3933ZM51.455 72.1385C52.638 71.8466 54.1844 71.5912 54.6633 71.5912C55.0317 71.5912 55.1586 71.7372 55.1441 72.102C55.0646 74.7652 56.7621 75.5313 60.2988 75.5313C62.3618 75.5313 65.0605 75.2029 66.5597 75.0205C66.8596 74.984 66.9599 75.057 66.9557 75.3489C66.9697 76.2974 66.9428 77.5378 66.8043 78.5228C66.7796 78.9606 66.7274 79.07 66.1329 79.1065C64.8546 79.2889 62.8765 79.4713 61.0662 79.5078C56.2401 79.5078 53.8272 78.8511 52.4104 77.1365C51.3955 75.9691 51.2313 74.2544 51.455 72.1385ZM55.2976 65.2434C55.4033 63.9665 55.5142 62.6532 55.6168 61.9235C55.6886 61.4128 55.8145 61.3033 56.3824 61.1939C58.77 60.7196 61.5475 60.3548 63.6843 60.3548C65.121 60.3548 66.6847 60.5007 67.9433 60.7196C68.4488 60.7926 68.5542 60.8291 68.4927 61.2669C68.4382 62.1789 68.2946 63.2004 68.1194 64.1854C68.0322 64.8056 67.8275 64.9515 67.3271 64.8421C66.0736 64.5867 64.4045 64.4043 62.8204 64.4043C60.61 64.4043 57.7588 64.7691 55.2976 65.2434Z" fill="#444444"/>
<path d="M15.0031 61.5224H14.5978C15.5488 63.9302 16.9974 65.6814 18.6036 67.3595C17.9852 68.0892 17.2891 69.1107 16.8293 70.0227C16.6256 70.424 16.4474 70.6429 16.2632 70.6429C16.1159 70.6429 15.9205 70.4605 15.7087 70.1322C14.6664 68.6364 13.9822 67.2136 13.4229 65.426C12.1975 74.1452 11.5511 80.0552 11.4588 80.7119C11.4127 81.0403 11.3707 81.0767 11.0023 81.0767H7.87086C7.50246 81.0767 7.47075 81.0403 7.51689 80.7119C7.60918 80.0552 8.62912 74.1087 9.84008 65.7543C8.05333 69.2931 5.91166 72.2116 3.66876 74.8018C3.35961 75.1667 3.14977 75.3491 2.96557 75.3491C2.81821 75.3491 2.69648 75.1667 2.5738 74.7289C2.34896 73.7074 1.96555 72.5035 1.5472 71.8103C4.46348 69.1472 7.02578 66.1192 9.55067 61.5224H8.4823C5.3877 61.5224 4.34592 61.5954 4.12487 61.5954C3.75647 61.5954 3.7616 61.5589 3.81287 61.1941L4.18203 58.5674C4.2333 58.2026 4.23842 58.1661 4.60683 58.1661C4.82787 58.1661 5.84915 58.2391 8.94374 58.2391H10.8226L11.4327 53.8977C10.218 54.1531 8.92949 54.4085 7.64616 54.6274C6.44163 54.8098 6.44163 54.8098 6.14823 53.7518C5.92946 52.9492 5.65335 52.2925 5.25133 51.7453C9.79106 51.1616 14.2808 49.8847 16.6983 48.9362C17.6337 48.5714 18.1065 48.3525 18.7524 47.9512C19.666 48.7903 20.3422 49.4834 20.9028 50.2131C21.088 50.4684 21.2097 50.6508 21.1738 50.9062C21.1379 51.1616 20.8544 51.344 20.4021 51.417C19.9129 51.4899 19.4186 51.5994 18.7615 51.8183C17.6367 52.2196 16.4803 52.5844 15.2552 52.9127L14.5066 58.2391H15.4645C18.5959 58.2391 19.6009 58.1661 19.8219 58.1661C20.1903 58.1661 20.222 58.2026 20.1708 58.5674L19.8016 61.1941C19.7503 61.5589 19.7084 61.5954 19.34 61.5954C19.1189 61.5954 18.1345 61.5224 15.0031 61.5224ZM28.0598 65.6084L30.3769 64.5869C30.9234 64.368 30.9603 64.368 31.0932 64.7328C32.9309 69.2201 34.1791 73.7074 34.933 78.3041C34.9922 78.6689 34.9452 78.7419 34.4355 78.9608L31.7765 80.0552C31.1931 80.2741 31.1512 80.3106 31.097 79.9093L30.575 76.8084C26.2153 77.6839 21.829 78.4865 16.6322 79.2891C16.0274 79.3986 15.5648 79.5445 15.2864 79.6904C15.0449 79.8364 14.8453 79.9458 14.6242 79.9458C14.3664 79.9458 14.2027 79.7999 14.1434 79.435C13.9288 78.3406 13.7767 77.0637 13.729 75.568C14.8343 75.568 15.9078 75.5315 17.0601 75.4585C20.4782 67.6514 22.7479 60.9387 25.0147 53.4599C25.4982 51.8547 25.8926 50.359 26.0608 48.8997C27.5405 49.1186 28.7624 49.3375 29.9688 49.6658C30.3586 49.7753 30.6277 49.9577 30.5918 50.2131C30.5508 50.5049 30.4198 50.6508 30.2365 50.9062C29.8803 51.344 29.6243 51.8547 29.2966 52.8762C26.7257 60.6834 24.2103 67.8338 21.1372 75.0207C23.9883 74.6559 26.8815 74.2546 29.9107 73.6709C29.3067 71.1537 28.5767 68.7459 27.6728 66.2651C27.5398 65.9003 27.6289 65.7908 28.0598 65.6084Z" fill="#444444"/>
<path d="M475.254 71.2988C478.201 71.2988 480.268 73.6337 479.858 76.5522C479.447 79.4708 476.725 81.8056 473.777 81.8056C470.83 81.8056 468.764 79.4708 469.174 76.5522C469.584 73.6337 472.307 71.2988 475.254 71.2988ZM474.941 73.5242C473.21 73.5242 471.699 74.8376 471.458 76.5522C471.217 78.2669 472.359 79.5802 474.09 79.5802C475.822 79.5802 477.332 78.2669 477.573 76.5522C477.814 74.8376 476.673 73.5242 474.941 73.5242Z" fill="#444444"/>
<path d="M453.412 62.7984L453.433 62.9079C455.66 61.7405 457.459 61.2662 459.522 61.2662C464.9 61.2662 468.166 64.7685 467.427 70.0218C466.571 76.1143 461.049 80.0179 453.165 80.0179C448.523 80.0179 446 78.0479 446.477 74.655C446.821 72.2108 449.424 70.2043 452.297 70.2043C455.76 70.2043 458.046 72.0284 458.475 75.5306C461.218 74.3632 462.622 72.758 463.012 69.9854C463.478 66.6655 461.428 64.4766 458.002 64.4766C454.944 64.4766 451.365 65.8264 448.027 68.3437C446.826 69.2922 445.645 70.3502 444.386 71.4446C444.093 71.7 443.888 71.8459 443.704 71.8459C443.556 71.8459 443.388 71.7365 443.197 71.5176C442.516 70.8609 441.839 69.9124 441.357 69.1463C441.177 68.8544 441.323 68.5991 441.659 68.3072C444.856 66.0088 447.726 63.674 451.523 60.2447C454.136 57.9099 456.124 56.0858 458.11 54.0063C455.844 54.4076 453.156 54.9183 450.805 55.3926C450.311 55.5021 449.817 55.6115 449.197 55.8304C449.002 55.9034 448.618 56.0128 448.434 56.0128C448.066 56.0128 447.833 55.8304 447.711 55.3926C447.387 54.5535 447.199 53.532 446.975 51.4526C448.06 51.5985 449.276 51.5985 450.391 51.5255C452.669 51.3066 455.978 50.8324 458.928 50.2851C459.875 50.1027 460.637 49.9203 461.031 49.7379C461.231 49.6285 461.588 49.4461 461.772 49.4461C462.109 49.4096 462.346 49.5555 462.579 49.7379C463.566 50.577 464.2 51.3066 464.719 52.0728C464.967 52.4011 465.042 52.6565 465.001 52.9483C464.95 53.3131 464.682 53.6415 464.252 53.8239C463.584 54.1157 463.254 54.3711 462.467 54.9913C459.413 57.5815 456.586 60.1353 453.412 62.7984ZM454.699 76.4427C454.502 74.4362 453.556 73.3052 452.009 73.3052C450.94 73.3052 450.153 73.9254 450.046 74.6915C449.887 75.8225 450.742 76.5521 452.947 76.5886C453.61 76.5886 454.131 76.5521 454.699 76.4427Z" fill="#444444"/>
<path d="M420.609 48.5352C422.71 48.7905 423.927 49.0459 424.802 49.3742C425.223 49.5202 425.414 49.7391 425.373 50.0309C425.337 50.2863 425.279 50.4322 425.106 50.6146C424.718 51.0159 424.536 51.5267 424.406 51.928C424.203 52.5846 424.053 53.1319 423.855 53.7521C427.29 53.4237 429.963 53.0224 433.649 52.2198C434.106 52.1104 434.196 52.2563 434.224 52.5846C434.3 53.3508 434.356 54.2628 434.244 55.0654C434.177 55.5397 433.783 55.7221 433.367 55.7951C428.366 56.7801 426.083 57.0354 422.689 57.3273C422.327 58.8595 422.13 59.7351 421.914 61.012C423.417 60.5377 425.853 60.2458 427.663 60.2094C427.966 59.6257 428.483 58.5677 428.664 57.5462C429.933 57.9475 431.288 58.5312 431.753 58.896C432.154 59.1879 432.334 59.4797 432.303 59.6986C432.283 59.8445 432.188 59.9905 432.02 60.1364C431.811 60.3188 431.669 60.5377 431.439 60.866C436.017 62.1064 438.381 65.2074 437.74 69.7676C436.997 75.0575 432.131 78.4868 426.053 80.0555C425.212 80.2744 424.822 80.165 424.529 79.3624C424.343 78.8516 423.714 78.0855 422.673 77.1005C425.403 76.5533 428.404 75.3858 429.9 74.4373C431.848 73.1604 433.247 71.5917 433.616 68.965C434.027 66.0465 432.173 64.2953 429.792 63.6751C427.091 67.6882 424.512 70.5702 421.485 73.2334C421.577 73.8901 421.742 74.2914 421.918 74.8751C422.072 75.3494 421.899 75.5318 421.495 75.7871C420.56 76.4073 419.652 76.8451 419.105 77.064C418.711 77.2464 418.564 77.2464 418.394 76.8816C418.198 76.4438 418.075 76.006 417.968 75.4588C415.101 77.2464 413.072 78.049 411.188 78.0855C408.683 78.0855 407.335 76.4073 407.735 73.5617C408.391 68.8921 413.106 64.4413 417.95 62.2159C418.207 60.6471 418.507 59.0419 418.775 57.6556C416.591 57.7286 415.602 57.6921 414.975 57.6921C413.907 57.6921 413.318 57.6921 412.886 57.6191C412.486 57.5827 412.29 57.4003 412.34 56.7801C412.343 55.9775 412.476 55.0289 412.546 54.0074C414.868 54.2628 416.904 54.1898 419.672 54.1534C420.004 52.84 420.383 51.1983 420.526 50.1768C420.603 49.6296 420.638 49.1189 420.609 48.5352ZM420.962 69.6217C422.713 67.907 424.803 65.3533 426.122 63.3103C424.791 63.3468 423.06 63.6022 421.289 64.1494C421.059 66.0465 420.928 67.7611 420.962 69.6217ZM417.447 65.7911C414.329 67.7976 412.044 70.4243 411.711 72.7956C411.588 73.6712 412.068 74.1819 412.732 74.1819C413.768 74.1454 415.218 73.5253 417.302 72.066C417.242 69.8771 417.224 67.907 417.447 65.7911Z" fill="#444444"/>
<path d="M398.885 51.8913L401.028 50.5414C401.232 50.3955 401.374 50.432 401.57 50.6144C402.589 51.49 403.71 52.9492 404.521 54.518C404.638 54.7369 404.612 54.9193 404.329 55.1017L402.622 56.2326C402.339 56.415 402.16 56.3785 402.011 56.1232C401.142 54.445 400.158 53.0587 398.885 51.8913ZM402.613 49.4835L404.64 48.1701C404.881 48.0242 404.987 48.0607 405.182 48.2431C406.401 49.2646 407.523 50.7239 408.154 52.0007C408.27 52.2196 408.276 52.4385 407.951 52.6574L406.318 53.7883C405.993 54.0072 405.824 53.8978 405.707 53.6789C404.933 52.1102 403.949 50.7239 402.613 49.4835ZM383.318 57.8013C384.2 55.7219 384.637 54.445 385.07 53.2046C385.408 52.1102 385.792 50.6874 386.007 49.1551C387.867 49.5564 388.862 49.8118 390.259 50.359C390.612 50.4685 390.792 50.7603 390.746 51.0887C390.72 51.2711 390.621 51.4535 390.411 51.6359C389.976 52.1102 389.735 52.5115 389.479 53.0222C388.79 54.518 388.232 55.8678 387.538 57.4C388.548 57.2906 389.658 57.2541 390.432 57.2541C393.895 57.2541 395.377 59.5525 394.83 63.9668C394.225 68.2716 392.812 73.0873 391.19 75.7139C389.794 78.0488 387.871 79.1433 385.735 79.1433C383.966 79.1433 382.739 78.9608 381.98 78.596C381.564 78.4136 381.384 78.1218 381.461 77.5745C381.514 76.4071 381.584 75.3856 381.237 74.1817C382.788 74.9478 384.199 75.1302 385.341 75.1302C386.556 75.1302 387.171 74.6925 387.97 73.1967C389.031 71.1537 390.181 67.6879 390.679 64.1492C391.043 61.559 390.708 60.7929 389.092 60.7564C388.208 60.7564 387.014 60.8658 385.925 61.0117C382.509 68.0163 379.702 73.0508 376.11 78.1582C375.823 78.6325 375.518 78.7055 375.106 78.4866C374.489 78.1582 373.176 77.2827 372.79 76.8814C372.631 76.699 372.541 76.553 372.572 76.3341C372.588 76.2247 372.645 76.0788 372.776 75.9328C376.436 70.8619 378.895 66.9948 381.528 61.6319C380.06 61.8508 378.85 62.0697 377.83 62.2521C376.847 62.4345 376.226 62.6534 375.722 62.8358C375.18 63.0183 374.749 62.9453 374.61 62.3616C374.396 61.5225 374.175 60.2091 373.996 58.6039C375.617 58.6039 377.253 58.4945 378.894 58.3486C380.462 58.2026 381.851 58.0202 383.318 57.8013ZM396.069 57.5095C397.078 56.8893 398.249 56.1597 399.315 55.6489C399.593 55.503 399.767 55.5759 399.989 55.8313C402.166 58.1662 403.988 61.1942 404.859 64.6964C404.96 65.0248 404.898 65.2072 404.609 65.4261C403.901 66.0098 402.378 66.8853 401.59 67.2502C401.196 67.4326 400.832 67.3961 400.783 66.9583C399.848 63.1277 398.373 59.9903 396.069 57.5095Z" fill="#444444"/>
<path d="M349.13 67.249H342.756C339.441 67.249 338.288 67.3219 338.067 67.3219C337.699 67.3219 337.667 67.2855 337.724 66.8842L338.098 64.221C338.149 63.8562 338.191 63.8197 338.56 63.8197C338.781 63.8197 339.912 63.8926 343.228 63.8926H352.07L353.167 56.0855H346.388C342.852 56.0855 341.663 56.1585 341.442 56.1585C341.073 56.1585 341.041 56.122 341.093 55.7572L341.472 53.0575C341.523 52.6927 341.565 52.6562 341.934 52.6562C342.155 52.6562 343.323 52.7292 346.86 52.7292H353.639L353.746 51.9631C354.044 49.8471 354.109 49.1175 354.094 47.6582C355.415 47.6947 356.767 47.7676 358.036 47.9136C358.4 47.9501 358.521 48.1325 358.501 48.2784C358.45 48.6432 358.256 48.9715 358.136 49.2999C357.959 49.7742 357.788 50.4673 357.583 51.9266L357.47 52.7292H364.801C368.338 52.7292 369.527 52.6562 369.748 52.6562C370.153 52.6562 370.185 52.6927 370.134 53.0575L369.755 55.7572C369.703 56.122 369.661 56.1585 369.256 56.1585C369.035 56.1585 367.866 56.0855 364.33 56.0855H356.998L355.901 63.8926H358.222C359.5 62.1415 360.583 60.4633 361.351 58.9311C361.701 58.2744 362.009 57.6542 362.212 56.9976C363.397 57.2165 364.783 57.5813 365.805 57.9096C366.226 58.0555 366.348 58.2379 366.312 58.4933C366.281 58.7122 366.15 58.8581 365.914 58.9676C365.672 59.1135 365.363 59.4783 364.808 60.2809C363.939 61.4848 363.117 62.6158 362.09 63.8926H365.259C368.574 63.8926 369.727 63.8197 369.948 63.8197C370.316 63.8197 370.348 63.8562 370.297 64.221L369.922 66.8842C369.866 67.2855 369.824 67.3219 369.455 67.3219C369.234 67.3219 368.103 67.249 364.787 67.249H357.75C360.543 70.9701 364.19 73.5968 369.741 76.0411C368.906 76.7343 368.105 77.7193 367.451 78.7043C367.064 79.361 366.917 79.6163 366.659 79.6163C366.475 79.6163 366.274 79.4704 365.863 79.2515C361.312 76.7707 357.515 73.3779 355.078 68.9636C354.408 74.2535 353.801 79.361 353.611 80.7108C353.56 81.0756 353.518 81.1121 353.15 81.1121H349.944C349.576 81.1121 349.544 81.0756 349.596 80.7108C349.796 79.288 350.64 74.3265 351.4 69.1825C347.811 73.4874 343.623 76.5519 338.506 79.1421C338.033 79.361 337.755 79.5069 337.571 79.5069C337.313 79.5069 337.238 79.2515 336.994 78.6313C336.622 77.6098 336.166 76.9167 335.601 76.2235C341.239 73.8522 345.518 71.189 349.13 67.249ZM343.938 58.0555L346.645 57.1435C347.071 56.9976 347.181 56.9976 347.356 57.3259C348.014 58.6757 348.566 59.9891 349.046 61.8132C349.143 62.178 349.022 62.251 348.596 62.3969L345.805 63.3819C345.3 63.5643 345.232 63.5278 345.136 63.163C344.745 61.4848 344.197 59.8796 343.556 58.6757C343.386 58.3109 343.475 58.2015 343.938 58.0555Z" fill="#444444"/>
<path d="M314.754 65.4252H308.27C304.954 65.4252 303.765 65.4982 303.544 65.4982C303.176 65.4982 303.144 65.4617 303.195 65.0969L303.59 62.2878C303.641 61.923 303.683 61.8865 304.052 61.8865C304.273 61.8865 305.441 61.9595 308.757 61.9595H317.267L317.995 56.779H312.727C309.154 56.779 307.854 56.852 307.633 56.852C307.301 56.852 307.27 56.8155 307.321 56.4507L307.726 53.5686C307.777 53.2038 307.819 53.1673 308.151 53.1673C308.372 53.1673 309.651 53.2403 313.224 53.2403H318.493L318.672 51.9634C318.969 49.8475 319.077 49.0813 319.024 47.6221C320.382 47.6586 321.809 47.7315 323.041 47.8774C323.404 47.9139 323.6 48.0963 323.574 48.2787C323.523 48.6436 323.261 48.9354 323.183 49.2273C323 49.738 322.829 50.4312 322.624 51.8905L322.435 53.2403H328.329C331.903 53.2403 333.202 53.1673 333.423 53.1673C333.755 53.1673 333.787 53.2038 333.735 53.5686L333.33 56.4507C333.279 56.8155 333.237 56.852 332.905 56.852C332.684 56.852 331.405 56.779 327.832 56.779H321.937L321.209 61.9595H330.272C333.624 61.9595 334.777 61.8865 334.998 61.8865C335.403 61.8865 335.435 61.923 335.383 62.2878L334.989 65.0969C334.937 65.4617 334.895 65.4982 334.49 65.4982C334.269 65.4982 333.137 65.4252 329.785 65.4252H322.417C324.952 69.4018 329.598 73.3053 334.89 75.4942C334.056 76.1874 333.255 77.1724 332.6 78.1574C332.255 78.7776 332.077 78.9965 331.856 78.9965C331.672 78.9965 331.435 78.8506 331.023 78.6317C326.245 75.932 322.51 72.1014 320.273 67.833C319.588 73.2324 318.909 78.8506 318.658 80.6382C318.606 81.003 318.564 81.0395 318.196 81.0395H314.88C314.512 81.0395 314.48 81.003 314.532 80.6382C314.767 78.96 315.752 73.2688 316.542 67.906C313.284 71.9555 308.908 75.5672 303.366 78.5587C302.925 78.8141 302.647 78.96 302.463 78.96C302.242 78.96 302.13 78.7046 301.923 78.0845C301.614 77.1359 301.111 76.2604 300.508 75.5672C306.462 73.05 310.981 69.7301 314.754 65.4252Z" fill="#444444"/>
<path d="M284.752 62.7984L284.773 62.9079C287 61.7405 288.798 61.2662 290.861 61.2662C296.24 61.2662 299.506 64.7685 298.767 70.0218C297.911 76.1143 292.389 80.0179 284.505 80.0179C279.863 80.0179 277.34 78.0479 277.817 74.655C278.161 72.2108 280.764 70.2043 283.637 70.2043C287.1 70.2043 289.386 72.0284 289.815 75.5306C292.557 74.3632 293.962 72.758 294.352 69.9854C294.818 66.6655 292.768 64.4766 289.342 64.4766C286.284 64.4766 282.705 65.8264 279.367 68.3437C278.166 69.2922 276.985 70.3502 275.726 71.4446C275.433 71.7 275.228 71.8459 275.044 71.8459C274.896 71.8459 274.727 71.7365 274.537 71.5176C273.856 70.8609 273.179 69.9124 272.697 69.1463C272.517 68.8544 272.663 68.5991 272.999 68.3072C276.196 66.0088 279.066 63.674 282.863 60.2447C285.475 57.9099 287.463 56.0858 289.45 54.0063C287.183 54.4076 284.496 54.9183 282.145 55.3926C281.651 55.5021 281.157 55.6115 280.536 55.8304C280.342 55.9034 279.958 56.0128 279.774 56.0128C279.406 56.0128 279.173 55.8304 279.051 55.3926C278.726 54.5535 278.538 53.532 278.315 51.4526C279.4 51.5985 280.615 51.5985 281.731 51.5255C284.009 51.3066 287.318 50.8324 290.268 50.2851C291.215 50.1027 291.977 49.9203 292.371 49.7379C292.571 49.6285 292.928 49.4461 293.112 49.4461C293.449 49.4096 293.686 49.5555 293.918 49.7379C294.906 50.577 295.54 51.3066 296.059 52.0728C296.307 52.4011 296.382 52.6565 296.341 52.9483C296.289 53.3131 296.022 53.6415 295.591 53.8239C294.924 54.1157 294.593 54.3711 293.806 54.9913C290.753 57.5815 287.926 60.1353 284.752 62.7984ZM286.039 76.4427C285.842 74.4362 284.896 73.3052 283.349 73.3052C282.28 73.3052 281.493 73.9254 281.385 74.6915C281.227 75.8225 282.082 76.5521 284.287 76.5886C284.95 76.5886 285.471 76.5521 286.039 76.4427Z" fill="#444444"/>
<path d="M261.465 63.9659L261.894 60.6461C259.921 60.792 258.511 60.865 257.443 60.865C256.664 60.9015 255.706 60.9015 254.348 60.865C253.832 60.865 253.563 60.6826 253.583 60.2813C253.538 59.5516 253.603 58.5666 253.644 56.9614C254.987 57.1074 256.824 57.1438 258.187 57.1438C259.218 57.1438 260.955 57.1074 262.296 56.9979C262.479 55.1738 262.71 53.5321 262.757 52.1458C262.789 50.8689 262.781 50.1393 262.551 49.1543C264.715 49.2273 266.421 49.4097 267.232 49.665C267.622 49.7745 267.781 49.9569 267.74 50.2488C267.704 50.5041 267.562 50.723 267.379 50.9784C267.238 51.1973 267.082 51.781 266.98 52.5106C266.8 53.7875 266.569 55.4292 266.41 56.5601C268.025 56.3412 269.645 56.0859 271.239 55.7575C271.696 55.6481 271.87 55.721 271.856 56.0859C271.875 56.9979 271.826 57.8735 271.766 58.822C271.736 59.2963 271.531 59.4422 271.195 59.4787C269.38 59.807 267.729 60.0259 266.008 60.2083L265.255 65.8265C264.815 69.2193 263.816 72.1379 262.445 74.2903C260.965 76.6981 258.851 78.6317 256.382 79.945C255.941 80.2004 255.673 80.2734 255.415 80.2734C255.12 80.2734 254.973 80.2734 254.724 79.945C254.143 79.3613 253.272 78.7411 252.102 78.1574C255.821 76.3333 257.715 74.6551 259.179 72.1014C260.251 70.2408 260.968 67.7601 261.465 63.9659ZM246.175 49.5556C247.813 49.9569 248.972 50.3582 249.864 50.8325C250.412 51.1243 250.597 51.3797 250.561 51.6351C250.541 51.781 250.515 51.9634 250.238 52.3647C249.987 52.839 249.59 53.824 249.158 55.0644C247.905 59.0044 246.671 62.7985 246.22 66.0089C245.892 68.3438 245.673 70.4232 245.778 71.7731C246.971 69.8395 247.809 68.5991 248.98 66.5562C249.301 67.9425 249.566 68.4167 249.852 69.0005C250.037 69.2558 250.117 69.4747 250.086 69.6936C250.05 69.949 249.946 70.1679 249.475 70.8975C248.173 73.0864 247.74 74.0714 247.192 75.3483C247.077 75.6402 246.984 76.0415 246.948 76.2968C246.907 76.5887 246.866 76.8805 246.825 77.1724C246.789 77.4278 246.663 77.5372 246.274 77.6831C245.102 78.1574 244.414 78.3398 243.624 78.4493C243.172 78.5222 243.003 78.4128 242.844 77.975C241.993 75.6402 241.759 70.7516 242.229 66.8845C242.675 63.7106 243.478 60.3542 245.006 54.9914C245.462 53.3132 245.877 51.6715 246.175 49.5556Z" fill="#444444"/>
<path d="M224.833 62.5068L226.381 61.4488C226.586 61.3029 226.707 61.2299 226.817 61.2299C226.928 61.2299 226.991 61.3029 227.155 61.4488C228.063 62.3243 229.015 63.4188 229.777 64.5497C229.989 64.8781 229.941 64.951 229.49 65.2794L227.857 66.4103C227.653 66.5562 227.532 66.6292 227.421 66.6292C227.348 66.6292 227.284 66.5562 227.163 66.3738C226.389 65.0605 225.612 64.039 224.667 63.1634C224.566 63.0905 224.466 63.0175 224.45 62.8716C223.783 64.7322 222.672 66.082 221.045 67.1764C221.74 67.2129 222.393 67.2859 223.082 67.3588C223.409 67.3953 223.567 67.5777 223.536 67.7966C223.506 68.0155 223.412 68.1615 223.26 68.4533C223.15 68.7087 223.041 68.9641 222.949 69.6207H232.122C235.474 69.6207 236.627 69.5478 236.848 69.5478C237.216 69.5478 237.248 69.5842 237.202 69.9126L236.868 72.2839C236.817 72.6487 236.775 72.6852 236.407 72.6852C236.186 72.6852 235.054 72.6122 231.701 72.6122H225.549C228.304 74.7647 231.983 76.1145 237.329 77.136C236.678 77.8292 236.045 78.6682 235.527 79.4708C234.825 80.5288 234.831 80.4923 233.766 80.2005C229.056 78.8506 225.012 76.6982 222.27 73.9256C221.752 77.6103 221.551 80.091 221.464 80.7112C221.412 81.076 221.37 81.1125 221.002 81.1125H217.834C217.502 81.1125 217.47 81.076 217.522 80.7112C217.609 80.091 218.042 77.7927 218.607 74.035C215.029 76.9536 210.694 78.9601 205.831 80.2734C204.648 80.5653 204.648 80.5653 204.244 79.5073C203.947 78.7412 203.512 77.9021 203.1 77.4279C208.558 76.3334 212.285 74.9836 215.713 72.6122H209.966C206.613 72.6122 205.461 72.6852 205.24 72.6852C204.871 72.6852 204.84 72.6487 204.891 72.2839L205.224 69.9126C205.27 69.5842 205.312 69.5478 205.681 69.5478C205.902 69.5478 207.034 69.6207 210.386 69.6207H219.154C219.226 69.11 219.292 68.6357 219.296 68.0885C219.117 68.052 218.963 67.8331 218.646 67.4683C218.112 66.8116 217.653 66.4103 216.962 66.082C220.55 64.4038 221.482 63.0175 222.082 58.7491C222.195 57.9465 222.188 57.4723 222.224 57.2169C222.275 56.8521 222.317 56.8156 222.685 56.8156C222.943 56.8156 223.706 56.8885 226.285 56.8885H230.448C233.064 56.8885 233.885 56.8156 234.143 56.8156C234.511 56.8156 234.543 56.8521 234.491 57.2169C234.455 57.4723 234.269 58.2749 234.033 59.953L233.577 63.1999C233.464 64.0025 233.413 64.3673 233.576 64.5133C233.804 64.7322 233.988 64.7322 234.504 64.7322C235.093 64.7322 235.408 64.5862 235.754 64.2214C236.016 63.9296 236.219 63.2729 236.569 61.0475C237.038 61.3758 237.555 61.6312 238.33 61.8866C239.241 62.2149 239.199 62.2514 238.998 63.1634C238.589 65.024 238.177 66.1185 237.338 66.8481C236.55 67.4683 235.373 67.7237 233.641 67.7237C232.094 67.7237 231.33 67.6507 230.724 67.2494C230.185 66.8846 229.883 66.1549 230.052 64.951L230.795 59.6612H225.232C225.021 60.9016 224.819 61.8136 224.502 62.7621C224.586 62.6892 224.628 62.6527 224.833 62.5068ZM207.523 59.8436L207.826 57.6911C207.872 57.3628 207.919 57.2898 208.251 57.2898C208.114 57.2169 207.923 56.998 207.68 56.6332C207.22 55.9765 206.633 55.4293 206.122 55.1374C208.594 53.2768 210.329 51.4163 211.705 49.2273C212.04 48.6801 212.29 48.2059 212.572 47.5127C213.767 47.6586 215.063 47.8775 215.774 48.0599C216.137 48.0964 216.306 48.2059 216.265 48.4977C216.234 48.7166 216.108 48.826 215.862 49.0085C215.657 49.1544 215.442 49.3733 215.154 49.8475C215.008 50.1029 214.83 50.3218 214.688 50.5407H218.741C221.836 50.5407 222.804 50.4677 223.025 50.4677C223.393 50.4677 223.425 50.5042 223.368 50.9055L223.045 53.2039C224.172 52 225.168 50.6866 225.952 49.3003C226.292 48.7166 226.543 48.2423 226.829 47.5127C227.988 47.6586 228.888 47.8045 229.742 48.0234C230.137 48.0964 230.274 48.1694 230.238 48.4247C230.202 48.6801 230.076 48.7896 229.908 48.9355C229.619 49.1544 229.52 49.3368 229.264 49.8475L228.835 50.5407H234.472C238.23 50.5407 239.566 50.4677 239.787 50.4677C240.155 50.4677 240.187 50.5042 240.131 50.9055L239.828 53.0579C239.777 53.4228 239.735 53.4592 239.367 53.4592C239.146 53.4592 237.83 53.3863 234.072 53.3863H233.372C233.695 53.97 233.94 54.5902 234.174 55.2833C234.275 55.6117 234.223 55.7211 233.728 55.8306L231.378 56.3048C230.846 56.4143 230.778 56.3778 230.682 56.013C230.51 55.1374 230.196 54.2254 229.798 53.3863H226.888C226.207 54.2983 225.384 55.1739 224.487 56.0495C224.063 56.4508 223.853 56.6332 223.669 56.6332C223.448 56.6332 223.257 56.4143 222.84 55.9765C222.327 55.4293 221.895 55.1009 221.346 54.8091C221.85 54.3713 222.317 53.9335 222.788 53.4592H222.604C222.383 53.4592 221.472 53.3863 218.673 53.3863C218.986 54.043 219.22 54.7361 219.486 55.4657C219.618 55.8306 219.529 55.94 219.04 56.013L216.695 56.4508C216.127 56.5602 216.016 56.5602 215.962 56.1589C215.832 55.2469 215.565 54.2618 215.246 53.3863H212.631C211.693 54.5537 210.655 55.6482 209.327 56.7061C208.95 57.0345 208.703 57.2169 208.509 57.2898C208.909 57.3263 209.825 57.3628 211.851 57.3628H215.793C218.298 57.3628 219.119 57.2898 219.34 57.2898C219.708 57.2898 219.74 57.3263 219.689 57.6911L219.386 59.8436C219.335 60.2084 219.293 60.2449 218.924 60.2449C218.703 60.2449 217.903 60.1719 215.398 60.1719H215.214L214.757 63.4188C216.125 63.1269 217.576 62.7621 219.148 62.3243C218.919 62.9081 218.726 63.4918 218.602 64.112C218.396 65.3159 218.396 65.3159 217.218 65.5712C214.074 66.4468 211.371 67.067 208.41 67.6872C207.801 67.8331 207.375 67.979 207.133 68.125C206.892 68.2709 206.697 68.3439 206.476 68.3439C206.255 68.3439 206.091 68.1979 206.027 67.8696C205.792 66.9211 205.646 65.8631 205.563 64.8781C206.794 64.7686 207.804 64.6592 209.088 64.4403L211.271 64.112L211.824 60.1719H211.456C208.914 60.1719 208.13 60.2449 207.909 60.2449C207.504 60.2449 207.472 60.2084 207.523 59.8436Z" fill="#444444"/>
</svg>
