<svg width="110" height="34" viewBox="0 0 110 34" fill="none" xmlns="http://www.w3.org/2000/svg">
<path d="M30.0586 33.4671V20.8184H38.3154V23.0494H32.4478V25.7549H37.2613V27.986H32.4478V31.236H38.3154V33.4671H30.0586Z" fill="#222222"/>
<path d="M21.7418 33.4671V23.0494H17.7539V20.8184H28.1188V23.0494H24.131V33.4671H21.7418Z" fill="#222222"/>
<path d="M13.2578 33.4671V20.8184H15.647V33.4671H13.2578Z" fill="#222222"/>
<path d="M5.54761 33.7306C4.61067 33.7306 3.7645 33.5666 3.00909 33.2387C2.25954 32.9049 1.64174 32.4306 1.1557 31.8157C0.675522 31.195 0.371017 30.4572 0.242188 29.6022L2.73679 29.2333C2.91247 29.9594 3.27553 30.5187 3.82598 30.911C4.37644 31.3033 5.00302 31.4995 5.70572 31.4995C6.09806 31.4995 6.4787 31.438 6.84762 31.3151C7.21654 31.1921 7.51812 31.0105 7.75235 30.7705C7.99244 30.5304 8.11249 30.2346 8.11249 29.8833C8.11249 29.7545 8.09199 29.6315 8.051 29.5144C8.01587 29.3914 7.95438 29.2772 7.86654 29.1718C7.7787 29.0664 7.6528 28.9669 7.48884 28.8732C7.33073 28.7795 7.1287 28.6946 6.88275 28.6184L3.59761 27.6522C3.35166 27.5819 3.06472 27.4824 2.73679 27.3536C2.41472 27.2247 2.10143 27.0403 1.79692 26.8002C1.49242 26.5601 1.23769 26.2439 1.03273 25.8515C0.833631 25.4533 0.734081 24.9526 0.734081 24.3495C0.734081 23.5004 0.947821 22.7948 1.3753 22.2326C1.80278 21.6704 2.37373 21.2517 3.08814 20.9765C3.80256 20.7013 4.5931 20.5666 5.45977 20.5724C6.3323 20.5842 7.11113 20.7335 7.79627 21.0204C8.48141 21.3074 9.05528 21.7261 9.5179 22.2765C9.98051 22.8211 10.3143 23.4887 10.5193 24.2792L7.93681 24.7184C7.84312 24.3085 7.67037 23.963 7.41857 23.6819C7.16676 23.4008 6.86518 23.1871 6.51383 23.0407C6.16834 22.8943 5.80527 22.8152 5.42464 22.8035C5.04986 22.7918 4.69558 22.8445 4.3618 22.9616C4.03387 23.0729 3.7645 23.2369 3.55369 23.4535C3.34873 23.6702 3.24625 23.9279 3.24625 24.2265C3.24625 24.5017 3.33116 24.7272 3.50098 24.9029C3.6708 25.0727 3.88454 25.2103 4.1422 25.3157C4.39986 25.4211 4.66338 25.509 4.93275 25.5792L7.1287 26.1765C7.45663 26.2644 7.81969 26.3815 8.21789 26.5279C8.61609 26.6684 8.99672 26.8675 9.35979 27.1252C9.72871 27.377 10.0303 27.7108 10.2645 28.1265C10.5046 28.5423 10.6247 29.0693 10.6247 29.7076C10.6247 30.3869 10.4812 30.9813 10.1943 31.4907C9.91317 31.9943 9.53254 32.413 9.05236 32.7468C8.57217 33.0747 8.02758 33.3207 7.41857 33.4847C6.81541 33.6486 6.19176 33.7306 5.54761 33.7306Z" fill="#222222"/>
<path d="M104.008 13.6542C103.212 13.6542 102.453 13.5137 101.733 13.2326C101.013 12.9457 100.375 12.5241 99.8183 11.9677C99.2678 11.4114 98.8316 10.7234 98.5095 9.90355C98.1933 9.08373 98.0352 8.138 98.0352 7.06638C98.0352 5.66682 98.3016 4.47808 98.8345 3.50015C99.3732 2.51636 100.093 1.76681 100.995 1.25149C101.903 0.736174 102.907 0.478516 104.008 0.478516C105.636 0.478516 106.916 0.85622 107.847 1.61163C108.778 2.36704 109.401 3.43573 109.718 4.81772L107.276 5.16907C107.047 4.43123 106.673 3.84272 106.151 3.40353C105.636 2.95848 104.974 2.73303 104.166 2.72717C103.364 2.71546 102.696 2.88821 102.164 3.24542C101.631 3.60263 101.23 4.10916 100.96 4.76502C100.697 5.42088 100.565 6.18799 100.565 7.06638C100.565 7.94476 100.697 8.70602 100.96 9.35017C101.23 9.99432 101.631 10.495 102.164 10.8522C102.696 11.2094 103.364 11.3939 104.166 11.4056C104.711 11.4173 105.203 11.3236 105.642 11.1245C106.087 10.9254 106.462 10.6121 106.766 10.1846C107.071 9.75715 107.287 9.20963 107.416 8.54206H105.414V6.69746H109.964C109.975 6.77358 109.984 6.90827 109.99 7.10151C109.996 7.29476 109.999 7.40602 109.999 7.4353C109.999 8.64746 109.753 9.72202 109.261 10.659C108.769 11.5959 108.075 12.3308 107.179 12.8637C106.283 13.3907 105.226 13.6542 104.008 13.6542Z" fill="#222222"/>
<path d="M85.4141 13.3909V0.742188H87.8384L93.3371 9.17465V0.742188H95.7614V13.3909H93.3371L87.8384 4.95842V13.3909H85.4141Z" fill="#222222"/>
<path d="M79.8633 13.3909V0.742188H82.2525V13.3909H79.8633Z" fill="#222222"/>
<path d="M71.3707 13.3909V2.97328H67.3828V0.742188H77.7477V2.97328H73.7599V13.3909H71.3707Z" fill="#222222"/>
<path d="M62.8867 13.3909V0.742188H65.2759V13.3909H62.8867Z" fill="#222222"/>
<path d="M54.5848 13.6544C53.5659 13.6544 52.6699 13.4494 51.897 13.0395C51.124 12.6238 50.5208 12.0411 50.0875 11.2915C49.6542 10.542 49.4375 9.66069 49.4375 8.64762V0.759755L51.8618 0.742188V8.63005C51.8618 9.04582 51.9321 9.42353 52.0726 9.76317C52.2132 10.1028 52.4064 10.3956 52.6524 10.6415C52.9042 10.8875 53.194 11.0778 53.522 11.2125C53.8558 11.3413 54.21 11.4057 54.5848 11.4057C54.9713 11.4057 55.3285 11.3384 55.6564 11.2037C55.9902 11.069 56.2801 10.8787 56.526 10.6328C56.772 10.3868 56.9623 10.094 57.097 9.75438C57.2375 9.41474 57.3078 9.03996 57.3078 8.63005V0.742188H59.7321V8.64762C59.7321 9.66069 59.5155 10.542 59.0821 11.2915C58.6488 12.0411 58.0456 12.6238 57.2727 13.0395C56.4997 13.4494 55.6037 13.6544 54.5848 13.6544Z" fill="#222222"/>
<path d="M37.1406 13.3909V0.742188H42.4812C42.6042 0.742188 42.7681 0.748043 42.9731 0.759755C43.1839 0.765611 43.3713 0.783179 43.5352 0.812458C44.2906 0.929576 44.9084 1.17845 45.3886 1.55908C45.8747 1.93971 46.2319 2.4199 46.4603 2.99963C46.6886 3.5735 46.8028 4.21472 46.8028 4.92328C46.8028 5.9832 46.5393 6.89086 46.0123 7.64627C45.4853 8.39582 44.6596 8.85843 43.5352 9.03411L42.4812 9.10438H39.5298V13.3909H37.1406ZM44.2731 13.3909L41.7785 8.24357L44.2379 7.76924L46.9785 13.3909H44.2731ZM39.5298 6.87329H42.3758C42.4988 6.87329 42.6334 6.86743 42.7798 6.85572C42.9262 6.84401 43.0609 6.82059 43.1839 6.78545C43.506 6.69761 43.7548 6.55122 43.9305 6.34626C44.1062 6.13545 44.2262 5.90414 44.2907 5.65234C44.3609 5.39468 44.3961 5.15166 44.3961 4.92328C44.3961 4.6949 44.3609 4.45481 44.2907 4.20301C44.2262 3.94535 44.1062 3.71405 43.9305 3.50909C43.7548 3.29828 43.506 3.14895 43.1839 3.06112C43.0609 3.02598 42.9262 3.00256 42.7798 2.99084C42.6334 2.97913 42.4988 2.97328 42.3758 2.97328H39.5298V6.87329Z" fill="#222222"/>
<path d="M28.9358 13.6542C27.6709 13.6542 26.5788 13.379 25.6594 12.8286C24.7459 12.2781 24.0403 11.5081 23.5425 10.5184C23.0506 9.52877 22.8047 8.37809 22.8047 7.06638C22.8047 5.75466 23.0506 4.60398 23.5425 3.61434C24.0403 2.62469 24.7459 1.85465 25.6594 1.30419C26.5788 0.753742 27.6709 0.478516 28.9358 0.478516C30.388 0.478516 31.6061 0.838652 32.5899 1.55892C33.5795 2.2792 34.2764 3.2542 34.6804 4.48393L32.2736 5.15151C32.0394 4.38439 31.6441 3.79001 31.0878 3.36839C30.5315 2.94091 29.8142 2.72717 28.9358 2.72717C28.1335 2.72717 27.463 2.90578 26.9243 3.26299C26.3914 3.62019 25.9903 4.1238 25.7209 4.7738C25.4515 5.4238 25.3169 6.18799 25.3169 7.06638C25.3169 7.94476 25.4515 8.70895 25.7209 9.35895C25.9903 10.009 26.3914 10.5126 26.9243 10.8698C27.463 11.227 28.1335 11.4056 28.9358 11.4056C29.8142 11.4056 30.5315 11.1918 31.0878 10.7644C31.6441 10.3369 32.0394 9.74251 32.2736 8.98125L34.6804 9.64882C34.2764 10.8786 33.5795 11.8536 32.5899 12.5738C31.6061 13.2941 30.388 13.6542 28.9358 13.6542Z" fill="#222222"/>
<path d="M13.0664 13.3909V0.742188H21.3232V2.97328H15.4556V5.67869H20.2691V7.90978H15.4556V11.1598H21.3232V13.3909H13.0664Z" fill="#222222"/>
<path d="M0.769531 13.3909V0.742188H6.11009C6.23306 0.742188 6.39703 0.748043 6.60198 0.759755C6.8128 0.765611 7.00018 0.783179 7.16415 0.812458C7.91956 0.929576 8.53735 1.17845 9.01753 1.55908C9.50357 1.93971 9.86078 2.4199 10.0892 2.99963C10.3175 3.5735 10.4317 4.21472 10.4317 4.92328C10.4317 5.9832 10.1682 6.89086 9.64119 7.64627C9.11416 8.39582 8.28848 8.85843 7.16415 9.03411L6.11009 9.10438H3.15873V13.3909H0.769531ZM7.90199 13.3909L5.40739 8.24357L7.86685 7.76924L10.6074 13.3909H7.90199ZM3.15873 6.87329H6.00469C6.12766 6.87329 6.26234 6.86743 6.40874 6.85572C6.55514 6.84401 6.68982 6.82059 6.8128 6.78545C7.13487 6.69761 7.38374 6.55122 7.55942 6.34626C7.7351 6.13545 7.85514 5.90414 7.91956 5.65234C7.98983 5.39468 8.02496 5.15166 8.02496 4.92328C8.02496 4.6949 7.98983 4.45481 7.91956 4.20301C7.85514 3.94535 7.7351 3.71405 7.55942 3.50909C7.38374 3.29828 7.13487 3.14895 6.8128 3.06112C6.68982 3.02598 6.55514 3.00256 6.40874 2.99084C6.26234 2.97913 6.12766 2.97328 6.00469 2.97328H3.15873V6.87329Z" fill="#222222"/>
</svg>
