<svg width="48" height="48" viewBox="0 0 48 48" fill="none" xmlns="http://www.w3.org/2000/svg">
<path fill-rule="evenodd" clip-rule="evenodd" d="M24.0031 14.4004C24.6659 14.4004 25.2031 14.9376 25.2031 15.6004L25.2031 33.6004C25.2031 34.2631 24.6659 34.8004 24.0031 34.8004C23.3404 34.8004 22.8031 34.2631 22.8031 33.6004L22.8031 15.6004C22.8031 14.9376 23.3404 14.4004 24.0031 14.4004Z" fill="#005BAC"/>
<path fill-rule="evenodd" clip-rule="evenodd" d="M19.9578 21.5142C16.2439 20.0286 12.563 20.0286 8.84911 21.5142C8.23377 21.7603 7.53541 21.461 7.28927 20.8457C7.04314 20.2303 7.34244 19.532 7.95778 19.2858C12.2439 17.5714 16.563 17.5714 20.8491 19.2858C21.4645 19.532 21.7638 20.2303 21.5176 20.8457C21.2715 21.461 20.5731 21.7603 19.9578 21.5142Z" fill="#005BAC"/>
<path fill-rule="evenodd" clip-rule="evenodd" d="M19.9578 26.315C16.2439 24.8294 12.563 24.8294 8.84911 26.315C8.23377 26.5611 7.53541 26.2618 7.28927 25.6465C7.04314 25.0311 7.34244 24.3327 7.95778 24.0866C12.2439 22.3722 16.563 22.3722 20.8491 24.0866C21.4645 24.3327 21.7638 25.0311 21.5176 25.6465C21.2715 26.2618 20.5731 26.5611 19.9578 26.315Z" fill="#005BAC"/>
<path fill-rule="evenodd" clip-rule="evenodd" d="M19.9578 16.7144C16.2439 15.2288 12.563 15.2288 8.84911 16.7144C8.23377 16.9605 7.53541 16.6612 7.28927 16.0459C7.04314 15.4305 7.34244 14.7322 7.95778 14.486C12.2439 12.7716 16.563 12.7716 20.8491 14.486C21.4645 14.7322 21.7638 15.4305 21.5176 16.0459C21.2715 16.6612 20.5731 16.9605 19.9578 16.7144Z" fill="#005BAC"/>
<path fill-rule="evenodd" clip-rule="evenodd" d="M6.00156 11.7484V36.8916C11.9998 35.6184 18.0042 35.7094 24.0016 37.1645C29.9989 35.7094 36.0033 35.6184 42.0016 36.8916V11.7484C36.0964 10.416 30.1985 10.4881 24.2926 11.9646C24.1015 12.0123 23.9016 12.0123 23.7105 11.9646C17.8046 10.4881 11.9067 10.416 6.00156 11.7484ZM24.0016 9.56453C17.5072 7.9888 11.0046 8.0127 4.51052 9.63622C3.97632 9.76977 3.60156 10.2497 3.60156 10.8004V38.4004C3.60156 38.7699 3.77181 39.1188 4.06307 39.3462C4.35433 39.5736 4.73412 39.6542 5.09261 39.5646C11.3015 38.0123 17.5016 38.0123 23.7105 39.5646C23.9016 39.6123 24.1015 39.6123 24.2926 39.5646C30.5015 38.0123 36.7016 38.0123 42.9105 39.5646C43.269 39.6542 43.6488 39.5736 43.9401 39.3462C44.2313 39.1188 44.4016 38.7699 44.4016 38.4004V10.8004C44.4016 10.2497 44.0268 9.76977 43.4926 9.63622C36.9985 8.0127 30.4959 7.9888 24.0016 9.56453Z" fill="#005BAC"/>
</svg>
