<svg width="48" height="48" viewBox="0 0 48 48" fill="none" xmlns="http://www.w3.org/2000/svg">
<path fill-rule="evenodd" clip-rule="evenodd" d="M27.9219 32.4156C27.9219 28.2181 31.3246 24.8154 35.522 24.8154C39.7195 24.8154 43.1222 28.2181 43.1222 32.4156V35.4234H40.7222V32.4156C40.7222 29.5436 38.394 27.2154 35.522 27.2154C32.6501 27.2154 30.3219 29.5436 30.3219 32.4156V35.4234H27.9219V32.4156Z" fill="#005BAC"/>
<path fill-rule="evenodd" clip-rule="evenodd" d="M30.4844 17.5197C30.4844 14.8688 32.6334 12.7197 35.2844 12.7197H35.7646C38.4155 12.7197 40.5646 14.8688 40.5646 17.5197V18.3837C40.5646 21.0347 38.4155 23.1837 35.7646 23.1837H35.2844C32.6334 23.1837 30.4844 21.0347 30.4844 18.3837V17.5197ZM35.2844 15.1197C33.9589 15.1197 32.8844 16.1942 32.8844 17.5197V18.3837C32.8844 19.7092 33.9589 20.7837 35.2844 20.7837H35.7646C37.0901 20.7837 38.1646 19.7092 38.1646 18.3837V17.5197C38.1646 16.1942 37.0901 15.1197 35.7646 15.1197H35.2844Z" fill="#005BAC"/>
<path fill-rule="evenodd" clip-rule="evenodd" d="M4.88281 37.7916C4.88281 33.5941 8.28552 30.1914 12.483 30.1914C16.6804 30.1914 20.0831 33.5941 20.0831 37.7916V40.7994H17.6831V37.7916C17.6831 34.9196 15.3549 32.5914 12.483 32.5914C9.611 32.5914 7.28281 34.9196 7.28281 37.7916V40.7994H4.88281V37.7916Z" fill="#005BAC"/>
<path fill-rule="evenodd" clip-rule="evenodd" d="M7.44531 22.8957C7.44531 20.2447 9.59435 18.0957 12.2453 18.0957H12.7255C15.3765 18.0957 17.5255 20.2447 17.5255 22.8957V23.7597C17.5255 26.4107 15.3765 28.5597 12.7255 28.5597H12.2453C9.59435 28.5597 7.44531 26.4107 7.44531 23.7597V22.8957ZM12.2453 20.4957C10.9198 20.4957 9.84531 21.5702 9.84531 22.8957V23.7597C9.84531 25.0852 10.9198 26.1597 12.2453 26.1597H12.7255C14.051 26.1597 15.1255 25.0852 15.1255 23.7597V22.8957C15.1255 21.5702 14.051 20.4957 12.7255 20.4957H12.2453Z" fill="#005BAC"/>
<path fill-rule="evenodd" clip-rule="evenodd" d="M17.6025 34.0795L43.2031 34.0795L43.2031 36.4795L17.6025 36.4795L17.6025 34.0795Z" fill="#005BAC"/>
<path fill-rule="evenodd" clip-rule="evenodd" d="M27.7578 25.8721H18.9577V23.4721H27.7578V25.8721Z" fill="#005BAC"/>
<path fill-rule="evenodd" clip-rule="evenodd" d="M3.60156 7.2C3.60156 6.53726 4.13882 6 4.80156 6H35.5223C36.1851 6 36.7223 6.53726 36.7223 7.2V11.088H34.3223V8.4H6.00156V24.528H3.60156V7.2Z" fill="#005BAC"/>
</svg>
