<svg width="80" height="80" viewBox="0 0 80 80" fill="none" xmlns="http://www.w3.org/2000/svg">
<path fill-rule="evenodd" clip-rule="evenodd" d="M20 14C16.6863 14 14 16.6863 14 20V51.0556C14 51.6245 13.7577 52.1664 13.3338 52.5458C11.2848 54.3798 10 57.0385 10 60C10 65.5229 14.4772 70 20 70C25.5228 70 30 65.5229 30 60C30 57.0385 28.7152 54.3798 26.6662 52.5458C26.2423 52.1664 26 51.6245 26 51.0556V20C26 16.6863 23.3137 14 20 14ZM10 20C10 14.4772 14.4772 10 20 10C25.5228 10 30 14.4772 30 20V50.2021C32.4722 52.7252 34 56.1853 34 60C34 67.732 27.732 74 20 74C12.268 74 6 67.732 6 60C6 56.1853 7.52784 52.7252 10 50.2021V20Z" fill="white"/>
<path fill-rule="evenodd" clip-rule="evenodd" d="M20 18C21.1046 18 22 18.8954 22 20L22 60C22 61.1046 21.1046 62 20 62C18.8954 62 18 61.1046 18 60L18 20C18 18.8954 18.8954 18 20 18Z" fill="white"/>
<path d="M24 60C24 62.2091 22.2091 64 20 64C17.7909 64 16 62.2091 16 60C16 57.7909 17.7909 56 20 56C22.2091 56 24 57.7909 24 60Z" fill="white"/>
<path fill-rule="evenodd" clip-rule="evenodd" d="M47.9992 12C48.6068 12 49.1814 12.2762 49.561 12.7506L57.561 22.7506L54.4375 25.2494L49.9992 19.7016V56H45.9992V19.7016L41.561 25.2494L38.4375 22.7506L46.4375 12.7506C46.817 12.2762 47.3917 12 47.9992 12Z" fill="white"/>
<path fill-rule="evenodd" clip-rule="evenodd" d="M64.0008 56C63.3932 56 62.8186 55.7238 62.439 55.2494L54.439 45.2494L57.5625 42.7506L62.0008 48.2984L62.0008 12L66.0008 12L66.0008 48.2984L70.439 42.7506L73.5625 45.2494L65.5625 55.2494C65.183 55.7238 64.6083 56 64.0008 56Z" fill="white"/>
</svg>
