<svg width="80" height="80" viewBox="0 0 80 80" fill="none" xmlns="http://www.w3.org/2000/svg">
<path fill-rule="evenodd" clip-rule="evenodd" d="M39.1094 29.7889C29.0058 24.737 19.0018 24.737 8.89823 29.7889L7.10938 26.2111C18.3391 20.5963 29.6685 20.5963 40.8982 26.2111L39.1094 29.7889Z" fill="white"/>
<path fill-rule="evenodd" clip-rule="evenodd" d="M40.8984 26.2111C51.0021 31.2629 61.006 31.2629 71.1096 26.2111L72.8984 29.7889C61.6687 35.4037 50.3393 35.4037 39.1096 29.7889L40.8984 26.2111Z" fill="white"/>
<path fill-rule="evenodd" clip-rule="evenodd" d="M39.1094 39.7889C29.0058 34.737 19.0018 34.737 8.89823 39.7889L7.10938 36.2111C18.3391 30.5963 29.6685 30.5963 40.8982 36.2111L39.1094 39.7889Z" fill="white"/>
<path fill-rule="evenodd" clip-rule="evenodd" d="M40.8984 40.2111C51.0021 45.2629 61.006 45.2629 71.1096 40.2111L72.8984 43.7889C61.6687 49.4037 50.3393 49.4037 39.1096 43.7889L40.8984 40.2111Z" fill="white"/>
<path fill-rule="evenodd" clip-rule="evenodd" d="M39.1094 53.7889C29.0058 48.737 19.0018 48.737 8.89823 53.7889L7.10938 50.2111C18.3391 44.5963 29.6685 44.5963 40.8982 50.2111L39.1094 53.7889Z" fill="white"/>
<path fill-rule="evenodd" clip-rule="evenodd" d="M40.8984 50.2111C51.0021 55.2629 61.006 55.2629 71.1096 50.2111L72.8984 53.7889C61.6687 59.4037 50.3393 59.4037 39.1096 53.7889L40.8984 50.2111Z" fill="white"/>
</svg>
