<svg width="80" height="80" viewBox="0 0 80 80" fill="none" xmlns="http://www.w3.org/2000/svg">
<path fill-rule="evenodd" clip-rule="evenodd" d="M39.1094 35.7889C29.0058 30.737 19.0018 30.737 8.89823 35.7889L7.10938 32.2111C18.3391 26.5963 29.6685 26.5963 40.8982 32.2111L39.1094 35.7889Z" fill="white"/>
<path fill-rule="evenodd" clip-rule="evenodd" d="M40.8984 32.2111C51.0021 37.2629 61.006 37.2629 71.1096 32.2111L72.8984 35.7889C61.6687 41.4037 50.3393 41.4037 39.1096 35.7889L40.8984 32.2111Z" fill="white"/>
<path fill-rule="evenodd" clip-rule="evenodd" d="M39.1094 51.7889C29.0058 46.737 19.0018 46.737 8.89823 51.7889L7.10938 48.2111C18.3391 42.5963 29.6685 42.5963 40.8982 48.2111L39.1094 51.7889Z" fill="white"/>
<path fill-rule="evenodd" clip-rule="evenodd" d="M40.8984 48.2111C51.0021 53.2629 61.006 53.2629 71.1096 48.2111L72.8984 51.7889C61.6687 57.4037 50.3393 57.4037 39.1096 51.7889L40.8984 48.2111Z" fill="white"/>
<path fill-rule="evenodd" clip-rule="evenodd" d="M60 16L60 8L64 8L64 16L60 16Z" fill="white"/>
<path fill-rule="evenodd" clip-rule="evenodd" d="M60 32L60 24L64 24L64 32L60 32Z" fill="white"/>
<path fill-rule="evenodd" clip-rule="evenodd" d="M64 18L72 18L72 22L64 22L64 18Z" fill="white"/>
<path fill-rule="evenodd" clip-rule="evenodd" d="M52 18L60 18L60 22L52 22L52 18Z" fill="white"/>
<path fill-rule="evenodd" clip-rule="evenodd" d="M44 56L44 48L48 48L48 56L44 56Z" fill="white"/>
<path fill-rule="evenodd" clip-rule="evenodd" d="M44 72L44 64L48 64L48 72L44 72Z" fill="white"/>
<path fill-rule="evenodd" clip-rule="evenodd" d="M48 58L56 58L56 62L48 62L48 58Z" fill="white"/>
<path fill-rule="evenodd" clip-rule="evenodd" d="M36 58L44 58L44 62L36 62L36 58Z" fill="white"/>
</svg>
