<svg width="80" height="80" viewBox="0 0 80 80" fill="none" xmlns="http://www.w3.org/2000/svg">
<path fill-rule="evenodd" clip-rule="evenodd" d="M72 10H8V6H72V10ZM8 14H72V18H8V14Z" fill="white"/>
<path fill-rule="evenodd" clip-rule="evenodd" d="M22 26H58V32C58 35.3137 55.3137 38 52 38H28C24.6863 38 22 35.3137 22 32V26ZM26 30V32C26 33.1046 26.8954 34 28 34H52C53.1046 34 54 33.1046 54 32V30H26Z" fill="white"/>
<path fill-rule="evenodd" clip-rule="evenodd" d="M14 14H66V24C66 27.3137 63.3137 30 60 30H20C16.6863 30 14 27.3137 14 24V14ZM18 18V24C18 25.1046 18.8954 26 20 26H60C61.1046 26 62 25.1046 62 24V18H18Z" fill="white"/>
<path fill-rule="evenodd" clip-rule="evenodd" d="M30.8703 53.4844L34.0703 41.4844L37.9353 42.515L34.7353 54.515L30.8703 53.4844ZM26.0703 71.4844L29.2703 59.4844L33.1353 60.515L29.9353 72.515L26.0703 71.4844Z" fill="white"/>
<path fill-rule="evenodd" clip-rule="evenodd" d="M49.1375 53.4844L45.9375 41.4844L42.0726 42.515L45.2726 54.515L49.1375 53.4844ZM53.9375 71.4844L50.7375 59.4844L46.8726 60.515L50.0726 72.515L53.9375 71.4844Z" fill="white"/>
<path fill-rule="evenodd" clip-rule="evenodd" d="M15.8969 51.3531L22.2969 40.9531L25.7035 43.0495L19.3035 53.4495L15.8969 51.3531ZM6.29688 66.9531L12.6969 56.5531L16.1035 58.6495L9.70351 69.0495L6.29688 66.9531Z" fill="white"/>
<path fill-rule="evenodd" clip-rule="evenodd" d="M64.1031 51.3531L57.7031 40.9531L54.2965 43.0495L60.6965 53.4495L64.1031 51.3531ZM73.7031 66.9531L67.3031 56.5531L63.8965 58.6495L70.2965 69.0495L73.7031 66.9531Z" fill="white"/>
</svg>
