<svg width="80" height="80" viewBox="0 0 80 80" fill="none" xmlns="http://www.w3.org/2000/svg">
<path fill-rule="evenodd" clip-rule="evenodd" d="M18 55C18 62.1797 23.8203 68 31 68C38.1797 68 44 62.1797 44 55C44 47.8203 38.1797 42 31 42C23.8203 42 18 47.8203 18 55ZM31 72C21.6112 72 14 64.3888 14 55C14 45.6112 21.6112 38 31 38C40.3888 38 48 45.6112 48 55C48 64.3888 40.3888 72 31 72Z" fill="white"/>
<path fill-rule="evenodd" clip-rule="evenodd" d="M30 64C30 62.8954 30.8954 62 32 62C35.3137 62 38 59.3137 38 56C38 54.8954 38.8954 54 40 54C41.1046 54 42 54.8954 42 56C42 61.5228 37.5228 66 32 66C30.8954 66 30 65.1046 30 64Z" fill="white"/>
<path fill-rule="evenodd" clip-rule="evenodd" d="M52 24C52 22.8954 52.8954 22 54 22C55.1046 22 56 21.1046 56 20C56 18.8954 56.8954 18 58 18C59.1046 18 60 18.8954 60 20C60 23.3137 57.3137 26 54 26C52.8954 26 52 25.1046 52 24Z" fill="white"/>
<path fill-rule="evenodd" clip-rule="evenodd" d="M46 20C46 24.4183 49.5817 28 54 28C58.4183 28 62 24.4183 62 20C62 15.5817 58.4183 12 54 12C49.5817 12 46 15.5817 46 20ZM54 32C47.3726 32 42 26.6274 42 20C42 13.3726 47.3726 8 54 8C60.6274 8 66 13.3726 66 20C66 26.6274 60.6274 32 54 32Z" fill="white"/>
</svg>
