<svg width="80" height="80" viewBox="0 0 80 80" fill="none" xmlns="http://www.w3.org/2000/svg">
<path fill-rule="evenodd" clip-rule="evenodd" d="M29.4286 24V16H33.4286V24C33.4286 28.4183 29.8468 32 25.4286 32H16V28H25.4286C27.6377 28 29.4286 26.2091 29.4286 24ZM50.5714 16V24C50.5714 26.2091 52.3623 28 54.5714 28H64V32H54.5714C50.1532 32 46.5714 28.4183 46.5714 24V16H50.5714ZM25.4286 52H16V48H25.4286C29.8468 48 33.4286 51.5817 33.4286 56V64H29.4286V56C29.4286 53.7909 27.6377 52 25.4286 52ZM46.5714 56C46.5714 51.5817 50.1531 48 54.5714 48H64V52H54.5714C52.3623 52 50.5714 53.7909 50.5714 56V64H46.5714V56Z" fill="white"/>
<path fill-rule="evenodd" clip-rule="evenodd" d="M16 24C17.1046 24 18 24.8954 18 26L18 54C18 55.1046 17.1046 56 16 56C14.8954 56 14 55.1046 14 54L14 26C14 24.8954 14.8954 24 16 24Z" fill="white"/>
<path fill-rule="evenodd" clip-rule="evenodd" d="M56 16C56 17.1046 55.1046 18 54 18L26 18C24.8954 18 24 17.1046 24 16C24 14.8954 24.8954 14 26 14L54 14C55.1046 14 56 14.8954 56 16Z" fill="white"/>
<path fill-rule="evenodd" clip-rule="evenodd" d="M24 64C24 62.8954 24.8954 62 26 62L54 62C55.1046 62 56 62.8954 56 64C56 65.1046 55.1046 66 54 66L26 66C24.8954 66 24 65.1046 24 64Z" fill="white"/>
<path fill-rule="evenodd" clip-rule="evenodd" d="M72 26C73.1046 26 74 26.8954 74 28L74 52C74 53.1046 73.1046 54 72 54C70.8954 54 70 53.1046 70 52L70 28C70 26.8954 70.8954 26 72 26Z" fill="white"/>
<path fill-rule="evenodd" clip-rule="evenodd" d="M8 26C9.10457 26 10 26.8954 10 28L10 52C10 53.1046 9.10457 54 8 54C6.89543 54 6 53.1046 6 52L6 28C6 26.8954 6.89543 26 8 26Z" fill="white"/>
<path fill-rule="evenodd" clip-rule="evenodd" d="M26 72C26 70.8954 26.8954 70 28 70L52 70C53.1046 70 54 70.8954 54 72C54 73.1046 53.1046 74 52 74L28 74C26.8954 74 26 73.1046 26 72Z" fill="white"/>
<path fill-rule="evenodd" clip-rule="evenodd" d="M54 8C54 9.10457 53.1046 10 52 10L28 10C26.8954 10 26 9.10457 26 8C26 6.89543 26.8954 6 28 6L52 6C53.1046 6 54 6.89543 54 8Z" fill="white"/>
<path fill-rule="evenodd" clip-rule="evenodd" d="M64 24C65.1046 24 66 24.8954 66 26L66 54C66 55.1046 65.1046 56 64 56C62.8954 56 62 55.1046 62 54L62 26C62 24.8954 62.8954 24 64 24Z" fill="white"/>
</svg>
