<svg width="80" height="80" viewBox="0 0 80 80" fill="none" xmlns="http://www.w3.org/2000/svg">
<path fill-rule="evenodd" clip-rule="evenodd" d="M12 41.2258V18H16V41.2258C16 53.8036 26.1964 64 38.7742 64H62V68H38.7742C23.9872 68 12 56.0128 12 41.2258Z" fill="white"/>
<path fill-rule="evenodd" clip-rule="evenodd" d="M38 28.6452V18H42V28.6452C42 33.8117 46.1883 38 51.3548 38H62V42H51.3548C43.9792 42 38 36.0208 38 28.6452Z" fill="white"/>
<path fill-rule="evenodd" clip-rule="evenodd" d="M44 10C44 11.1046 43.1046 12 42 12L12 12C10.8954 12 10 11.1046 10 10C10 8.89543 10.8954 8 12 8L42 8C43.1046 8 44 8.89543 44 10Z" fill="white"/>
<path fill-rule="evenodd" clip-rule="evenodd" d="M70 70C68.8954 70 68 69.1046 68 68L68 38C68 36.8954 68.8954 36 70 36C71.1046 36 72 36.8954 72 38L72 68C72 69.1046 71.1046 70 70 70Z" fill="white"/>
<path fill-rule="evenodd" clip-rule="evenodd" d="M48 18C48 19.1046 47.1046 20 46 20L8 20C6.89543 20 6 19.1046 6 18C6 16.8954 6.89543 16 8 16L46 16C47.1046 16 48 16.8954 48 18Z" fill="white"/>
<path fill-rule="evenodd" clip-rule="evenodd" d="M62 74C60.8954 74 60 73.1046 60 72L60 34C60 32.8954 60.8954 32 62 32C63.1046 32 64 32.8954 64 34L64 72C64 73.1046 63.1046 74 62 74Z" fill="white"/>
</svg>
