<svg width="80" height="80" viewBox="0 0 80 80" fill="none" xmlns="http://www.w3.org/2000/svg">
<path fill-rule="evenodd" clip-rule="evenodd" d="M29.4286 40V32H33.4286V40C33.4286 44.4183 29.8468 48 25.4286 48H16V44H25.4286C27.6377 44 29.4286 42.2091 29.4286 40ZM50.5714 32V40C50.5714 42.2091 52.3623 44 54.5714 44H64V48H54.5714C50.1532 48 46.5714 44.4183 46.5714 40V32H50.5714Z" fill="white"/>
<path fill-rule="evenodd" clip-rule="evenodd" d="M16 40C17.1046 40 18 40.8954 18 42L18 70C18 71.1046 17.1046 72 16 72C14.8954 72 14 71.1046 14 70L14 42C14 40.8954 14.8954 40 16 40Z" fill="white"/>
<path fill-rule="evenodd" clip-rule="evenodd" d="M72 42C73.1046 42 74 42.8954 74 44L74 68C74 69.1046 73.1046 70 72 70C70.8954 70 70 69.1046 70 68L70 44C70 42.8954 70.8954 42 72 42Z" fill="white"/>
<path fill-rule="evenodd" clip-rule="evenodd" d="M54 28C54 29.1046 53.1046 30 52 30L28 30C26.8954 30 26 29.1046 26 28C26 26.8954 26.8954 26 28 26L52 26C53.1046 26 54 26.8954 54 28Z" fill="white"/>
<path fill-rule="evenodd" clip-rule="evenodd" d="M46 10C46 11.1046 45.1046 12 44 12L36 12C34.8954 12 34 11.1046 34 10C34 8.89543 34.8954 8 36 8L44 8C45.1046 8 46 8.89543 46 10Z" fill="white"/>
<path fill-rule="evenodd" clip-rule="evenodd" d="M40 30C38.8954 30 38 29.1046 38 28L38 20C38 18.8954 38.8954 18 40 18C41.1046 18 42 18.8954 42 20L42 28C42 29.1046 41.1046 30 40 30Z" fill="white"/>
<path fill-rule="evenodd" clip-rule="evenodd" d="M18 18C18 16.8954 18.8954 16 20 16L60 16C61.1046 16 62 16.8954 62 18C62 19.1046 61.1046 20 60 20L20 20C18.8954 20 18 19.1046 18 18Z" fill="white"/>
<path fill-rule="evenodd" clip-rule="evenodd" d="M8 42C9.10457 42 10 42.8954 10 44L10 68C10 69.1046 9.10457 70 8 70C6.89543 70 6 69.1046 6 68L6 44C6 42.8954 6.89543 42 8 42Z" fill="white"/>
<path fill-rule="evenodd" clip-rule="evenodd" d="M64 40C65.1046 40 66 40.8954 66 42L66 70C66 71.1046 65.1046 72 64 72C62.8954 72 62 71.1046 62 70L62 42C62 40.8954 62.8954 40 64 40Z" fill="white"/>
<path fill-rule="evenodd" clip-rule="evenodd" d="M64 68H16V64H64V68Z" fill="white"/>
<path d="M66 18C66 20.2091 64.2091 22 62 22C59.7909 22 58 20.2091 58 18C58 15.7909 59.7909 14 62 14C64.2091 14 66 15.7909 66 18Z" fill="white"/>
<path d="M44 18C44 20.2091 42.2091 22 40 22C37.7909 22 36 20.2091 36 18C36 15.7909 37.7909 14 40 14C42.2091 14 44 15.7909 44 18Z" fill="white"/>
<path d="M22 18C22 20.2091 20.2091 22 18 22C15.7909 22 14 20.2091 14 18C14 15.7909 15.7909 14 18 14C20.2091 14 22 15.7909 22 18Z" fill="white"/>
</svg>
