<svg width="80" height="80" viewBox="0 0 80 80" fill="none" xmlns="http://www.w3.org/2000/svg">
<rect width="80" height="80" rx="40" fill="#E6F8FF"/>
<path d="M46.125 60.8359L45.3242 55.3672C45.0117 53.2448 44.6862 51.4805 44.3477 50.0742C44.0091 48.668 43.5924 47.5286 43.0977 46.6562C42.6029 45.7839 41.9714 45.1003 41.2031 44.6055C40.4479 44.0977 39.4974 43.6875 38.3516 43.375C37.2188 43.0495 35.832 42.724 34.1914 42.3984L31.0859 41.793V38.8633L34.1914 38.2578C35.832 37.9323 37.2188 37.6133 38.3516 37.3008C39.4974 36.9753 40.4479 36.5651 41.2031 36.0703C41.9714 35.5625 42.6029 34.8724 43.0977 34C43.5924 33.1276 44.0091 31.9883 44.3477 30.582C44.6862 29.1758 45.0117 27.4115 45.3242 25.2891L46.125 19.8203H49.0938L49.8945 25.2891C50.207 27.4115 50.5326 29.1758 50.8711 30.582C51.2096 31.9883 51.6263 33.1276 52.1211 34C52.6159 34.8724 53.2409 35.5625 53.9961 36.0703C54.7643 36.5651 55.7148 36.9753 56.8477 37.3008C57.9935 37.6133 59.3867 37.9323 61.0273 38.2578L64.1328 38.8633V41.793L61.0273 42.3984C59.3867 42.724 57.9935 43.0495 56.8477 43.375C55.7148 43.6875 54.7643 44.0977 53.9961 44.6055C53.2409 45.1003 52.6159 45.7839 52.1211 46.6562C51.6263 47.5286 51.2096 48.668 50.8711 50.0742C50.5326 51.4674 50.207 53.2318 49.8945 55.3672L49.0938 60.8359H46.125ZM24.582 60.8359L23.8594 57.5742C23.5729 56.2852 23.319 55.3021 23.0977 54.625C22.8763 53.9609 22.5573 53.4727 22.1406 53.1602C21.724 52.8346 21.0859 52.5547 20.2266 52.3203L16.8672 51.3828V48.375L20.2266 47.4375C21.0859 47.1901 21.724 46.9102 22.1406 46.5977C22.5573 46.2852 22.8763 45.7969 23.0977 45.1328C23.319 44.4557 23.5729 43.4727 23.8594 42.1836L24.582 38.9219H27.668L28.3906 42.1836C28.6771 43.4727 28.931 44.4557 29.1523 45.1328C29.3737 45.7969 29.6927 46.2852 30.1094 46.5977C30.526 46.9102 31.1641 47.1901 32.0234 47.4375L35.3828 48.375V51.3828L32.0234 52.3203C31.1641 52.5547 30.526 52.8346 30.1094 53.1602C29.6927 53.4727 29.3737 53.9609 29.1523 54.625C28.931 55.3021 28.6771 56.2852 28.3906 57.5742L27.668 60.8359H24.582ZM26.2227 56.9688C26.431 55.7448 26.6654 54.7357 26.9258 53.9414C27.1862 53.1471 27.5247 52.5026 27.9414 52.0078C28.3711 51.5 28.9245 51.0964 29.6016 50.7969C30.2786 50.4844 31.1445 50.2109 32.1992 49.9766V49.7812C31.1445 49.5469 30.2786 49.2799 29.6016 48.9805C28.9245 48.668 28.3711 48.2643 27.9414 47.7695C27.5247 47.2617 27.1862 46.6107 26.9258 45.8164C26.6654 45.0221 26.431 44.013 26.2227 42.7891H26.0273C25.819 44.013 25.5846 45.0221 25.3242 45.8164C25.0638 46.6107 24.7188 47.2617 24.2891 47.7695C23.8724 48.2643 23.3255 48.668 22.6484 48.9805C21.9714 49.2799 21.1055 49.5469 20.0508 49.7812V49.9766C21.1055 50.2109 21.9714 50.4844 22.6484 50.7969C23.3255 51.0964 23.8724 51.5 24.2891 52.0078C24.7188 52.5026 25.0638 53.1471 25.3242 53.9414C25.5846 54.7357 25.819 55.7448 26.0273 56.9688H26.2227ZM27.7266 37.1641L27.1992 34.5664C27.0039 33.5508 26.7956 32.776 26.5742 32.2422C26.3659 31.7083 26.0208 31.3047 25.5391 31.0312C25.0703 30.7448 24.3346 30.4909 23.332 30.2695L21.5156 29.8594V27.125L23.332 26.7148C24.3346 26.4805 25.0703 26.2266 25.5391 25.9531C26.0208 25.6797 26.3659 25.276 26.5742 24.7422C26.7956 24.1953 27.0039 23.4206 27.1992 22.418L27.7266 19.8203H30.6562L31.1836 22.418C31.3919 23.4206 31.6003 24.1953 31.8086 24.7422C32.0169 25.276 32.362 25.6797 32.8438 25.9531C33.3255 26.2266 34.0612 26.4805 35.0508 26.7148L36.8672 27.125V29.8594L35.0508 30.2695C34.0612 30.4909 33.3255 30.7448 32.8438 31.0312C32.362 31.3047 32.0169 31.7083 31.8086 32.2422C31.6003 32.776 31.3919 33.5508 31.1836 34.5664L30.6562 37.1641H27.7266ZM29.2891 34.0586C29.4453 33.0951 29.6211 32.3008 29.8164 31.6758C30.0247 31.0508 30.2917 30.5495 30.6172 30.1719C30.9557 29.7812 31.3919 29.4688 31.9258 29.2344C32.4596 29 33.1432 28.7852 33.9766 28.5898V28.3945C33.1432 28.1992 32.4596 27.9844 31.9258 27.75C31.3919 27.5156 30.9557 27.2096 30.6172 26.832C30.2917 26.4414 30.0247 25.9336 29.8164 25.3086C29.6211 24.6836 29.4453 23.8893 29.2891 22.9258H29.0938C28.9375 23.8893 28.7552 24.6836 28.5469 25.3086C28.3516 25.9336 28.0846 26.4414 27.7461 26.832C27.4206 27.2096 26.9909 27.5156 26.457 27.75C25.9232 27.9844 25.2396 28.1992 24.4062 28.3945V28.5898C25.2396 28.7852 25.9232 29 26.457 29.2344C26.9909 29.4688 27.4206 29.7812 27.7461 30.1719C28.0846 30.5495 28.3516 31.0508 28.5469 31.6758C28.7552 32.3008 28.9375 33.0951 29.0938 34.0586H29.2891ZM47.707 53.9805C47.9544 52.3268 48.2148 50.888 48.4883 49.6641C48.7747 48.4271 49.1068 47.3594 49.4844 46.4609C49.862 45.5625 50.3112 44.8008 50.832 44.1758C51.3529 43.5378 51.9714 42.9974 52.6875 42.5547C53.4167 42.099 54.2695 41.7083 55.2461 41.3828C56.2357 41.0443 57.375 40.7253 58.6641 40.4258V40.2305C57.375 39.931 56.2357 39.6185 55.2461 39.293C54.2695 38.9544 53.4167 38.5638 52.6875 38.1211C51.9714 37.6654 51.3529 37.125 50.832 36.5C50.3112 35.862 49.862 35.0938 49.4844 34.1953C49.1068 33.2969 48.7747 32.2357 48.4883 31.0117C48.2148 29.7747 47.9544 28.3294 47.707 26.6758H47.5117C47.2643 28.3294 46.9974 29.7747 46.7109 31.0117C46.4375 32.2357 46.112 33.2969 45.7344 34.1953C45.3568 35.0938 44.9076 35.862 44.3867 36.5C43.8659 37.125 43.2409 37.6654 42.5117 38.1211C41.7956 38.5638 40.9427 38.9544 39.9531 39.293C38.9766 39.6185 37.8438 39.931 36.5547 40.2305V40.4258C37.8438 40.7253 38.9766 41.0443 39.9531 41.3828C40.9427 41.7083 41.7956 42.099 42.5117 42.5547C43.2409 42.9974 43.8659 43.5378 44.3867 44.1758C44.9076 44.8008 45.3568 45.5625 45.7344 46.4609C46.112 47.3594 46.4375 48.4271 46.7109 49.6641C46.9974 50.888 47.2643 52.3268 47.5117 53.9805H47.707Z" fill="#005BAC"/>
</svg>
