<svg width="67" height="38" viewBox="0 0 67 38" fill="none" xmlns="http://www.w3.org/2000/svg">
<path d="M33.7656 37.5547C32.526 37.5547 31.3685 37.1992 30.293 36.4883C29.2357 35.7773 28.2513 34.7383 27.3398 33.3711C26.4466 32.0039 25.6263 30.3542 24.8789 28.4219L25.8906 28.8867C24.4688 29.306 22.9648 29.6159 21.3789 29.8164C19.8112 29.9987 18.1341 30.0898 16.3477 30.0898C11.0794 30.0898 7.06901 29.3516 4.31641 27.875C1.5638 26.3802 0.1875 24.2018 0.1875 21.3398C0.1875 17.2383 0.880208 13.5924 2.26562 10.4023C3.65104 7.19401 5.55599 4.67839 7.98047 2.85547C10.4232 1.01432 13.2122 0.09375 16.3477 0.09375C19.5195 0.09375 22.3086 1.01432 24.7148 2.85547C27.1211 4.67839 28.9987 7.1849 30.3477 10.375C31.7148 13.5651 32.3984 17.2201 32.3984 21.3398C32.3984 22.5977 32.5534 23.6458 32.8633 24.4844C33.1732 25.3047 33.6107 26.0977 34.1758 26.8633L33.0273 28.0938C32.0794 27.1823 31.3958 26.2344 30.9766 25.25C30.5573 24.2656 30.3477 22.9622 30.3477 21.3398C30.3477 17.6029 29.7461 14.2852 28.543 11.3867C27.3581 8.47005 25.7174 6.18229 23.6211 4.52344C21.5247 2.84635 19.1003 2.00781 16.3477 2.00781C13.6315 2.00781 11.2161 2.84635 9.10156 4.52344C7.00521 6.20052 5.35547 8.4974 4.15234 11.4141C2.96745 14.3125 2.375 17.6211 2.375 21.3398C2.375 25.8971 7.03255 28.1758 16.3477 28.1758C18.2799 28.1758 20.0482 28.0573 21.6523 27.8203C23.2747 27.5833 24.806 27.2461 26.2461 26.8086C26.6836 28.1393 27.2487 29.4883 27.9414 30.8555C28.6341 32.2044 29.3633 33.3346 30.1289 34.2461L29.1719 34.875C29.0443 34.5651 28.9805 34.2188 28.9805 33.8359C28.9805 33.0156 29.1901 32.2318 29.6094 31.4844C30.0286 30.737 30.6211 29.8893 31.3867 28.9414C32.1888 27.9206 32.9362 26.8177 33.6289 25.6328C34.3398 24.4479 34.6953 23.0169 34.6953 21.3398C34.6953 17.2201 35.3698 13.5651 36.7188 10.375C38.0859 7.1849 39.9727 4.67839 42.3789 2.85547C44.8034 1.01432 47.5924 0.09375 50.7461 0.09375C53.8997 0.09375 56.6888 1.01432 59.1133 2.85547C61.5378 4.67839 63.4427 7.19401 64.8281 10.4023C66.2135 13.5924 66.9062 17.2383 66.9062 21.3398C66.9062 24.2018 65.5299 26.3802 62.7773 27.875C60.043 29.3516 56.0326 30.0898 50.7461 30.0898C48.9779 30.0898 47.3008 29.9987 45.7148 29.8164C44.1471 29.6341 42.6615 29.3242 41.2578 28.8867L42.2969 28.2031C42.1146 28.8047 41.9049 29.388 41.668 29.9531C41.431 30.5182 41.1576 31.0651 40.8477 31.5938L39.3164 30.5547C39.681 29.9531 39.9818 29.3333 40.2188 28.6953C40.474 28.0573 40.6927 27.4102 40.875 26.7539C43.4818 27.7018 46.7721 28.1758 50.7461 28.1758C60.0612 28.1758 64.7188 25.8971 64.7188 21.3398C64.7188 17.6211 64.1172 14.3125 62.9141 11.4141C61.7292 8.4974 60.0885 6.20052 57.9922 4.52344C55.8958 2.84635 53.4805 2.00781 50.7461 2.00781C48.0117 2.00781 45.5872 2.84635 43.4727 4.52344C41.3763 6.18229 39.7266 8.47005 38.5234 11.3867C37.3385 14.2852 36.7461 17.6029 36.7461 21.3398C36.7461 23.2904 36.3177 24.9674 35.4609 26.3711C34.6224 27.7565 33.7747 28.9688 32.918 30.0078C32.1888 30.901 31.6693 31.6211 31.3594 32.168C31.0495 32.7148 30.8945 33.2526 30.8945 33.7812C30.8945 34.4922 31.1771 35.0026 31.7422 35.3125C32.3255 35.6224 33.0729 35.7773 33.9844 35.7773C34.2031 35.7773 34.4219 35.75 34.6406 35.6953L35.1602 37.3906C34.9961 37.4271 34.7956 37.4635 34.5586 37.5C34.3398 37.5365 34.0755 37.5547 33.7656 37.5547ZM17.0039 22.4883C15.3451 22.4883 13.8503 22.1146 12.5195 21.3672C11.1888 20.6198 10.25 19.6172 9.70312 18.3594L11.3164 17.6484C11.7357 18.5781 12.4557 19.3255 13.4766 19.8906C14.4974 20.4375 15.6732 20.7109 17.0039 20.7109C19.2826 20.7109 20.9323 19.9727 21.9531 18.4961L23.4297 19.4805C22.7917 20.4284 21.8984 21.1667 20.75 21.6953C19.6198 22.224 18.3711 22.4883 17.0039 22.4883ZM11.5078 15.4062C10.9427 15.4062 10.487 15.1693 10.1406 14.6953C9.8125 14.2031 9.64844 13.6562 9.64844 13.0547C9.64844 12.362 9.83073 11.7695 10.1953 11.2773C10.5781 10.7669 11.0521 10.5117 11.6172 10.5117C12.1823 10.5117 12.6289 10.7578 12.957 11.25C13.3034 11.724 13.4766 12.2617 13.4766 12.8633C13.4766 13.5378 13.2852 14.1302 12.9023 14.6406C12.5378 15.151 12.0729 15.4062 11.5078 15.4062ZM35.7617 37.8281C35.1419 37.8281 34.6133 37.6185 34.1758 37.1992C33.7565 36.7982 33.5469 36.2878 33.5469 35.668C33.5469 34.7565 33.8294 33.8268 34.3945 32.8789C34.9779 31.9128 35.6979 31.1016 36.5547 30.4453C37.4297 29.7891 38.3047 29.4609 39.1797 29.4609C39.7995 29.4609 40.3008 29.6979 40.6836 30.1719C41.0664 30.6276 41.2578 31.1654 41.2578 31.7852C41.2578 32.332 41.112 32.9336 40.8203 33.5898C40.5286 34.2461 40.1276 34.8932 39.6172 35.5312C39.0521 36.224 38.4232 36.7799 37.7305 37.1992C37.0378 37.6185 36.3815 37.8281 35.7617 37.8281ZM35.8164 36.1328C36.181 36.1328 36.6003 35.9779 37.0742 35.668C37.5482 35.3763 37.9857 34.9753 38.3867 34.4648C38.7695 33.9909 39.0794 33.5169 39.3164 33.043C39.5534 32.5508 39.6719 32.1133 39.6719 31.7305C39.6719 31.5299 39.6172 31.3659 39.5078 31.2383C39.3984 31.1107 39.2526 31.0469 39.0703 31.0469C38.5781 31.0469 38.0312 31.3021 37.4297 31.8125C36.8281 32.3047 36.3086 32.8971 35.8711 33.5898C35.4336 34.2826 35.2148 34.9297 35.2148 35.5312C35.2148 35.9323 35.4154 36.1328 35.8164 36.1328ZM22.7188 16.2266C22.1536 16.2266 21.6979 15.9896 21.3516 15.5156C21.0234 15.0234 20.8594 14.4766 20.8594 13.875C20.8594 13.1823 21.0417 12.5898 21.4062 12.0977C21.7891 11.5872 22.263 11.332 22.8281 11.332C23.3932 11.332 23.8398 11.5781 24.168 12.0703C24.5143 12.5443 24.6875 13.082 24.6875 13.6836C24.6875 14.3581 24.4961 14.9505 24.1133 15.4609C23.7487 15.9714 23.2839 16.2266 22.7188 16.2266ZM50.1445 22.4883C48.7773 22.4883 47.5195 22.224 46.3711 21.6953C45.2409 21.1667 44.3568 20.4284 43.7188 19.4805L45.1953 18.4961C46.2161 19.9727 47.8659 20.7109 50.1445 20.7109C51.4753 20.7109 52.6602 20.4375 53.6992 19.8906C54.7383 19.3255 55.4583 18.5781 55.8594 17.6484L57.4727 18.3594C56.9258 19.6172 55.987 20.6198 54.6562 21.3672C53.3255 22.1146 51.8216 22.4883 50.1445 22.4883ZM44.5117 16.2266C43.9466 16.2266 43.4727 15.9714 43.0898 15.4609C42.7253 14.9505 42.543 14.3581 42.543 13.6836C42.543 13.082 42.707 12.5443 43.0352 12.0703C43.3815 11.5781 43.8372 11.332 44.4023 11.332C44.9674 11.332 45.4323 11.5872 45.7969 12.0977C46.1797 12.5898 46.3711 13.1823 46.3711 13.875C46.3711 14.4766 46.1979 15.0234 45.8516 15.5156C45.5234 15.9896 45.0768 16.2266 44.5117 16.2266ZM55.7227 15.4062C55.1576 15.4062 54.6836 15.151 54.3008 14.6406C53.9362 14.1302 53.7539 13.5378 53.7539 12.8633C53.7539 12.2617 53.918 11.724 54.2461 11.25C54.5924 10.7578 55.0482 10.5117 55.6133 10.5117C56.1784 10.5117 56.6432 10.7669 57.0078 11.2773C57.3906 11.7695 57.582 12.362 57.582 13.0547C57.582 13.6562 57.4089 14.2031 57.0625 14.6953C56.7344 15.1693 56.2878 15.4062 55.7227 15.4062Z" fill="#005BAC"/>
</svg>
