<svg width="51" height="57" viewBox="0 0 51 57" fill="none" xmlns="http://www.w3.org/2000/svg">
<rect width="50.8125" height="56.8125" rx="25.4062" fill="#DDF3FE"/>
<path d="M9.5 33.2188C9.29167 32.4688 9.13021 31.6927 9.01562 30.8906C8.90104 30.0781 8.84375 29.25 8.84375 28.4062C8.84375 26.0521 9.25521 23.8802 10.0781 21.8906C10.9115 19.8906 12.0729 18.151 13.5625 16.6719C15.0521 15.1927 16.8021 14.0469 18.8125 13.2344C20.8333 12.4115 23.0312 12 25.4062 12C27.7812 12 29.974 12.4115 31.9844 13.2344C34.0052 14.0469 35.7604 15.1927 37.25 16.6719C38.7396 18.151 39.8958 19.8906 40.7188 21.8906C41.5521 23.8802 41.9688 26.0521 41.9688 28.4062C41.9688 29.25 41.9115 30.0781 41.7969 30.8906C41.6823 31.6927 41.5208 32.4688 41.3125 33.2188L39.7344 31.8281C39.974 30.7135 40.0938 29.5729 40.0938 28.4062C40.0938 26.2917 39.724 24.3438 38.9844 22.5625C38.2552 20.7708 37.2292 19.2188 35.9062 17.9062C34.5938 16.5833 33.0417 15.5573 31.25 14.8281C29.4688 14.0885 27.5208 13.7188 25.4062 13.7188C23.3021 13.7188 21.3542 14.0885 19.5625 14.8281C17.7812 15.5573 16.2292 16.5833 14.9062 17.9062C13.5833 19.2188 12.5521 20.7708 11.8125 22.5625C11.0833 24.3438 10.7188 26.2917 10.7188 28.4062C10.7188 29.5729 10.8385 30.7135 11.0781 31.8281L9.5 33.2188ZM15.6875 40.2969C16.2083 40.2969 16.6458 40.1146 17 39.75C17.3646 39.3854 17.5469 38.9479 17.5469 38.4375C17.5469 37.6458 17.1771 37.0729 16.4375 36.7188L18.4219 31.9375L13.6562 33.7188C13.5521 33.2917 13.3333 32.9531 13 32.7031C12.6667 32.4427 12.2865 32.3125 11.8594 32.3125C11.349 32.3125 10.9115 32.4948 10.5469 32.8594C10.1823 33.224 10 33.6667 10 34.1875C10 34.6042 10.1146 34.9792 10.3438 35.3125C10.5833 35.6458 10.901 35.9375 11.2969 36.1875C10.776 36.3646 10.3542 36.6406 10.0312 37.0156C9.71875 37.3906 9.5625 37.8177 9.5625 38.2969C9.5625 38.8073 9.74479 39.2448 10.1094 39.6094C10.474 39.974 10.9115 40.1562 11.4219 40.1562C11.8698 40.1562 12.276 40.0208 12.6406 39.75C13.0052 39.4792 13.3021 39.1094 13.5312 38.6406C13.75 39.151 14.0469 39.5521 14.4219 39.8438C14.8073 40.1458 15.2292 40.2969 15.6875 40.2969ZM15.6875 41.8594C14.8438 41.8594 14.1042 41.5885 13.4688 41.0469C12.8646 41.4948 12.1823 41.7188 11.4219 41.7188C10.474 41.7188 9.66667 41.3854 9 40.7188C8.33333 40.0521 8 39.2448 8 38.2969C8 37.401 8.30729 36.6198 8.92188 35.9531C8.59896 35.401 8.4375 34.8125 8.4375 34.1875C8.4375 33.2292 8.77083 32.4167 9.4375 31.75C10.1042 31.0833 10.9115 30.75 11.8594 30.75C12.8385 30.75 13.6667 31.099 14.3438 31.7969L21.2656 29.2188L18.3281 36.25C18.849 36.8646 19.1094 37.5938 19.1094 38.4375C19.1094 39.3854 18.776 40.1927 18.1094 40.8594C17.4531 41.526 16.6458 41.8594 15.6875 41.8594ZM25.4062 44.8125C23.2188 44.8125 21.1823 44.4583 19.2969 43.75C17.4115 43.0521 15.7448 42.0781 14.2969 40.8281L16.8125 40.5156C18 41.3385 19.3177 41.974 20.7656 42.4219C22.224 42.8698 23.7708 43.0938 25.4062 43.0938C27.0417 43.0938 28.5833 42.8698 30.0312 42.4219C31.4896 41.974 32.8125 41.3385 34 40.5156L36.5156 40.8281C35.0677 42.0781 33.401 43.0521 31.5156 43.75C29.6302 44.4583 27.5938 44.8125 25.4062 44.8125ZM21.125 35.9688L20.1562 34.5469C21.9896 33.2656 23.7396 32.625 25.4062 32.625C27.0729 32.625 28.8229 33.2656 30.6562 34.5469L29.6875 35.9688C28.125 34.8854 26.6979 34.3438 25.4062 34.3438C24.1146 34.3438 22.6875 34.8854 21.125 35.9688ZM19.875 27.125C18.6354 27.125 17.3594 26.7812 16.0469 26.0938L16.8281 24.5625C17.9219 25.125 18.9375 25.4062 19.875 25.4062C20.8646 25.4062 21.875 25.1302 22.9062 24.5781L23.7188 26.0938C22.4688 26.7812 21.1875 27.125 19.875 27.125ZM35.125 41.8594C34.1771 41.8594 33.3698 41.526 32.7031 40.8594C32.0365 40.1927 31.7031 39.3854 31.7031 38.4375C31.7031 37.5938 31.9635 36.8646 32.4844 36.25L29.5469 29.2188L36.4688 31.7969C37.1458 31.099 37.974 30.75 38.9531 30.75C39.901 30.75 40.7083 31.0833 41.375 31.75C42.0417 32.4167 42.375 33.2292 42.375 34.1875C42.375 34.8125 42.2135 35.401 41.8906 35.9531C42.5052 36.6198 42.8125 37.401 42.8125 38.2969C42.8125 39.2448 42.4792 40.0521 41.8125 40.7188C41.1458 41.3854 40.3385 41.7188 39.3906 41.7188C38.6302 41.7188 37.9479 41.4948 37.3438 41.0469C36.7083 41.5885 35.9688 41.8594 35.125 41.8594ZM35.125 40.2969C35.5833 40.2969 36 40.1458 36.375 39.8438C36.7604 39.5521 37.0625 39.151 37.2812 38.6406C37.5208 39.1094 37.8177 39.4792 38.1719 39.75C38.5365 40.0208 38.9427 40.1562 39.3906 40.1562C39.9115 40.1562 40.349 39.974 40.7031 39.6094C41.0677 39.2448 41.25 38.8073 41.25 38.2969C41.25 37.8177 41.0885 37.3906 40.7656 37.0156C40.4531 36.6406 40.0365 36.3646 39.5156 36.1875C39.9115 35.9375 40.224 35.6458 40.4531 35.3125C40.6927 34.9792 40.8125 34.6042 40.8125 34.1875C40.8125 33.6667 40.6302 33.224 40.2656 32.8594C39.9115 32.4948 39.474 32.3125 38.9531 32.3125C38.5365 32.3125 38.1615 32.4427 37.8281 32.7031C37.4948 32.9531 37.2708 33.2917 37.1562 33.7188L32.3906 31.9375L34.375 36.7188C33.6354 37.0729 33.2656 37.6458 33.2656 38.4375C33.2656 38.9479 33.4479 39.3854 33.8125 39.75C34.1771 40.1146 34.6146 40.2969 35.125 40.2969ZM22.0781 21.4062C21.6927 20.6458 21.1198 20 20.3594 19.4688C19.6094 18.9271 18.7552 18.5521 17.7969 18.3438L18.1406 16.8125C19.3177 17.0729 20.3802 17.5469 21.3281 18.2344C22.276 18.9115 22.9896 19.7292 23.4688 20.6875L22.0781 21.4062ZM30.9375 27.125C29.625 27.125 28.3438 26.7812 27.0938 26.0938L27.9062 24.5781C28.9375 25.1302 29.9479 25.4062 30.9375 25.4062C31.875 25.4062 32.8906 25.125 33.9844 24.5625L34.7656 26.0938C33.4531 26.7812 32.1771 27.125 30.9375 27.125ZM28.7344 21.4062L27.3438 20.6875C27.8333 19.7292 28.5469 18.9115 29.4844 18.2344C30.4323 17.5469 31.4948 17.0729 32.6719 16.8125L33.0156 18.3438C32.0573 18.5521 31.2031 18.9271 30.4531 19.4688C29.7031 20 29.1302 20.6458 28.7344 21.4062Z" fill="#444444"/>
</svg>
