<svg width="39" height="57" viewBox="0 0 39 57" fill="none" xmlns="http://www.w3.org/2000/svg">
<rect width="38.9688" height="56.8125" rx="19.4844" fill="#DDF3FE"/>
<path d="M15 44.8125C13.6771 44.8125 12.5729 44.4323 11.6875 43.6719C10.8125 42.9115 10.0885 41.7344 9.51562 40.1406L11.2031 39.5312C11.6406 40.7708 12.1615 41.6719 12.7656 42.2344C13.3698 42.8073 14.1146 43.0938 15 43.0938C15.6458 43.0938 16.3021 42.9167 16.9688 42.5625C17.6458 42.2083 18.4271 41.5885 19.3125 40.7031C20.1979 39.8281 21.2708 38.6042 22.5312 37.0312C23.7604 35.5 24.7917 34.1406 25.625 32.9531C26.4688 31.7656 27.1458 30.6875 27.6562 29.7188C28.1667 28.7396 28.5312 27.8125 28.75 26.9375C28.9792 26.0521 29.0938 25.151 29.0938 24.2344C29.0938 22.7969 28.8281 21.4479 28.2969 20.1875C27.776 18.9167 27.0573 17.7969 26.1406 16.8281C25.224 15.8594 24.1615 15.099 22.9531 14.5469C21.7552 13.9948 20.4792 13.7188 19.125 13.7188C17.8438 13.7188 16.6406 13.9635 15.5156 14.4531C14.401 14.9427 13.4219 15.625 12.5781 16.5C11.7344 17.375 11.0729 18.3854 10.5938 19.5312C10.1146 20.6771 9.875 21.9062 9.875 23.2188H8C8 21.6354 8.28125 20.1667 8.84375 18.8125C9.41667 17.4479 10.2083 16.2552 11.2188 15.2344C12.2292 14.2135 13.4062 13.4219 14.75 12.8594C16.1042 12.2865 17.5625 12 19.125 12C20.7812 12 22.3229 12.3177 23.75 12.9531C25.1875 13.5781 26.4427 14.4479 27.5156 15.5625C28.599 16.6771 29.4427 17.974 30.0469 19.4531C30.6615 20.9323 30.9688 22.526 30.9688 24.2344C30.9688 25.6198 30.75 26.974 30.3125 28.2969C29.875 29.6198 29.151 31.0573 28.1406 32.6094C27.1406 34.151 25.776 35.9531 24.0469 38.0156C22.6302 39.7031 21.4115 41.0417 20.3906 42.0312C19.3698 43.0312 18.4375 43.7448 17.5938 44.1719C16.7604 44.599 15.8958 44.8125 15 44.8125ZM15.0625 37.5625C14.2708 37.5625 13.6354 37.3438 13.1562 36.9062C12.6771 36.4688 12.4375 35.8698 12.4375 35.1094C12.4375 34.6823 12.526 34.3021 12.7031 33.9688C12.8802 33.6354 13.1615 33.276 13.5469 32.8906C13.8177 32.6198 13.9948 32.4167 14.0781 32.2812C14.1615 32.1354 14.2031 31.9792 14.2031 31.8125C14.2031 31.6771 14.1562 31.5417 14.0625 31.4062C13.9688 31.2604 13.7396 31.0781 13.375 30.8594C12.8646 30.5469 12.474 30.2448 12.2031 29.9531C11.9323 29.651 11.7969 29.1979 11.7969 28.5938H13.5156C13.5156 28.7917 13.5573 28.9427 13.6406 29.0469C13.724 29.151 13.9271 29.3021 14.25 29.5C14.8125 29.8438 15.2292 30.1875 15.5 30.5312C15.7812 30.8646 15.9219 31.2917 15.9219 31.8125C15.9219 32.2604 15.8281 32.6406 15.6406 32.9531C15.4531 33.2552 15.1615 33.6042 14.7656 34C14.5052 34.2604 14.3385 34.474 14.2656 34.6406C14.1927 34.7969 14.1562 34.9531 14.1562 35.1094C14.1562 35.3802 14.2344 35.599 14.3906 35.7656C14.5469 35.9219 14.7865 36 15.1094 36C15.3073 36 15.526 35.9323 15.7656 35.7969C16.0052 35.651 16.3125 35.3802 16.6875 34.9844C17.0625 34.5885 17.5469 34.0208 18.1406 33.2812C18.8802 32.3542 19.4583 31.5625 19.875 30.9062C20.2917 30.25 20.5833 29.6562 20.75 29.125C20.9271 28.5833 21.0156 28.0312 21.0156 27.4688C21.0156 26.6354 20.8333 25.8906 20.4688 25.2344C20.1146 24.5677 19.6198 24.0417 18.9844 23.6562C18.3594 23.2708 17.6302 23.0781 16.7969 23.0781V21.5156C17.9531 21.5156 18.9792 21.7812 19.875 22.3125C20.7708 22.8438 21.4688 23.5573 21.9688 24.4531C22.4792 25.349 22.7344 26.3542 22.7344 27.4688C22.7344 28.4375 22.4844 29.4375 21.9844 30.4688C21.4948 31.4896 20.6354 32.776 19.4062 34.3281C18.7188 35.2031 18.1302 35.875 17.6406 36.3438C17.1615 36.8021 16.724 37.1198 16.3281 37.2969C15.9323 37.474 15.5104 37.5625 15.0625 37.5625ZM25.75 29.8906L24.1875 29.1406C24.5938 28.3698 24.9062 27.6094 25.125 26.8594C25.3438 26.1094 25.4531 25.3594 25.4531 24.6094C25.4531 23.2135 25.1823 21.9844 24.6406 20.9219C24.099 19.8594 23.3438 19.0312 22.375 18.4375C21.4167 17.8333 20.3021 17.5312 19.0312 17.5312C17.9479 17.5312 16.9896 17.75 16.1562 18.1875C15.3333 18.6146 14.6875 19.2083 14.2188 19.9688C13.75 20.7188 13.5156 21.5833 13.5156 22.5625C13.5156 23.5729 13.7812 24.4115 14.3125 25.0781C14.8542 25.7344 15.6615 26.2031 16.7344 26.4844L16.2969 28.0625C14.849 27.6875 13.7344 27.0312 12.9531 26.0938C12.1823 25.1562 11.7969 23.9792 11.7969 22.5625C11.7969 21.2604 12.1094 20.1094 12.7344 19.1094C13.3594 18.1094 14.2135 17.3229 15.2969 16.75C16.3906 16.1771 17.6354 15.8906 19.0312 15.8906C20.625 15.8906 22.0312 16.2656 23.25 17.0156C24.4792 17.7552 25.4375 18.7812 26.125 20.0938C26.8229 21.3958 27.1719 22.901 27.1719 24.6094C27.1719 25.4635 27.0469 26.3438 26.7969 27.25C26.5469 28.1458 26.1979 29.026 25.75 29.8906Z" fill="#444444"/>
</svg>
