<svg width="80" height="80" viewBox="0 0 80 80" fill="none" xmlns="http://www.w3.org/2000/svg">
<rect width="80" height="80" rx="40" fill="#E6F8FF"/>
<path d="M42.3555 60.582C39.0482 60.582 36.2161 59.8789 33.8594 58.4727L33.0781 58.0039C31.9714 57.3398 31.0534 56.8646 30.3242 56.5781C29.6081 56.3047 28.9831 56.168 28.4492 56.168L21.75 56.207V38.9219C23.5078 38.9219 25.0573 38.8763 26.3984 38.7852C27.7526 38.694 28.9635 38.5247 30.0312 38.2773C30.2396 37.1966 30.6953 36.2656 31.3984 35.4844C32.1016 34.6901 33.1953 33.8633 34.6797 33.0039C35.9818 32.2487 36.9974 31.4935 37.7266 30.7383C38.4557 29.9831 38.9701 29.1107 39.2695 28.1211C39.569 27.1315 39.7188 25.9076 39.7188 24.4492V23.6875C39.7188 21.1094 40.7539 19.8203 42.8242 19.8203C44.3346 19.8203 45.5651 20.4714 46.5156 21.7734C47.4792 23.0625 47.9609 24.7747 47.9609 26.9102C47.9609 27.9518 47.8307 28.987 47.5703 30.0156C47.3229 31.0443 47.069 31.9818 46.8086 32.8281C46.5612 33.6745 46.4375 34.3516 46.4375 34.8594L43.9375 36.3633C43.9375 35.2565 44.0742 34.2083 44.3477 33.2188C44.6341 32.2161 44.9141 31.207 45.1875 30.1914C45.474 29.1628 45.6172 28.069 45.6172 26.9102C45.6172 25.3607 45.3568 24.1497 44.8359 23.2773C44.3281 22.4049 43.6576 21.9688 42.8242 21.9688C42.5378 21.9688 42.3359 22.0664 42.2188 22.2617C42.1146 22.444 42.0625 22.9193 42.0625 23.6875V24.4492C42.0625 26.2201 41.8477 27.7305 41.418 28.9805C41.0013 30.2305 40.3438 31.3242 39.4453 32.2617C38.5469 33.1862 37.375 34.0586 35.9297 34.8789C34.9141 35.4518 34.1198 35.9792 33.5469 36.4609C32.987 36.9297 32.5964 37.4375 32.375 37.9844C32.1536 38.5182 32.043 39.1693 32.043 39.9375C30.7799 40.3542 29.4453 40.6406 28.0391 40.7969C26.6458 40.9531 25.3307 41.0443 24.0938 41.0703V54.0195H28.4102C29.1784 54.0195 29.9727 54.1432 30.793 54.3906C31.6133 54.638 32.7526 55.1979 34.2109 56.0703L34.9922 56.5391C37.0885 57.8021 39.543 58.4336 42.3555 58.4336C42.9935 58.4336 43.6641 58.4141 44.3672 58.375C45.0703 58.3359 45.793 58.2839 46.5352 58.2188L48.9961 60.0938C47.6549 60.276 46.4115 60.3997 45.2656 60.4648C44.1198 60.543 43.1497 60.582 42.3555 60.582ZM50.9297 60.7188L47.3945 60.2695C46.3659 60.1393 45.5456 59.7292 44.9336 59.0391C44.3346 58.349 44.0352 57.4831 44.0352 56.4414C44.0352 55.4518 44.3021 54.638 44.8359 54C45.3698 53.349 46.0924 52.9388 47.0039 52.7695L50.4219 54.8594H47.9805C47.3685 54.8594 46.9128 54.9831 46.6133 55.2305C46.3268 55.4909 46.1836 55.8945 46.1836 56.4414C46.1836 57.431 46.6784 57.9909 47.668 58.1211L51.8086 58.668C52.1992 58.7201 52.5247 58.5508 52.7852 58.1602C53.0456 57.7695 53.1758 57.2487 53.1758 56.5977C53.1758 55.7253 52.8568 55.1914 52.2188 54.9961L54.6602 53.9414C55.2331 54.5924 55.5195 55.4779 55.5195 56.5977C55.5195 57.8477 55.1875 58.8633 54.5234 59.6445C53.8594 60.4388 53.0195 60.8359 52.0039 60.8359C51.9258 60.8359 51.8216 60.8294 51.6914 60.8164C51.5612 60.8034 51.3073 60.7708 50.9297 60.7188ZM38.2344 48.9805L37.4531 46.9688C38.7031 46.6042 39.8034 46.0508 40.7539 45.3086C41.7044 44.5534 42.4596 43.6615 43.0195 42.6328C43.5924 41.5911 43.931 40.4583 44.0352 39.2344L46.0078 40.543C45.7474 41.8711 45.2656 43.0951 44.5625 44.2148C43.8724 45.3216 42.9935 46.2852 41.9258 47.1055C40.8581 47.9258 39.6276 48.5508 38.2344 48.9805ZM53.625 55.6211L48.3516 54.9766C47.1016 54.8203 46.1315 54.3646 45.4414 53.6094C44.7643 52.8542 44.4258 51.8581 44.4258 50.6211C44.4258 49.3841 44.8815 48.3945 45.793 47.6523C46.7044 46.8971 47.8763 46.5195 49.3086 46.5195H53.6445C55.2721 46.5195 56.5286 46.9167 57.4141 47.7109C58.3125 48.5052 58.7617 49.6315 58.7617 51.0898C58.7617 52.6003 58.293 53.7786 57.3555 54.625C56.418 55.4714 55.1745 55.8034 53.625 55.6211ZM53.8984 53.4727C54.7188 53.5638 55.3438 53.4141 55.7734 53.0234C56.2031 52.6198 56.418 51.9753 56.418 51.0898C56.418 50.2435 56.1966 49.6315 55.7539 49.2539C55.3242 48.8633 54.6081 48.668 53.6055 48.668H49.2695C48.4232 48.668 47.7591 48.8438 47.2773 49.1953C46.8086 49.5339 46.5742 50.0091 46.5742 50.6211C46.5742 51.2982 46.737 51.8125 47.0625 52.1641C47.388 52.5156 47.9089 52.737 48.625 52.8281L53.8984 53.4727ZM48.7227 48.668C47.3555 48.668 46.2422 48.2708 45.3828 47.4766C44.5234 46.6823 44.0938 45.6862 44.0938 44.4883C44.0938 43.2773 44.4714 42.3073 45.2266 41.5781C45.9948 40.849 47.082 40.4062 48.4883 40.25L54.2305 39.625C55.7799 39.4557 57.0039 39.7747 57.9023 40.582C58.8008 41.3763 59.25 42.5352 59.25 44.0586C59.25 45.5299 58.8008 46.6693 57.9023 47.4766C57.0169 48.2708 55.793 48.668 54.2305 48.668H48.7227ZM48.7617 46.5195H54.2695C55.1419 46.5195 55.7995 46.3177 56.2422 45.9141C56.6849 45.5104 56.9062 44.8919 56.9062 44.0586C56.9062 42.3529 56.0924 41.5911 54.4648 41.7734L48.7227 42.3984C47.8372 42.4896 47.1992 42.7044 46.8086 43.043C46.431 43.3815 46.2422 43.8633 46.2422 44.4883C46.2422 45.0872 46.4635 45.5755 46.9062 45.9531C47.349 46.3307 47.9674 46.5195 48.7617 46.5195ZM49.0352 42.2227C47.1602 42.4701 45.6432 42.2487 44.4844 41.5586C43.3255 40.8685 42.7461 39.7422 42.7461 38.1797C42.7461 36.8776 43.1823 35.8685 44.0547 35.1523C44.9401 34.4362 46.2487 33.9544 47.9805 33.707L52.2773 33.1016C53.8138 32.8802 55.0443 33.1732 55.9688 33.9805C56.9062 34.7747 57.375 35.9271 57.375 37.4375C57.375 38.5573 57.1016 39.4818 56.5547 40.2109C56.0208 40.9401 55.2461 41.3763 54.2305 41.5195L49.0352 42.2227ZM48.7031 40.1133L53.918 39.3906C54.2956 39.3385 54.5755 39.1367 54.7578 38.7852C54.9401 38.4206 55.0312 37.9714 55.0312 37.4375C55.0312 35.7318 54.1849 35.0026 52.4922 35.25L48.1953 35.8555C47.0755 36.0117 46.2422 36.2526 45.6953 36.5781C45.1615 36.9036 44.8945 37.4375 44.8945 38.1797C44.8945 39.013 45.2135 39.5859 45.8516 39.8984C46.5026 40.2109 47.4531 40.2826 48.7031 40.1133Z" fill="#005BAC"/>
</svg>
