<svg width="50" height="57" viewBox="0 0 50 57" fill="none" xmlns="http://www.w3.org/2000/svg">
<rect width="49.125" height="56.8125" rx="24.5625" fill="#DDF3FE"/>
<path d="M24.5625 44.8125C22.1875 44.8125 19.9896 44.401 17.9688 43.5781C15.9583 42.7656 14.2083 41.6198 12.7188 40.1406C11.2292 38.6615 10.0677 36.9271 9.23438 34.9375C8.41146 32.9375 8 30.7604 8 28.4062C8 26.0521 8.41146 23.8802 9.23438 21.8906C10.0677 19.8906 11.2292 18.151 12.7188 16.6719C14.2083 15.1927 15.9583 14.0469 17.9688 13.2344C19.9896 12.4115 22.1875 12 24.5625 12C26.9375 12 29.1302 12.4115 31.1406 13.2344C33.1615 14.0469 34.9167 15.1927 36.4062 16.6719C37.8958 18.151 39.0521 19.8906 39.875 21.8906C40.7083 23.8802 41.125 26.0521 41.125 28.4062C41.125 30.7604 40.7083 32.9375 39.875 34.9375C39.0521 36.9271 37.8958 38.6615 36.4062 40.1406C34.9167 41.6198 33.1615 42.7656 31.1406 43.5781C29.1302 44.401 26.9375 44.8125 24.5625 44.8125ZM19.875 38.5156V31.1406H18.625V38.5156H19.875ZM23.9375 39.4531H25.1875V31.7812H23.9375V39.4531ZM24.5625 40.375C25.9583 40.375 27.3333 40.1354 28.6875 39.6562C30.0417 39.1875 31.2656 38.5573 32.3594 37.7656C33.4635 36.9635 34.3385 36.0677 34.9844 35.0781C35.6406 34.0885 35.9688 33.0781 35.9688 32.0469C35.9688 31.3698 35.7656 30.8438 35.3594 30.4688C34.9635 30.0938 34.4167 29.9062 33.7188 29.9062C33.2396 29.9062 32.5208 30.0052 31.5625 30.2031C30.6042 30.3906 29.5104 30.5833 28.2812 30.7812C27.0625 30.9688 25.8229 31.0625 24.5625 31.0625C23.3021 31.0625 22.0573 30.9688 20.8281 30.7812C19.6094 30.5833 18.5208 30.3906 17.5625 30.2031C16.6042 30.0052 15.8854 29.9062 15.4062 29.9062C14.7083 29.9062 14.1562 30.0938 13.75 30.4688C13.3542 30.8438 13.1562 31.3698 13.1562 32.0469C13.1562 33.0781 13.4792 34.0885 14.125 35.0781C14.7812 36.0677 15.6562 36.9635 16.75 37.7656C17.8542 38.5573 19.0833 39.1875 20.4375 39.6562C21.7917 40.1354 23.1667 40.375 24.5625 40.375ZM24.5625 38.8125C23.3854 38.8125 22.2135 38.6146 21.0469 38.2188C19.8802 37.8125 18.8177 37.2812 17.8594 36.625C16.9115 35.9688 16.151 35.2396 15.5781 34.4375C15.0052 33.6354 14.7188 32.8385 14.7188 32.0469C14.7188 31.8281 14.7604 31.6771 14.8438 31.5938C14.9375 31.5104 15.125 31.4688 15.4062 31.4688C15.8542 31.4688 16.4219 31.526 17.1094 31.6406C17.7969 31.7552 18.5521 31.8906 19.375 32.0469C20.2083 32.2031 21.0677 32.3385 21.9531 32.4531C22.849 32.5677 23.7188 32.625 24.5625 32.625C25.4167 32.625 26.2865 32.5677 27.1719 32.4531C28.0573 32.3385 28.9115 32.2031 29.7344 32.0469C30.5677 31.8906 31.3281 31.7552 32.0156 31.6406C32.7031 31.526 33.2708 31.4688 33.7188 31.4688C34 31.4688 34.1823 31.5104 34.2656 31.5938C34.3594 31.6771 34.4062 31.8281 34.4062 32.0469C34.4062 32.8385 34.1198 33.6354 33.5469 34.4375C32.974 35.2396 32.2083 35.9688 31.25 36.625C30.3021 37.2812 29.2448 37.8125 28.0781 38.2188C26.9115 38.6146 25.7396 38.8125 24.5625 38.8125ZM24.5625 36.2344C28.2708 36.2344 31.9844 35.3177 35.7031 33.4844L35.1406 32.3594C31.5885 34.1198 28.0625 35 24.5625 35C21.0625 35 17.5365 34.1198 13.9844 32.3594L13.4219 33.4844C17.1406 35.3177 20.8542 36.2344 24.5625 36.2344ZM17.2656 27.0312L15.5781 26.7188C15.7865 25.6771 16.1927 24.8698 16.7969 24.2969C17.401 23.7135 18.1615 23.4219 19.0781 23.4219C20.0052 23.4219 20.7708 23.7135 21.375 24.2969C21.9792 24.8698 22.3802 25.6771 22.5781 26.7188L20.8906 27.0312C20.6406 25.7708 20.0365 25.1406 19.0781 25.1406C18.1198 25.1406 17.5156 25.7708 17.2656 27.0312ZM29.25 38.5156H30.5V31.1406H29.25V38.5156ZM24.5625 43.0938C26.6771 43.0938 28.625 42.724 30.4062 41.9844C32.1979 41.2552 33.75 40.2344 35.0625 38.9219C36.3854 37.599 37.4115 36.0417 38.1406 34.25C38.8802 32.4583 39.25 30.5104 39.25 28.4062C39.25 26.2917 38.8802 24.3438 38.1406 22.5625C37.4115 20.7708 36.3854 19.2188 35.0625 17.9062C33.75 16.5833 32.1979 15.5573 30.4062 14.8281C28.625 14.0885 26.6771 13.7188 24.5625 13.7188C22.4583 13.7188 20.5104 14.0885 18.7188 14.8281C16.9375 15.5573 15.3854 16.5833 14.0625 17.9062C12.7396 19.2188 11.7083 20.7708 10.9688 22.5625C10.2396 24.3438 9.875 26.2917 9.875 28.4062C9.875 30.5104 10.2396 32.4583 10.9688 34.25C11.7083 36.0417 12.7344 37.599 14.0469 38.9219C15.3698 40.2344 16.9271 41.2552 18.7188 41.9844C20.5104 42.724 22.4583 43.0938 24.5625 43.0938ZM28.2344 27.0312L26.5469 26.7188C26.7552 25.6771 27.1615 24.8698 27.7656 24.2969C28.3698 23.7135 29.1302 23.4219 30.0469 23.4219C30.974 23.4219 31.7396 23.7135 32.3438 24.2969C32.9479 24.8698 33.349 25.6771 33.5469 26.7188L31.8594 27.0312C31.6094 25.7708 31.0052 25.1406 30.0469 25.1406C29.0885 25.1406 28.4844 25.7708 28.2344 27.0312Z" fill="#444444"/>
</svg>
