<svg width="80" height="80" viewBox="0 0 80 80" fill="none" xmlns="http://www.w3.org/2000/svg">
<rect width="80" height="80" rx="40" fill="#E6F8FF"/>
<path d="M23.332 60.8359C23.1107 60.1849 22.9544 59.6185 22.8633 59.1367C22.7721 58.6549 22.7266 58.2448 22.7266 57.9062C22.7266 56.3958 23.319 55.0547 24.5039 53.8828C25.7018 52.6979 27.3229 51.7344 29.3672 50.9922C31.4115 50.25 33.7227 49.7812 36.3008 49.5859L36.3984 50.8945C34.5885 50.1914 33.0065 49.0781 31.6523 47.5547C30.2982 46.0182 29.2435 44.1823 28.4883 42.0469C27.7461 39.9115 27.375 37.6068 27.375 35.1328C27.375 32.112 27.9219 29.4557 29.0156 27.1641C30.1224 24.8594 31.6589 23.0625 33.625 21.7734C35.6042 20.4714 37.8958 19.8203 40.5 19.8203C43.1042 19.8203 45.3893 20.4714 47.3555 21.7734C49.3346 23.0625 50.8711 24.8594 51.9648 27.1641C53.0716 29.4557 53.625 32.112 53.625 35.1328C53.625 37.6068 53.2474 39.9115 52.4922 42.0469C51.75 44.1823 50.7018 46.0182 49.3477 47.5547C47.9935 49.0781 46.4115 50.1914 44.6016 50.8945L44.6992 49.5859C47.2773 49.7812 49.5885 50.25 51.6328 50.9922C53.6901 51.7344 55.3112 52.6979 56.4961 53.8828C57.681 55.0547 58.2734 56.3958 58.2734 57.9062C58.2734 58.2448 58.2279 58.6549 58.1367 59.1367C58.0456 59.6185 57.8893 60.1849 57.668 60.8359H23.332ZM24.9336 58.6875H56.0664C56.0924 58.5443 56.1055 58.4076 56.1055 58.2773C56.1185 58.1471 56.125 58.0234 56.125 57.9062C56.125 56.8125 55.5521 55.8099 54.4062 54.8984C53.2604 54 51.6654 53.2578 49.6211 52.6719C47.5898 52.0859 45.2331 51.7279 42.5508 51.5977V49.293C44.3607 48.7591 45.9167 47.8281 47.2188 46.5C48.5208 45.1719 49.5234 43.5378 50.2266 41.5977C50.9297 39.6576 51.2812 37.5026 51.2812 35.1328C51.2812 32.4505 50.8385 30.1263 49.9531 28.1602C49.0677 26.181 47.8177 24.6576 46.2031 23.5898C44.5885 22.5091 42.6875 21.9688 40.5 21.9688C38.3255 21.9688 36.4245 22.5091 34.7969 23.5898C33.1823 24.6576 31.9323 26.181 31.0469 28.1602C30.1615 30.1263 29.7188 32.4505 29.7188 35.1328C29.7188 37.5026 30.0703 39.6576 30.7734 41.5977C31.4766 43.5378 32.4792 45.1719 33.7812 46.5C35.0964 47.8281 36.6523 48.7591 38.4492 49.293V51.5977C35.7799 51.7279 33.4232 52.0859 31.3789 52.6719C29.3346 53.2578 27.7396 54 26.5938 54.8984C25.4479 55.8099 24.875 56.8125 24.875 57.9062C24.875 58.0234 24.8815 58.1471 24.8945 58.2773C24.9076 58.4076 24.9206 58.5443 24.9336 58.6875Z" fill="#005BAC"/>
</svg>
