<svg width="50" height="57" viewBox="0 0 50 57" fill="none" xmlns="http://www.w3.org/2000/svg">
<rect width="49.125" height="56.8125" rx="24.5625" fill="#DDF3FE"/>
<path d="M24.5625 44.8125C22.1875 44.8125 19.9896 44.401 17.9688 43.5781C15.9583 42.7656 14.2083 41.6198 12.7188 40.1406C11.2292 38.6615 10.0677 36.9271 9.23438 34.9375C8.41146 32.9375 8 30.7604 8 28.4062C8 26.0521 8.41146 23.8802 9.23438 21.8906C10.0677 19.8906 11.2292 18.151 12.7188 16.6719C14.2083 15.1927 15.9583 14.0469 17.9688 13.2344C19.9896 12.4115 22.1875 12 24.5625 12C26.9375 12 29.1302 12.4115 31.1406 13.2344C33.1615 14.0469 34.9167 15.1927 36.4062 16.6719C37.8958 18.151 39.0521 19.8906 39.875 21.8906C40.7083 23.8802 41.125 26.0521 41.125 28.4062C41.125 30.7604 40.7083 32.9375 39.875 34.9375C39.0521 36.9271 37.8958 38.6615 36.4062 40.1406C34.9167 41.6198 33.1615 42.7656 31.1406 43.5781C29.1302 44.401 26.9375 44.8125 24.5625 44.8125ZM24.5625 38.5312C26.125 38.5312 27.5833 38.25 28.9375 37.6875C27.4479 36.8229 25.9896 36.3906 24.5625 36.3906C23.1354 36.3906 21.6771 36.8229 20.1875 37.6875C21.5417 38.25 23 38.5312 24.5625 38.5312ZM24.5625 39.625C23.2083 39.625 21.8802 39.4062 20.5781 38.9688C19.2865 38.5312 18.1198 37.9479 17.0781 37.2188C16.0365 36.4792 15.2031 35.6667 14.5781 34.7812C13.9635 33.8958 13.6562 33.0052 13.6562 32.1094C13.6562 31.5573 13.7812 31.1719 14.0312 30.9531C14.2812 30.724 14.6146 30.6094 15.0312 30.6094C15.2917 30.6094 15.6198 30.6406 16.0156 30.7031C16.4219 30.7656 16.8854 30.849 17.4062 30.9531C18.3333 31.1302 19.4115 31.3021 20.6406 31.4688C21.8698 31.625 23.1771 31.7031 24.5625 31.7031C25.9583 31.7031 27.2708 31.625 28.5 31.4688C29.7292 31.3021 30.8021 31.1302 31.7188 30.9531C32.2396 30.849 32.6979 30.7656 33.0938 30.7031C33.5 30.6406 33.8333 30.6094 34.0938 30.6094C34.5104 30.6094 34.8438 30.724 35.0938 30.9531C35.3438 31.1719 35.4688 31.5573 35.4688 32.1094C35.4688 33.0052 35.1562 33.8958 34.5312 34.7812C33.9167 35.6667 33.0885 36.4792 32.0469 37.2188C31.0052 37.9479 29.8333 38.5312 28.5312 38.9688C27.2396 39.4062 25.9167 39.625 24.5625 39.625ZM24.5625 34.3594C25.5417 34.3594 26.5885 34.3229 27.7031 34.25C28.8177 34.1667 29.9323 34.0417 31.0469 33.875C32.1615 33.6979 33.2031 33.4792 34.1719 33.2188V32.1094C34.1719 31.9531 34.1094 31.8542 33.9844 31.8125C33.8594 31.7604 33.7292 31.75 33.5938 31.7812C32.7083 31.9896 31.7292 32.1719 30.6562 32.3281C29.5938 32.474 28.5312 32.5885 27.4688 32.6719C26.4167 32.7552 25.4479 32.7969 24.5625 32.7969C23.6875 32.7969 22.7188 32.7552 21.6562 32.6719C20.5938 32.5885 19.5312 32.474 18.4688 32.3281C17.4062 32.1719 16.4271 31.9896 15.5312 31.7812C15.3958 31.75 15.2656 31.7604 15.1406 31.8125C15.0156 31.8542 14.9531 31.9531 14.9531 32.1094V33.2188C15.9219 33.4792 16.9635 33.6979 18.0781 33.875C19.1927 34.0417 20.3073 34.1667 21.4219 34.25C22.5469 34.3229 23.5938 34.3594 24.5625 34.3594ZM19.0625 27.5469C18.4688 27.5469 17.9583 27.2969 17.5312 26.7969C17.1146 26.2865 16.9062 25.6771 16.9062 24.9688C16.9062 24.2604 17.1146 23.6562 17.5312 23.1562C17.9583 22.6458 18.4688 22.3906 19.0625 22.3906C19.6458 22.3906 20.151 22.6458 20.5781 23.1562C21.0052 23.6562 21.2188 24.2604 21.2188 24.9688C21.2188 25.6667 21.0052 26.2708 20.5781 26.7812C20.1615 27.2917 19.6562 27.5469 19.0625 27.5469ZM24.5625 43.0938C26.6771 43.0938 28.625 42.724 30.4062 41.9844C32.1979 41.2552 33.75 40.2344 35.0625 38.9219C36.3854 37.599 37.4115 36.0417 38.1406 34.25C38.8802 32.4583 39.25 30.5104 39.25 28.4062C39.25 26.2917 38.8802 24.3438 38.1406 22.5625C37.4115 20.7708 36.3854 19.2188 35.0625 17.9062C33.75 16.5833 32.1979 15.5573 30.4062 14.8281C28.625 14.0885 26.6771 13.7188 24.5625 13.7188C22.4583 13.7188 20.5104 14.0885 18.7188 14.8281C16.9375 15.5573 15.3854 16.5833 14.0625 17.9062C12.7396 19.2188 11.7083 20.7708 10.9688 22.5625C10.2396 24.3438 9.875 26.2917 9.875 28.4062C9.875 30.5104 10.2396 32.4583 10.9688 34.25C11.7083 36.0417 12.7344 37.599 14.0469 38.9219C15.3698 40.2344 16.9271 41.2552 18.7188 41.9844C20.5104 42.724 22.4583 43.0938 24.5625 43.0938ZM30.0625 27.5469C29.4688 27.5469 28.9583 27.2969 28.5312 26.7969C28.1146 26.2865 27.9062 25.6771 27.9062 24.9688C27.9062 24.2604 28.1146 23.6562 28.5312 23.1562C28.9583 22.6458 29.4688 22.3906 30.0625 22.3906C30.6458 22.3906 31.151 22.6458 31.5781 23.1562C32.0052 23.6562 32.2188 24.2604 32.2188 24.9688C32.2188 25.6667 32.0052 26.2708 31.5781 26.7812C31.1615 27.2917 30.6562 27.5469 30.0625 27.5469Z" fill="#444444"/>
</svg>
