<svg width="55" height="58" viewBox="0 0 55 58" fill="none" xmlns="http://www.w3.org/2000/svg">
<rect width="54.5938" height="57.5938" rx="27.2969" fill="#DDF3FE"/>
<path d="M11.1406 32.2656C10.8698 31.026 10.7344 29.7396 10.7344 28.4062C10.7344 26.0521 11.1458 23.8802 11.9688 21.8906C12.8021 19.8906 13.9635 18.151 15.4531 16.6719C16.9427 15.1927 18.6927 14.0469 20.7031 13.2344C22.724 12.4115 24.9219 12 27.2969 12C29.6719 12 31.8646 12.4115 33.875 13.2344C35.8958 14.0469 37.651 15.1927 39.1406 16.6719C40.6302 18.151 41.7865 19.8906 42.6094 21.8906C43.4427 23.8802 43.8594 26.0521 43.8594 28.4062C43.8594 29.7396 43.7188 31.026 43.4375 32.2656L41.6094 31.9219C41.8594 30.8073 41.9844 29.6354 41.9844 28.4062C41.9844 26.2917 41.6146 24.3438 40.875 22.5625C40.1458 20.7708 39.1198 19.2188 37.7969 17.9062C36.4844 16.5833 34.9323 15.5573 33.1406 14.8281C31.3594 14.0885 29.4115 13.7188 27.2969 13.7188C25.1927 13.7188 23.2448 14.0885 21.4531 14.8281C19.6719 15.5573 18.1198 16.5833 16.7969 17.9062C15.474 19.2188 14.4427 20.7708 13.7031 22.5625C12.974 24.3438 12.6094 26.2917 12.6094 28.4062C12.6094 29.6354 12.7344 30.8073 12.9844 31.9219L11.1406 32.2656ZM17.5156 45.5938C16.5677 45.5938 15.5469 45.4219 14.4531 45.0781C13.3594 44.7344 12.3229 44.2812 11.3438 43.7188C10.3646 43.1562 9.5625 42.5365 8.9375 41.8594C8.3125 41.1927 8 40.5365 8 39.8906C8 39.5885 8.05729 39.3073 8.17188 39.0469C8.29688 38.7865 8.45833 38.5677 8.65625 38.3906C8.46875 38.0781 8.32292 37.7708 8.21875 37.4688C8.11458 37.1562 8.0625 36.8646 8.0625 36.5938C8.0625 36.1771 8.15104 35.7969 8.32812 35.4531C8.51562 35.099 8.78125 34.8438 9.125 34.6875C9.08333 34.5312 9.04688 34.375 9.01562 34.2188C8.99479 34.0625 8.98438 33.9167 8.98438 33.7812C8.98438 33.1667 9.1875 32.6406 9.59375 32.2031C10.0104 31.7552 10.5208 31.5312 11.125 31.5312C11.3021 31.5312 11.4688 31.5521 11.625 31.5938C11.7812 31.625 11.9323 31.6771 12.0781 31.75C12.2552 31.3958 12.5104 31.1094 12.8438 30.8906C13.1771 30.6719 13.5521 30.5625 13.9688 30.5625C14.2812 30.5625 14.5677 30.6302 14.8281 30.7656C15.0885 30.8906 15.3854 31.1354 15.7188 31.5C16.0625 31.8542 16.5052 32.3802 17.0469 33.0781L17.4375 33.5781C17.5938 33.0677 17.849 32.6562 18.2031 32.3438C18.5573 32.0208 18.9896 31.8594 19.5 31.8594C20.2083 31.8594 20.7708 32.1146 21.1875 32.625C21.6042 33.1354 21.875 33.901 22 34.9219C22.0729 35.4531 22.2135 36.0156 22.4219 36.6094C22.6302 37.2031 22.8281 37.8125 23.0156 38.4375C23.2135 39.0521 23.3125 39.6719 23.3125 40.2969C23.3125 41.3177 23.0625 42.224 22.5625 43.0156C22.0625 43.8177 21.375 44.4479 20.5 44.9062C19.625 45.3646 18.6302 45.5938 17.5156 45.5938ZM17.4219 44.0469C18.7031 44.0469 19.7448 43.6771 20.5469 42.9375C21.349 42.2083 21.75 41.2917 21.75 40.1875C21.75 39.6354 21.6615 39.1146 21.4844 38.625C21.3177 38.1354 21.1354 37.6198 20.9375 37.0781C20.7396 36.526 20.599 35.9062 20.5156 35.2188C20.4427 34.5521 20.3073 34.0729 20.1094 33.7812C19.9219 33.4896 19.6562 33.3438 19.3125 33.3438C19 33.3438 18.7604 33.5052 18.5938 33.8281C18.4375 34.1406 18.3594 34.526 18.3594 34.9844C18.3594 35.1719 18.375 35.3698 18.4062 35.5781C18.4375 35.776 18.4844 35.974 18.5469 36.1719L18.0781 36.5469C17.8073 36.2448 17.5104 35.9062 17.1875 35.5312C16.8646 35.1458 16.5469 34.7344 16.2344 34.2969L16.0312 34.0156C15.4479 33.2031 15.0312 32.6823 14.7812 32.4531C14.5417 32.224 14.2969 32.1094 14.0469 32.1094C13.8177 32.1094 13.6354 32.1823 13.5 32.3281C13.375 32.4635 13.3125 32.651 13.3125 32.8906C13.3125 33.1094 13.5312 33.5833 13.9688 34.3125C14.4167 35.0312 15.1875 35.9583 16.2812 37.0938L15.5938 37.7188C14.4792 36.6042 13.6667 35.7031 13.1562 35.0156C12.6458 34.3281 12.276 33.8281 12.0469 33.5156C11.8281 33.2031 11.5781 33.0469 11.2969 33.0469C11.0677 33.0469 10.8854 33.125 10.75 33.2812C10.6146 33.4375 10.5469 33.6615 10.5469 33.9531C10.5469 34.3698 10.9375 34.9844 11.7188 35.7969C12.5 36.599 13.4948 37.5365 14.7031 38.6094L14.1094 39.2969C13.2344 38.5885 12.5417 37.9948 12.0312 37.5156C11.5312 37.026 11.1458 36.6615 10.875 36.4219C10.6042 36.1719 10.375 36.0469 10.1875 36.0469C9.80208 36.0469 9.60938 36.2552 9.60938 36.6719C9.60938 36.974 9.82812 37.3594 10.2656 37.8281C10.7031 38.2865 11.2188 38.7448 11.8125 39.2031C12.4062 39.6615 12.9271 40.0365 13.375 40.3281L12.9062 41.125C12.2396 40.7604 11.6667 40.3646 11.1875 39.9375C10.7188 39.5208 10.349 39.3125 10.0781 39.3125C9.73438 39.3125 9.5625 39.474 9.5625 39.7969C9.5625 40.2031 9.82292 40.6458 10.3438 41.125C10.875 41.6146 11.5521 42.0781 12.375 42.5156C13.1979 42.9635 14.0573 43.3281 14.9531 43.6094C15.849 43.901 16.6719 44.0469 17.4219 44.0469ZM27.2969 44.8125C26.1302 44.8125 25.0052 44.7083 23.9219 44.5C22.8385 44.2917 21.8021 43.9948 20.8125 43.6094L22.0312 42.2031C23.6979 42.7969 25.4531 43.0938 27.2969 43.0938C29.1406 43.0938 30.8958 42.7969 32.5625 42.2031L33.7812 43.6094C32.8021 43.9948 31.7656 44.2917 30.6719 44.5C29.5885 44.7083 28.4635 44.8125 27.2969 44.8125ZM18.375 24.7969C18.375 23.7031 18.6823 22.8021 19.2969 22.0938C19.9219 21.375 20.724 21.0156 21.7031 21.0156C22.3594 21.0156 22.9792 21.1979 23.5625 21.5625C24.1458 21.9271 24.6302 22.4323 25.0156 23.0781L23.5469 23.9531C23.0573 23.1406 22.4427 22.7344 21.7031 22.7344C21.224 22.7344 20.8333 22.9271 20.5312 23.3125C20.2396 23.6875 20.0938 24.1823 20.0938 24.7969H18.375ZM25.6719 31.5C24.3385 31.5 22.9948 31.3281 21.6406 30.9844C20.2969 30.6406 18.9844 30.1458 17.7031 29.5L18.375 27.9062C19.6042 28.5312 20.8281 29 22.0469 29.3125C23.2656 29.625 24.474 29.7812 25.6719 29.7812C27.7969 29.7812 29.7865 29.2969 31.6406 28.3281C33.4948 27.349 35.1146 25.9323 36.5 24.0781L37.875 25.1094C36.3229 27.1823 34.5 28.7656 32.4062 29.8594C30.3125 30.9531 28.0677 31.5 25.6719 31.5ZM37.0781 45.5938C35.9635 45.5938 34.9688 45.3646 34.0938 44.9062C33.2188 44.4479 32.5312 43.8177 32.0312 43.0156C31.5312 42.224 31.2812 41.3177 31.2812 40.2969C31.2812 39.6719 31.375 39.0521 31.5625 38.4375C31.7604 37.8125 31.9635 37.2031 32.1719 36.6094C32.3906 36.0156 32.5312 35.4531 32.5938 34.9219C32.7083 33.974 32.9635 33.2292 33.3594 32.6875C33.7552 32.1354 34.3333 31.8594 35.0938 31.8594C35.6146 31.8594 36.0469 32.0208 36.3906 32.3438C36.7448 32.6562 37 33.0677 37.1562 33.5781L37.5469 33.0781C38.0885 32.3802 38.526 31.8542 38.8594 31.5C39.2031 31.1354 39.5052 30.8906 39.7656 30.7656C40.0365 30.6302 40.3229 30.5625 40.625 30.5625C41.0521 30.5625 41.4323 30.6719 41.7656 30.8906C42.099 31.1094 42.349 31.3958 42.5156 31.75C42.6615 31.6771 42.8125 31.625 42.9688 31.5938C43.1354 31.5521 43.3021 31.5312 43.4688 31.5312C44.0833 31.5312 44.5938 31.7552 45 32.2031C45.4062 32.6406 45.6094 33.1667 45.6094 33.7812C45.6094 33.9167 45.599 34.0625 45.5781 34.2188C45.5573 34.375 45.5208 34.5312 45.4688 34.6875C45.8125 34.8438 46.0729 35.099 46.25 35.4531C46.4375 35.7969 46.5312 36.1771 46.5312 36.5938C46.5312 36.8646 46.4792 37.1562 46.375 37.4688C46.2708 37.7708 46.125 38.0781 45.9375 38.3906C46.1458 38.5677 46.3073 38.7865 46.4219 39.0469C46.5365 39.3073 46.5938 39.5885 46.5938 39.8906C46.5938 40.5365 46.2812 41.1927 45.6562 41.8594C45.0312 42.5365 44.2292 43.1562 43.25 43.7188C42.2708 44.2812 41.2344 44.7344 40.1406 45.0781C39.0469 45.4219 38.026 45.5938 37.0781 45.5938ZM37.1719 44.0469C37.9219 44.0469 38.7448 43.901 39.6406 43.6094C40.5365 43.3281 41.3958 42.9635 42.2188 42.5156C43.0417 42.0781 43.7135 41.6146 44.2344 41.125C44.7656 40.6458 45.0312 40.2031 45.0312 39.7969C45.0312 39.474 44.8594 39.3125 44.5156 39.3125C44.2552 39.3125 43.8854 39.5208 43.4062 39.9375C42.9375 40.3646 42.3646 40.7604 41.6875 41.125L41.2188 40.3281C41.6771 40.0365 42.1979 39.6615 42.7812 39.2031C43.375 38.7448 43.8906 38.2865 44.3281 37.8281C44.7656 37.3594 44.9844 36.974 44.9844 36.6719C44.9844 36.2552 44.7917 36.0469 44.4062 36.0469C44.2292 36.0469 44 36.1719 43.7188 36.4219C43.4479 36.6615 43.0573 37.026 42.5469 37.5156C42.0469 37.9948 41.3594 38.5885 40.4844 39.2969L39.8906 38.6094C41.099 37.5365 42.0938 36.599 42.875 35.7969C43.6562 34.9844 44.0469 34.3698 44.0469 33.9531C44.0469 33.6615 43.9792 33.4375 43.8438 33.2812C43.7188 33.125 43.5365 33.0469 43.2969 33.0469C43.026 33.0469 42.776 33.2031 42.5469 33.5156C42.3177 33.8281 41.9479 34.3281 41.4375 35.0156C40.9375 35.7031 40.125 36.6042 39 37.7188L38.3125 37.0938C39.4062 35.9583 40.1719 35.0312 40.6094 34.3125C41.0573 33.5833 41.2812 33.1094 41.2812 32.8906C41.2812 32.651 41.2135 32.4635 41.0781 32.3281C40.9531 32.1823 40.776 32.1094 40.5469 32.1094C40.2969 32.1094 40.0469 32.224 39.7969 32.4531C39.5573 32.6823 39.1458 33.2031 38.5625 34.0156L38.3594 34.2969C38.0469 34.7344 37.7292 35.1458 37.4062 35.5312C37.0833 35.9062 36.7865 36.2448 36.5156 36.5469L36.0469 36.1719C36.1094 35.974 36.1562 35.776 36.1875 35.5781C36.2188 35.3698 36.2344 35.1719 36.2344 34.9844C36.2344 34.526 36.151 34.1406 35.9844 33.8281C35.8281 33.5052 35.5938 33.3438 35.2812 33.3438C34.9375 33.3438 34.6719 33.4896 34.4844 33.7812C34.2969 34.0729 34.1615 34.5521 34.0781 35.2188C33.9948 35.9062 33.849 36.526 33.6406 37.0781C33.4427 37.6198 33.2604 38.1354 33.0938 38.625C32.9271 39.1146 32.8438 39.6354 32.8438 40.1875C32.8438 41.2917 33.2448 42.2083 34.0469 42.9375C34.849 43.6771 35.8906 44.0469 37.1719 44.0469ZM30.0938 22.9688L28.375 22.8438C28.4583 21.7812 28.8177 20.9167 29.4531 20.25C30.0885 19.5833 30.8698 19.25 31.7969 19.25C32.4427 19.25 33.0573 19.4167 33.6406 19.75C34.224 20.0833 34.7292 20.5469 35.1562 21.1406L33.7656 22.1406C33.1927 21.3594 32.5365 20.9688 31.7969 20.9688C31.3281 20.9688 30.9375 21.151 30.625 21.5156C30.3229 21.8698 30.1458 22.3542 30.0938 22.9688Z" fill="#444444"/>
</svg>
