<svg width="50" height="57" viewBox="0 0 50 57" fill="none" xmlns="http://www.w3.org/2000/svg">
<rect width="49.125" height="56.8125" rx="24.5625" fill="#DDF3FE"/>
<path d="M24.5625 44.8125C22.1875 44.8125 19.9896 44.401 17.9688 43.5781C15.9583 42.7656 14.2083 41.6198 12.7188 40.1406C11.2292 38.6615 10.0677 36.9271 9.23438 34.9375C8.41146 32.9375 8 30.7604 8 28.4062C8 26.0521 8.41146 23.8802 9.23438 21.8906C10.0677 19.8906 11.2292 18.151 12.7188 16.6719C14.2083 15.1927 15.9583 14.0469 17.9688 13.2344C19.9896 12.4115 22.1875 12 24.5625 12C26.9375 12 29.1302 12.4115 31.1406 13.2344C33.1615 14.0469 34.9167 15.1927 36.4062 16.6719C37.8958 18.151 39.0521 19.8906 39.875 21.8906C40.7083 23.8802 41.125 26.0521 41.125 28.4062C41.125 30.3542 40.8385 32.1875 40.2656 33.9062C39.6927 35.6146 38.8802 37.151 37.8281 38.5156L36.6094 37.0938L38.0469 36.4219L37.7812 35.0781C38.25 34.0885 38.6094 33.0365 38.8594 31.9219C39.1198 30.7969 39.25 29.625 39.25 28.4062C39.25 26.2917 38.8802 24.3438 38.1406 22.5625C37.4115 20.7708 36.3854 19.2188 35.0625 17.9062C33.75 16.5833 32.1979 15.5573 30.4062 14.8281C28.625 14.0885 26.6823 13.7188 24.5781 13.7188C22.4635 13.7188 20.5104 14.0885 18.7188 14.8281C16.9375 15.5573 15.3854 16.5833 14.0625 17.9062C12.7396 19.2188 11.7083 20.7708 10.9688 22.5625C10.2396 24.3438 9.875 26.2865 9.875 28.3906C9.875 30.5052 10.2396 32.4583 10.9688 34.25C11.7083 36.0417 12.7344 37.599 14.0469 38.9219C15.3698 40.2344 16.9271 41.2552 18.7188 41.9844C20.5104 42.724 22.4583 43.0938 24.5625 43.0938C26.7083 43.0938 28.6927 42.7083 30.5156 41.9375C32.3385 41.1771 33.9062 40.1198 35.2188 38.7656L35.9688 40.5625C34.5104 41.8958 32.8073 42.9375 30.8594 43.6875C28.9219 44.4375 26.8229 44.8125 24.5625 44.8125ZM26.7031 37.8281C25.099 37.1198 23.599 36.7656 22.2031 36.7656C21.099 36.7656 20.0469 36.9896 19.0469 37.4375L18.3281 35.875C19.5469 35.3229 20.8385 35.0469 22.2031 35.0469C23.8802 35.0469 25.6094 35.4479 27.3906 36.25L26.7031 37.8281ZM17 28.3281C16.4062 28.3281 15.8958 28.0677 15.4688 27.5469C15.0521 27.026 14.8438 26.375 14.8438 25.5938C14.8438 24.8125 15.0521 24.1615 15.4688 23.6406C15.8958 23.1198 16.4062 22.8594 17 22.8594C17.5833 22.8594 18.0885 23.1198 18.5156 23.6406C18.9427 24.1615 19.1562 24.8125 19.1562 25.5938C19.1562 26.375 18.9427 27.026 18.5156 27.5469C18.099 28.0677 17.5938 28.3281 17 28.3281ZM36.7188 44.8125C36.2083 44.8125 35.7708 44.6302 35.4062 44.2656C35.0417 43.9115 34.8594 43.4792 34.8594 42.9688C34.8594 42.4479 35.0417 42.0104 35.4062 41.6562C35.7708 41.3021 36.2083 41.125 36.7188 41.125C37.2292 41.125 37.6615 41.3021 38.0156 41.6562C38.3802 42.0208 38.5625 42.4583 38.5625 42.9688C38.5625 43.4792 38.3802 43.9115 38.0156 44.2656C37.6615 44.6302 37.2292 44.8125 36.7188 44.8125ZM36.7031 43.875C36.9635 43.875 37.1823 43.7865 37.3594 43.6094C37.5365 43.4323 37.625 43.2188 37.625 42.9688C37.625 42.7188 37.5365 42.5052 37.3594 42.3281C37.1823 42.151 36.9688 42.0625 36.7188 42.0625C36.4583 42.0625 36.2396 42.151 36.0625 42.3281C35.8854 42.5052 35.7969 42.7188 35.7969 42.9688C35.7969 43.2188 35.8854 43.4323 36.0625 43.6094C36.2396 43.7865 36.4531 43.875 36.7031 43.875ZM14.1562 22.625L12.6562 22.1875C13.0104 21.0312 13.4427 20.1771 13.9531 19.625C14.474 19.0625 15.1198 18.7812 15.8906 18.7812C16.151 18.7812 16.4062 18.8073 16.6562 18.8594C16.9167 18.9115 17.1615 18.9635 17.3906 19.0156C17.6406 19.0781 17.875 19.1354 18.0938 19.1875C18.3229 19.2292 18.5521 19.25 18.7812 19.25H20.2031V20.8125H18.7812C18.4375 20.8125 18.1146 20.7865 17.8125 20.7344C17.5104 20.6719 17.2292 20.6042 16.9688 20.5312C16.7708 20.4792 16.5781 20.4375 16.3906 20.4062C16.2135 20.3646 16.0469 20.3438 15.8906 20.3438C15.5365 20.3438 15.2188 20.5156 14.9375 20.8594C14.6667 21.2031 14.4062 21.7917 14.1562 22.625ZM36.7188 41.2188C36.2083 41.2188 35.7708 41.0365 35.4062 40.6719C35.0417 40.3177 34.8594 39.8854 34.8594 39.375C34.8594 38.8542 35.0417 38.4167 35.4062 38.0625C35.7708 37.7083 36.2083 37.5312 36.7188 37.5312C37.2292 37.5312 37.6615 37.7135 38.0156 38.0781C38.3802 38.4323 38.5625 38.8646 38.5625 39.375C38.5625 39.8854 38.3802 40.3177 38.0156 40.6719C37.6615 41.0365 37.2292 41.2188 36.7188 41.2188ZM36.7031 40.2812C36.9635 40.2812 37.1823 40.1927 37.3594 40.0156C37.5365 39.8385 37.625 39.625 37.625 39.375C37.625 39.125 37.5365 38.9115 37.3594 38.7344C37.1823 38.5573 36.9688 38.4688 36.7188 38.4688C36.4583 38.4688 36.2396 38.5573 36.0625 38.7344C35.8854 38.9115 35.7969 39.125 35.7969 39.375C35.7969 39.625 35.8854 39.8385 36.0625 40.0156C36.2396 40.1927 36.4531 40.2812 36.7031 40.2812ZM36.7188 37.625C36.2083 37.625 35.7708 37.4479 35.4062 37.0938C35.0417 36.7292 34.8594 36.2917 34.8594 35.7812C34.8594 35.2604 35.0417 34.8229 35.4062 34.4688C35.7708 34.1146 36.2083 33.9375 36.7188 33.9375C37.2292 33.9375 37.6615 34.1198 38.0156 34.4844C38.3802 34.8385 38.5625 35.2708 38.5625 35.7812C38.5625 36.2917 38.3802 36.7292 38.0156 37.0938C37.6615 37.4479 37.2292 37.625 36.7188 37.625ZM36.7031 36.6875C36.9635 36.6875 37.1823 36.599 37.3594 36.4219C37.5365 36.2448 37.625 36.0312 37.625 35.7812C37.625 35.5312 37.5365 35.3177 37.3594 35.1406C37.1823 34.9635 36.9688 34.875 36.7188 34.875C36.4583 34.875 36.2396 34.9635 36.0625 35.1406C35.8854 35.3177 35.7969 35.5312 35.7969 35.7812C35.7969 36.0312 35.8854 36.2448 36.0625 36.4219C36.2396 36.599 36.4531 36.6875 36.7031 36.6875ZM29.5312 31.0156C28.4583 31.0156 27.474 30.7552 26.5781 30.2344C25.6927 29.7135 24.9844 29.0104 24.4531 28.125C23.9323 27.2396 23.6719 26.2552 23.6719 25.1719C23.6719 24.099 23.9323 23.1198 24.4531 22.2344C24.9844 21.349 25.6927 20.6458 26.5781 20.125C27.4635 19.5938 28.4479 19.3281 29.5312 19.3281C30.6042 19.3281 31.5781 19.5938 32.4531 20.125C33.3385 20.6458 34.0417 21.349 34.5625 22.2344C35.0938 23.1094 35.3594 24.0885 35.3594 25.1719C35.3594 26.2552 35.0938 27.2396 34.5625 28.125C34.0417 29.0104 33.3385 29.7135 32.4531 30.2344C31.5781 30.7552 30.6042 31.0156 29.5312 31.0156ZM29.5312 29.625C30.3542 29.625 31.099 29.4271 31.7656 29.0312C32.4323 28.625 32.9635 28.0833 33.3594 27.4062C33.7656 26.7292 33.9688 25.9844 33.9688 25.1719C33.9688 24.349 33.7656 23.6042 33.3594 22.9375C32.9635 22.2708 32.4271 21.7396 31.75 21.3438C31.0833 20.9375 30.3438 20.7344 29.5312 20.7344C28.7083 20.7344 27.9583 20.9323 27.2812 21.3281C26.6146 21.724 26.0781 22.2604 25.6719 22.9375C25.276 23.6042 25.0781 24.349 25.0781 25.1719C25.0781 25.9844 25.276 26.7292 25.6719 27.4062C26.0781 28.0833 26.6146 28.625 27.2812 29.0312C27.9583 29.4271 28.7083 29.625 29.5312 29.625ZM29.6562 28.1562C28.9792 28.1562 28.4062 27.8802 27.9375 27.3281C27.4688 26.7656 27.2344 26.0833 27.2344 25.2812C27.2344 24.4792 27.4688 23.8021 27.9375 23.25C28.4062 22.6875 28.9792 22.4062 29.6562 22.4062C30.3333 22.4062 30.9062 22.6875 31.375 23.25C31.8438 23.8021 32.0781 24.4792 32.0781 25.2812C32.0781 26.0833 31.8438 26.7656 31.375 27.3281C30.9062 27.8802 30.3333 28.1562 29.6562 28.1562ZM36.7188 34.0312C36.2083 34.0312 35.7708 33.8542 35.4062 33.5C35.0417 33.1354 34.8594 32.6979 34.8594 32.1875C34.8594 31.6667 35.0417 31.2292 35.4062 30.875C35.7708 30.5208 36.2083 30.3438 36.7188 30.3438C37.2292 30.3438 37.6615 30.526 38.0156 30.8906C38.3802 31.2448 38.5625 31.6771 38.5625 32.1875C38.5625 32.6979 38.3802 33.1354 38.0156 33.5C37.6615 33.8542 37.2292 34.0312 36.7188 34.0312ZM36.7031 33.0938C36.9635 33.0938 37.1823 33.0052 37.3594 32.8281C37.5365 32.651 37.625 32.4375 37.625 32.1875C37.625 31.9375 37.5365 31.724 37.3594 31.5469C37.1823 31.3698 36.9688 31.2812 36.7188 31.2812C36.4583 31.2812 36.2396 31.3698 36.0625 31.5469C35.8854 31.724 35.7969 31.9375 35.7969 32.1875C35.7969 32.4375 35.8854 32.651 36.0625 32.8281C36.2396 33.0052 36.4531 33.0938 36.7031 33.0938ZM36.7188 30.4375C36.2083 30.4375 35.7708 30.2604 35.4062 29.9062C35.0417 29.5417 34.8594 29.1042 34.8594 28.5938C34.8594 28.0729 35.0417 27.6354 35.4062 27.2812C35.7708 26.9271 36.2083 26.75 36.7188 26.75C37.2292 26.75 37.6615 26.9323 38.0156 27.2969C38.3802 27.651 38.5625 28.0833 38.5625 28.5938C38.5625 29.1042 38.3802 29.5417 38.0156 29.9062C37.6615 30.2604 37.2292 30.4375 36.7188 30.4375ZM36.7031 29.5C36.9635 29.5 37.1823 29.4115 37.3594 29.2344C37.5365 29.0573 37.625 28.8438 37.625 28.5938C37.625 28.3438 37.5365 28.1302 37.3594 27.9531C37.1823 27.776 36.9688 27.6875 36.7188 27.6875C36.4583 27.6875 36.2396 27.776 36.0625 27.9531C35.8854 28.1302 35.7969 28.3438 35.7969 28.5938C35.7969 28.8438 35.8854 29.0573 36.0625 29.2344C36.2396 29.4115 36.4531 29.5 36.7031 29.5ZM34.8594 26.8438V23.1562H36.7188C37.2292 23.1562 37.6615 23.3385 38.0156 23.7031C38.3802 24.0573 38.5625 24.4896 38.5625 25C38.5625 25.5104 38.3802 25.9479 38.0156 26.3125C37.6615 26.6667 37.2292 26.8438 36.7188 26.8438H34.8594ZM36.7031 25.9062C36.9635 25.9062 37.1823 25.8177 37.3594 25.6406C37.5365 25.4635 37.625 25.25 37.625 25C37.625 24.75 37.5365 24.5365 37.3594 24.3594C37.1823 24.1823 36.9688 24.0938 36.7188 24.0938C36.4583 24.0938 36.2396 24.1823 36.0625 24.3594C35.8854 24.5365 35.7969 24.75 35.7969 25C35.7969 25.25 35.8854 25.4635 36.0625 25.6406C36.2396 25.8177 36.4531 25.9062 36.7031 25.9062ZM26.7344 19.6406L25.7188 18.4531C26.7396 17.5573 27.6615 16.9167 28.4844 16.5312C29.3177 16.1458 30.0573 15.9531 30.7031 15.9531C31.4427 15.9531 32.0625 16.2083 32.5625 16.7188C33.0729 17.2292 33.4479 17.974 33.6875 18.9531L32.1719 19.3281C32.0156 18.6927 31.8125 18.2344 31.5625 17.9531C31.3229 17.6615 31.0365 17.5156 30.7031 17.5156C30.276 17.5156 29.7292 17.6771 29.0625 18C28.4062 18.3229 27.6302 18.8698 26.7344 19.6406Z" fill="#444444"/>
</svg>
