<svg width="48" height="57" viewBox="0 0 48 57" fill="none" xmlns="http://www.w3.org/2000/svg">
<rect width="47.0312" height="56.8125" rx="23.5156" fill="#DDF3FE"/>
<path d="M23.5156 44.8125C21.2656 44.8125 19.2083 44.4271 17.3438 43.6562C15.4792 42.8854 13.8698 41.8125 12.5156 40.4375C11.1719 39.0729 10.1302 37.4792 9.39062 35.6562C8.65104 33.8229 8.28125 31.8438 8.28125 29.7188C8.28125 27.6042 8.65104 25.6354 9.39062 23.8125C10.1302 21.9792 11.1719 20.3802 12.5156 19.0156C13.8698 17.6406 15.4792 16.5677 17.3438 15.7969C19.2083 15.026 21.2656 14.6406 23.5156 14.6406C25.7656 14.6406 27.8229 15.026 29.6875 15.7969C31.5521 16.5677 33.1562 17.6406 34.5 19.0156C35.8542 20.3802 36.901 21.9792 37.6406 23.8125C38.3802 25.6354 38.75 27.6094 38.75 29.7344C38.75 31.849 38.3802 33.8229 37.6406 35.6562C36.901 37.4792 35.8542 39.0729 34.5 40.4375C33.1562 41.8125 31.5521 42.8854 29.6875 43.6562C27.8229 44.4271 25.7656 44.8125 23.5156 44.8125ZM23.5156 37.3281C21.0677 37.3281 18.7812 36.5781 16.6562 35.0781L17.6562 33.6719C19.4688 34.9635 21.4219 35.6094 23.5156 35.6094C25.6094 35.6094 27.5625 34.9635 29.375 33.6719L30.375 35.0781C28.25 36.5781 25.9635 37.3281 23.5156 37.3281ZM15.8906 29.0312L14.6562 27.9844C15.1146 27.276 15.6562 26.7292 16.2812 26.3438C16.9062 25.9583 17.5573 25.7656 18.2344 25.7656C19.6302 25.7656 20.8229 26.5052 21.8125 27.9844L20.5781 29.0312C19.9323 28 19.151 27.4844 18.2344 27.4844C17.3177 27.4844 16.5365 28 15.8906 29.0312ZM23.5156 43.1094C25.4948 43.1094 27.3021 42.7656 28.9375 42.0781C30.5729 41.401 31.9792 40.4531 33.1562 39.2344C34.3438 38.0156 35.2604 36.599 35.9062 34.9844C36.5521 33.3594 36.875 31.6094 36.875 29.7344C36.875 27.8594 36.5521 26.1146 35.9062 24.5C35.2604 22.875 34.3438 21.4531 33.1562 20.2344C31.9792 19.0052 30.5729 18.0521 28.9375 17.375C27.3021 16.6875 25.4948 16.3438 23.5156 16.3438C21.5365 16.3438 19.7292 16.6875 18.0938 17.375C16.4583 18.0521 15.0469 19 13.8594 20.2188C12.6823 21.4375 11.7708 22.8594 11.125 24.4844C10.4792 26.099 10.1562 27.8438 10.1562 29.7188C10.1562 31.5938 10.4792 33.3438 11.125 34.9688C11.7708 36.5833 12.6823 38.0052 13.8594 39.2344C15.0469 40.4531 16.4583 41.401 18.0938 42.0781C19.7292 42.7656 21.5365 43.1094 23.5156 43.1094ZM26.4531 29.0312L25.2188 27.9844C26.2083 26.5052 27.401 25.7656 28.7969 25.7656C29.474 25.7656 30.125 25.9583 30.75 26.3438C31.375 26.7292 31.9167 27.276 32.375 27.9844L31.1406 29.0312C30.4948 28 29.7135 27.4844 28.7969 27.4844C27.8802 27.4844 27.099 28 26.4531 29.0312ZM23.5156 22.5156C21.3906 22.5156 19.3906 22.375 17.5156 22.0938C15.6406 21.8021 13.9896 21.4062 12.5625 20.9062C11.1354 20.4062 10.0156 19.8229 9.20312 19.1562C8.40104 18.4792 8 17.7604 8 17C8 16.2708 8.375 15.6042 9.125 15C9.88542 14.3854 10.9531 13.8542 12.3281 13.4062C13.7135 12.9583 15.3542 12.6146 17.25 12.375C19.1458 12.125 21.2344 12 23.5156 12C25.7969 12 27.8854 12.125 29.7812 12.375C31.6771 12.6146 33.3125 12.9583 34.6875 13.4062C36.0729 13.8542 37.1406 14.3854 37.8906 15C38.651 15.6042 39.0312 16.2708 39.0312 17C39.0312 17.7604 38.625 18.4792 37.8125 19.1562C37.0104 19.8229 35.8958 20.4062 34.4688 20.9062C33.0417 21.4062 31.3906 21.8021 29.5156 22.0938C27.6406 22.375 25.6406 22.5156 23.5156 22.5156ZM23.5156 19.3125C25.724 19.3125 27.6771 19.2031 29.375 18.9844C31.0833 18.7552 32.4167 18.4531 33.375 18.0781C34.3438 17.6927 34.8281 17.2656 34.8281 16.7969C34.8281 16.401 34.5052 16.0208 33.8594 15.6562C33.2135 15.2917 32.3438 14.9635 31.25 14.6719C30.1667 14.3698 28.9531 14.1354 27.6094 13.9688C26.276 13.7917 24.9115 13.7031 23.5156 13.7031C22.1302 13.7031 20.7656 13.7917 19.4219 13.9688C18.0781 14.1354 16.8594 14.3698 15.7656 14.6719C14.6823 14.9635 13.8177 15.2917 13.1719 15.6562C12.526 16.0208 12.2031 16.401 12.2031 16.7969C12.2031 17.2656 12.6823 17.6927 13.6406 18.0781C14.6094 18.4531 15.9427 18.7552 17.6406 18.9844C19.349 19.2031 21.3073 19.3125 23.5156 19.3125Z" fill="#444444"/>
</svg>
