<svg width="49" height="57" viewBox="0 0 49 57" fill="none" xmlns="http://www.w3.org/2000/svg">
<rect width="48.7812" height="56.8125" rx="24.3906" fill="#DDF3FE"/>
<path d="M25 44.8125C22.75 44.8125 20.6667 44.4219 18.75 43.6406C16.8438 42.8698 15.1771 41.7812 13.75 40.375C12.3333 38.9792 11.2292 37.3438 10.4375 35.4688C9.64583 33.5833 9.25 31.5312 9.25 29.3125C9.25 27.7396 9.45833 26.224 9.875 24.7656L11.4375 26.2344C11.3333 26.724 11.2552 27.2292 11.2031 27.75C11.151 28.2604 11.125 28.7812 11.125 29.3125C11.125 31.2917 11.4688 33.1198 12.1562 34.7969C12.8438 36.474 13.8125 37.9323 15.0625 39.1719C16.3125 40.4115 17.7812 41.375 19.4688 42.0625C21.1562 42.75 23 43.0938 25 43.0938C27 43.0938 28.8438 42.75 30.5312 42.0625C32.2292 41.375 33.7031 40.4115 34.9531 39.1719C36.2031 37.9323 37.1719 36.474 37.8594 34.7969C38.5573 33.1198 38.9062 31.2917 38.9062 29.3125C38.9062 27.4479 38.599 25.724 37.9844 24.1406C37.3802 22.5469 36.526 21.1458 35.4219 19.9375C34.3177 18.7188 33.0104 17.7344 31.5 16.9844C30 16.2344 28.349 15.776 26.5469 15.6094L27.1094 13.9375C29.0885 14.1771 30.9115 14.7292 32.5781 15.5938C34.2448 16.4479 35.6875 17.5573 36.9062 18.9219C38.1354 20.2865 39.0885 21.849 39.7656 23.6094C40.4427 25.3698 40.7812 27.2708 40.7812 29.3125C40.7812 31.5312 40.3854 33.5833 39.5938 35.4688C38.8021 37.3438 37.6927 38.9792 36.2656 40.375C34.849 41.7812 33.1771 42.8698 31.25 43.6406C29.3333 44.4219 27.25 44.8125 25 44.8125ZM25 36.4844C24.0938 36.4844 23.1198 36.4323 22.0781 36.3281C21.0469 36.224 19.901 36.0573 18.6406 35.8281L18.9531 34.1406C21.3281 34.5573 23.3438 34.7656 25 34.7656C26.6667 34.7656 28.6823 34.5573 31.0469 34.1406L31.3594 35.8281C30.1094 36.0573 28.9635 36.224 27.9219 36.3281C26.8906 36.4323 25.9167 36.4844 25 36.4844ZM19.6875 29.1094C19.1042 29.1094 18.599 28.8542 18.1719 28.3438C17.7448 27.8333 17.5312 27.2292 17.5312 26.5312C17.5312 26.4479 17.5312 26.3646 17.5312 26.2812C17.5417 26.1979 17.5521 26.1198 17.5625 26.0469L20.7656 24.3125C21.0885 24.5417 21.349 24.8542 21.5469 25.25C21.7448 25.6354 21.8438 26.0625 21.8438 26.5312C21.8438 27.2292 21.6302 27.8333 21.2031 28.3438C20.776 28.8542 20.2708 29.1094 19.6875 29.1094ZM14.1406 27.5156C12.8385 27.5156 11.7292 27.2344 10.8125 26.6719C9.89583 26.099 9.19792 25.349 8.71875 24.4219C8.23958 23.4948 8 22.4844 8 21.3906C8 19.8073 8.48438 18.474 9.45312 17.3906C10.4323 16.3073 11.9323 15.4583 13.9531 14.8438C15.0885 14.5 16.0312 14.1406 16.7812 13.7656C17.5417 13.3802 18.2031 13.0573 18.7656 12.7969C19.3385 12.5365 19.9115 12.4062 20.4844 12.4062C20.974 12.4062 21.3854 12.6042 21.7188 13C22.0521 13.3958 22.2188 13.849 22.2188 14.3594C22.2188 14.9115 22.0208 15.375 21.625 15.75C21.2292 16.125 20.7396 16.4531 20.1562 16.7344C19.5833 17.0052 19.0156 17.276 18.4531 17.5469C17.901 17.8073 17.4583 18.1094 17.125 18.4531L16.2344 17.5312C16.5156 17.25 16.9115 16.974 17.4219 16.7031C17.9427 16.4219 18.474 16.151 19.0156 15.8906C19.5573 15.6302 20.0156 15.375 20.3906 15.125C20.776 14.8646 20.9688 14.6094 20.9688 14.3594C20.9688 14.1927 20.9219 14.0625 20.8281 13.9688C20.7448 13.8646 20.6302 13.8125 20.4844 13.8125C20.3177 13.8125 20.1094 13.8594 19.8594 13.9531C19.6198 14.0469 19.2083 14.2448 18.625 14.5469C18.1354 14.8073 17.5365 15.1042 16.8281 15.4375C16.1302 15.7604 15.2969 16.0677 14.3281 16.3594C12.6198 16.8698 11.4219 17.5312 10.7344 18.3438C10.0573 19.1562 9.71875 20.1719 9.71875 21.3906C9.71875 22.2552 9.90625 23.0312 10.2812 23.7188C10.6562 24.4062 11.1771 24.9531 11.8438 25.3594C12.5104 25.7552 13.276 25.9531 14.1406 25.9531C14.8698 25.9531 15.6667 25.8125 16.5312 25.5312C17.4062 25.25 18.3646 24.7917 19.4062 24.1562L21.8594 22.6719C22.3698 22.3698 22.7344 22.0885 22.9531 21.8281C23.1823 21.5677 23.2969 21.3646 23.2969 21.2188C23.2969 21.125 23.276 21.0469 23.2344 20.9844C23.2031 20.9115 23.151 20.8594 23.0781 20.8281L24.1094 19.7031C24.3802 19.8385 24.599 20.0469 24.7656 20.3281C24.9323 20.599 25.0156 20.8958 25.0156 21.2188C25.0156 21.6354 24.7917 22.1042 24.3438 22.625C23.9062 23.1354 23.3333 23.6042 22.625 24.0312L20.1719 25.5156C19.0469 26.1927 17.9688 26.6979 16.9375 27.0312C15.9062 27.3542 14.974 27.5156 14.1406 27.5156ZM14.3438 23.8594L13.625 22.6719C14.2188 22.2552 14.8333 21.9427 15.4688 21.7344C16.1042 21.5156 16.7448 21.4062 17.3906 21.4062C17.724 21.4062 18.0781 21.4531 18.4531 21.5469C18.8281 21.6406 19.1771 21.7448 19.5 21.8594L22.8594 19.8594C23.974 19.1927 24.8333 18.6406 25.4375 18.2031C26.0417 17.7552 26.4635 17.3698 26.7031 17.0469C26.9427 16.724 27.0625 16.4167 27.0625 16.125C27.0625 16.0312 27.0521 15.974 27.0312 15.9531C27.0104 15.9219 26.974 15.9062 26.9219 15.9062V14.6562C27.3385 14.6562 27.724 14.7969 28.0781 15.0781C28.4427 15.349 28.625 15.6979 28.625 16.125C28.625 16.6146 28.4531 17.0833 28.1094 17.5312C27.776 17.9792 27.2344 18.4688 26.4844 19C25.7344 19.5312 24.7448 20.1667 23.5156 20.9062L19.4688 23.3438C19.0104 23.1667 18.6042 23.0365 18.25 22.9531C17.9062 22.8594 17.6198 22.8125 17.3906 22.8125C16.8594 22.8125 16.3438 22.8958 15.8438 23.0625C15.3542 23.2292 14.8542 23.4948 14.3438 23.8594ZM30.3281 29.1094C29.7448 29.1094 29.2396 28.8542 28.8125 28.3438C28.3854 27.8333 28.1719 27.2292 28.1719 26.5312C28.1719 25.8229 28.3854 25.2188 28.8125 24.7188C29.2396 24.2083 29.7448 23.9531 30.3281 23.9531C30.9115 23.9531 31.4167 24.2083 31.8438 24.7188C32.2708 25.2188 32.4844 25.8229 32.4844 26.5312C32.4844 27.2292 32.2708 27.8333 31.8438 28.3438C31.4167 28.8542 30.9115 29.1094 30.3281 29.1094ZM19.5469 19.5L18.5469 18.7812C18.8177 18.3958 19.2656 17.9844 19.8906 17.5469C20.5156 17.1094 21.1719 16.6719 21.8594 16.2344C22.5469 15.7865 23.1354 15.3594 23.625 14.9531C24.1146 14.5365 24.3594 14.1615 24.3594 13.8281C24.3594 13.7135 24.3281 13.6146 24.2656 13.5312C24.2031 13.4479 24.1198 13.4062 24.0156 13.4062C23.9115 13.4062 23.7188 13.4896 23.4375 13.6562C23.1667 13.8125 22.6823 14.1562 21.9844 14.6875L21.2344 13.6875C22.1302 12.9792 22.7812 12.5208 23.1875 12.3125C23.5938 12.1042 23.9479 12 24.25 12C24.6771 12 25.0365 12.1667 25.3281 12.5C25.6198 12.8333 25.7656 13.224 25.7656 13.6719C25.7656 14.2969 25.5104 14.8698 25 15.3906C24.4896 15.901 23.8698 16.3854 23.1406 16.8438C22.4219 17.2917 21.724 17.7344 21.0469 18.1719C20.3802 18.599 19.8802 19.0417 19.5469 19.5ZM21.2344 20.4062L20.4844 19.7031C20.8281 19.3073 21.3333 18.8906 22 18.4531C22.6771 18.0052 23.375 17.5417 24.0938 17.0625C24.8229 16.5833 25.4375 16.099 25.9375 15.6094C26.4479 15.1094 26.7031 14.6146 26.7031 14.125C26.7031 13.9479 26.6667 13.8281 26.5938 13.7656C26.5208 13.7031 26.4427 13.6719 26.3594 13.6719C26.1719 13.6719 25.8594 13.8698 25.4219 14.2656L24.7344 13.2031C25.0573 12.901 25.3594 12.6719 25.6406 12.5156C25.9323 12.349 26.224 12.2656 26.5156 12.2656C26.974 12.2656 27.3542 12.4271 27.6562 12.75C27.9583 13.0729 28.1094 13.4792 28.1094 13.9688C28.1094 14.5312 27.9219 15.0625 27.5469 15.5625C27.1823 16.0625 26.7083 16.5312 26.125 16.9688C25.5417 17.4062 24.9323 17.8229 24.2969 18.2188C23.6615 18.6146 23.0677 18.9948 22.5156 19.3594C21.9635 19.724 21.5365 20.0729 21.2344 20.4062Z" fill="#444444"/>
</svg>
