<svg width="80" height="80" viewBox="0 0 80 80" fill="none" xmlns="http://www.w3.org/2000/svg">
<rect width="80" height="80" rx="40" fill="#E6F8FF"/>
<path d="M55.6367 60.8359C54.6211 60.8359 53.7812 60.6992 53.1172 60.4258C52.4531 60.1523 51.8737 59.7812 51.3789 59.3125C50.8971 58.8568 50.4154 58.3555 49.9336 57.8086L33.332 38.8047C32.2773 39.1432 31.138 39.3125 29.9141 39.3125C28.1172 39.3125 26.5091 38.8958 25.0898 38.0625C23.6706 37.2161 22.5443 36.0768 21.7109 34.6445C20.8906 33.1992 20.4805 31.5911 20.4805 29.8203C20.4805 28.9349 20.5977 28.0234 20.832 27.0859L27.6484 31.0312C28.4427 30.6536 29.0742 30.1068 29.543 29.3906C30.0117 28.6615 30.2461 27.8607 30.2461 26.9883C30.2461 26.9102 30.2461 26.8385 30.2461 26.7734C30.2461 26.6953 30.2396 26.6237 30.2266 26.5586L23.8398 23.0039C24.2565 21.8841 25.0573 21.0768 26.2422 20.582C27.4401 20.0742 28.7747 19.8203 30.2461 19.8203C32.056 19.8203 33.6966 20.263 35.168 21.1484C36.6393 22.0339 37.8112 23.2188 38.6836 24.7031C39.556 26.1745 39.9922 27.8086 39.9922 29.6055C39.9922 31.0247 39.7057 32.3464 39.1328 33.5703L57.9609 50.8945C58.8724 51.7279 59.5234 52.5286 59.9141 53.2969C60.3177 54.0521 60.5195 54.8789 60.5195 55.7773C60.5195 56.6888 60.2917 57.5286 59.8359 58.2969C59.3932 59.0651 58.8008 59.6771 58.0586 60.1328C57.3164 60.6016 56.5091 60.8359 55.6367 60.8359ZM55.6367 58.8828C56.4049 58.8828 57.082 58.5703 57.668 57.9453C58.2669 57.3333 58.5664 56.6107 58.5664 55.7773C58.5664 55.1654 58.4232 54.6055 58.1367 54.0977C57.8633 53.5898 57.362 53.0039 56.6328 52.3398L36.6523 33.9414C37.5768 32.6654 38.0391 31.2201 38.0391 29.6055C38.0391 28.1602 37.681 26.8451 36.9648 25.6602C36.2617 24.4753 35.2917 23.5312 34.0547 22.8281C32.8307 22.125 31.431 21.7734 29.8555 21.7734C29.569 21.7734 29.1393 21.832 28.5664 21.9492C27.9935 22.0534 27.5247 22.2617 27.1602 22.5742L31.9453 25.2891C32.1146 25.8099 32.1992 26.3763 32.1992 26.9883C32.1992 28.4206 31.7565 29.7161 30.8711 30.875C29.9987 32.0208 28.8594 32.7826 27.4531 33.1602L22.4531 30.2891C22.5312 31.6302 22.8958 32.8346 23.5469 33.9023C24.2109 34.9701 25.0898 35.8164 26.1836 36.4414C27.2904 37.0534 28.5339 37.3594 29.9141 37.3594C30.6823 37.3594 31.3659 37.2943 31.9648 37.1641C32.5638 37.0208 33.2083 36.793 33.8984 36.4805L51.418 56.5195C51.8997 57.0664 52.3229 57.5091 52.6875 57.8477C53.0521 58.1992 53.4557 58.4596 53.8984 58.6289C54.3411 58.7982 54.9206 58.8828 55.6367 58.8828ZM54.7188 56.9492C55.2005 56.9492 55.6107 56.7799 55.9492 56.4414C56.2878 56.1029 56.457 55.6927 56.457 55.2109C56.457 54.7292 56.2878 54.319 55.9492 53.9805C55.6107 53.6419 55.2005 53.4727 54.7188 53.4727C54.237 53.4727 53.8268 53.6419 53.4883 53.9805C53.1497 54.319 52.9805 54.7292 52.9805 55.2109C52.9805 55.6927 53.1497 56.1029 53.4883 56.4414C53.8268 56.7799 54.237 56.9492 54.7188 56.9492Z" fill="#005BAC"/>
</svg>
