<svg width="80" height="80" viewBox="0 0 80 80" fill="none" xmlns="http://www.w3.org/2000/svg">
<rect width="80" height="80" rx="40" fill="#E6F8FF"/>
<path d="M31.7695 60.8359C30.7279 60.8359 29.8359 60.4648 29.0938 59.7227C28.3646 58.9935 28 58.1081 28 57.0664V23.5898C28 22.5482 28.3711 21.6628 29.1133 20.9336C29.8555 20.1914 30.7409 19.8203 31.7695 19.8203H49.2305C50.2721 19.8203 51.1576 20.1914 51.8867 20.9336C52.6289 21.6628 53 22.5482 53 23.5898V57.1055C53 58.1341 52.6289 59.013 51.8867 59.7422C51.1576 60.4714 50.2721 60.8359 49.2305 60.8359H31.7695ZM33.2734 55.3867V52.6523H36.0078V55.3867H33.2734ZM37.1797 55.3867V52.6523H39.9141V55.3867H37.1797ZM41.0859 55.3867V52.6523H43.8203V55.3867H41.0859ZM44.9922 55.3867V52.6523H47.7266V55.3867H44.9922ZM33.2734 42.8672V40.1328H36.0078V42.8672H33.2734ZM33.2734 38.9609V36.2266H36.0078V38.9609H33.2734ZM37.1797 42.8672V40.1328H39.9141V42.8672H37.1797ZM32.5898 58.3164H48.4102C48.9961 58.3164 49.4974 58.1081 49.9141 57.6914C50.3307 57.2747 50.5391 56.7799 50.5391 56.207V27.5742C50.5391 27.0013 50.3307 26.5065 49.9141 26.0898C49.4974 25.6732 48.9961 25.4648 48.4102 25.4648H32.5898C32.0039 25.4648 31.5026 25.6732 31.0859 26.0898C30.6693 26.5065 30.4609 27.0013 30.4609 27.5742V56.207C30.4609 56.7799 30.6693 57.2747 31.0859 57.6914C31.5026 58.1081 32.0039 58.3164 32.5898 58.3164ZM33.2734 35.0547V32.3203H36.0078V35.0547H33.2734ZM37.1797 38.9609V36.2266H39.9141V38.9609H37.1797ZM33.2734 31.1484V28.4141H36.0078V31.1484H33.2734ZM37.1797 35.0547V32.3203H39.9141V35.0547H37.1797ZM41.0859 38.9609V36.2266H43.8203V38.9609H41.0859ZM37.1797 31.1484V28.4141H39.9141V31.1484H37.1797ZM41.0859 35.0547V32.3203H43.8203V35.0547H41.0859ZM44.9922 38.9609V36.2266H47.7266V38.9609H44.9922ZM41.0859 31.1484V28.4141H43.8203V31.1484H41.0859ZM44.9922 35.0547V32.3203H47.7266V35.0547H44.9922ZM44.9922 31.1484V28.4141H47.7266V31.1484H44.9922ZM36.3594 23.5312H44.6406V21.9688H36.3594V23.5312Z" fill="#005BAC"/>
</svg>
