<svg width="80" height="80" viewBox="0 0 80 80" fill="none" xmlns="http://www.w3.org/2000/svg">
<rect width="80" height="80" rx="40" fill="#E6F8FF"/>
<path d="M33.8594 48.1602C31.9062 48.1602 30.0703 47.7956 28.3516 47.0664C26.6458 46.3242 25.1419 45.3086 23.8398 44.0195C22.5378 42.7174 21.5221 41.2135 20.793 39.5078C20.0638 37.7891 19.6992 35.9466 19.6992 33.9805C19.6992 32.0273 20.0638 30.1979 20.793 28.4922C21.5352 26.7734 22.5508 25.2695 23.8398 23.9805C25.1419 22.6784 26.6458 21.6628 28.3516 20.9336C30.0703 20.1914 31.9062 19.8203 33.8594 19.8203C35.8125 19.8203 37.6484 20.1849 39.3672 20.9141C41.0859 21.6432 42.5898 22.6589 43.8789 23.9609C45.181 25.263 46.1966 26.7734 46.9258 28.4922C47.668 30.1979 48.0391 32.0273 48.0391 33.9805C48.0391 35.9336 47.668 37.7695 46.9258 39.4883C46.1966 41.207 45.181 42.7174 43.8789 44.0195C42.5898 45.3086 41.0859 46.3242 39.3672 47.0664C37.6484 47.7956 35.8125 48.1602 33.8594 48.1602ZM25.7148 39.1367C25.2331 38.3685 24.862 37.5482 24.6016 36.6758C24.3542 35.7904 24.2305 34.8919 24.2305 33.9805C24.2305 32.5482 24.5365 31.2005 25.1484 29.9375C25.7734 28.6615 26.6068 27.5547 27.6484 26.6172C27.8307 26.4479 28.0391 26.3633 28.2734 26.3633C28.5339 26.3633 28.7617 26.4674 28.957 26.6758C29.1523 26.8841 29.25 27.1185 29.25 27.3789C29.25 27.6784 29.1198 27.9388 28.8594 28.1602C28.013 28.8763 27.3555 29.7422 26.8867 30.7578C26.418 31.7734 26.1836 32.8477 26.1836 33.9805C26.1836 34.7227 26.2747 35.4388 26.457 36.1289C26.6393 36.819 26.9323 37.4505 27.3359 38.0234C27.4661 38.2057 27.5312 38.4076 27.5312 38.6289C27.5312 38.9154 27.4141 39.1497 27.1797 39.332C26.9453 39.5143 26.7109 39.6055 26.4766 39.6055C26.1641 39.6055 25.9102 39.4492 25.7148 39.1367ZM33.8594 45.8164C35.5 45.8164 37.0299 45.5104 38.4492 44.8984C39.8815 44.2865 41.138 43.4401 42.2188 42.3594C43.3125 41.2656 44.1654 40.0091 44.7773 38.5898C45.3893 37.1576 45.6953 35.6211 45.6953 33.9805C45.6953 32.3529 45.3893 30.8229 44.7773 29.3906C44.1654 27.9583 43.3125 26.7018 42.2188 25.6211C41.138 24.5404 39.8815 23.694 38.4492 23.082C37.0299 22.4701 35.5 22.1641 33.8594 22.1641C32.2318 22.1641 30.7018 22.4701 29.2695 23.082C27.8372 23.694 26.5807 24.5404 25.5 25.6211C24.4193 26.7018 23.5729 27.9583 22.9609 29.3906C22.349 30.8229 22.043 32.3529 22.043 33.9805C22.043 35.6211 22.349 37.1576 22.9609 38.5898C23.5729 40.0091 24.4193 41.2656 25.5 42.3594C26.5807 43.4401 27.8307 44.2865 29.25 44.8984C30.6823 45.5104 32.2188 45.8164 33.8594 45.8164ZM44.9141 47.3203L41.8672 44.3711L44.7578 41.4023L47.8047 44.3906L44.9141 47.3203ZM56.8672 60.8359C55.8646 60.8359 54.9531 60.4258 54.1328 59.6055L45.0508 50.5039C44.2565 49.7096 43.8594 48.7982 43.8594 47.7695C43.8594 47.0404 44.0742 46.3438 44.5039 45.6797C44.9336 45.0026 45.487 44.4492 46.1641 44.0195C46.8542 43.5898 47.5638 43.375 48.293 43.375C49.2956 43.375 50.194 43.7721 50.9883 44.5664L60.1094 53.6875C60.9036 54.4818 61.3008 55.3867 61.3008 56.4023C61.3008 57.1315 61.0794 57.8346 60.6367 58.5117C60.207 59.1888 59.6536 59.7422 58.9766 60.1719C58.2995 60.6146 57.5964 60.8359 56.8672 60.8359ZM56.8672 58.4922C57.1667 58.4922 57.4792 58.3815 57.8047 58.1602C58.1302 57.9388 58.4036 57.6654 58.625 57.3398C58.8464 57.0143 58.957 56.7018 58.957 56.4023C58.957 56.0378 58.7812 55.6797 58.4297 55.3281L49.3477 46.207C49.0221 45.8815 48.6706 45.7188 48.293 45.7188C47.9935 45.7188 47.681 45.8294 47.3555 46.0508C47.0299 46.2721 46.7565 46.5391 46.5352 46.8516C46.3138 47.1641 46.2031 47.4701 46.2031 47.7695C46.2031 48.1471 46.3789 48.5117 46.7305 48.8633L55.7734 57.9648C56.125 58.3164 56.4896 58.4922 56.8672 58.4922ZM30.7148 26.5C30.4284 26.5 30.2005 26.4023 30.0312 26.207C29.862 25.9987 29.7773 25.7773 29.7773 25.543C29.7773 25.1914 29.9531 24.9049 30.3047 24.6836C30.4609 24.5794 30.6237 24.4818 30.793 24.3906C30.9753 24.2865 31.1706 24.2083 31.3789 24.1562C31.5612 24.1042 31.6979 24.0781 31.7891 24.0781C32.0495 24.0781 32.2773 24.1628 32.4727 24.332C32.668 24.5013 32.7656 24.7422 32.7656 25.0547C32.7656 25.4714 32.5312 25.7773 32.0625 25.9727C31.9453 26.0247 31.8216 26.0833 31.6914 26.1484C31.5742 26.2005 31.4635 26.2591 31.3594 26.3242C31.138 26.4414 30.9232 26.5 30.7148 26.5Z" fill="#005BAC"/>
</svg>
