<svg width="50" height="57" viewBox="0 0 50 57" fill="none" xmlns="http://www.w3.org/2000/svg">
<rect width="49.125" height="56.8125" rx="24.5625" fill="#DDF3FE"/>
<path d="M24.5625 44.8125C22.1875 44.8125 19.9896 44.401 17.9688 43.5781C15.9583 42.7656 14.2083 41.6198 12.7188 40.1406C11.2292 38.6615 10.0677 36.9271 9.23438 34.9375C8.41146 32.9375 8 30.7604 8 28.4062C8 26.0521 8.41146 23.8802 9.23438 21.8906C10.0677 19.8906 11.2292 18.151 12.7188 16.6719C14.2083 15.1927 15.9583 14.0469 17.9688 13.2344C19.9896 12.4115 22.1875 12 24.5625 12C26.9375 12 29.1302 12.4115 31.1406 13.2344C33.1615 14.0469 34.9167 15.1927 36.4062 16.6719C37.8958 18.151 39.0521 19.8906 39.875 21.8906C40.7083 23.8802 41.125 26.0521 41.125 28.4062C41.125 30.7604 40.7083 32.9375 39.875 34.9375C39.0521 36.9271 37.8958 38.6615 36.4062 40.1406C34.9167 41.6198 33.1615 42.7656 31.1406 43.5781C29.1302 44.401 26.9375 44.8125 24.5625 44.8125ZM14.1875 31.9375C13.8958 31.8021 13.8229 31.5885 13.9688 31.2969L14.7656 29.6562C14.9115 29.375 15.1198 29.2969 15.3906 29.4219C15.6823 29.5573 15.7552 29.7708 15.6094 30.0625L14.8125 31.7031C14.6667 31.9844 14.4583 32.0625 14.1875 31.9375ZM15.9062 32.375C15.6354 32.25 15.5625 32.0417 15.6875 31.75L16.8906 29.2188C17.0156 28.9271 17.224 28.849 17.5156 28.9844C17.7865 29.1094 17.8594 29.3177 17.7344 29.6094L16.5312 32.1406C16.4062 32.4323 16.1979 32.5104 15.9062 32.375ZM18.0312 31.9375C17.7396 31.8021 17.6667 31.5885 17.8125 31.2969L18.6094 29.6562C18.7552 29.375 18.9635 29.2969 19.2344 29.4219C19.526 29.5573 19.599 29.7708 19.4531 30.0625L18.6562 31.7031C18.5104 31.9844 18.3021 32.0625 18.0312 31.9375ZM24.5625 37.6719C22.5833 37.6719 20.5677 36.8125 18.5156 35.0938L19.6094 33.7812C21.3594 35.2292 23.0104 35.9531 24.5625 35.9531C26.1146 35.9531 27.7656 35.2292 29.5156 33.7812L30.6094 35.0938C28.5573 36.8125 26.5417 37.6719 24.5625 37.6719ZM16.1094 27.9688L14.8281 26.8281C15.9323 25.5469 17.2396 24.9062 18.75 24.9062C20.2604 24.9062 21.5677 25.5469 22.6719 26.8281L21.3906 27.9688C20.599 27.0729 19.7188 26.625 18.75 26.625C17.7812 26.625 16.901 27.0729 16.1094 27.9688ZM24.5625 43.0938C26.6771 43.0938 28.625 42.724 30.4062 41.9844C32.1979 41.2552 33.75 40.2344 35.0625 38.9219C36.3854 37.599 37.4115 36.0417 38.1406 34.25C38.8802 32.4583 39.25 30.5104 39.25 28.4062C39.25 26.2917 38.8802 24.3438 38.1406 22.5625C37.4115 20.7708 36.3854 19.2188 35.0625 17.9062C33.75 16.5833 32.1979 15.5573 30.4062 14.8281C28.625 14.0885 26.6771 13.7188 24.5625 13.7188C22.4583 13.7188 20.5104 14.0885 18.7188 14.8281C16.9375 15.5573 15.3854 16.5833 14.0625 17.9062C12.7396 19.2188 11.7083 20.7708 10.9688 22.5625C10.2396 24.3438 9.875 26.2917 9.875 28.4062C9.875 30.5104 10.2396 32.4583 10.9688 34.25C11.7083 36.0417 12.7344 37.599 14.0469 38.9219C15.3698 40.2344 16.9271 41.2552 18.7188 41.9844C20.5104 42.724 22.4583 43.0938 24.5625 43.0938ZM15.375 22.2188L14.3438 21.0469C15.0625 20.401 15.9062 19.9323 16.875 19.6406C17.8542 19.349 19.0365 19.2031 20.4219 19.2031V20.7656C19.2135 20.7656 18.2135 20.8802 17.4219 21.1094C16.6406 21.3385 15.9583 21.7083 15.375 22.2188ZM29.8906 31.9375C29.599 31.8021 29.526 31.5885 29.6719 31.2969L30.4688 29.6562C30.6146 29.375 30.8229 29.2969 31.0938 29.4219C31.3854 29.5573 31.4583 29.7708 31.3125 30.0625L30.5156 31.7031C30.3698 31.9844 30.1615 32.0625 29.8906 31.9375ZM31.6094 32.375C31.3385 32.25 31.2656 32.0417 31.3906 31.75L32.5938 29.2188C32.7188 28.9271 32.9271 28.849 33.2188 28.9844C33.4896 29.1094 33.5625 29.3177 33.4375 29.6094L32.2344 32.1406C32.1094 32.4323 31.901 32.5104 31.6094 32.375ZM33.7344 31.9375C33.4427 31.8021 33.3698 31.5885 33.5156 31.2969L34.3125 29.6562C34.4583 29.375 34.6667 29.2969 34.9375 29.4219C35.2292 29.5573 35.3021 29.7708 35.1562 30.0625L34.3594 31.7031C34.2135 31.9844 34.0052 32.0625 33.7344 31.9375ZM27.7344 27.9688L26.4531 26.8281C27.5573 25.5469 28.8646 24.9062 30.375 24.9062C31.8854 24.9062 33.1927 25.5469 34.2969 26.8281L33.0156 27.9688C32.224 27.0729 31.3438 26.625 30.375 26.625C29.4062 26.625 28.526 27.0729 27.7344 27.9688ZM33.75 22.2188C33.1771 21.7083 32.4948 21.3385 31.7031 21.1094C30.9115 20.8802 29.9115 20.7656 28.7031 20.7656V19.2031C30.0885 19.2031 31.2656 19.349 32.2344 19.6406C33.2135 19.9323 34.0625 20.401 34.7812 21.0469L33.75 22.2188Z" fill="#222222"/>
</svg>
