<svg width="50" height="57" viewBox="0 0 50 57" fill="none" xmlns="http://www.w3.org/2000/svg">
<rect width="49.125" height="56.8125" rx="24.5625" fill="#DDF3FE"/>
<path d="M24.5625 44.8125C22.1875 44.8125 19.9896 44.401 17.9688 43.5781C15.9583 42.7656 14.2083 41.6198 12.7188 40.1406C11.2292 38.6615 10.0677 36.9271 9.23438 34.9375C8.41146 32.9375 8 30.7604 8 28.4062C8 26.0521 8.41146 23.8802 9.23438 21.8906C10.0677 19.8906 11.2292 18.151 12.7188 16.6719C14.2083 15.1927 15.9583 14.0469 17.9688 13.2344C19.9896 12.4115 22.1875 12 24.5625 12C26.9375 12 29.1302 12.4115 31.1406 13.2344C33.1615 14.0469 34.9167 15.1927 36.4062 16.6719C37.8958 18.151 39.0521 19.8906 39.875 21.8906C40.7083 23.8802 41.125 26.0521 41.125 28.4062C41.125 30.7604 40.7083 32.9375 39.875 34.9375C39.0521 36.9271 37.8958 38.6615 36.4062 40.1406C34.9167 41.6198 33.1615 42.7656 31.1406 43.5781C29.1302 44.401 26.9375 44.8125 24.5625 44.8125ZM20.1875 37.1406C19.6458 37.1406 19.1458 37.0312 18.6875 36.8125C18.2396 36.5833 17.8177 36.3594 17.4219 36.1406C17.0365 35.9115 16.6719 35.7969 16.3281 35.7969C16.151 35.7969 15.9844 35.8385 15.8281 35.9219C15.6719 35.9948 15.4948 36.1198 15.2969 36.2969L14.2188 35.1719C14.5521 34.8594 14.8906 34.625 15.2344 34.4688C15.5885 34.3125 15.9531 34.2344 16.3281 34.2344C16.8281 34.2344 17.3125 34.349 17.7812 34.5781C18.25 34.7969 18.6875 35.0208 19.0938 35.25C19.5 35.4688 19.8646 35.5781 20.1875 35.5781C20.5938 35.5781 21.026 35.4219 21.4844 35.1094C21.9427 34.7969 22.4271 34.4844 22.9375 34.1719C23.4479 33.8594 23.9896 33.7031 24.5625 33.7031C25.1354 33.7031 25.6771 33.8594 26.1875 34.1719C26.6979 34.4844 27.1823 34.7969 27.6406 35.1094C28.099 35.4219 28.5312 35.5781 28.9375 35.5781C29.2604 35.5781 29.625 35.4688 30.0312 35.25C30.4375 35.0208 30.875 34.7969 31.3438 34.5781C31.8125 34.349 32.2969 34.2344 32.7969 34.2344C33.1719 34.2344 33.5365 34.3125 33.8906 34.4688C34.2448 34.625 34.5833 34.8594 34.9062 35.1719L33.8281 36.2969C33.6302 36.1198 33.4531 35.9948 33.2969 35.9219C33.1406 35.8385 32.974 35.7969 32.7969 35.7969C32.4531 35.7969 32.0833 35.9115 31.6875 36.1406C31.3021 36.3594 30.8802 36.5833 30.4219 36.8125C29.974 37.0312 29.4792 37.1406 28.9375 37.1406C28.3021 37.1406 27.724 36.9844 27.2031 36.6719C26.6823 36.3594 26.2031 36.0469 25.7656 35.7344C25.3385 35.4219 24.9375 35.2656 24.5625 35.2656C24.1979 35.2656 23.7969 35.4219 23.3594 35.7344C22.9219 36.0469 22.4427 36.3594 21.9219 36.6719C21.401 36.9844 20.8229 37.1406 20.1875 37.1406ZM18.1562 30.0938C16.9896 30.0938 16.0312 29.7604 15.2812 29.0938C14.5312 28.4271 14.1562 27.5781 14.1562 26.5469C14.1562 25.6198 14.4583 24.8177 15.0625 24.1406C15.6771 23.4635 16.4635 23.125 17.4219 23.125C18.1302 23.125 18.7083 23.3385 19.1562 23.7656C19.6146 24.1823 19.8438 24.7135 19.8438 25.3594C19.8438 25.9635 19.6458 26.4531 19.25 26.8281C18.8646 27.1927 18.375 27.375 17.7812 27.375C17.6146 27.375 17.4531 27.3542 17.2969 27.3125C17.1406 27.2708 16.9167 27.1927 16.625 27.0781L16.9688 26.0312C17.3125 26.1458 17.5729 26.2031 17.75 26.2031C17.9896 26.2031 18.1875 26.125 18.3438 25.9688C18.5104 25.8021 18.5938 25.599 18.5938 25.3594C18.5938 25.0885 18.4844 24.8698 18.2656 24.7031C18.0573 24.5365 17.776 24.4531 17.4219 24.4531C16.8906 24.4531 16.4479 24.6719 16.0938 25.1094C15.7396 25.5365 15.5625 26.0156 15.5625 26.5469C15.5625 27.151 15.8021 27.6458 16.2812 28.0312C16.7604 28.4167 17.3854 28.6094 18.1562 28.6094C19.1458 28.6094 19.8854 28.2917 20.375 27.6562C20.875 27.0104 21.125 26.2917 21.125 25.5C21.125 24.2917 20.7396 23.3854 19.9688 22.7812C19.2083 22.1771 18.349 21.875 17.3906 21.875C16.4844 21.875 15.6146 22.1406 14.7812 22.6719C13.9479 23.2031 13.3854 24.0052 13.0938 25.0781L12.5938 24.9531C12.5938 24.099 12.8073 23.3177 13.2344 22.6094C13.6615 21.8906 14.2396 21.3177 14.9688 20.8906C15.7083 20.4531 16.5469 20.2344 17.4844 20.2344C18.4323 20.2344 19.2969 20.4583 20.0781 20.9062C20.8594 21.3542 21.4844 21.9688 21.9531 22.75C22.4219 23.5312 22.6562 24.4167 22.6562 25.4062C22.6562 26.7917 22.2396 27.9219 21.4062 28.7969C20.5729 29.6615 19.4896 30.0938 18.1562 30.0938ZM24.5625 43.0938C26.6771 43.0938 28.625 42.724 30.4062 41.9844C32.1979 41.2552 33.75 40.2344 35.0625 38.9219C36.3854 37.599 37.4115 36.0417 38.1406 34.25C38.8802 32.4583 39.25 30.5104 39.25 28.4062C39.25 26.2917 38.8802 24.3438 38.1406 22.5625C37.4115 20.7708 36.3854 19.2188 35.0625 17.9062C33.75 16.5833 32.1979 15.5573 30.4062 14.8281C28.625 14.0885 26.6771 13.7188 24.5625 13.7188C22.4583 13.7188 20.5104 14.0885 18.7188 14.8281C16.9375 15.5573 15.3854 16.5833 14.0625 17.9062C12.7396 19.2188 11.7083 20.7708 10.9688 22.5625C10.2396 24.3438 9.875 26.2917 9.875 28.4062C9.875 30.5104 10.2396 32.4583 10.9688 34.25C11.7083 36.0417 12.7344 37.599 14.0469 38.9219C15.3698 40.2344 16.9271 41.2552 18.7188 41.9844C20.5104 42.724 22.4583 43.0938 24.5625 43.0938ZM31.3594 30.0938C30.4219 30.0938 29.5573 29.8698 28.7656 29.4219C27.9844 28.974 27.3594 28.3594 26.8906 27.5781C26.4219 26.7969 26.1875 25.9115 26.1875 24.9219C26.1875 23.5365 26.6042 22.4115 27.4375 21.5469C28.2812 20.6719 29.3646 20.2344 30.6875 20.2344C31.8542 20.2344 32.8125 20.5677 33.5625 21.2344C34.3125 21.901 34.6875 22.75 34.6875 23.7812C34.6875 24.6979 34.3802 25.5 33.7656 26.1875C33.1615 26.8646 32.3802 27.2031 31.4219 27.2031C30.724 27.2031 30.1458 26.9948 29.6875 26.5781C29.2292 26.151 29 25.6146 29 24.9688C29 24.3646 29.1927 23.8802 29.5781 23.5156C29.974 23.1406 30.4688 22.9531 31.0625 22.9531C31.2292 22.9531 31.3906 22.974 31.5469 23.0156C31.7031 23.0573 31.9271 23.1354 32.2188 23.25L31.875 24.2969C31.5312 24.1823 31.2708 24.125 31.0938 24.125C30.8542 24.125 30.651 24.2083 30.4844 24.375C30.3281 24.5312 30.25 24.7292 30.25 24.9688C30.25 25.2396 30.3542 25.4583 30.5625 25.625C30.7812 25.7917 31.0677 25.875 31.4219 25.875C31.9531 25.875 32.3958 25.6615 32.75 25.2344C33.1042 24.7969 33.2812 24.3125 33.2812 23.7812C33.2812 23.1771 33.0417 22.6823 32.5625 22.2969C32.0833 21.9115 31.4583 21.7188 30.6875 21.7188C29.6979 21.7188 28.9531 22.0365 28.4531 22.6719C27.9635 23.3073 27.7188 24.026 27.7188 24.8281C27.7188 26.0365 28.099 26.9427 28.8594 27.5469C29.6302 28.151 30.4948 28.4531 31.4531 28.4531C32.3594 28.4531 33.2292 28.1875 34.0625 27.6562C34.8958 27.125 35.4583 26.3229 35.75 25.25L36.25 25.375C36.25 26.2188 36.0365 27 35.6094 27.7188C35.1927 28.4375 34.6146 29.0156 33.875 29.4531C33.1354 29.8802 32.2969 30.0938 31.3594 30.0938Z" fill="#444444"/>
</svg>
