<svg width="50" height="57" viewBox="0 0 50 57" fill="none" xmlns="http://www.w3.org/2000/svg">
<rect width="49.125" height="56.8125" rx="24.5625" fill="#DDF3FE"/>
<path d="M24.5625 44.8125C22.1875 44.8125 19.9896 44.401 17.9688 43.5781C15.9583 42.7656 14.2083 41.6198 12.7188 40.1406C11.2292 38.6615 10.0677 36.9271 9.23438 34.9375C8.41146 32.9375 8 30.7604 8 28.4062C8 26.0521 8.41146 23.8802 9.23438 21.8906C10.0677 19.8906 11.2292 18.151 12.7188 16.6719C14.2083 15.1927 15.9583 14.0469 17.9688 13.2344C19.9896 12.4115 22.1875 12 24.5625 12C26.9375 12 29.1302 12.4115 31.1406 13.2344C33.1615 14.0469 34.9167 15.1927 36.4062 16.6719C37.8958 18.151 39.0521 19.8906 39.875 21.8906C40.7083 23.8802 41.125 26.0521 41.125 28.4062C41.125 30.7604 40.7083 32.9375 39.875 34.9375C39.0521 36.9271 37.8958 38.6615 36.4062 40.1406C34.9167 41.6198 33.1615 42.7656 31.1406 43.5781C29.1302 44.401 26.9375 44.8125 24.5625 44.8125ZM24.5625 36.8906C23.3021 36.8906 22.0729 36.6719 20.875 36.2344C19.6875 35.7865 18.5052 35.1719 17.3281 34.3906L18.2969 32.9688C19.3385 33.6667 20.3646 34.2083 21.375 34.5938C22.3958 34.9792 23.4583 35.1719 24.5625 35.1719C25.6667 35.1719 26.724 34.9792 27.7344 34.5938C28.7552 34.2083 29.7865 33.6667 30.8281 32.9688L31.7969 34.3906C30.6302 35.1719 29.4479 35.7865 28.25 36.2344C27.0521 36.6719 25.8229 36.8906 24.5625 36.8906ZM19.0625 29.1094C18.4792 29.1094 17.974 28.8542 17.5469 28.3438C17.1198 27.8333 16.9062 27.2292 16.9062 26.5312C16.9062 25.8229 17.1198 25.2188 17.5469 24.7188C17.974 24.2083 18.4792 23.9531 19.0625 23.9531C19.6458 23.9531 20.151 24.2083 20.5781 24.7188C21.0052 25.2188 21.2188 25.8229 21.2188 26.5312C21.2188 27.2292 21.0052 27.8333 20.5781 28.3438C20.151 28.8542 19.6458 29.1094 19.0625 29.1094ZM24.5625 43.0938C26.6771 43.0938 28.625 42.724 30.4062 41.9844C32.1979 41.2552 33.75 40.2344 35.0625 38.9219C36.3854 37.599 37.4115 36.0417 38.1406 34.25C38.8802 32.4583 39.25 30.5104 39.25 28.4062C39.25 26.2917 38.8802 24.3438 38.1406 22.5625C37.4115 20.7708 36.3854 19.2188 35.0625 17.9062C33.75 16.5833 32.1979 15.5573 30.4062 14.8281C28.625 14.0885 26.6771 13.7188 24.5625 13.7188C22.4583 13.7188 20.5104 14.0885 18.7188 14.8281C16.9375 15.5573 15.3854 16.5833 14.0625 17.9062C12.7396 19.2188 11.7083 20.7708 10.9688 22.5625C10.2396 24.3438 9.875 26.2917 9.875 28.4062C9.875 30.5104 10.2396 32.4583 10.9688 34.25C11.7083 36.0417 12.7344 37.599 14.0469 38.9219C15.3698 40.2344 16.9271 41.2552 18.7188 41.9844C20.5104 42.724 22.4583 43.0938 24.5625 43.0938ZM15.5625 22.9844L14.1875 22.2344C14.6771 21.3594 15.3177 20.625 16.1094 20.0312C16.9115 19.4271 17.9635 18.8906 19.2656 18.4219L19.7969 19.8906C18.6615 20.2969 17.7708 20.7396 17.125 21.2188C16.4792 21.6875 15.9583 22.276 15.5625 22.9844ZM33.25 29.4219C32.5833 29.1198 31.901 28.8854 31.2031 28.7188C30.5156 28.5417 29.8125 28.4531 29.0938 28.4531C28.9375 28.4531 28.7708 28.4635 28.5938 28.4844C28.4271 28.4948 28.2292 28.5156 28 28.5469L27.2344 26.875C28.1823 26.0312 29.1354 25.3021 30.0938 24.6875C31.0625 24.0729 32.0208 23.5677 32.9688 23.1719L33.5938 24.7812C33.1042 24.9792 32.5677 25.2396 31.9844 25.5625C31.4115 25.875 30.7552 26.2917 30.0156 26.8125C30.0573 26.8125 30.0938 26.8125 30.125 26.8125C30.1562 26.8125 30.1927 26.8125 30.2344 26.8125C30.651 26.8125 31.2135 26.9167 31.9219 27.125C32.6302 27.3229 33.3229 27.5729 34 27.875L33.25 29.4219Z" fill="#222222"/>
</svg>
