<svg width="50" height="57" viewBox="0 0 50 57" fill="none" xmlns="http://www.w3.org/2000/svg">
<rect width="49.125" height="56.8125" rx="24.5625" fill="#DDF3FE"/>
<path d="M24.5625 44.8125C22.1875 44.8125 19.9896 44.401 17.9688 43.5781C15.9583 42.7656 14.2083 41.6198 12.7188 40.1406C11.2292 38.6615 10.0677 36.9271 9.23438 34.9375C8.41146 32.9375 8 30.7604 8 28.4062C8 26.0521 8.41146 23.8802 9.23438 21.8906C10.0677 19.8906 11.2292 18.151 12.7188 16.6719C14.2083 15.1927 15.9583 14.0469 17.9688 13.2344C19.9896 12.4115 22.1875 12 24.5625 12C26.9375 12 29.1302 12.4115 31.1406 13.2344C33.1615 14.0469 34.9167 15.1927 36.4062 16.6719C37.8958 18.151 39.0521 19.8906 39.875 21.8906C40.7083 23.8802 41.125 26.0521 41.125 28.4062C41.125 30.7604 40.7083 32.9375 39.875 34.9375C39.0521 36.9271 37.8958 38.6615 36.4062 40.1406C34.9167 41.6198 33.1615 42.7656 31.1406 43.5781C29.1302 44.401 26.9375 44.8125 24.5625 44.8125ZM24.5625 41.4844C23.9375 41.4844 23.3646 41.3281 22.8438 41.0156C22.3229 40.7031 21.9062 40.2865 21.5938 39.7656C21.2812 39.2448 21.125 38.6719 21.125 38.0469V34.3125C21.125 33.6875 21.2812 33.1146 21.5938 32.5938C21.9062 32.0729 22.3229 31.6562 22.8438 31.3438C23.3646 31.0312 23.9375 30.875 24.5625 30.875C25.1875 30.875 25.7604 31.0312 26.2812 31.3438C26.8021 31.6562 27.2188 32.0729 27.5312 32.5938C27.8438 33.1146 28 33.6875 28 34.3125V38.0469C28 38.6719 27.8438 39.2448 27.5312 39.7656C27.2188 40.2865 26.8021 40.7031 26.2812 41.0156C25.7604 41.3281 25.1875 41.4844 24.5625 41.4844ZM22.3594 34.3125H26.7656C26.7656 33.7292 26.5573 33.2188 26.1406 32.7812C25.724 32.3438 25.1979 32.125 24.5625 32.125C23.9271 32.125 23.401 32.3438 22.9844 32.7812C22.5677 33.2188 22.3594 33.7292 22.3594 34.3125ZM19.0625 28.4844C18.4792 28.4844 17.974 28.2135 17.5469 27.6719C17.1198 27.1198 16.9062 26.375 16.9062 25.4375C16.9062 24.5 17.1198 23.7604 17.5469 23.2188C17.974 22.6667 18.4792 22.3906 19.0625 22.3906C19.6458 22.3906 20.151 22.6667 20.5781 23.2188C21.0052 23.7604 21.2188 24.5 21.2188 25.4375C21.2188 26.375 21.0052 27.1198 20.5781 27.6719C20.151 28.2135 19.6458 28.4844 19.0625 28.4844ZM24.5625 43.0938C26.6771 43.0938 28.625 42.724 30.4062 41.9844C32.1979 41.2552 33.75 40.2344 35.0625 38.9219C36.3854 37.599 37.4115 36.0417 38.1406 34.25C38.8802 32.4583 39.25 30.5104 39.25 28.4062C39.25 26.2917 38.8802 24.3438 38.1406 22.5625C37.4115 20.7708 36.3854 19.2188 35.0625 17.9062C33.75 16.5833 32.1979 15.5573 30.4062 14.8281C28.625 14.0885 26.6771 13.7188 24.5625 13.7188C22.4583 13.7188 20.5104 14.0885 18.7188 14.8281C16.9375 15.5573 15.3854 16.5833 14.0625 17.9062C12.7396 19.2188 11.7083 20.7708 10.9688 22.5625C10.2396 24.3438 9.875 26.2917 9.875 28.4062C9.875 30.5104 10.2396 32.4583 10.9688 34.25C11.7083 36.0417 12.7344 37.599 14.0469 38.9219C15.3698 40.2344 16.9271 41.2552 18.7188 41.9844C20.5104 42.724 22.4583 43.0938 24.5625 43.0938ZM14.9062 20.3594L13.875 19.1875C14.5938 18.5417 15.4375 18.0208 16.4062 17.625C17.3854 17.2188 18.5677 17.0156 19.9531 17.0156V18.5781C18.7448 18.5781 17.7448 18.75 16.9531 19.0938C16.1719 19.4271 15.4896 19.849 14.9062 20.3594ZM30.0625 28.4844C29.4792 28.4844 28.974 28.2135 28.5469 27.6719C28.1198 27.1198 27.9062 26.375 27.9062 25.4375C27.9062 24.5 28.1198 23.7604 28.5469 23.2188C28.974 22.6667 29.4792 22.3906 30.0625 22.3906C30.6458 22.3906 31.151 22.6667 31.5781 23.2188C32.0052 23.7604 32.2188 24.5 32.2188 25.4375C32.2188 26.375 32.0052 27.1198 31.5781 27.6719C31.151 28.2135 30.6458 28.4844 30.0625 28.4844ZM34.2188 20.3594C33.6458 19.849 32.9635 19.4271 32.1719 19.0938C31.3802 18.75 30.3802 18.5781 29.1719 18.5781V17.0156C30.5573 17.0156 31.7344 17.2188 32.7031 17.625C33.6823 18.0208 34.5312 18.5417 35.25 19.1875L34.2188 20.3594Z" fill="#444444"/>
</svg>
