<svg width="50" height="57" viewBox="0 0 50 57" fill="none" xmlns="http://www.w3.org/2000/svg">
<rect width="49.125" height="56.8125" rx="24.5625" fill="#DDF3FE"/>
<path d="M24.5625 44.8125C22.1875 44.8125 19.9896 44.401 17.9688 43.5781C15.9583 42.7656 14.2083 41.6198 12.7188 40.1406C11.2292 38.6615 10.0677 36.9271 9.23438 34.9375C8.41146 32.9375 8 30.7604 8 28.4062C8 26.0521 8.41146 23.8802 9.23438 21.8906C10.0677 19.8906 11.2292 18.151 12.7188 16.6719C14.2083 15.1927 15.9583 14.0469 17.9688 13.2344C19.9896 12.4115 22.1875 12 24.5625 12C26.9375 12 29.1302 12.4115 31.1406 13.2344C33.1615 14.0469 34.9167 15.1927 36.4062 16.6719C37.8958 18.151 39.0521 19.8906 39.875 21.8906C40.7083 23.8802 41.125 26.0521 41.125 28.4062C41.125 30.7604 40.7083 32.9375 39.875 34.9375C39.0521 36.9271 37.8958 38.6615 36.4062 40.1406C34.9167 41.6198 33.1615 42.7656 31.1406 43.5781C29.1302 44.401 26.9375 44.8125 24.5625 44.8125ZM19.6719 39.1562V37.4375H25.25C26.7083 37.4375 27.7708 37.1875 28.4375 36.6875C29.1146 36.1771 29.6146 35.2448 29.9375 33.8906L31.5938 34.2969C31.1771 36.0365 30.4792 37.2812 29.5 38.0312C28.5312 38.7812 27.1146 39.1562 25.25 39.1562H19.6719ZM19.1875 30.2656C18.6146 30.2656 18.1302 30.0677 17.7344 29.6719C17.3385 29.276 17.1406 28.7917 17.1406 28.2188C17.1406 28.1354 17.151 28.0312 17.1719 27.9062C16.8281 27.9583 16.4896 28.0312 16.1562 28.125C15.8229 28.2188 15.474 28.3333 15.1094 28.4688L14.5781 27C15.2135 26.6667 15.849 26.4219 16.4844 26.2656C17.1198 26.099 17.7135 26.0156 18.2656 26.0156C19.1198 26.0156 19.8333 26.2031 20.4062 26.5781C20.9896 26.9427 21.2812 27.4896 21.2812 28.2188C21.2812 28.7917 21.0729 29.276 20.6562 29.6719C20.2396 30.0677 19.75 30.2656 19.1875 30.2656ZM13.4219 24.9844L12.2344 23.9844C12.8594 23.2448 13.6354 22.6615 14.5625 22.2344C15.4896 21.8073 16.6354 21.4948 18 21.2969L18.2188 22.8438C17.0208 23.0104 16.0469 23.2656 15.2969 23.6094C14.5469 23.9427 13.9219 24.401 13.4219 24.9844ZM24.5625 43.0938C26.6771 43.0938 28.625 42.724 30.4062 41.9844C32.1979 41.2552 33.75 40.2344 35.0625 38.9219C36.3854 37.599 37.4115 36.0417 38.1406 34.25C38.8802 32.4583 39.25 30.5104 39.25 28.4062C39.25 26.2917 38.8802 24.3438 38.1406 22.5625C37.4115 20.7708 36.3854 19.2188 35.0625 17.9062C33.75 16.5833 32.1979 15.5573 30.4062 14.8281C28.625 14.0885 26.6771 13.7188 24.5625 13.7188C22.4583 13.7188 20.5104 14.0885 18.7188 14.8281C16.9375 15.5573 15.3854 16.5833 14.0625 17.9062C12.7396 19.2188 11.7083 20.7708 10.9688 22.5625C10.2396 24.3438 9.875 26.2917 9.875 28.4062C9.875 30.5104 10.2396 32.4583 10.9688 34.25C11.7083 36.0417 12.7344 37.599 14.0469 38.9219C15.3698 40.2344 16.9271 41.2552 18.7188 41.9844C20.5104 42.724 22.4583 43.0938 24.5625 43.0938ZM32.5156 30.2656C31.9427 30.2656 31.4583 30.0677 31.0625 29.6719C30.6667 29.276 30.4688 28.7917 30.4688 28.2188C30.4688 28.1354 30.4792 28.0312 30.5 27.9062C30.1562 27.9583 29.8177 28.0312 29.4844 28.125C29.151 28.2188 28.8021 28.3333 28.4375 28.4688L27.9062 27C28.5417 26.6667 29.1771 26.4219 29.8125 26.2656C30.4479 26.099 31.0417 26.0156 31.5938 26.0156C32.4479 26.0156 33.1615 26.2031 33.7344 26.5781C34.3177 26.9427 34.6094 27.4896 34.6094 28.2188C34.6094 28.7917 34.401 29.276 33.9844 29.6719C33.5677 30.0677 33.0781 30.2656 32.5156 30.2656ZM35.7031 24.9844C35.2031 24.401 34.5781 23.9427 33.8281 23.6094C33.0885 23.2656 32.1146 23.0104 30.9062 22.8438L31.125 21.2969C32.4896 21.4948 33.6354 21.8073 34.5625 22.2344C35.4896 22.6615 36.2656 23.2448 36.8906 23.9844L35.7031 24.9844Z" fill="#222222"/>
</svg>
