<svg width="54" height="58" viewBox="0 0 54 58" fill="none" xmlns="http://www.w3.org/2000/svg">
<path d="M20.7227 48.7656C19.4284 48.7656 18.3711 48.4284 17.5508 47.7539C16.7487 47.0794 16.3477 46.332 16.3477 45.5117C16.3477 44.5456 16.5573 43.4245 16.9766 42.1484C17.3958 40.8724 17.888 39.6146 18.4531 38.375L15.1445 36.2148C13.5039 35.1393 12.2643 33.7995 11.4258 32.1953C10.6055 30.5729 10.1953 28.4492 10.1953 25.8242C10.1953 24.7305 10.3047 23.7643 10.5234 22.9258C10.7604 22.069 10.8789 21.2122 10.8789 20.3555C10.8789 19.6081 10.5143 18.9701 9.78516 18.4414C9.05599 17.8945 8.15365 17.3568 7.07812 16.8281C6.02083 16.2995 4.95443 15.6888 3.87891 14.9961C2.80339 14.3034 1.90104 13.4375 1.17188 12.3984C0.442708 11.3411 0.078125 10.0104 0.078125 8.40625C0.078125 7.1849 0.351562 6.1276 0.898438 5.23438C1.46354 4.32292 2.30208 3.86719 3.41406 3.86719C4.14323 3.86719 4.76302 4.10417 5.27344 4.57812C5.80208 5.03385 6.17578 5.79948 6.39453 6.875C6.64974 8.15104 7.61589 9.35417 9.29297 10.4844C10.9883 11.5964 13.0482 12.4076 15.4727 12.918C15.0716 12.2617 14.7526 11.5599 14.5156 10.8125C14.2969 10.0651 14.1875 9.28125 14.1875 8.46094C14.1875 6.92969 14.5612 5.53516 15.3086 4.27734C16.056 3.01953 17.0586 2.01693 18.3164 1.26953C19.5924 0.522135 20.9961 0.148438 22.5273 0.148438C24.0586 0.148438 25.4531 0.522135 26.7109 1.26953C27.9688 2.01693 28.9714 3.01953 29.7188 4.27734C30.4661 5.53516 30.8398 6.92969 30.8398 8.46094C30.8398 9.09896 30.7305 9.76432 30.5117 10.457C30.293 11.1315 30.0104 11.7695 29.6641 12.3711C29.3359 12.9727 29.0078 13.474 28.6797 13.875C29.4453 13.5104 30.1107 13.1823 30.6758 12.8906C31.2409 12.5807 31.7604 12.2617 32.2344 11.9336C32.7266 11.6055 33.2096 11.2409 33.6836 10.8398C33.9023 9.60026 34.3034 8.64323 34.8867 7.96875C35.4883 7.27604 36.263 6.92969 37.2109 6.92969C38.2318 6.92969 38.9974 7.28516 39.5078 7.99609C40.0365 8.6888 40.3008 9.48177 40.3008 10.375C40.3008 12.0703 39.3529 13.6289 37.457 15.0508C35.5612 16.4544 33.0911 17.7487 30.0469 18.9336C26.8568 20.1549 25.2617 21.9232 25.2617 24.2383C25.2617 25.1497 25.4805 25.9427 25.918 26.6172C26.3737 27.2917 27.2578 28.0299 28.5703 28.832C29.8646 29.6159 30.694 30.2995 31.0586 30.8828C31.4414 31.4661 31.6328 32.1133 31.6328 32.8242C31.6328 33.2435 31.569 33.7812 31.4414 34.4375C31.3138 35.0755 31.1406 35.7591 30.9219 36.4883C30.7031 37.1992 30.457 37.8919 30.1836 38.5664C30.7487 38.7487 31.2227 39.0586 31.6055 39.4961C31.9883 39.9154 32.1797 40.4167 32.1797 41C32.1797 41.6745 31.8424 42.2122 31.168 42.6133C30.4935 43.0143 29.6276 43.2148 28.5703 43.2148C27.4583 43.2148 26.5104 43.0417 25.7266 42.6953C24.9427 42.3307 24.5508 41.7656 24.5508 41C24.5508 40.5625 24.6966 40.0065 24.9883 39.332C25.2799 38.6393 25.5716 37.9375 25.8633 37.2266C26.1549 36.5156 26.3008 35.9141 26.3008 35.4219C26.3008 34.5104 26.0638 33.8359 25.5898 33.3984C25.1159 32.9427 24.487 32.7148 23.7031 32.7148C22.8099 32.7148 22.3633 33.0339 22.3633 33.6719C22.3633 34.0911 22.5091 34.638 22.8008 35.3125C23.1107 35.9688 23.3841 36.6432 23.6211 37.3359C23.8581 38.0286 23.8854 38.6484 23.7031 39.1953L22.0078 44.3359C22.5365 44.737 22.9284 45.1198 23.1836 45.4844C23.4388 45.849 23.5664 46.2682 23.5664 46.7422C23.5664 47.2526 23.3294 47.7174 22.8555 48.1367C22.3997 48.556 21.6888 48.7656 20.7227 48.7656ZM10.7148 57.5703C7.67057 57.5703 5.26432 57.0508 3.49609 56.0117C1.74609 54.9909 0.871094 53.569 0.871094 51.7461C0.871094 50.4336 1.38151 49.0664 2.40234 47.6445C3.42318 46.2227 4.81771 44.8281 6.58594 43.4609C8.3724 42.0755 10.4141 40.7721 12.7109 39.5508C15.0078 38.3294 17.4414 37.2448 20.0117 36.2969C22.6003 35.349 25.207 34.6107 27.832 34.082C30.457 33.5352 32.9727 33.2617 35.3789 33.2617C38.4049 33.2617 40.793 33.7721 42.543 34.793C44.3112 35.8138 45.1953 37.2357 45.1953 39.0586C45.1953 40.3893 44.6849 41.7656 43.6641 43.1875C42.6615 44.6094 41.2669 46.013 39.4805 47.3984C37.7122 48.7839 35.6797 50.0872 33.3828 51.3086C31.0859 52.5299 28.6523 53.6055 26.082 54.5352C23.5117 55.4831 20.9141 56.2214 18.2891 56.75C15.6641 57.2969 13.1393 57.5703 10.7148 57.5703ZM10.7148 54.5625C12.7383 54.5625 14.9076 54.3255 17.2227 53.8516C19.5378 53.3776 21.862 52.7214 24.1953 51.8828C26.5286 51.0625 28.7526 50.1237 30.8672 49.0664C33 48.0273 34.8958 46.9245 36.5547 45.7578C38.2135 44.5911 39.5169 43.4336 40.4648 42.2852C41.431 41.1367 41.9141 40.0612 41.9141 39.0586C41.9141 38.2018 41.3307 37.5273 40.1641 37.0352C38.9974 36.5247 37.4023 36.2695 35.3789 36.2695C33.3372 36.2695 31.1497 36.5156 28.8164 37.0078C26.5013 37.4818 24.168 38.138 21.8164 38.9766C19.4831 39.7969 17.2591 40.7357 15.1445 41.793C13.0299 42.8503 11.1432 43.9622 9.48438 45.1289C7.84375 46.2773 6.54036 47.4167 5.57422 48.5469C4.6263 49.6953 4.15234 50.7617 4.15234 51.7461C4.15234 52.5664 4.70833 53.2409 5.82031 53.7695C6.93229 54.2982 8.5638 54.5625 10.7148 54.5625ZM36.3633 57.0781C35.7435 57.0781 35.306 56.8411 35.0508 56.3672C34.7956 55.9115 34.5859 55.4102 34.4219 54.8633C34.2578 54.3346 34.0117 53.9518 33.6836 53.7148C33.8294 53.6784 33.9753 53.651 34.1211 53.6328C34.2669 53.6328 34.4036 53.6328 34.5312 53.6328C35.2422 53.6328 35.9531 53.7878 36.6641 54.0977C37.375 54.4258 37.7305 54.9362 37.7305 55.6289C37.7305 56.0299 37.6029 56.3672 37.3477 56.6406C37.1107 56.9323 36.7826 57.0781 36.3633 57.0781ZM38.5508 52.1289V49.9414C39.7904 49.9414 40.6836 49.7682 41.2305 49.4219C41.7773 49.0938 42.0508 48.474 42.0508 47.5625C42.0508 47.3255 42.0326 47.0794 41.9961 46.8242C41.9596 46.5508 41.9141 46.2591 41.8594 45.9492L42.0508 45.7578C42.5612 45.9401 43.099 46.0768 43.6641 46.168C44.2474 46.2409 44.7943 46.2773 45.3047 46.2773C45.9974 46.2773 46.5807 46.2044 47.0547 46.0586C47.5286 45.9128 47.7656 45.7122 47.7656 45.457C47.7656 45.2018 47.5833 44.819 47.2188 44.3086C46.8724 43.7799 46.2982 43.151 45.4961 42.4219C46.207 41.7474 46.9727 41.2188 47.793 40.8359C48.6315 40.4349 49.3424 40.0703 49.9258 39.7422C50.5273 39.4141 50.8281 39.0221 50.8281 38.5664C50.8281 38.293 50.6732 38.1016 50.3633 37.9922C50.0716 37.8828 49.7161 37.8281 49.2969 37.8281C49.0052 37.8281 48.6953 37.8464 48.3672 37.8828C48.0391 37.9193 47.7201 37.9648 47.4102 38.0195L47.1641 37.6367C47.7656 36.7253 48.2122 35.8685 48.5039 35.0664C48.8138 34.2643 48.9688 33.6081 48.9688 33.0977C48.9688 32.5143 48.5951 32.2227 47.8477 32.2227C47.4466 32.2227 46.8815 32.3047 46.1523 32.4688C45.4414 32.6328 44.5938 32.8698 43.6094 33.1797L43.3633 32.9336C43.7643 32.4232 44.1107 31.8763 44.4023 31.293C44.694 30.7096 44.8398 30.2721 44.8398 29.9805C44.8398 29.7982 44.7943 29.6615 44.7031 29.5703C44.612 29.4609 44.4935 29.4062 44.3477 29.4062C43.9466 29.4062 43.2995 29.6797 42.4062 30.2266C41.5312 30.7734 40.7656 31.375 40.1094 32.0312H39.8086C39.4805 31.1016 39.0521 30.6367 38.5234 30.6367C38.2865 30.6367 37.9401 30.7643 37.4844 31.0195C37.0286 31.2747 36.5729 31.7214 36.1172 32.3594L33.875 31.5117C34.9323 30.3086 35.7982 29.4974 36.4727 29.0781C37.1471 28.6589 37.8307 28.4492 38.5234 28.4492C39.6719 28.4492 40.5195 29.069 41.0664 30.3086L39.7812 30.2539C40.6927 29.3424 41.5677 28.6406 42.4062 28.1484C43.263 27.638 44.0104 27.3828 44.6484 27.3828C45.2682 27.3828 45.7695 27.5924 46.1523 28.0117C46.5352 28.4128 46.7266 28.9596 46.7266 29.6523C46.7266 29.7799 46.7174 29.9076 46.6992 30.0352C46.6992 30.1628 46.6719 30.2995 46.6172 30.4453L46.5078 30.3086C46.8177 30.1992 47.1003 30.1263 47.3555 30.0898C47.6289 30.0534 47.8841 30.0352 48.1211 30.0352C49.1237 30.0352 49.8802 30.2539 50.3906 30.6914C50.901 31.1289 51.1562 31.776 51.1562 32.6328C51.1562 33.0885 51.0742 33.6445 50.9102 34.3008C50.7461 34.957 50.4818 35.6042 50.1172 36.2422L49.7344 35.8047C50.6458 35.8594 51.4206 36.1328 52.0586 36.625C52.6966 37.099 53.0156 37.7461 53.0156 38.5664C53.0156 39.5326 52.724 40.2617 52.1406 40.7539C51.5755 41.2279 50.9102 41.6471 50.1445 42.0117C49.3789 42.3581 48.7044 42.832 48.1211 43.4336L47.7656 42.0938C48.4583 42.5859 48.9961 43.1237 49.3789 43.707C49.7617 44.2904 49.9531 44.8737 49.9531 45.457C49.9531 46.3685 49.543 47.0977 48.7227 47.6445C47.9023 48.1914 46.8724 48.4648 45.6328 48.4648C45.1406 48.4648 44.6302 48.4284 44.1016 48.3555C43.5729 48.2826 43.0443 48.1823 42.5156 48.0547L43.8555 46.6602C43.8919 46.8789 43.9193 47.0977 43.9375 47.3164C43.974 47.5352 43.9922 47.763 43.9922 48C43.9922 50.7526 42.1784 52.1289 38.5508 52.1289ZM33.9297 27.4648C33.4375 27.0638 33.0365 26.5625 32.7266 25.9609C32.4167 25.3594 32.2617 24.8216 32.2617 24.3477C32.2617 23.8737 32.4167 23.4909 32.7266 23.1992C33.0365 22.9076 33.3919 22.7617 33.793 22.7617C34.194 22.7617 34.5221 22.9076 34.7773 23.1992C35.0326 23.4909 35.1602 23.8281 35.1602 24.2109C35.1602 24.776 34.9505 25.3047 34.5312 25.7969C34.1302 26.2891 33.9297 26.8451 33.9297 27.4648ZM39.4258 27.3555C39.0794 26.444 38.9883 25.5508 39.1523 24.6758C39.2982 23.9102 39.5352 23.3633 39.8633 23.0352C40.2096 22.707 40.5833 22.543 40.9844 22.543C41.4583 22.543 41.8503 22.6888 42.1602 22.9805C42.4701 23.2721 42.625 23.6549 42.625 24.1289C42.625 24.8034 42.4154 25.2865 41.9961 25.5781C41.5768 25.8698 41.112 26.125 40.6016 26.3438C40.0911 26.5625 39.6992 26.8997 39.4258 27.3555Z" fill="#005BAC"/>
</svg>
