<svg width="50" height="57" viewBox="0 0 50 57" fill="none" xmlns="http://www.w3.org/2000/svg">
<rect width="49.125" height="56.8125" rx="24.5625" fill="#DDF3FE"/>
<path d="M24.5625 44.8125C22.1875 44.8125 19.9896 44.401 17.9688 43.5781C15.9583 42.7656 14.2083 41.6198 12.7188 40.1406C11.2292 38.6615 10.0677 36.9271 9.23438 34.9375C8.41146 32.9375 8 30.7604 8 28.4062C8 26.0521 8.41146 23.8802 9.23438 21.8906C10.0677 19.8906 11.2292 18.151 12.7188 16.6719C14.2083 15.1927 15.9583 14.0469 17.9688 13.2344C19.9896 12.4115 22.1875 12 24.5625 12C26.9375 12 29.1302 12.4115 31.1406 13.2344C33.1615 14.0469 34.9167 15.1927 36.4062 16.6719C37.8958 18.151 39.0521 19.8906 39.875 21.8906C40.7083 23.8802 41.125 26.0521 41.125 28.4062C41.125 30.7604 40.7083 32.9375 39.875 34.9375C39.0521 36.9271 37.8958 38.6615 36.4062 40.1406C34.9167 41.6198 33.1615 42.7656 31.1406 43.5781C29.1302 44.401 26.9375 44.8125 24.5625 44.8125ZM14.1875 31.9375C13.8958 31.8021 13.8229 31.5885 13.9688 31.2969L14.7656 29.6562C14.9115 29.375 15.1198 29.2969 15.3906 29.4219C15.6823 29.5573 15.7552 29.7708 15.6094 30.0625L14.8125 31.7031C14.6667 31.9844 14.4583 32.0625 14.1875 31.9375ZM15.9062 32.375C15.6354 32.25 15.5625 32.0417 15.6875 31.75L16.8906 29.2188C17.0156 28.9271 17.224 28.849 17.5156 28.9844C17.7865 29.1094 17.8594 29.3177 17.7344 29.6094L16.5312 32.1406C16.4062 32.4323 16.1979 32.5104 15.9062 32.375ZM18.0312 31.9375C17.7396 31.8021 17.6667 31.5885 17.8125 31.2969L18.6094 29.6562C18.7552 29.375 18.9635 29.2969 19.2344 29.4219C19.526 29.5573 19.599 29.7708 19.4531 30.0625L18.6562 31.7031C18.5104 31.9844 18.3021 32.0625 18.0312 31.9375ZM24.5625 37.3594C22.5521 37.3594 20.4896 36.7604 18.375 35.5625L19.2188 34.0625C21.0938 35.1146 22.875 35.6406 24.5625 35.6406C26.25 35.6406 28.0312 35.1146 29.9062 34.0625L30.75 35.5625C28.6354 36.7604 26.5729 37.3594 24.5625 37.3594ZM17.2656 27.0469L15.5781 26.7031C15.7969 25.651 16.2083 24.8438 16.8125 24.2812C17.4167 23.7083 18.1719 23.4219 19.0781 23.4219C19.9844 23.4219 20.7396 23.7083 21.3438 24.2812C21.9479 24.8438 22.3594 25.651 22.5781 26.7031L20.8906 27.0469C20.6406 25.776 20.0365 25.1406 19.0781 25.1406C18.1198 25.1406 17.5156 25.776 17.2656 27.0469ZM24.5625 43.0938C26.6771 43.0938 28.625 42.724 30.4062 41.9844C32.1979 41.2552 33.75 40.2344 35.0625 38.9219C36.3854 37.599 37.4115 36.0417 38.1406 34.25C38.8802 32.4583 39.25 30.5104 39.25 28.4062C39.25 26.2917 38.8802 24.3438 38.1406 22.5625C37.4115 20.7708 36.3854 19.2188 35.0625 17.9062C33.75 16.5833 32.1979 15.5573 30.4062 14.8281C28.625 14.0885 26.6771 13.7188 24.5625 13.7188C22.4583 13.7188 20.5104 14.0885 18.7188 14.8281C16.9375 15.5573 15.3854 16.5833 14.0625 17.9062C12.7396 19.2188 11.7083 20.7708 10.9688 22.5625C10.2396 24.3438 9.875 26.2917 9.875 28.4062C9.875 30.5104 10.2396 32.4583 10.9688 34.25C11.7083 36.0417 12.7344 37.599 14.0469 38.9219C15.3698 40.2344 16.9271 41.2552 18.7188 41.9844C20.5104 42.724 22.4583 43.0938 24.5625 43.0938ZM29.8906 31.9375C29.599 31.8021 29.526 31.5885 29.6719 31.2969L30.4688 29.6562C30.6146 29.375 30.8229 29.2969 31.0938 29.4219C31.3854 29.5573 31.4583 29.7708 31.3125 30.0625L30.5156 31.7031C30.3698 31.9844 30.1615 32.0625 29.8906 31.9375ZM31.6094 32.375C31.3385 32.25 31.2656 32.0417 31.3906 31.75L32.5938 29.2188C32.7188 28.9271 32.9271 28.849 33.2188 28.9844C33.4896 29.1094 33.5625 29.3177 33.4375 29.6094L32.2344 32.1406C32.1094 32.4323 31.901 32.5104 31.6094 32.375ZM33.7344 31.9375C33.4427 31.8021 33.3698 31.5885 33.5156 31.2969L34.3125 29.6562C34.4583 29.375 34.6667 29.2969 34.9375 29.4219C35.2292 29.5573 35.3021 29.7708 35.1562 30.0625L34.3594 31.7031C34.2135 31.9844 34.0052 32.0625 33.7344 31.9375ZM28.2344 27.0469L26.5469 26.7031C26.7656 25.651 27.1771 24.8438 27.7812 24.2812C28.3854 23.7083 29.1406 23.4219 30.0469 23.4219C30.9531 23.4219 31.7083 23.7083 32.3125 24.2812C32.9167 24.8438 33.3281 25.651 33.5469 26.7031L31.8594 27.0469C31.6094 25.776 31.0052 25.1406 30.0469 25.1406C29.0885 25.1406 28.4844 25.776 28.2344 27.0469Z" fill="#222222"/>
</svg>
