<svg width="65" height="58" viewBox="0 0 65 58" fill="none" xmlns="http://www.w3.org/2000/svg">
<path d="M24.9727 57.5703C24.043 57.5703 23.3411 57.4245 22.8672 57.1328C22.3932 56.8594 22.1562 56.4128 22.1562 55.793C22.1562 54.8633 22.694 53.9701 23.7695 53.1133C24.0247 52.8945 24.207 52.0924 24.3164 50.707C24.4258 49.3398 24.4805 47.1432 24.4805 44.1172C24.4805 42.2578 24.599 40.6081 24.8359 39.168C25.0911 37.7096 25.3646 36.2148 25.6562 34.6836C25.9661 33.1341 26.2031 31.293 26.3672 29.1602C22.5026 25.7331 19.7318 22.5156 18.0547 19.5078C16.3958 16.5 15.5664 13.4831 15.5664 10.457C15.5664 6.97526 16.5599 5.23438 18.5469 5.23438C19.4401 5.23438 20.0872 5.66276 20.4883 6.51953C20.9076 7.3763 21.1172 8.54297 21.1172 10.0195C21.1172 11.8971 21.4089 13.6745 21.9922 15.3516C22.5755 17.0286 23.3776 18.4688 24.3984 19.6719C25.4193 20.875 26.5677 21.7044 27.8438 22.1602L28.5 22.1055C27.6068 21.4674 26.8867 20.6471 26.3398 19.6445C25.793 18.6237 25.5195 17.5208 25.5195 16.3359C25.5195 15.0417 25.8294 13.8659 26.4492 12.8086C27.0872 11.7331 27.9349 10.8854 28.9922 10.2656C30.0677 9.6276 31.2526 9.30859 32.5469 9.30859C33.8411 9.30859 35.0169 9.6276 36.0742 10.2656C37.1497 10.8854 37.9974 11.7331 38.6172 12.8086C39.2552 13.8659 39.5742 15.0417 39.5742 16.3359C39.5742 17.5208 39.3008 18.6237 38.7539 19.6445C38.2253 20.6471 37.5052 21.4674 36.5938 22.1055L37.25 22.1602C38.526 21.7044 39.6654 20.875 40.668 19.6719C41.6888 18.4688 42.4909 17.0286 43.0742 15.3516C43.6758 13.6745 43.9766 11.8971 43.9766 10.0195C43.9766 8.54297 44.1771 7.3763 44.5781 6.51953C44.9974 5.66276 45.6536 5.23438 46.5469 5.23438C48.5339 5.23438 49.5273 6.97526 49.5273 10.457C49.5273 13.4831 48.6888 16.5 47.0117 19.5078C45.3529 22.5156 42.5911 25.7331 38.7266 29.1602C38.9089 31.293 39.1458 33.1341 39.4375 34.6836C39.7292 36.2148 39.9935 37.7096 40.2305 39.168C40.4857 40.6081 40.6133 42.2578 40.6133 44.1172C40.6133 47.1615 40.668 49.3672 40.7773 50.7344C40.8867 52.1016 41.069 52.8945 41.3242 53.1133C42.3997 53.9701 42.9375 54.8633 42.9375 55.793C42.9375 56.4128 42.7005 56.8594 42.2266 57.1328C41.7526 57.4245 41.0508 57.5703 40.1211 57.5703C37.6055 57.5703 36.3477 56.6771 36.3477 54.8906C36.3477 54.1979 36.3841 53.5417 36.457 52.9219C36.5482 52.3021 36.5938 51.6185 36.5938 50.8711C36.5938 50.0508 36.457 49.1576 36.1836 48.1914C35.9284 47.2435 35.5911 46.3503 35.1719 45.5117C34.7708 44.6732 34.3333 43.9896 33.8594 43.4609C33.4036 42.9141 32.9661 42.6406 32.5469 42.6406C32.1458 42.6406 31.7083 42.9141 31.2344 43.4609C30.7604 43.9896 30.3138 44.6732 29.8945 45.5117C29.4935 46.3503 29.1562 47.2435 28.8828 48.1914C28.6276 49.1576 28.5 50.0508 28.5 50.8711C28.5 51.6185 28.5365 52.3021 28.6094 52.9219C28.7005 53.5417 28.7461 54.1979 28.7461 54.8906C28.7461 56.6771 27.4883 57.5703 24.9727 57.5703ZM4.41016 12.6719C3.80859 12.6719 3.31641 12.4714 2.93359 12.0703C2.55078 11.6693 2.35938 11.168 2.35938 10.5664V4.90625C2.35938 4.30469 2.55078 3.8125 2.93359 3.42969C3.33464 3.02865 3.82682 2.82812 4.41016 2.82812C4.99349 2.82812 5.47656 3.02865 5.85938 3.42969C6.26042 3.83073 6.46094 4.33203 6.46094 4.93359V10.5938C6.46094 11.1953 6.26042 11.6966 5.85938 12.0977C5.47656 12.4805 4.99349 12.6719 4.41016 12.6719ZM10.2891 15.3516C9.50521 15.3516 8.84896 15.0872 8.32031 14.5586C7.8099 14.0299 7.55469 13.3646 7.55469 12.5625V2.9375C7.55469 2.13542 7.8099 1.47005 8.32031 0.941406C8.84896 0.41276 9.50521 0.148438 10.2891 0.148438C11.0911 0.148438 11.7474 0.41276 12.2578 0.941406C12.7682 1.47005 13.0234 2.13542 13.0234 2.9375V12.5625C13.0234 13.3646 12.7682 14.0299 12.2578 14.5586C11.7474 15.0872 11.0911 15.3516 10.2891 15.3516ZM0.28125 8.57031V6.92969H64.8125V8.57031H0.28125ZM54.8047 15.3516C54.0208 15.3516 53.3646 15.0872 52.8359 14.5586C52.3255 14.0299 52.0703 13.3646 52.0703 12.5625V2.9375C52.0703 2.13542 52.3255 1.47005 52.8359 0.941406C53.3646 0.41276 54.0208 0.148438 54.8047 0.148438C55.6068 0.148438 56.263 0.41276 56.7734 0.941406C57.2839 1.47005 57.5391 2.13542 57.5391 2.9375V12.5625C57.5391 13.3646 57.2839 14.0299 56.7734 14.5586C56.263 15.0872 55.6068 15.3516 54.8047 15.3516ZM60.6836 12.6719C60.1003 12.6719 59.6081 12.4805 59.207 12.0977C58.8242 11.6966 58.6328 11.1953 58.6328 10.5938V4.93359C58.6328 4.33203 58.8242 3.83073 59.207 3.42969C59.6081 3.02865 60.1003 2.82812 60.6836 2.82812C61.2669 2.82812 61.75 3.02865 62.1328 3.42969C62.5339 3.8125 62.7344 4.30469 62.7344 4.90625V10.5664C62.7344 11.168 62.543 11.6693 62.1602 12.0703C61.7773 12.4714 61.2852 12.6719 60.6836 12.6719Z" fill="#005BAC"/>
</svg>
