<svg width="50" height="57" viewBox="0 0 50 57" fill="none" xmlns="http://www.w3.org/2000/svg">
<rect width="49.125" height="56.8125" rx="24.5625" fill="#DDF3FE"/>
<path d="M24.5625 44.8125C22.1875 44.8125 19.9896 44.401 17.9688 43.5781C15.9583 42.7656 14.2083 41.6198 12.7188 40.1406C11.2292 38.6615 10.0677 36.9271 9.23438 34.9375C8.41146 32.9375 8 30.7604 8 28.4062C8 26.0521 8.41146 23.8802 9.23438 21.8906C10.0677 19.8906 11.2292 18.151 12.7188 16.6719C14.2083 15.1927 15.9583 14.0469 17.9688 13.2344C19.9896 12.4115 22.1875 12 24.5625 12C26.9375 12 29.1302 12.4115 31.1406 13.2344C33.1615 14.0469 34.9167 15.1927 36.4062 16.6719C37.8958 18.151 39.0521 19.8906 39.875 21.8906C40.7083 23.8802 41.125 26.0521 41.125 28.4062C41.125 30.7604 40.7083 32.9375 39.875 34.9375C39.0521 36.9271 37.8958 38.6615 36.4062 40.1406C34.9167 41.6198 33.1615 42.7656 31.1406 43.5781C29.1302 44.401 26.9375 44.8125 24.5625 44.8125ZM23.8906 39V37.2812C24.6094 37.2812 25.1875 37.1771 25.625 36.9688C26.0625 36.7604 26.2812 36.4635 26.2812 36.0781C26.2812 35.7969 26.1562 35.5573 25.9062 35.3594C25.6562 35.151 25.2865 35.026 24.7969 34.9844V33.5781C25.2344 33.5573 25.5729 33.4792 25.8125 33.3438C26.0521 33.2083 26.1719 33.026 26.1719 32.7969C26.1719 32.526 25.9792 32.3177 25.5938 32.1719C25.2083 32.026 24.6562 31.9531 23.9375 31.9531V30.2344C25.1146 30.2344 26.0625 30.4531 26.7812 30.8906C27.5 31.3177 27.8594 31.8854 27.8594 32.5938C27.8594 33.1458 27.6406 33.7188 27.2031 34.3125C27.5052 34.5938 27.7135 34.875 27.8281 35.1562C27.9427 35.4375 28 35.7448 28 36.0781C28 37.0156 27.625 37.7396 26.875 38.25C26.125 38.75 25.1302 39 23.8906 39ZM18.9062 27.3906C18.3229 27.3906 17.8177 27.1354 17.3906 26.625C16.9635 26.1146 16.75 25.5104 16.75 24.8125C16.75 24.1042 16.9635 23.5 17.3906 23C17.8177 22.4896 18.3229 22.2344 18.9062 22.2344C19.4896 22.2344 19.9948 22.4896 20.4219 23C20.849 23.5 21.0625 24.1042 21.0625 24.8125C21.0625 25.5104 20.849 26.1146 20.4219 26.625C19.9948 27.1354 19.4896 27.3906 18.9062 27.3906ZM24.5625 43.0938C26.6771 43.0938 28.625 42.724 30.4062 41.9844C32.1979 41.2552 33.75 40.2344 35.0625 38.9219C36.3854 37.599 37.4115 36.0417 38.1406 34.25C38.8802 32.4583 39.25 30.5104 39.25 28.4062C39.25 26.2917 38.8802 24.3438 38.1406 22.5625C37.4115 20.7708 36.3854 19.2188 35.0625 17.9062C33.75 16.5833 32.1979 15.5573 30.4062 14.8281C28.625 14.0885 26.6771 13.7188 24.5625 13.7188C22.4583 13.7188 20.5104 14.0885 18.7188 14.8281C16.9375 15.5573 15.3854 16.5833 14.0625 17.9062C12.7396 19.2188 11.7083 20.7708 10.9688 22.5625C10.2396 24.3438 9.875 26.2917 9.875 28.4062C9.875 30.5104 10.2396 32.4583 10.9688 34.25C11.7083 36.0417 12.7344 37.599 14.0469 38.9219C15.3698 40.2344 16.9271 41.2552 18.7188 41.9844C20.5104 42.724 22.4583 43.0938 24.5625 43.0938ZM30.2188 27.3906C29.6354 27.3906 29.1302 27.1354 28.7031 26.625C28.276 26.1146 28.0625 25.5104 28.0625 24.8125C28.0625 24.1042 28.276 23.5 28.7031 23C29.1302 22.4896 29.6354 22.2344 30.2188 22.2344C30.8021 22.2344 31.3073 22.4896 31.7344 23C32.1615 23.5 32.375 24.1042 32.375 24.8125C32.375 25.5104 32.1615 26.1146 31.7344 26.625C31.3073 27.1354 30.8021 27.3906 30.2188 27.3906Z" fill="#222222"/>
</svg>
