<svg width="49" height="58" viewBox="0 0 49 58" fill="none" xmlns="http://www.w3.org/2000/svg">
<path d="M14.0469 57.2969V49.6953C13.1719 50.0052 12.2513 50.2422 11.2852 50.4062C10.3372 50.5885 9.57161 50.6797 8.98828 50.6797C7.32943 50.6797 5.88932 50.0052 4.66797 48.6562C3.46484 47.3255 2.52604 45.4661 1.85156 43.0781C1.19531 40.6719 0.867188 37.8828 0.867188 34.7109C0.867188 33.3802 1.16797 32.3503 1.76953 31.6211C2.37109 30.8737 3.20052 30.5 4.25781 30.5C5.33333 30.5 6.17188 30.8646 6.77344 31.5938C7.375 32.3229 7.67578 33.362 7.67578 34.7109C7.67578 35.4948 7.64844 36.4518 7.59375 37.582C7.55729 38.7122 7.53906 39.7422 7.53906 40.6719C7.53906 41.9661 7.73958 42.8776 8.14062 43.4062C8.54167 43.9167 9.07031 44.1719 9.72656 44.1719C10.474 44.1719 11.1667 43.9349 11.8047 43.4609C12.4427 42.987 13.0807 42.4036 13.7188 41.7109C14.375 41.0182 15.0859 40.3255 15.8516 39.6328C16.6354 38.9219 17.5378 38.3294 18.5586 37.8555C19.5794 37.3815 20.7917 37.1445 22.1953 37.1445H26.0508C28.0924 37.1445 29.7513 37.5273 31.0273 38.293C32.3034 39.0586 33.3333 40.0065 34.1172 41.1367C34.901 42.2669 35.5482 43.4062 36.0586 44.5547C36.569 45.6849 37.0612 46.6328 37.5352 47.3984C38.0273 48.1641 38.6289 48.5469 39.3398 48.5469C39.9232 48.5469 40.4427 48.2279 40.8984 47.5898C41.3542 46.9518 41.582 46.1042 41.582 45.0469C41.582 44.6276 41.5638 44.0443 41.5273 43.2969C41.5091 42.5312 41.4818 41.7565 41.4453 40.9727C41.4089 40.1888 41.3906 39.5599 41.3906 39.0859C41.3906 37.737 41.6914 36.6979 42.293 35.9688C42.8945 35.2396 43.724 34.875 44.7812 34.875C45.8568 34.875 46.6862 35.2487 47.2695 35.9961C47.8711 36.7253 48.1719 37.7552 48.1719 39.0859C48.1719 44.026 47.4336 47.8724 45.957 50.625C44.4987 53.3958 42.4935 54.7812 39.9414 54.7812C38.7383 54.7812 37.6445 54.444 36.6602 53.7695C35.6758 53.0951 34.8555 52.1198 34.1992 50.8438V57.2969H14.0469ZM4.03906 23.3359C3.09115 23.3359 2.27995 23.0078 1.60547 22.3516C0.949219 21.6771 0.621094 20.8659 0.621094 19.918C0.621094 18.9518 0.949219 18.1406 1.60547 17.4844C2.27995 16.8281 3.09115 16.5 4.03906 16.5C5.00521 16.5 5.81641 16.8281 6.47266 17.4844C7.12891 18.1406 7.45703 18.9518 7.45703 19.918C7.45703 20.8659 7.12891 21.6771 6.47266 22.3516C5.81641 23.0078 5.00521 23.3359 4.03906 23.3359ZM2.97266 19.5078C3.22786 19.5078 3.4375 19.4258 3.60156 19.2617C3.78385 19.0794 3.875 18.8698 3.875 18.6328C3.875 18.3776 3.78385 18.168 3.60156 18.0039C3.4375 17.8216 3.22786 17.7305 2.97266 17.7305C2.73568 17.7305 2.52604 17.8216 2.34375 18.0039C2.17969 18.168 2.09766 18.3776 2.09766 18.6328C2.09766 18.8698 2.17969 19.0794 2.34375 19.2617C2.52604 19.4258 2.73568 19.5078 2.97266 19.5078ZM24.2461 37.9102C22.5508 37.9102 21.0013 37.4909 19.5977 36.6523C18.2122 35.7956 17.1003 34.6198 16.2617 33.125C15.4232 31.612 14.9766 29.862 14.9219 27.875C18.0755 28.3672 21.2018 28.6315 24.3008 28.668C27.418 28.6862 30.5169 28.4219 33.5977 27.875C33.5612 29.8438 33.1146 31.5846 32.2578 33.0977C31.4193 34.6107 30.2982 35.7956 28.8945 36.6523C27.5091 37.4909 25.9596 37.9102 24.2461 37.9102ZM24.2461 29.6797C21.4388 29.6797 18.9688 29.4154 16.8359 28.8867C14.7214 28.3581 13.0716 27.6289 11.8867 26.6992C10.7018 25.7513 10.1094 24.6667 10.1094 23.4453C10.1094 21.6771 11.3672 20.4922 13.8828 19.8906C14.0651 18.2682 14.6211 16.8281 15.5508 15.5703C16.4805 14.3125 17.6927 13.3281 19.1875 12.6172C20.7005 11.9062 22.3867 11.5508 24.2461 11.5508C26.1237 11.5508 27.8099 11.9062 29.3047 12.6172C30.8177 13.3281 32.0391 14.3125 32.9688 15.5703C33.9167 16.8281 34.4727 18.2682 34.6367 19.8906C37.1523 20.4922 38.4102 21.6771 38.4102 23.4453C38.4102 24.6667 37.8177 25.7513 36.6328 26.6992C35.4479 27.6289 33.7891 28.3581 31.6562 28.8867C29.5417 29.4154 27.0716 29.6797 24.2461 29.6797ZM24.2461 27.2188C26.6341 27.2188 28.7214 27.0638 30.5078 26.7539C32.3125 26.444 33.7161 26.0065 34.7188 25.4414C35.7214 24.8763 36.2227 24.2109 36.2227 23.4453C36.2227 22.9167 35.9766 22.4883 35.4844 22.1602C35.0104 21.832 33.9896 21.5495 32.4219 21.3125C32.4583 21.1667 32.4766 21.0299 32.4766 20.9023C32.4766 20.7747 32.4766 20.6471 32.4766 20.5195C32.4766 19.1888 32.1302 18.0039 31.4375 16.9648C30.763 15.9258 29.806 15.1055 28.5664 14.5039C27.3268 13.9023 25.8867 13.6016 24.2461 13.6016C22.6237 13.6016 21.1927 13.9023 19.9531 14.5039C18.7135 15.1055 17.7474 15.9258 17.0547 16.9648C16.362 18.0039 16.0156 19.1888 16.0156 20.5195C16.0156 20.6471 16.0156 20.7747 16.0156 20.9023C16.0339 21.0299 16.0521 21.1667 16.0703 21.3125C14.5208 21.5495 13.5 21.832 13.0078 22.1602C12.5339 22.4883 12.2969 22.9167 12.2969 23.4453C12.2969 24.2109 12.7982 24.8763 13.8008 25.4414C14.8034 26.0065 16.1979 26.444 17.9844 26.7539C19.7891 27.0638 21.8763 27.2188 24.2461 27.2188ZM45.0547 27.793C44.1068 27.793 43.2956 27.4648 42.6211 26.8086C41.9648 26.1341 41.6367 25.3229 41.6367 24.375C41.6367 23.4089 41.9648 22.5977 42.6211 21.9414C43.2956 21.2852 44.1068 20.957 45.0547 20.957C46.0026 20.957 46.8047 21.2852 47.4609 21.9414C48.1354 22.5977 48.4727 23.4089 48.4727 24.375C48.4727 25.3229 48.1354 26.1341 47.4609 26.8086C46.8047 27.4648 46.0026 27.793 45.0547 27.793ZM44.0977 23.9375C44.3529 23.9375 44.5625 23.8464 44.7266 23.6641C44.9089 23.4818 45 23.2721 45 23.0352C45 22.7982 44.9089 22.5977 44.7266 22.4336C44.5625 22.2513 44.3529 22.1602 44.0977 22.1602C43.8607 22.1602 43.651 22.2513 43.4688 22.4336C43.3047 22.5977 43.2227 22.7982 43.2227 23.0352C43.2227 23.2721 43.3047 23.4818 43.4688 23.6641C43.651 23.8464 43.8607 23.9375 44.0977 23.9375ZM31.957 7.25781C31.0091 7.25781 30.1979 6.92969 29.5234 6.27344C28.8672 5.59896 28.5391 4.78776 28.5391 3.83984C28.5391 2.8737 28.8672 2.0625 29.5234 1.40625C30.1979 0.75 31.0091 0.421875 31.957 0.421875C32.9232 0.421875 33.7344 0.75 34.3906 1.40625C35.0469 2.0625 35.375 2.8737 35.375 3.83984C35.375 4.78776 35.0469 5.59896 34.3906 6.27344C33.7344 6.92969 32.9232 7.25781 31.957 7.25781ZM31.0273 3.26562C31.2643 3.26562 31.4648 3.17448 31.6289 2.99219C31.8112 2.8099 31.9023 2.60026 31.9023 2.36328C31.9023 2.1263 31.8112 1.92578 31.6289 1.76172C31.4648 1.57943 31.2643 1.48828 31.0273 1.48828C30.7904 1.48828 30.5807 1.57943 30.3984 1.76172C30.2161 1.92578 30.125 2.1263 30.125 2.36328C30.125 2.60026 30.2161 2.8099 30.3984 2.99219C30.5807 3.17448 30.7904 3.26562 31.0273 3.26562Z" fill="#005BAC"/>
</svg>
