<svg width="50" height="57" viewBox="0 0 50 57" fill="none" xmlns="http://www.w3.org/2000/svg">
<rect width="49.125" height="56.8125" rx="24.5625" fill="#DDF3FE"/>
<path d="M24.5625 44.8125C22.1875 44.8125 19.9896 44.401 17.9688 43.5781C15.9583 42.7656 14.2083 41.6198 12.7188 40.1406C11.2292 38.6615 10.0677 36.9271 9.23438 34.9375C8.41146 32.9375 8 30.7604 8 28.4062C8 26.0521 8.41146 23.8802 9.23438 21.8906C10.0677 19.8906 11.2292 18.151 12.7188 16.6719C14.2083 15.1927 15.9583 14.0469 17.9688 13.2344C19.9896 12.4115 22.1875 12 24.5625 12C26.9375 12 29.1302 12.4115 31.1406 13.2344C33.1615 14.0469 34.9167 15.1927 36.4062 16.6719C37.8958 18.151 39.0521 19.8906 39.875 21.8906C40.7083 23.8802 41.125 26.0521 41.125 28.4062C41.125 30.7604 40.7083 32.9375 39.875 34.9375C39.0521 36.9271 37.8958 38.6615 36.4062 40.1406C34.9167 41.6198 33.1615 42.7656 31.1406 43.5781C29.1302 44.401 26.9375 44.8125 24.5625 44.8125ZM24.5625 36.7344C22.0833 36.7344 19.6719 35.9531 17.3281 34.3906L18.2969 32.9688C20.3177 34.3333 22.4062 35.0156 24.5625 35.0156C26.7188 35.0156 28.8073 34.3333 30.8281 32.9688L31.7969 34.3906C29.4531 35.9531 27.0417 36.7344 24.5625 36.7344ZM18.9062 27.3906C18.3125 27.3906 17.8021 27.1562 17.375 26.6875C16.9583 26.2188 16.75 25.5938 16.75 24.8125C16.75 24.0312 16.9583 23.4062 17.375 22.9375C17.8021 22.4688 18.3125 22.2344 18.9062 22.2344C19.5 22.2344 20.0052 22.4688 20.4219 22.9375C20.849 23.4062 21.0625 24.0312 21.0625 24.8125C21.0625 25.5938 20.849 26.2188 20.4219 26.6875C20.0052 27.1562 19.5 27.3906 18.9062 27.3906ZM24.5781 43.0938C26.6823 43.0938 28.625 42.724 30.4062 41.9844C32.1979 41.2552 33.75 40.2344 35.0625 38.9219C36.3854 37.599 37.4115 36.0417 38.1406 34.25C38.8802 32.4583 39.25 30.5052 39.25 28.3906C39.25 26.2865 38.8802 24.3438 38.1406 22.5625C37.4115 20.7708 36.3854 19.2188 35.0625 17.9062C33.75 16.5833 32.1979 15.5573 30.4062 14.8281C28.625 14.0885 26.6823 13.7188 24.5781 13.7188C22.4635 13.7188 20.5104 14.0885 18.7188 14.8281C16.9375 15.5573 15.3854 16.5833 14.0625 17.9062C12.7396 19.2188 11.7083 20.7708 10.9688 22.5625C10.2396 24.3438 9.875 26.2865 9.875 28.3906C9.875 30.5052 10.2396 32.4583 10.9688 34.25C11.7083 36.0417 12.7344 37.599 14.0469 38.9219C15.3698 40.2344 16.9271 41.2552 18.7188 41.9844C20.5104 42.724 22.4635 43.0938 24.5781 43.0938ZM30.2188 27.3906C29.625 27.3906 29.1146 27.1562 28.6875 26.6875C28.2708 26.2188 28.0625 25.5938 28.0625 24.8125C28.0625 24.0312 28.2708 23.4062 28.6875 22.9375C29.1146 22.4688 29.625 22.2344 30.2188 22.2344C30.8125 22.2344 31.3177 22.4688 31.7344 22.9375C32.1615 23.4062 32.375 24.0312 32.375 24.8125C32.375 25.5938 32.1615 26.2188 31.7344 26.6875C31.3177 27.1562 30.8125 27.3906 30.2188 27.3906Z" fill="#444444"/>
</svg>
