<svg width="50" height="57" viewBox="0 0 50 57" fill="none" xmlns="http://www.w3.org/2000/svg">
<rect width="49.125" height="56.8125" rx="24.5625" fill="#DDF3FE"/>
<path d="M24.5625 44.8125C22.1875 44.8125 19.9896 44.401 17.9688 43.5781C15.9583 42.7656 14.2083 41.6198 12.7188 40.1406C11.2292 38.6615 10.0677 36.9271 9.23438 34.9375C8.41146 32.9375 8 30.7604 8 28.4062C8 26.0521 8.41146 23.8802 9.23438 21.8906C10.0677 19.8906 11.2292 18.151 12.7188 16.6719C14.2083 15.1927 15.9583 14.0469 17.9688 13.2344C19.9896 12.4115 22.1875 12 24.5625 12C26.9375 12 29.1302 12.4115 31.1406 13.2344C33.1615 14.0469 34.9167 15.1927 36.4062 16.6719C37.8958 18.151 39.0521 19.8906 39.875 21.8906C40.7083 23.8802 41.125 26.0521 41.125 28.4062C41.125 30.7604 40.7083 32.9375 39.875 34.9375C39.0521 36.9271 37.8958 38.6615 36.4062 40.1406C34.9167 41.6198 33.1615 42.7656 31.1406 43.5781C29.1302 44.401 26.9375 44.8125 24.5625 44.8125ZM17.4844 37.0781L17.0469 35.4219L33.0312 31.3594L33.4688 33.0156L17.4844 37.0781ZM19.0625 28.6406C18.4688 28.6406 17.9583 28.3906 17.5312 27.8906C17.1146 27.3802 16.9062 26.7708 16.9062 26.0625C16.9062 25.3542 17.1146 24.75 17.5312 24.25C17.9583 23.7396 18.4688 23.4844 19.0625 23.4844C19.6458 23.4844 20.151 23.7396 20.5781 24.25C21.0052 24.75 21.2188 25.3542 21.2188 26.0625C21.2188 26.7604 21.0052 27.3646 20.5781 27.875C20.1615 28.3854 19.6562 28.6406 19.0625 28.6406ZM24.5781 43.0938C26.6823 43.0938 28.625 42.724 30.4062 41.9844C32.1979 41.2552 33.75 40.2344 35.0625 38.9219C36.3854 37.599 37.4115 36.0417 38.1406 34.25C38.8802 32.4583 39.25 30.5052 39.25 28.3906C39.25 26.2865 38.8802 24.3438 38.1406 22.5625C37.4115 20.7708 36.3854 19.2188 35.0625 17.9062C33.75 16.5833 32.1979 15.5573 30.4062 14.8281C28.625 14.0885 26.6823 13.7188 24.5781 13.7188C22.4635 13.7188 20.5104 14.0885 18.7188 14.8281C16.9375 15.5573 15.3854 16.5833 14.0625 17.9062C12.7396 19.2188 11.7083 20.7708 10.9688 22.5625C10.2396 24.3438 9.875 26.2865 9.875 28.3906C9.875 30.5052 10.2396 32.4583 10.9688 34.25C11.7083 36.0417 12.7344 37.599 14.0469 38.9219C15.3698 40.2344 16.9271 41.2552 18.7188 41.9844C20.5104 42.724 22.4635 43.0938 24.5781 43.0938ZM30.0625 28.6406C29.4688 28.6406 28.9583 28.3906 28.5312 27.8906C28.1146 27.3802 27.9062 26.7708 27.9062 26.0625C27.9062 25.3542 28.1146 24.75 28.5312 24.25C28.9583 23.7396 29.4688 23.4844 30.0625 23.4844C30.6458 23.4844 31.151 23.7396 31.5781 24.25C32.0052 24.75 32.2188 25.3542 32.2188 26.0625C32.2188 26.7604 32.0052 27.3646 31.5781 27.875C31.1615 28.3854 30.6562 28.6406 30.0625 28.6406Z" fill="#444444"/>
</svg>
