<svg width="80" height="80" viewBox="0 0 80 80" fill="none" xmlns="http://www.w3.org/2000/svg">
<rect width="80" height="80" rx="40" fill="#E6F8FF"/>
<path d="M40.6172 60.8359C35.8776 60.8359 32.4076 59.5404 30.207 56.9492C28.0065 54.3581 26.9062 50.276 26.9062 44.7031L29.2891 45.543C29.2891 50.0482 30.207 53.362 32.043 55.4844C33.8789 57.6198 36.737 58.6875 40.6172 58.6875C44.276 58.6875 47.1341 57.8021 49.1914 56.0312C51.2617 54.2604 52.2969 51.8581 52.2969 48.8242C52.2969 46.6497 51.6654 45.0807 50.4023 44.1172C49.1393 43.1536 47.5768 42.6719 45.7148 42.6719C43.4492 42.6719 41.6458 42.763 40.3047 42.9453C38.9635 43.1146 38 43.4076 37.4141 43.8242C36.8281 44.2279 36.5352 44.7747 36.5352 45.4648C36.5352 46.1419 36.8477 46.6367 37.4727 46.9492C38.0977 47.2617 39.0677 47.418 40.3828 47.418C41.7109 47.418 42.8242 47.5156 43.7227 47.7109C44.6211 47.8932 45.4349 48.2643 46.1641 48.8242C46.9062 49.3711 47.694 50.1849 48.5273 51.2656L46.75 52.6133C46.151 51.7669 45.6042 51.1419 45.1094 50.7383C44.6276 50.3216 44.0221 50.0352 43.293 49.8789C42.5768 49.7227 41.5742 49.6185 40.2852 49.5664C38.2279 49.4622 36.6979 49.0781 35.6953 48.4141C34.6927 47.75 34.1914 46.7734 34.1914 45.4844C34.1914 44.3516 34.4909 43.4531 35.0898 42.7891C35.6888 42.112 36.5156 41.6172 37.5703 41.3047C38.638 40.9792 39.8685 40.7708 41.2617 40.6797C42.6549 40.5755 44.1393 40.5234 45.7148 40.5234C47.3685 40.5234 48.8659 40.8229 50.207 41.4219C51.5612 42.0078 52.6354 42.9128 53.4297 44.1367C54.237 45.3607 54.6406 46.9232 54.6406 48.8242C54.6406 51.2721 54.0742 53.3945 52.9414 55.1914C51.8216 57.0013 50.2135 58.3945 48.1172 59.3711C46.0339 60.3477 43.5339 60.8359 40.6172 60.8359ZM30.832 45.5234C31.444 45.5234 31.9258 45.3997 32.2773 45.1523C32.6419 44.8919 32.9284 44.4688 33.1367 43.8828L32.6875 39.0391C32.6615 38.6745 32.4661 38.349 32.1016 38.0625C31.75 37.763 31.2878 37.6133 30.7148 37.6133C30.0378 37.6133 29.5039 37.8542 29.1133 38.3359C28.7357 38.8047 28.5729 39.4818 28.625 40.3672L28.8008 42.9062C28.8659 43.8177 29.0872 44.4818 29.4648 44.8984C29.8424 45.3151 30.2982 45.5234 30.832 45.5234ZM43.6641 54.7422L41.457 54.4297C41.5742 53.1797 41.9779 52.0534 42.668 51.0508C43.3711 50.0352 44.2565 49.2669 45.3242 48.7461L46.2227 50.7969C45.4935 51.1615 44.9141 51.7148 44.4844 52.457C44.0547 53.1992 43.7812 53.9609 43.6641 54.7422ZM30.832 47.6719C29.6341 47.6719 28.7357 47.431 28.1367 46.9492C27.5378 46.4674 27.1341 45.862 26.9258 45.1328C26.7174 44.3906 26.5872 43.6419 26.5352 42.8867L26.3789 40.3477C26.2878 38.7461 26.6849 37.5352 27.5703 36.7148C28.4557 35.8815 29.5365 35.4648 30.8125 35.4648C31.2422 35.4648 31.6263 35.5104 31.9648 35.6016C32.3164 35.6797 32.6354 35.7904 32.9219 35.9336C33.2214 35.0612 33.7096 34.3841 34.3867 33.9023C35.0768 33.4076 35.8971 33.1602 36.8477 33.1602C37.3815 33.1602 37.9089 33.2318 38.4297 33.375C38.9505 33.5182 39.3802 33.7526 39.7188 34.0781C40.0703 33.3099 40.5781 32.724 41.2422 32.3203C41.9193 31.9167 42.7135 31.7148 43.625 31.7148C45.1484 31.7148 46.2292 32.1576 46.8672 33.043C47.5052 33.9284 47.8633 35.3216 47.9414 37.2227L48.1172 41.6367L45.9297 41.8516L45.7539 37.2617C45.7018 36.0117 45.513 35.1328 45.1875 34.625C44.862 34.1172 44.3281 33.8633 43.5859 33.8633C42.7917 33.8633 42.1862 34.1172 41.7695 34.625C41.3529 35.1328 41.1771 35.8294 41.2422 36.7148L41.6719 42.5156L39.4258 42.7109L39.0547 38.1797C38.9766 37.2161 38.7487 36.5 38.3711 36.0312C38.0065 35.5495 37.4922 35.3086 36.8281 35.3086C36.112 35.3086 35.5781 35.6146 35.2266 36.2266C34.888 36.8385 34.7643 37.6719 34.8555 38.7266L35.168 42.2812C35.2201 42.8672 35.3242 43.3229 35.4805 43.6484C35.6497 43.974 35.9167 44.2344 36.2812 44.4297L35.7734 46.7344C35.1484 46.5651 34.6927 46.3893 34.4062 46.207C34.0026 46.7018 33.5078 47.0729 32.9219 47.3203C32.349 47.5547 31.6523 47.6719 30.832 47.6719ZM54.2109 46.9883L51.8672 45.6211V23.6875C51.8672 23.1536 51.6914 22.737 51.3398 22.4375C50.9883 22.125 50.5065 21.9688 49.8945 21.9688C49.2956 21.9688 48.8203 22.125 48.4688 22.4375C48.1302 22.75 47.9609 23.1732 47.9609 23.707V39.3711L45.7148 33.5117V23.5898C45.7148 22.5612 46.112 21.6758 46.9062 20.9336C47.7005 20.1914 48.6966 19.8203 49.8945 19.8203C51.1185 19.8203 52.1406 20.1979 52.9609 20.9531C53.7943 21.6953 54.2109 22.5677 54.2109 23.5703V46.9883Z" fill="#005BAC"/>
</svg>
