<svg width="50" height="57" viewBox="0 0 50 57" fill="none" xmlns="http://www.w3.org/2000/svg">
<rect width="49.125" height="56.8125" rx="24.5625" fill="#DDF3FE"/>
<path d="M24.5625 44.8125C22.1875 44.8125 19.9896 44.401 17.9688 43.5781C15.9583 42.7656 14.2083 41.6198 12.7188 40.1406C11.2292 38.6615 10.0677 36.9271 9.23438 34.9375C8.41146 32.9375 8 30.7604 8 28.4062C8 26.0521 8.41146 23.8802 9.23438 21.8906C10.0677 19.8906 11.2292 18.151 12.7188 16.6719C14.2083 15.1927 15.9583 14.0469 17.9688 13.2344C19.9896 12.4115 22.1875 12 24.5625 12C26.9375 12 29.1302 12.4115 31.1406 13.2344C33.1615 14.0469 34.9167 15.1927 36.4062 16.6719C37.8958 18.151 39.0521 19.8906 39.875 21.8906C40.7083 23.8802 41.125 26.0521 41.125 28.4062C41.125 30.7604 40.7083 32.9375 39.875 34.9375C39.0521 36.9271 37.8958 38.6615 36.4062 40.1406C34.9167 41.6198 33.1615 42.7656 31.1406 43.5781C29.1302 44.401 26.9375 44.8125 24.5625 44.8125ZM23.7344 39.3125V37.5938C24.4531 37.5938 25.0312 37.4896 25.4688 37.2812C25.9062 37.0729 26.125 36.776 26.125 36.3906C26.125 36.1094 26 35.8698 25.75 35.6719C25.5 35.4635 25.1302 35.3385 24.6406 35.2969V33.8906C25.0781 33.8698 25.4167 33.7917 25.6562 33.6562C25.8958 33.5208 26.0156 33.3385 26.0156 33.1094C26.0156 32.8385 25.8229 32.6302 25.4375 32.4844C25.0521 32.3385 24.5 32.2656 23.7812 32.2656V30.5469C24.9583 30.5469 25.9062 30.7656 26.625 31.2031C27.3438 31.6302 27.7031 32.1979 27.7031 32.9062C27.7031 33.4583 27.4844 34.0312 27.0469 34.625C27.349 34.9062 27.5573 35.1875 27.6719 35.4688C27.7865 35.75 27.8438 36.0573 27.8438 36.3906C27.8438 37.3281 27.4688 38.0521 26.7188 38.5625C25.9688 39.0625 24.974 39.3125 23.7344 39.3125ZM17.2656 27.3438L15.5781 27.0312C15.7865 25.9792 16.1927 25.1667 16.7969 24.5938C17.4115 24.0208 18.1719 23.7344 19.0781 23.7344C19.9844 23.7344 20.7448 24.0208 21.3594 24.5938C21.974 25.1667 22.3802 25.9792 22.5781 27.0312L20.8906 27.3438C20.6406 26.0833 20.0365 25.4531 19.0781 25.4531C18.1198 25.4531 17.5156 26.0833 17.2656 27.3438ZM24.5625 43.0938C26.6771 43.0938 28.625 42.724 30.4062 41.9844C32.1979 41.2552 33.75 40.2344 35.0625 38.9219C36.3854 37.599 37.4115 36.0417 38.1406 34.25C38.8802 32.4583 39.25 30.5104 39.25 28.4062C39.25 26.2917 38.8802 24.3438 38.1406 22.5625C37.4115 20.7708 36.3854 19.2188 35.0625 17.9062C33.75 16.5833 32.1979 15.5573 30.4062 14.8281C28.625 14.0885 26.6771 13.7188 24.5625 13.7188C22.4583 13.7188 20.5104 14.0885 18.7188 14.8281C16.9375 15.5573 15.3854 16.5833 14.0625 17.9062C12.7396 19.2188 11.7083 20.7708 10.9688 22.5625C10.2396 24.3438 9.875 26.2917 9.875 28.4062C9.875 30.5104 10.2396 32.4583 10.9688 34.25C11.7083 36.0417 12.7344 37.599 14.0469 38.9219C15.3698 40.2344 16.9271 41.2552 18.7188 41.9844C20.5104 42.724 22.4583 43.0938 24.5625 43.0938ZM28.2344 27.3438L26.5469 27.0312C26.7552 25.9792 27.1615 25.1667 27.7656 24.5938C28.3802 24.0208 29.1406 23.7344 30.0469 23.7344C30.9531 23.7344 31.7135 24.0208 32.3281 24.5938C32.9427 25.1667 33.349 25.9792 33.5469 27.0312L31.8594 27.3438C31.6094 26.0833 31.0052 25.4531 30.0469 25.4531C29.0885 25.4531 28.4844 26.0833 28.2344 27.3438Z" fill="#444444"/>
</svg>
