<svg width="80" height="80" viewBox="0 0 80 80" fill="none" xmlns="http://www.w3.org/2000/svg">
<rect width="80" height="80" rx="40" fill="#E6F8FF"/>
<path d="M42.5117 55.9531C41.431 55.9531 40.4219 55.6341 39.4844 54.9961L38.1562 54.0977L39.3477 52.3203L40.6953 53.2383C41.2682 53.6159 41.8737 53.8047 42.5117 53.8047C42.8503 53.8047 43.1042 53.7396 43.2734 53.6094C42.6224 53.1536 41.9909 52.6523 41.3789 52.1055C40.7669 51.5456 40.1875 50.9792 39.6406 50.4062L41.0469 49.0391C41.5026 49.5208 42.0234 50.0417 42.6094 50.6016C43.2083 51.1484 43.8008 51.6172 44.3867 52.0078C44.9727 52.3984 45.4674 52.5938 45.8711 52.5938C46.1706 52.5938 46.418 52.5026 46.6133 52.3203C46.8216 52.138 46.9583 51.8841 47.0234 51.5586C46.099 50.9987 45.2135 50.3607 44.3672 49.6445C43.5208 48.9284 42.7331 48.1536 42.0039 47.3203L43.4883 46.0312C43.8398 46.4349 44.2891 46.8971 44.8359 47.418C45.3828 47.9258 45.9557 48.4206 46.5547 48.9023C47.1667 49.3711 47.7331 49.7617 48.2539 50.0742C48.7878 50.3737 49.2109 50.5234 49.5234 50.5234C49.849 50.5234 50.1419 50.4128 50.4023 50.1914C50.6628 49.957 50.793 49.7031 50.793 49.4297C50.793 49.4036 50.793 49.3841 50.793 49.3711C50.793 49.3451 50.7865 49.3125 50.7734 49.2734C48.9115 48.1146 47.069 46.2721 45.2461 43.7461L46.8477 42.6133C47.3685 43.3164 47.9935 44.0846 48.7227 44.918C49.4648 45.7383 50.207 46.4479 50.9492 47.0469C51.7044 47.6458 52.349 47.9453 52.8828 47.9453C53.2604 47.9453 53.5794 47.8086 53.8398 47.5352C54.1133 47.2617 54.25 46.9297 54.25 46.5391C54.25 45.901 54.0612 45.3737 53.6836 44.957L45.6953 36.0898C45.1745 35.5169 44.3867 35.2305 43.332 35.2305C42.3034 35.2305 41.2943 35.4323 40.3047 35.8359C39.3281 36.2396 38.3776 36.6432 37.4531 37.0469C36.5286 37.4505 35.6497 37.6523 34.8164 37.6523C34.1003 37.6523 33.4036 37.4766 32.7266 37.125C32.0495 36.7604 31.4896 36.2917 31.0469 35.7188C30.6172 35.1328 30.4023 34.5143 30.4023 33.8633C30.4023 33.1732 30.6562 32.5547 31.1641 32.0078C31.6719 31.4609 32.3229 30.9922 33.1172 30.6016L38.8789 27.7305C39.1393 27.6003 39.4844 27.4896 39.9141 27.3984C40.3568 27.3073 40.8776 27.2357 41.4766 27.1836C42.0755 27.1185 42.7461 27.0729 43.4883 27.0469C44.2305 27.0208 45.0312 27.0078 45.8906 27.0078C48.4297 27.0078 50.474 26.9036 52.0234 26.6953C53.5729 26.487 54.7839 26.2396 55.6562 25.9531C56.5417 25.6667 57.2448 25.4062 57.7656 25.1719C58.0781 25.0286 58.3581 24.918 58.6055 24.8398C58.8529 24.7487 59.1003 24.7031 59.3477 24.7031C60.0378 24.7031 60.6562 24.9505 61.2031 25.4453C61.75 25.9271 62.1797 26.7865 62.4922 28.0234C62.8047 29.2604 62.9609 31.0052 62.9609 33.2578C62.9609 35.7057 62.6875 37.6784 62.1406 39.1758C61.5938 40.6732 60.7734 41.7995 59.6797 42.5547L56.1836 44.9375C56.3268 45.4714 56.3984 46.0052 56.3984 46.5391C56.3984 47.4375 56.0794 48.2513 55.4414 48.9805C54.8034 49.6966 53.9961 50.0547 53.0195 50.0547C53.0065 50.0547 52.987 50.0547 52.9609 50.0547C52.9349 50.0547 52.9089 50.0547 52.8828 50.0547C52.7135 50.7839 52.3099 51.4023 51.6719 51.9102C51.0469 52.418 50.3307 52.6719 49.5234 52.6719C49.3281 52.6719 49.1328 52.6523 48.9375 52.6133C48.6901 53.2643 48.2995 53.7786 47.7656 54.1562C47.2318 54.5469 46.6003 54.7422 45.8711 54.7422C45.6628 54.7422 45.4414 54.7227 45.207 54.6836C44.6732 55.5299 43.7747 55.9531 42.5117 55.9531ZM26.9453 48.3164C26.0339 48.3164 25.2591 48.0234 24.6211 47.4375C23.9961 46.8385 23.6836 46.1094 23.6836 45.25C23.6836 44.8464 23.7617 44.4688 23.918 44.1172C24.0872 43.7656 24.3216 43.4271 24.6211 43.1016L24.8945 42.8086C25.5326 42.1315 26.2812 41.793 27.1406 41.793C28 41.793 28.7227 42.112 29.3086 42.75C29.9076 43.375 30.207 44.1432 30.207 45.0547C30.207 45.4583 30.0182 45.9206 29.6406 46.4414C29.276 46.9492 28.8398 47.3919 28.332 47.7695C27.8242 48.1341 27.362 48.3164 26.9453 48.3164ZM26.9453 46.3633C27.0755 46.3633 27.2383 46.2917 27.4336 46.1484C27.6419 45.9922 27.8307 45.8164 28 45.6211C28.1693 45.4128 28.2539 45.224 28.2539 45.0547C28.2539 44.6771 28.1432 44.3646 27.9219 44.1172C27.7135 43.8698 27.4531 43.7461 27.1406 43.7461C26.9844 43.7461 26.8411 43.7786 26.7109 43.8438C26.5807 43.8958 26.444 43.9935 26.3008 44.1367L26.0273 44.4297C25.7669 44.7292 25.6367 45.0026 25.6367 45.25C25.6367 45.5625 25.7604 45.8294 26.0078 46.0508C26.2552 46.2591 26.5677 46.3633 26.9453 46.3633ZM29.1914 51.5C28.6445 51.5 28.1172 51.3438 27.6094 51.0312C27.1146 50.7057 26.7109 50.2956 26.3984 49.8008C26.0859 49.306 25.9297 48.7852 25.9297 48.2383C25.9297 47.7565 26.0859 47.2227 26.3984 46.6367L28.1758 47.4375C27.9805 47.7891 27.8828 48.056 27.8828 48.2383C27.8828 48.5247 28.026 48.8177 28.3125 49.1172C28.612 49.4036 28.9049 49.5469 29.1914 49.5469C29.5951 49.5469 30.0638 49.3581 30.5977 48.9805C31.1315 48.5898 31.6003 48.1406 32.0039 47.6328C32.4076 47.112 32.6094 46.6693 32.6094 46.3047C32.6094 46.0312 32.4531 45.7448 32.1406 45.4453C31.8411 45.1458 31.5612 44.9961 31.3008 44.9961C31.0794 44.9961 30.8125 45.0872 30.5 45.2695C30.1875 45.4388 29.8685 45.6602 29.543 45.9336L28.8789 43.9609C29.2956 43.6745 29.7122 43.4531 30.1289 43.2969C30.5456 43.1276 30.9362 43.043 31.3008 43.043C31.8346 43.043 32.349 43.2057 32.8438 43.5312C33.3516 43.8438 33.7617 44.2474 34.0742 44.7422C34.3997 45.237 34.5625 45.7578 34.5625 46.3047C34.5625 46.8516 34.3932 47.431 34.0547 48.043C33.7161 48.6419 33.2734 49.2083 32.7266 49.7422C32.1927 50.263 31.6133 50.6862 30.9883 51.0117C30.3633 51.3372 29.7643 51.5 29.1914 51.5ZM32.2969 54.2539C31.75 54.2539 31.2227 54.0977 30.7148 53.7852C30.2201 53.4596 29.8164 53.0495 29.5039 52.5547C29.1914 52.0599 29.0352 51.5391 29.0352 50.9922C29.0352 50.5365 29.1458 50.0807 29.3672 49.625L31.2031 50.4258C31.125 50.5299 31.0664 50.6406 31.0273 50.7578C31.0013 50.862 30.9883 50.9401 30.9883 50.9922C30.9883 51.2656 31.138 51.5521 31.4375 51.8516C31.737 52.151 32.0234 52.3008 32.2969 52.3008C32.6224 52.3008 33.0195 52.151 33.4883 51.8516C33.957 51.5391 34.4193 51.1484 34.875 50.6797C35.3438 50.2109 35.7344 49.7422 36.0469 49.2734C36.3594 48.7917 36.5156 48.388 36.5156 48.0625C36.5156 47.776 36.3659 47.4896 36.0664 47.2031C35.7799 46.9036 35.4935 46.7539 35.207 46.7539C34.8815 46.7539 34.4518 46.9427 33.918 47.3203L32.7852 45.7578C33.6445 45.1198 34.4518 44.8008 35.207 44.8008C35.7669 44.8008 36.2943 44.957 36.7891 45.2695C37.2839 45.582 37.6875 45.9857 38 46.4805C38.3125 46.9753 38.4688 47.5026 38.4688 48.0625C38.4688 48.6615 38.2604 49.319 37.8438 50.0352C37.4401 50.7513 36.9193 51.4284 36.2812 52.0664C35.6432 52.7044 34.9661 53.2318 34.25 53.6484C33.5469 54.0521 32.8958 54.2539 32.2969 54.2539ZM36.1641 55.0352C35.474 55.0352 34.8815 54.7812 34.3867 54.2734C33.8919 53.7656 33.6445 53.1732 33.6445 52.4961H35.5977C35.5977 52.6393 35.6562 52.776 35.7734 52.9062C35.8906 53.0234 36.0208 53.082 36.1641 53.082C36.4505 53.082 36.763 52.9583 37.1016 52.7109C37.4401 52.4635 37.7331 52.1771 37.9805 51.8516C38.2279 51.513 38.3516 51.207 38.3516 50.9336C38.3516 50.7904 38.2865 50.6602 38.1562 50.543C38.0391 50.4258 37.9089 50.3672 37.7656 50.3672C37.6354 50.3672 37.4466 50.4323 37.1992 50.5625L36.418 48.8828C36.7305 48.5703 37.1797 48.4141 37.7656 48.4141C38.4557 48.4141 39.0482 48.6615 39.543 49.1562C40.0508 49.651 40.3047 50.2435 40.3047 50.9336C40.3047 51.5586 40.0898 52.1901 39.6602 52.8281C39.2435 53.4531 38.7161 53.974 38.0781 54.3906C37.4401 54.8203 36.8021 55.0352 36.1641 55.0352ZM25.3242 45.2891L21.3203 42.5547C20.2266 41.7995 19.4062 40.6732 18.8594 39.1758C18.3125 37.6784 18.0391 35.7057 18.0391 33.2578C18.0391 31.0052 18.1953 29.2604 18.5078 28.0234C18.8203 26.7865 19.25 25.9271 19.7969 25.4453C20.3438 24.9505 20.9622 24.7031 21.6523 24.7031C22.1862 24.7031 22.7461 24.8659 23.332 25.1914C23.918 25.5169 24.5625 25.8945 25.2656 26.3242C25.9818 26.7409 26.7891 27.112 27.6875 27.4375C28.5859 27.763 29.6081 27.9258 30.7539 27.9258C31.8216 27.9258 32.8958 27.8346 33.9766 27.6523C35.0703 27.457 36.0859 27.2682 37.0234 27.0859C37.9609 26.8906 38.7422 26.793 39.3672 26.793C39.9141 26.793 40.474 26.8385 41.0469 26.9297C41.6328 27.0078 42.1862 27.125 42.707 27.2812L38.8008 28.9609C38.7357 28.9479 38.6641 28.9414 38.5859 28.9414C38.5078 28.9284 38.4232 28.9219 38.332 28.9219C37.7852 28.9219 37.1081 29.0195 36.3008 29.2148C35.5065 29.3971 34.6341 29.5859 33.6836 29.7812C32.7461 29.9766 31.7695 30.0742 30.7539 30.0742C29.4648 30.0742 28.293 29.9115 27.2383 29.5859C26.1966 29.2604 25.2852 28.8893 24.5039 28.4727C23.7227 28.043 23.0911 27.6654 22.6094 27.3398C22.1276 27.0143 21.8086 26.8516 21.6523 26.8516C21.418 26.8516 21.2031 27.151 21.0078 27.75C20.8255 28.349 20.6758 29.1367 20.5586 30.1133C20.4414 31.0768 20.3828 32.125 20.3828 33.2578C20.3828 34.4167 20.4805 35.5234 20.6758 36.5781C20.8711 37.6198 21.1315 38.5182 21.457 39.2734C21.7826 40.0156 22.1406 40.5234 22.5312 40.7969L26.5156 43.5312L25.3242 45.2891ZM55.0703 43.1406L58.4688 40.7969C58.8724 40.5234 59.2305 40.0156 59.543 39.2734C59.8685 38.5182 60.1289 37.6198 60.3242 36.5781C60.5195 35.5234 60.6172 34.4167 60.6172 33.2578C60.6172 31.2396 60.4935 29.6706 60.2461 28.5508C59.9987 27.418 59.6862 26.8516 59.3086 26.8516C59.1914 26.8516 59.0677 26.8776 58.9375 26.9297C58.8203 26.9818 58.612 27.099 58.3125 27.2812C57.9089 27.5156 57.2383 27.7826 56.3008 28.082C55.3633 28.3685 54.0547 28.6224 52.375 28.8438C50.6953 29.0521 48.5339 29.1562 45.8906 29.1562C45.1354 29.1562 44.4258 29.1693 43.7617 29.1953C43.0977 29.2214 42.4987 29.2539 41.9648 29.293C41.431 29.332 40.9818 29.3841 40.6172 29.4492C40.2526 29.5013 39.9987 29.5664 39.8555 29.6445L34.0938 32.5156C33.1953 32.9583 32.7461 33.4076 32.7461 33.8633C32.7461 34.2409 32.9674 34.612 33.4102 34.9766C33.8529 35.3281 34.3216 35.5039 34.8164 35.5039C35.2461 35.5039 35.7799 35.3867 36.418 35.1523C37.056 34.9049 37.7591 34.6185 38.5273 34.293C39.2956 33.9674 40.0898 33.6875 40.9102 33.4531C41.7305 33.2057 42.5378 33.082 43.332 33.082C44.1654 33.082 44.9336 33.2122 45.6367 33.4727C46.3529 33.7331 46.9453 34.1237 47.4141 34.6445L55.0703 43.1406Z" fill="#005BAC"/>
</svg>
