<svg width="50" height="57" viewBox="0 0 50 57" fill="none" xmlns="http://www.w3.org/2000/svg">
<rect width="49.75" height="56.8125" rx="24.875" fill="#DDF3FE"/>
<path d="M24.875 44.8125C22.5 44.8125 20.3021 44.401 18.2812 43.5781C16.2708 42.7656 14.5208 41.6198 13.0312 40.1406C11.5417 38.6615 10.3802 36.9271 9.54688 34.9375C8.72396 32.9375 8.3125 30.7604 8.3125 28.4062C8.3125 27.2604 8.41667 26.151 8.625 25.0781C8.83333 24.0052 9.13021 22.9792 9.51562 22L10.6719 24.4375C10.5156 25.0625 10.3958 25.7083 10.3125 26.375C10.2292 27.0312 10.1875 27.7083 10.1875 28.4062C10.1875 30.5104 10.5521 32.4583 11.2812 34.25C12.0208 36.0417 13.0469 37.599 14.3594 38.9219C15.6823 40.2344 17.2396 41.2552 19.0312 41.9844C20.8229 42.724 22.7708 43.0938 24.875 43.0938C26.9896 43.0938 28.9375 42.724 30.7188 41.9844C32.5104 41.2552 34.0625 40.2344 35.375 38.9219C36.6979 37.599 37.724 36.0417 38.4531 34.25C39.1927 32.4583 39.5625 30.5104 39.5625 28.4062C39.5625 27.7083 39.5208 27.0312 39.4375 26.375C39.3542 25.7083 39.2292 25.0625 39.0625 24.4375L40.2344 22C40.6302 22.9792 40.9271 24.0052 41.125 25.0781C41.3333 26.151 41.4375 27.2604 41.4375 28.4062C41.4375 30.7604 41.0208 32.9375 40.1875 34.9375C39.3646 36.9271 38.2083 38.6615 36.7188 40.1406C35.2292 41.6198 33.474 42.7656 31.4531 43.5781C29.4427 44.401 27.25 44.8125 24.875 44.8125ZM17.25 28.8125C18.5521 28.8125 19.5625 28.6667 20.2812 28.375C21 28.0833 21.5 27.5417 21.7812 26.75C22.0625 25.9583 22.2031 24.8073 22.2031 23.2969C22.2031 22.5365 22.0521 21.9479 21.75 21.5312C21.4479 21.1146 20.8958 20.8229 20.0938 20.6562C19.2917 20.4896 18.1354 20.4062 16.625 20.4062C15.2917 20.4062 14.2344 20.4479 13.4531 20.5312C12.6719 20.6146 12.1094 20.8125 11.7656 21.125C11.4323 21.4375 11.2656 21.9375 11.2656 22.625C11.2656 23.2292 11.2969 23.7656 11.3594 24.2344C11.4323 24.7031 11.5208 25.1979 11.625 25.7188C11.8125 26.625 12.0677 27.3021 12.3906 27.75C12.7135 28.1875 13.2448 28.474 13.9844 28.6094C14.7344 28.7448 15.8229 28.8125 17.25 28.8125ZM17.3438 27.5469C16.75 27.5469 16.2396 27.2969 15.8125 26.7969C15.3958 26.2865 15.1875 25.6771 15.1875 24.9688C15.1875 24.2604 15.3958 23.6562 15.8125 23.1562C16.2396 22.6458 16.75 22.3906 17.3438 22.3906C17.9271 22.3906 18.4323 22.6458 18.8594 23.1562C19.2865 23.6562 19.5 24.2604 19.5 24.9688C19.5 25.6667 19.2865 26.2708 18.8594 26.7812C18.4427 27.2917 17.9375 27.5469 17.3438 27.5469ZM17.0469 30.5156C15.7031 30.5156 14.5677 30.4375 13.6406 30.2812C12.7135 30.1146 11.9844 29.8385 11.4531 29.4531C10.9323 29.0677 10.5833 28.5365 10.4062 27.8594L9.59375 24.6562C9.42708 23.9792 9.29688 23.5365 9.20312 23.3281C9.10938 23.1094 8.96875 22.9479 8.78125 22.8438L8 22.4219V19.7656C9.34375 19.401 10.7135 19.1354 12.1094 18.9688C13.5156 18.7917 15.0208 18.7031 16.625 18.7031C18.4271 18.7031 19.8958 18.8698 21.0312 19.2031C22.1667 19.5365 23 20.0521 23.5312 20.75C24.0625 20.6667 24.5104 20.625 24.875 20.625C25.2396 20.625 25.6875 20.6667 26.2188 20.75C26.75 20.0521 27.5833 19.5365 28.7188 19.2031C29.8542 18.8698 31.3229 18.7031 33.125 18.7031C34.7292 18.7031 36.2292 18.7917 37.625 18.9688C39.0312 19.1354 40.4062 19.401 41.75 19.7656V22.4219L40.9688 22.8438C40.7812 22.9479 40.6406 23.1094 40.5469 23.3281C40.4635 23.5365 40.3333 23.9792 40.1562 24.6562L39.3438 27.8594C39.1771 28.5365 38.8281 29.0677 38.2969 29.4531C37.7656 29.8385 37.0365 30.1146 36.1094 30.2812C35.1927 30.4375 34.0573 30.5156 32.7031 30.5156C31.2865 30.5156 30.1354 30.3958 29.25 30.1562C28.375 29.9167 27.7031 29.4896 27.2344 28.875C26.7656 28.2604 26.4271 27.3854 26.2188 26.25L25.7344 23.5156C25.599 23.4635 25.4635 23.4271 25.3281 23.4062C25.1927 23.375 25.0417 23.3594 24.875 23.3594C24.7083 23.3594 24.5573 23.375 24.4219 23.4062C24.2865 23.4271 24.151 23.4635 24.0156 23.5156L23.5312 26.25C23.3333 27.3854 22.9948 28.2604 22.5156 28.875C22.0469 29.4896 21.3698 29.9167 20.4844 30.1562C19.6094 30.3958 18.4635 30.5156 17.0469 30.5156ZM32.4062 27.5469C31.8125 27.5469 31.3021 27.2969 30.875 26.7969C30.4583 26.2865 30.25 25.6771 30.25 24.9688C30.25 24.2604 30.4583 23.6562 30.875 23.1562C31.3021 22.6458 31.8125 22.3906 32.4062 22.3906C32.9896 22.3906 33.4948 22.6458 33.9219 23.1562C34.349 23.6562 34.5625 24.2604 34.5625 24.9688C34.5625 25.6667 34.349 26.2708 33.9219 26.7812C33.5052 27.2917 33 27.5469 32.4062 27.5469ZM32.5 28.8125C33.9375 28.8125 35.026 28.7448 35.7656 28.6094C36.5052 28.474 37.0365 28.1875 37.3594 27.75C37.6927 27.3021 37.9479 26.625 38.125 25.7188C38.2292 25.1979 38.3125 24.7031 38.375 24.2344C38.4479 23.7656 38.4844 23.2292 38.4844 22.625C38.4844 21.9375 38.3125 21.4375 37.9688 21.125C37.6354 20.8125 37.0781 20.6146 36.2969 20.5312C35.5156 20.4479 34.4583 20.4062 33.125 20.4062C31.625 20.4062 30.4688 20.4896 29.6562 20.6562C28.8542 20.8229 28.3021 21.1146 28 21.5312C27.6979 21.9479 27.5469 22.5365 27.5469 23.2969C27.5469 24.8073 27.6875 25.9583 27.9688 26.75C28.25 27.5417 28.75 28.0833 29.4688 28.375C30.1875 28.6667 31.1979 28.8125 32.5 28.8125ZM10.2969 20.3125C11.2135 18.625 12.3958 17.1615 13.8438 15.9219C15.3021 14.6719 16.9635 13.7083 18.8281 13.0312C20.7031 12.3438 22.7188 12 24.875 12C27.0417 12 29.0573 12.3438 30.9219 13.0312C32.7865 13.7083 34.4427 14.6719 35.8906 15.9219C37.349 17.1615 38.5365 18.625 39.4531 20.3125L37.1719 20.0938C36.3177 18.7812 35.2656 17.651 34.0156 16.7031C32.776 15.7448 31.3802 15.0104 29.8281 14.5C28.2865 13.9792 26.6354 13.7188 24.875 13.7188C23.1146 13.7188 21.4583 13.9792 19.9062 14.5C18.3646 15.0104 16.974 15.7448 15.7344 16.7031C14.4948 17.651 13.4427 18.7812 12.5781 20.0938L10.2969 20.3125ZM24.875 38.5312C26.4375 38.5312 27.8958 38.25 29.25 37.6875C27.7604 36.8229 26.3021 36.3906 24.875 36.3906C23.4479 36.3906 21.9896 36.8229 20.5 37.6875C21.8542 38.25 23.3125 38.5312 24.875 38.5312ZM24.875 39.625C23.5208 39.625 22.1927 39.4062 20.8906 38.9688C19.599 38.5312 18.4323 37.9479 17.3906 37.2188C16.349 36.4792 15.5156 35.6667 14.8906 34.7812C14.276 33.8958 13.9688 33.0052 13.9688 32.1094C13.9688 31.5573 14.0938 31.1719 14.3438 30.9531C14.5938 30.724 14.9271 30.6094 15.3438 30.6094C15.6042 30.6094 15.9323 30.6406 16.3281 30.7031C16.7344 30.7656 17.1979 30.849 17.7188 30.9531C18.6458 31.1302 19.724 31.3021 20.9531 31.4688C22.1823 31.625 23.4896 31.7031 24.875 31.7031C26.2708 31.7031 27.5833 31.625 28.8125 31.4688C30.0417 31.3021 31.1146 31.1302 32.0312 30.9531C32.5521 30.849 33.0104 30.7656 33.4062 30.7031C33.8125 30.6406 34.1458 30.6094 34.4062 30.6094C34.8229 30.6094 35.1562 30.724 35.4062 30.9531C35.6562 31.1719 35.7812 31.5573 35.7812 32.1094C35.7812 33.0052 35.4688 33.8958 34.8438 34.7812C34.2292 35.6667 33.401 36.4792 32.3594 37.2188C31.3177 37.9479 30.1458 38.5312 28.8438 38.9688C27.5521 39.4062 26.2292 39.625 24.875 39.625ZM24.875 34.3594C25.8542 34.3594 26.901 34.3229 28.0156 34.25C29.1302 34.1667 30.2448 34.0417 31.3594 33.875C32.474 33.6979 33.5156 33.4792 34.4844 33.2188V32.1094C34.4844 31.9531 34.4219 31.8542 34.2969 31.8125C34.1719 31.7604 34.0417 31.75 33.9062 31.7812C33.0208 31.9896 32.0417 32.1719 30.9688 32.3281C29.9062 32.474 28.8438 32.5885 27.7812 32.6719C26.7292 32.7552 25.7604 32.7969 24.875 32.7969C24 32.7969 23.0312 32.7552 21.9688 32.6719C20.9062 32.5885 19.8438 32.474 18.7812 32.3281C17.7188 32.1719 16.7396 31.9896 15.8438 31.7812C15.7083 31.75 15.5781 31.7604 15.4531 31.8125C15.3281 31.8542 15.2656 31.9531 15.2656 32.1094V33.2188C16.2344 33.4792 17.276 33.6979 18.3906 33.875C19.5052 34.0417 20.6198 34.1667 21.7344 34.25C22.8594 34.3229 23.9062 34.3594 24.875 34.3594Z" fill="#444444"/>
</svg>
