<svg width="80" height="80" viewBox="0 0 80 80" fill="none" xmlns="http://www.w3.org/2000/svg">
<rect width="80" height="80" rx="40" fill="#E6F8FF"/>
<path d="M51.0078 60.7578L48.8594 60.6016C48.8984 59.9245 48.931 59.3646 48.957 58.9219C48.9831 58.4792 48.9961 58.0951 48.9961 57.7695C49.0091 57.457 49.0156 57.1706 49.0156 56.9102C49.0156 56.4674 49.0091 56.0833 48.9961 55.7578C48.9831 55.4323 48.944 55.0482 48.8789 54.6055C48.8529 54.4102 48.6836 54.1953 48.3711 53.9609C48.0586 53.7135 47.6875 53.401 47.2578 53.0234C46.8281 52.6458 46.431 52.151 46.0664 51.5391C45.6758 50.862 45.4089 50.2109 45.2656 49.5859C45.1354 48.9479 44.9987 48.3945 44.8555 47.9258C44.7122 47.457 44.4258 47.125 43.9961 46.9297L43.1953 46.5586C42.6224 46.2982 42.1797 45.9466 41.8672 45.5039C41.5677 45.0482 41.418 44.5664 41.418 44.0586C41.418 43.3294 41.7109 42.763 42.2969 42.3594C42.8828 41.9557 43.651 41.7539 44.6016 41.7539C45.1615 41.7539 45.6953 41.8255 46.2031 41.9688C46.7109 42.099 47.1667 42.3203 47.5703 42.6328L47.9805 42.9453V32.9844C47.9805 32.2552 48.2344 31.6497 48.7422 31.168C49.25 30.6732 49.8685 30.4258 50.5977 30.4258C51.3789 30.4258 52.0951 30.7188 52.7461 31.3047L51.418 32.75C51.1706 32.5026 50.8971 32.3789 50.5977 32.3789C50.4023 32.3789 50.2396 32.4375 50.1094 32.5547C49.9922 32.6589 49.9336 32.8021 49.9336 32.9844V44.1758C51.457 44.306 52.7396 44.8008 53.7812 45.6602C54.8359 46.5195 55.6497 47.75 56.2227 49.3516L54.3867 50.0156C53.8919 48.6484 53.2148 47.6523 52.3555 47.0273C51.5091 46.4023 50.3958 46.0898 49.0156 46.0898C48.7292 46.0898 48.4622 46.0182 48.2148 45.875C47.9805 45.7188 47.681 45.4518 47.3164 45.0742C46.8346 44.5534 46.3919 44.1953 45.9883 44C45.5977 43.8047 45.1354 43.707 44.6016 43.707C43.9115 43.707 43.5664 43.8503 43.5664 44.1367C43.5664 44.3711 43.7682 44.5794 44.1719 44.7617L45.0117 45.1328C45.7669 45.4583 46.2943 45.9596 46.5938 46.6367C46.9062 47.3138 47.1406 48.0169 47.2969 48.7461C47.4531 49.4753 47.668 50.0807 47.9414 50.5625C48.2018 51.0052 48.5664 51.4154 49.0352 51.793C49.5039 52.1576 49.9401 52.5417 50.3438 52.9453C50.7474 53.3359 50.9753 53.8112 51.0273 54.3711C51.0794 54.8529 51.112 55.276 51.125 55.6406C51.151 56.0052 51.1641 56.4284 51.1641 56.9102C51.1641 57.3529 51.151 57.8477 51.125 58.3945C51.112 58.9414 51.0729 59.7292 51.0078 60.7578ZM21.4961 60.8359L19.3867 60.5234C19.4909 59.4427 19.569 58.5378 19.6211 57.8086C19.6732 57.0794 19.6992 56.3828 19.6992 55.7188C19.6992 55.1068 19.6797 54.5469 19.6406 54.0391C18.8073 52.8672 18.1758 51.7018 17.7461 50.543C17.3164 49.3711 17.1276 48.3099 17.1797 47.3594L17.8633 35.8945C17.9154 35.0482 18.2148 34.3451 18.7617 33.7852C19.3216 33.2122 19.9661 32.9258 20.6953 32.9258C21.2422 32.9258 21.6849 33.0365 22.0234 33.2578L21.457 35.1523C21.1966 34.9701 20.9688 34.8789 20.7734 34.8789C20.3047 34.8789 20.0508 35.2565 20.0117 36.0117L19.3281 47.4766C19.276 48.2578 19.4583 49.1562 19.875 50.1719C20.2917 51.1875 20.9102 52.2357 21.7305 53.3164C21.7695 53.681 21.7956 54.0586 21.8086 54.4492C21.8346 54.8529 21.8477 55.276 21.8477 55.7188C21.8477 56.4349 21.8151 57.1771 21.75 57.9453C21.6979 58.7266 21.6133 59.6901 21.4961 60.8359ZM29.9922 60.7578C29.9401 59.7292 29.901 58.9414 29.875 58.3945C29.849 57.8477 29.8359 57.3529 29.8359 56.9102C29.8359 56.4284 29.8424 56.0052 29.8555 55.6406C29.8815 55.276 29.9206 54.8529 29.9727 54.3711C30.0378 53.8112 30.2656 53.3359 30.6562 52.9453C31.0599 52.5417 31.4961 52.1576 31.9648 51.793C32.4336 51.4154 32.7982 51.0052 33.0586 50.5625C33.3451 50.0807 33.5599 49.4753 33.7031 48.7461C33.8594 48.0169 34.0938 47.3138 34.4062 46.6367C34.7188 45.9596 35.2461 45.4583 35.9883 45.1328L36.8281 44.7617C37.2318 44.5794 37.4336 44.3711 37.4336 44.1367C37.4336 43.8503 37.0885 43.707 36.3984 43.707C35.8646 43.707 35.4023 43.8047 35.0117 44C34.6211 44.1953 34.1784 44.5534 33.6836 45.0742C33.319 45.4518 33.013 45.7188 32.7656 45.875C32.5312 46.0182 32.2708 46.0898 31.9844 46.0898C30.6042 46.0898 29.4844 46.4023 28.625 47.0273C27.7786 47.6523 27.1081 48.6484 26.6133 50.0156L24.7773 49.3516C25.3503 47.75 26.1576 46.5195 27.1992 45.6602C28.2539 44.8008 29.543 44.306 31.0664 44.1758V32.9844C31.0664 32.8021 31.0013 32.6589 30.8711 32.5547C30.7539 32.4375 30.5977 32.3789 30.4023 32.3789C30.1029 32.3789 29.8294 32.5026 29.582 32.75L28.2539 31.3047C28.9049 30.7188 29.6211 30.4258 30.4023 30.4258C31.1315 30.4258 31.75 30.6732 32.2578 31.168C32.7656 31.6497 33.0195 32.2552 33.0195 32.9844V42.9453L33.4297 42.6328C33.8464 42.3203 34.3021 42.099 34.7969 41.9688C35.3047 41.8255 35.8385 41.7539 36.3984 41.7539C37.349 41.7539 38.1172 41.9557 38.7031 42.3594C39.2891 42.763 39.582 43.3294 39.582 44.0586C39.582 44.5664 39.4258 45.0482 39.1133 45.5039C38.8138 45.9466 38.3776 46.2982 37.8047 46.5586L37.0039 46.9297C36.5872 47.125 36.3008 47.457 36.1445 47.9258C36.0013 48.3945 35.8646 48.9479 35.7344 49.5859C35.6042 50.2109 35.3372 50.862 34.9336 51.5391C34.569 52.151 34.1719 52.6458 33.7422 53.0234C33.3125 53.401 32.9414 53.7135 32.6289 53.9609C32.3164 54.1953 32.1471 54.4102 32.1211 54.6055C32.069 55.0482 32.0299 55.4323 32.0039 55.7578C31.9909 56.0833 31.9844 56.4674 31.9844 56.9102C31.9844 57.1706 31.9844 57.457 31.9844 57.7695C31.9974 58.0951 32.0169 58.4792 32.043 58.9219C32.069 59.3646 32.1016 59.9245 32.1406 60.6016L29.9922 60.7578ZM21.1055 42.8672V32.9648C21.1055 32.1185 21.3594 31.4284 21.8672 30.8945C22.388 30.3477 23.0586 30.0742 23.8789 30.0742C24.7513 30.0742 25.4479 30.3737 25.9688 30.9727L24.5234 32.2617C24.3672 32.1055 24.1523 32.0273 23.8789 32.0273C23.332 32.0273 23.0586 32.3398 23.0586 32.9648V42.8672H21.1055ZM21.7305 44.4102L20.7539 42.9453C21.4049 42.4505 22.0299 42.0534 22.6289 41.7539C23.2279 41.4414 23.8268 41.181 24.4258 40.9727V30.5234C24.4258 29.7552 24.6797 29.0977 25.1875 28.5508C25.7083 27.9909 26.3333 27.7109 27.0625 27.7109C27.8047 27.7109 28.4297 27.9714 28.9375 28.4922C29.4453 29 29.6992 29.638 29.6992 30.4062V41.832C28.332 41.832 26.9844 42.0208 25.6562 42.3984C24.3411 42.776 23.0326 43.4466 21.7305 44.4102ZM26.3789 40.4453C26.6133 40.4062 26.8411 40.3737 27.0625 40.3477C27.2839 40.3086 27.5117 40.2826 27.7461 40.2695V30.4062C27.7461 30.1849 27.681 30.0091 27.5508 29.8789C27.4336 29.7357 27.2708 29.6641 27.0625 29.6641C26.8802 29.6641 26.7174 29.7487 26.5742 29.918C26.444 30.0872 26.3789 30.2891 26.3789 30.5234V40.4453ZM35.3633 28.9414L31.4375 23.9414L32.9609 22.7305L36.8867 27.7305L35.3633 28.9414ZM59.5039 60.8359C59.3867 59.6901 59.2956 58.7266 59.2305 57.9453C59.1784 57.1771 59.1523 56.4349 59.1523 55.7188C59.1523 55.276 59.1589 54.8529 59.1719 54.4492C59.1979 54.0586 59.2305 53.681 59.2695 53.3164C60.0898 52.2357 60.7083 51.1875 61.125 50.1719C61.5417 49.1562 61.724 48.2578 61.6719 47.4766L60.9883 36.0117C60.9492 35.2565 60.6953 34.8789 60.2266 34.8789C60.0312 34.8789 59.8034 34.9701 59.543 35.1523L58.9766 33.2578C59.3151 33.0365 59.7578 32.9258 60.3047 32.9258C61.0339 32.9258 61.6719 33.2122 62.2188 33.7852C62.7786 34.3451 63.0846 35.0482 63.1367 35.8945L63.8203 47.3594C63.8854 48.3099 63.7031 49.3711 63.2734 50.543C62.8438 51.7018 62.2057 52.8672 61.3594 54.0391C61.3203 54.5469 61.3008 55.1068 61.3008 55.7188C61.3008 56.3828 61.3268 57.0794 61.3789 57.8086C61.431 58.5378 61.5091 59.4427 61.6133 60.5234L59.5039 60.8359ZM39.5234 27.2422V19.8203H41.4766V27.2422H39.5234ZM54.6211 40.4453V30.5234C54.6211 30.2891 54.5495 30.0872 54.4062 29.918C54.276 29.7487 54.1198 29.6641 53.9375 29.6641C53.7292 29.6641 53.5599 29.7357 53.4297 29.8789C53.3125 30.0091 53.2539 30.1849 53.2539 30.4062V40.2695C53.4883 40.2826 53.7161 40.3086 53.9375 40.3477C54.1589 40.3737 54.3867 40.4062 54.6211 40.4453ZM59.2695 44.4102C57.9674 43.4466 56.6523 42.776 55.3242 42.3984C54.0091 42.0208 52.668 41.832 51.3008 41.832V30.4062C51.3008 29.638 51.5547 29 52.0625 28.4922C52.5703 27.9714 53.1953 27.7109 53.9375 27.7109C54.6667 27.7109 55.2852 27.9909 55.793 28.5508C56.3138 29.0977 56.5742 29.7552 56.5742 30.5234V40.9727C57.1732 41.181 57.7721 41.4414 58.3711 41.7539C58.9701 42.0534 59.5951 42.4505 60.2461 42.9453L59.2695 44.4102ZM57.9414 42.8672V32.9648C57.9414 32.3398 57.668 32.0273 57.1211 32.0273C56.8477 32.0273 56.6328 32.1055 56.4766 32.2617L55.0312 30.9727C55.5521 30.3737 56.2487 30.0742 57.1211 30.0742C57.9414 30.0742 58.6055 30.3477 59.1133 30.8945C59.6341 31.4284 59.8945 32.1185 59.8945 32.9648V42.8672H57.9414ZM45.6367 28.9414L44.1133 27.7305L48.0391 22.7305L49.5625 23.9414L45.6367 28.9414Z" fill="#005BAC"/>
</svg>
