<svg width="50" height="57" viewBox="0 0 50 57" fill="none" xmlns="http://www.w3.org/2000/svg">
<rect width="49.125" height="56.8125" rx="24.5625" fill="#DDF3FE"/>
<path d="M24.5625 44.8125C22.1875 44.8125 19.9896 44.401 17.9688 43.5781C15.9583 42.7656 14.2083 41.6198 12.7188 40.1406C11.2292 38.6615 10.0677 36.9271 9.23438 34.9375C8.41146 32.9375 8 30.7604 8 28.4062C8 26.0521 8.41146 23.8802 9.23438 21.8906C10.0677 19.8906 11.2292 18.151 12.7188 16.6719C14.2083 15.1927 15.9583 14.0469 17.9688 13.2344C19.9896 12.4115 22.1875 12 24.5625 12C26.9375 12 29.1302 12.4115 31.1406 13.2344C33.1615 14.0469 34.9167 15.1927 36.4062 16.6719C37.8958 18.151 39.0521 19.8906 39.875 21.8906C40.7083 23.8802 41.125 26.0521 41.125 28.4062C41.125 28.8333 41.1094 29.2552 41.0781 29.6719C41.0469 30.0885 41.0052 30.5 40.9531 30.9062C40.4219 30.5208 39.8229 30.2708 39.1562 30.1562C39.1875 29.8646 39.2083 29.5729 39.2188 29.2812C39.2396 28.9896 39.25 28.6979 39.25 28.4062C39.25 26.2917 38.8802 24.3438 38.1406 22.5625C37.4115 20.7708 36.3854 19.2188 35.0625 17.9062C33.75 16.5833 32.1979 15.5573 30.4062 14.8281C28.625 14.0885 26.6771 13.7188 24.5625 13.7188C22.4583 13.7188 20.5104 14.0885 18.7188 14.8281C16.9375 15.5573 15.3854 16.5833 14.0625 17.9062C12.7396 19.2188 11.7083 20.7708 10.9688 22.5625C10.2396 24.3438 9.875 26.2917 9.875 28.4062C9.875 30.5104 10.2396 32.4583 10.9688 34.25C11.7083 36.0417 12.7344 37.599 14.0469 38.9219C15.3698 40.2344 16.9271 41.2552 18.7188 41.9844C20.5104 42.724 22.4583 43.0938 24.5625 43.0938C26.1354 43.0938 27.6198 42.8854 29.0156 42.4688C30.4219 42.0521 31.7083 41.4635 32.875 40.7031C33.3438 40.7344 33.8125 40.7552 34.2812 40.7656C34.7604 40.7865 35.2344 40.7969 35.7031 40.7969C34.2552 42.0573 32.5833 43.0417 30.6875 43.75C28.8021 44.4583 26.7604 44.8125 24.5625 44.8125ZM23.8906 39V37.2812C24.6094 37.2812 25.1875 37.1771 25.625 36.9688C26.0625 36.7604 26.2812 36.4635 26.2812 36.0781C26.2812 35.7969 26.1562 35.5573 25.9062 35.3594C25.6562 35.151 25.2865 35.026 24.7969 34.9844V33.5781C25.2344 33.5573 25.5729 33.4792 25.8125 33.3438C26.0521 33.2083 26.1719 33.026 26.1719 32.7969C26.1719 32.526 25.9792 32.3177 25.5938 32.1719C25.2083 32.026 24.6562 31.9531 23.9375 31.9531V30.2344C25.1146 30.2344 26.0625 30.4531 26.7812 30.8906C27.5 31.3177 27.8594 31.8854 27.8594 32.5938C27.8594 33.1458 27.6406 33.7188 27.2031 34.3125C27.5052 34.5938 27.7135 34.875 27.8281 35.1562C27.9427 35.4375 28 35.7448 28 36.0781C28 37.0156 27.625 37.7396 26.875 38.25C26.125 38.75 25.1302 39 23.8906 39ZM18.9062 27.3906C18.3229 27.3906 17.8177 27.1354 17.3906 26.625C16.9635 26.1146 16.75 25.5104 16.75 24.8125C16.75 24.1042 16.9635 23.5 17.3906 23C17.8177 22.4896 18.3229 22.2344 18.9062 22.2344C19.4896 22.2344 19.9948 22.4896 20.4219 23C20.849 23.5 21.0625 24.1042 21.0625 24.8125C21.0625 25.5104 20.849 26.1146 20.4219 26.625C19.9948 27.1354 19.4896 27.3906 18.9062 27.3906ZM15.0938 22.5156L13.7188 21.7656C14.2083 20.8906 14.849 20.1562 15.6406 19.5625C16.4427 18.9583 17.4948 18.4219 18.7969 17.9531L19.3281 19.4219C18.1927 19.8281 17.3021 20.2708 16.6562 20.75C16.0104 21.2188 15.4896 21.8073 15.0938 22.5156ZM34.6094 39.25C33.1198 39.25 31.6198 38.9792 30.1094 38.4375C30.5156 38.1146 30.8021 37.776 30.9688 37.4219C31.1458 37.0573 31.2344 36.6979 31.2344 36.3438C31.2344 35.8542 31.1406 35.3385 30.9531 34.7969C30.776 34.2552 30.6875 33.5677 30.6875 32.7344C30.6875 31.4948 30.9635 30.5312 31.5156 29.8438C32.0781 29.1458 32.8125 28.7969 33.7188 28.7969C34.5521 28.7969 35.2656 29.0833 35.8594 29.6562C36.4635 30.2188 36.7656 30.9375 36.7656 31.8125C37.0052 31.7396 37.2448 31.6875 37.4844 31.6562C37.724 31.625 37.9479 31.6094 38.1562 31.6094C39.0833 31.6094 39.8073 31.8802 40.3281 32.4219C40.8594 32.9531 41.125 33.6771 41.125 34.5938C41.125 35.5104 40.849 36.3177 40.2969 37.0156C39.7448 37.7135 38.9792 38.2604 38 38.6562C37.0208 39.0521 35.8906 39.25 34.6094 39.25ZM33.0938 27.7031C32.4271 27.401 31.7448 27.1667 31.0469 27C30.3594 26.8229 29.6562 26.7344 28.9375 26.7344C28.7812 26.7344 28.6146 26.7448 28.4375 26.7656C28.2708 26.776 28.0729 26.7969 27.8438 26.8281L27.0781 25.1562C28.026 24.3125 28.9792 23.5833 29.9375 22.9688C30.9062 22.3542 31.8646 21.849 32.8125 21.4531L33.4375 23.0625C32.9479 23.2604 32.4115 23.5208 31.8281 23.8438C31.2552 24.1562 30.599 24.5729 29.8594 25.0938C29.901 25.0938 29.9375 25.0938 29.9688 25.0938C30 25.0938 30.0365 25.0938 30.0781 25.0938C30.4948 25.0938 31.0573 25.1979 31.7656 25.4062C32.474 25.6042 33.1667 25.8542 33.8438 26.1562L33.0938 27.7031Z" fill="#222222"/>
</svg>
