<svg width="80" height="80" viewBox="0 0 80 80" fill="none" xmlns="http://www.w3.org/2000/svg">
<rect width="80" height="80" rx="40" fill="#E6F8FF"/>
<path d="M23.4492 60.8359C22.3294 60.8359 21.4896 60.556 20.9297 59.9961C20.3698 59.4362 20.0898 58.5833 20.0898 57.4375V32.125C20.0898 31.0443 20.3958 30.1458 21.0078 29.4297C21.6198 28.7005 22.6224 28.0951 24.0156 27.6133L26.75 26.6562L27.5703 28.8047L24.8359 29.7812C23.9505 30.0938 23.3255 30.4128 22.9609 30.7383C22.6094 31.0638 22.4336 31.5326 22.4336 32.1445V57.1445C22.4336 57.5612 22.5833 57.8867 22.8828 58.1211C23.1823 58.3685 23.6315 58.4922 24.2305 58.4922H56.7695C57.3685 58.4922 57.8177 58.3685 58.1172 58.1211C58.4167 57.8867 58.5664 57.5612 58.5664 57.1445V32.1445C58.5664 31.5326 58.3841 31.0638 58.0195 30.7383C57.668 30.4128 57.0495 30.0938 56.1641 29.7812L53.4102 28.8047L54.2305 26.6562L56.9844 27.6133C58.3776 28.0951 59.3802 28.7005 59.9922 29.4297C60.6042 30.1458 60.9102 31.0443 60.9102 32.125V57.4375C60.9102 58.5833 60.6302 59.4362 60.0703 59.9961C59.5104 60.556 58.6706 60.8359 57.5508 60.8359H23.4492ZM44.1328 58.4141C44.1328 58.0365 44.1263 57.6393 44.1133 57.2227C44.1003 56.819 44.0807 56.4349 44.0547 56.0703L37.1016 51.9688C37.0885 52.3464 37.0755 52.724 37.0625 53.1016C37.0495 53.4792 37.043 53.8568 37.043 54.2344L44.1328 58.4141ZM43.957 53.9414C43.957 53.5768 43.944 53.1732 43.918 52.7305C43.8919 52.2878 43.8594 51.8971 43.8203 51.5586L37.7852 47.8281C37.694 48.1667 37.6159 48.5312 37.5508 48.9219C37.4857 49.3125 37.4401 49.6641 37.4141 49.9766L43.957 53.9414ZM34.5234 59.2344C34.5234 58.8047 34.5299 58.1797 34.543 57.3594C34.569 56.5521 34.6016 55.6732 34.6406 54.7227C34.6797 53.7721 34.7253 52.8607 34.7773 51.9883C34.8294 51.1159 34.8945 50.4062 34.9727 49.8594C35.181 48.2839 35.5456 46.9427 36.0664 45.8359C36.6003 44.7161 37.1471 43.8698 37.707 43.2969C37.3424 42.6068 37.0365 41.9102 36.7891 41.207C36.5547 40.5039 36.3594 39.6315 36.2031 38.5898C36.6328 37.9909 37.1276 37.4115 37.6875 36.8516C38.2474 36.2917 38.7878 35.8294 39.3086 35.4648C39.8294 35.1003 40.2331 34.918 40.5195 34.918C40.819 34.918 41.2227 35.1003 41.7305 35.4648C42.2513 35.8294 42.7917 36.2917 43.3516 36.8516C43.9245 37.4115 44.4258 37.9909 44.8555 38.5898C44.6992 39.6315 44.4974 40.5039 44.25 41.207C44.0156 41.9102 43.7161 42.6068 43.3516 43.2969C43.9245 43.8698 44.4714 44.7161 44.9922 45.8359C45.526 46.9427 45.8841 48.2839 46.0664 49.8594C46.1315 50.4062 46.1901 51.1159 46.2422 51.9883C46.2943 52.8607 46.3398 53.7721 46.3789 54.7227C46.431 55.6732 46.4635 56.5521 46.4766 57.3594C46.5026 58.1797 46.5156 58.8047 46.5156 59.2344H34.5234ZM43.5859 49.2148C43.5208 48.7852 43.4362 48.3294 43.332 47.8477C43.2409 47.3659 43.1302 46.9427 43 46.5781L39.25 44.3125C39.1198 44.5208 38.9701 44.8008 38.8008 45.1523C38.6315 45.5039 38.4948 45.8099 38.3906 46.0703L43.5859 49.2148ZM42.3164 41.3242C42.4596 41.1029 42.6159 40.8164 42.7852 40.4648C42.9674 40.1133 43.1042 39.8138 43.1953 39.5664L39.582 37.2812C39.4258 37.5026 39.2305 37.7565 38.9961 38.043C38.7747 38.3164 38.5534 38.5703 38.332 38.8047L42.3164 41.3242ZM32.7461 42.3008C32.2643 42.3008 31.8737 42.1966 31.5742 41.9883C31.2747 41.7669 31.0078 41.4023 30.7734 40.8945L26.7695 32.3203C26.5482 31.8516 26.3268 31.3438 26.1055 30.7969C25.8971 30.237 25.793 29.6445 25.793 29.0195C25.793 28.3294 25.9492 27.6068 26.2617 26.8516C26.5742 26.0833 26.9714 25.3607 27.4531 24.6836C28 23.9154 28.6901 23.1602 29.5234 22.418C30.3568 21.6758 31.2161 21.1224 32.1016 20.7578C32.8698 20.4453 33.9505 20.2109 35.3438 20.0547C36.75 19.8984 38.4688 19.8203 40.5 19.8203C42.5312 19.8203 44.25 19.8984 45.6562 20.0547C47.0755 20.2109 48.1628 20.4453 48.918 20.7578C49.8034 21.1224 50.6628 21.6758 51.4961 22.418C52.3294 23.1602 53.0195 23.9154 53.5664 24.6836C54.0612 25.3607 54.4583 26.0833 54.7578 26.8516C55.0703 27.6068 55.2266 28.3294 55.2266 29.0195C55.2266 29.6445 55.1159 30.237 54.8945 30.7969C54.6862 31.3438 54.4714 31.8516 54.25 32.3203L50.2461 40.8945C50.0117 41.4023 49.7448 41.7669 49.4453 41.9883C49.1589 42.1966 48.7682 42.3008 48.2734 42.3008C47.6615 42.3008 47.0039 42.0664 46.3008 41.5977C45.5977 41.1159 44.901 40.5169 44.2109 39.8008C43.5208 39.0846 42.8828 38.3555 42.2969 37.6133C41.7109 36.8711 41.2227 36.2396 40.832 35.7188H40.207C39.8164 36.2396 39.3216 36.8711 38.7227 37.6133C38.1367 38.3555 37.4987 39.0846 36.8086 39.8008C36.1185 40.5169 35.4219 41.1159 34.7188 41.5977C34.0156 42.0664 33.3581 42.3008 32.7461 42.3008ZM32.9805 40.1328C33.1367 40.1328 33.3581 40.0417 33.6445 39.8594C34.0742 39.599 34.5625 39.1953 35.1094 38.6484C35.6562 38.1016 36.2096 37.5026 36.7695 36.8516C37.3294 36.1875 37.8438 35.543 38.3125 34.918C38.7943 34.293 39.1784 33.7656 39.4648 33.3359C38.6576 32.6589 37.8503 31.9622 37.043 31.2461C36.2487 30.5169 35.4674 29.7747 34.6992 29.0195C34.3997 28.7201 34.0742 28.3685 33.7227 27.9648C33.3841 27.5482 33.2148 27.1185 33.2148 26.6758C33.2148 26.2982 33.3906 25.9596 33.7422 25.6602C34.1068 25.3477 34.6667 25.1263 35.4219 24.9961C35.7734 24.931 36.2422 24.8724 36.8281 24.8203C37.4271 24.7552 38.0521 24.7096 38.7031 24.6836C39.3542 24.6445 39.9531 24.625 40.5 24.625C41.0469 24.625 41.6458 24.6445 42.2969 24.6836C42.9479 24.7096 43.5664 24.7552 44.1523 24.8203C44.7513 24.8724 45.2266 24.931 45.5781 24.9961C46.3464 25.1263 46.9062 25.3477 47.2578 25.6602C47.6094 25.9596 47.7852 26.2982 47.7852 26.6758C47.7852 27.1185 47.6094 27.5482 47.2578 27.9648C46.9193 28.3685 46.6003 28.7201 46.3008 29.0195C45.5326 29.7747 44.7448 30.5169 43.9375 31.2461C43.1432 31.9622 42.3424 32.6589 41.5352 33.3359C41.8216 33.7656 42.1992 34.293 42.668 34.918C43.1497 35.5299 43.6706 36.168 44.2305 36.832C44.8034 37.4961 45.3633 38.1016 45.9102 38.6484C46.457 39.1823 46.9388 39.5859 47.3555 39.8594C47.6419 40.0417 47.8633 40.1328 48.0195 40.1328C48.1237 40.1328 48.2214 40.0938 48.3125 40.0156C48.4036 39.9245 48.4883 39.7943 48.5664 39.625L52.5117 31.1289C52.694 30.7253 52.8438 30.3607 52.9609 30.0352C53.0911 29.6966 53.1562 29.3385 53.1562 28.9609C53.1562 28.4271 53.0065 27.8802 52.707 27.3203C52.4206 26.7474 52.082 26.2005 51.6914 25.6797C51.2747 25.1198 50.7734 24.5729 50.1875 24.0391C49.6146 23.4922 49.0091 23.069 48.3711 22.7695C47.7591 22.4701 46.7826 22.2487 45.4414 22.1055C44.1003 21.9622 42.4531 21.8906 40.5 21.8906C38.5469 21.8906 36.8997 21.9622 35.5586 22.1055C34.2174 22.2487 33.2409 22.4701 32.6289 22.7695C31.9909 23.069 31.3789 23.4922 30.793 24.0391C30.2201 24.5729 29.7253 25.1198 29.3086 25.6797C28.918 26.2005 28.5729 26.7474 28.2734 27.3203C27.987 27.8802 27.8438 28.4271 27.8438 28.9609C27.8438 29.3385 27.9023 29.6966 28.0195 30.0352C28.1497 30.3607 28.306 30.7253 28.4883 31.1289L32.4336 39.625C32.5117 39.7943 32.5964 39.9245 32.6875 40.0156C32.7786 40.0938 32.8763 40.1328 32.9805 40.1328Z" fill="#005BAC"/>
</svg>
