<svg width="80" height="80" viewBox="0 0 80 80" fill="none" xmlns="http://www.w3.org/2000/svg">
<rect width="80" height="80" rx="40" fill="#E6F8FF"/>
<path d="M40.5 60.8359C37.5312 60.8359 34.7839 60.3216 32.2578 59.293C29.7448 58.2773 27.5573 56.8451 25.6953 54.9961C23.8333 53.1471 22.3815 50.9792 21.3398 48.4922C20.3112 45.9922 19.7969 43.2708 19.7969 40.3281C19.7969 37.3854 20.3112 34.6706 21.3398 32.1836C22.3815 29.6836 23.8333 27.5091 25.6953 25.6602C27.5573 23.8112 29.7448 22.3789 32.2578 21.3633C34.7839 20.3346 37.5312 19.8203 40.5 19.8203C43.4688 19.8203 46.2096 20.3346 48.7227 21.3633C51.2487 22.3789 53.4427 23.8112 55.3047 25.6602C57.1667 27.5091 58.612 29.6836 59.6406 32.1836C60.6823 34.6706 61.2031 37.3854 61.2031 40.3281C61.2031 43.2708 60.6823 45.9922 59.6406 48.4922C58.612 50.9792 57.1667 53.1471 55.3047 54.9961C53.4427 56.8451 51.2487 58.2773 48.7227 59.293C46.2096 60.3216 43.4688 60.8359 40.5 60.8359ZM40.5195 53.9023C39.1523 53.9023 37.9284 53.7201 36.8477 53.3555C35.7799 52.9909 34.9401 52.4896 34.3281 51.8516C33.7161 51.2005 33.4102 50.4714 33.4102 49.6641C33.4102 48.4922 33.7357 47.418 34.3867 46.4414C35.0378 45.4518 35.8971 44.6576 36.9648 44.0586C38.0456 43.4596 39.224 43.1602 40.5 43.1602C41.776 43.1602 42.9479 43.4596 44.0156 44.0586C45.0964 44.6576 45.9622 45.4518 46.6133 46.4414C47.2643 47.418 47.5898 48.4922 47.5898 49.6641C47.5898 50.4714 47.2839 51.2005 46.6719 51.8516C46.0599 52.4896 45.2201 52.9909 44.1523 53.3555C43.0846 53.7201 41.8737 53.9023 40.5195 53.9023ZM40.5195 58.6875C43.1497 58.6875 45.5781 58.2253 47.8047 57.3008C50.0443 56.3893 51.9844 55.1133 53.625 53.4727C55.2786 51.819 56.5612 49.8724 57.4727 47.6328C58.3971 45.3932 58.8594 42.9518 58.8594 40.3086C58.8594 37.6784 58.3971 35.25 57.4727 33.0234C56.5612 30.7839 55.2786 28.8438 53.625 27.2031C51.9844 25.5495 50.0443 24.2669 47.8047 23.3555C45.5781 22.431 43.1497 21.9688 40.5195 21.9688C37.8763 21.9688 35.4349 22.431 33.1953 23.3555C30.9688 24.2669 29.0286 25.5495 27.375 27.2031C25.7214 28.8438 24.4323 30.7839 23.5078 33.0234C22.5964 35.25 22.1406 37.6784 22.1406 40.3086C22.1406 42.9518 22.5964 45.3932 23.5078 47.6328C24.4323 49.8724 25.7148 51.819 27.3555 53.4727C29.0091 55.1133 30.9557 56.3893 33.1953 57.3008C35.4349 58.2253 37.8763 58.6875 40.5195 58.6875ZM33.625 39.0586C32.8958 39.0586 32.2643 38.7396 31.7305 38.1016C31.1966 37.4635 30.9297 36.7083 30.9297 35.8359C30.9297 34.9505 31.1966 34.1953 31.7305 33.5703C32.2643 32.9323 32.8958 32.6133 33.625 32.6133C34.3542 32.6133 34.9857 32.9323 35.5195 33.5703C36.0534 34.1953 36.3203 34.9505 36.3203 35.8359C36.3203 36.7083 36.0534 37.4635 35.5195 38.1016C34.9857 38.7396 34.3542 39.0586 33.625 39.0586ZM47.375 39.0586C46.6458 39.0586 46.0143 38.7396 45.4805 38.1016C44.9466 37.4635 44.6797 36.7083 44.6797 35.8359C44.6797 34.9505 44.9466 34.1953 45.4805 33.5703C46.0143 32.9323 46.6458 32.6133 47.375 32.6133C48.1042 32.6133 48.7357 32.9323 49.2695 33.5703C49.8034 34.1953 50.0703 34.9505 50.0703 35.8359C50.0703 36.7083 49.8034 37.4635 49.2695 38.1016C48.7357 38.7396 48.1042 39.0586 47.375 39.0586Z" fill="#005BAC"/>
</svg>
