<svg width="50" height="57" viewBox="0 0 50 57" fill="none" xmlns="http://www.w3.org/2000/svg">
<rect width="49.125" height="56.8125" rx="24.5625" fill="#DDF3FE"/>
<path d="M24.5625 44.8125C22.1875 44.8125 19.9896 44.401 17.9688 43.5781C15.9583 42.7656 14.2083 41.6198 12.7188 40.1406C11.2292 38.6615 10.0677 36.9271 9.23438 34.9375C8.41146 32.9375 8 30.7604 8 28.4062C8 26.0521 8.41146 23.8802 9.23438 21.8906C10.0677 19.8906 11.2292 18.151 12.7188 16.6719C14.2083 15.1927 15.9583 14.0469 17.9688 13.2344C19.9896 12.4115 22.1875 12 24.5625 12C26.9375 12 29.1302 12.4115 31.1406 13.2344C33.1615 14.0469 34.9167 15.1927 36.4062 16.6719C37.8958 18.151 39.0521 19.8906 39.875 21.8906C40.7083 23.8802 41.125 26.0521 41.125 28.4062C41.125 30.7604 40.7083 32.9375 39.875 34.9375C39.0521 36.9271 37.8958 38.6615 36.4062 40.1406C34.9167 41.6198 33.1615 42.7656 31.1406 43.5781C29.1302 44.401 26.9375 44.8125 24.5625 44.8125ZM24.5625 38.5938C23.6771 38.5938 22.776 38.3906 21.8594 37.9844C20.9531 37.5781 20.0521 36.9792 19.1562 36.1875L20.2812 34.9062C21.0208 35.5625 21.7448 36.0573 22.4531 36.3906C23.1719 36.7135 23.875 36.875 24.5625 36.875C25.25 36.875 25.9479 36.7135 26.6562 36.3906C27.375 36.0573 28.1042 35.5625 28.8438 34.9062L29.9688 36.1875C29.0729 36.9792 28.1667 37.5781 27.25 37.9844C26.3438 38.3906 25.4479 38.5938 24.5625 38.5938ZM18.2812 29.3281C17.5833 29.3281 16.901 29.1719 16.2344 28.8594C15.5677 28.5365 14.9583 28.0573 14.4062 27.4219L15.5938 26.3906C16.375 27.3073 17.2708 27.7656 18.2812 27.7656C19.2917 27.7656 20.1875 27.3073 20.9688 26.3906L22.1562 27.4219C21.6146 28.0573 21.0052 28.5365 20.3281 28.8594C19.6615 29.1719 18.9792 29.3281 18.2812 29.3281ZM14.5938 23.5L13.375 22.5469C14.75 20.776 16.6406 19.8073 19.0469 19.6406L19.3125 21.1875C17.3229 21.2917 15.75 22.0625 14.5938 23.5ZM24.5625 43.0938C26.6771 43.0938 28.625 42.724 30.4062 41.9844C32.1979 41.2552 33.75 40.2344 35.0625 38.9219C36.3854 37.599 37.4115 36.0417 38.1406 34.25C38.8802 32.4583 39.25 30.5104 39.25 28.4062C39.25 26.2917 38.8802 24.3438 38.1406 22.5625C37.4115 20.7708 36.3854 19.2188 35.0625 17.9062C33.75 16.5833 32.1979 15.5573 30.4062 14.8281C28.625 14.0885 26.6771 13.7188 24.5625 13.7188C22.4583 13.7188 20.5104 14.0885 18.7188 14.8281C16.9375 15.5573 15.3854 16.5833 14.0625 17.9062C12.7396 19.2188 11.7083 20.7708 10.9688 22.5625C10.2396 24.3438 9.875 26.2917 9.875 28.4062C9.875 30.5104 10.2396 32.4583 10.9688 34.25C11.7083 36.0417 12.7344 37.599 14.0469 38.9219C15.3698 40.2344 16.9271 41.2552 18.7188 41.9844C20.5104 42.724 22.4583 43.0938 24.5625 43.0938ZM30.8438 29.3281C29.4062 29.3281 28.1146 28.6927 26.9688 27.4219L28.1562 26.3906C28.9375 27.3073 29.8333 27.7656 30.8438 27.7656C31.8542 27.7656 32.75 27.3073 33.5312 26.3906L34.7188 27.4219C34.1771 28.0573 33.5677 28.5365 32.8906 28.8594C32.224 29.1719 31.5417 29.3281 30.8438 29.3281ZM34.5312 23.5C33.375 22.0625 31.8021 21.2917 29.8125 21.1875L30.0781 19.6406C32.4844 19.8073 34.375 20.776 35.75 22.5469L34.5312 23.5Z" fill="#444444"/>
</svg>
