<svg width="50" height="57" viewBox="0 0 50 57" fill="none" xmlns="http://www.w3.org/2000/svg">
<rect width="49.125" height="56.8125" rx="24.5625" fill="#DDF3FE"/>
<path d="M24.5625 44.8125C22.1875 44.8125 19.9896 44.401 17.9688 43.5781C15.9583 42.7656 14.2083 41.6198 12.7188 40.1406C11.2292 38.6615 10.0677 36.9271 9.23438 34.9375C8.41146 32.9375 8 30.7604 8 28.4062C8 26.0521 8.41146 23.8802 9.23438 21.8906C10.0677 19.8906 11.2292 18.151 12.7188 16.6719C14.2083 15.1927 15.9583 14.0469 17.9688 13.2344C19.9896 12.4115 22.1875 12 24.5625 12C26.9375 12 29.1302 12.4115 31.1406 13.2344C33.1615 14.0469 34.9167 15.1927 36.4062 16.6719C37.8958 18.151 39.0521 19.8906 39.875 21.8906C40.7083 23.8802 41.125 26.0521 41.125 28.4062C41.125 30.7604 40.7083 32.9375 39.875 34.9375C39.0521 36.9271 37.8958 38.6615 36.4062 40.1406C34.9167 41.6198 33.1615 42.7656 31.1406 43.5781C29.1302 44.401 26.9375 44.8125 24.5625 44.8125ZM14.1875 31.9375C13.8958 31.8021 13.8229 31.5885 13.9688 31.2969L14.7656 29.6562C14.9115 29.375 15.1198 29.2969 15.3906 29.4219C15.6823 29.5573 15.7552 29.7708 15.6094 30.0625L14.8125 31.7031C14.6667 31.9844 14.4583 32.0625 14.1875 31.9375ZM15.9062 32.375C15.6354 32.25 15.5625 32.0417 15.6875 31.75L16.8906 29.2188C17.0156 28.9271 17.224 28.849 17.5156 28.9844C17.7865 29.1094 17.8594 29.3177 17.7344 29.6094L16.5312 32.1406C16.4062 32.4323 16.1979 32.5104 15.9062 32.375ZM18.0312 31.9375C17.7396 31.8021 17.6667 31.5885 17.8125 31.2969L18.6094 29.6562C18.7552 29.375 18.9635 29.2969 19.2344 29.4219C19.526 29.5573 19.599 29.7708 19.4531 30.0625L18.6562 31.7031C18.5104 31.9844 18.3021 32.0625 18.0312 31.9375ZM23.7344 39.3125V37.5938C24.4531 37.5938 25.0312 37.4896 25.4688 37.2812C25.9062 37.0729 26.125 36.776 26.125 36.3906C26.125 36.1094 26 35.8698 25.75 35.6719C25.5 35.4635 25.1302 35.3385 24.6406 35.2969V33.8906C25.0781 33.8698 25.4167 33.7917 25.6562 33.6562C25.8958 33.5208 26.0156 33.3385 26.0156 33.1094C26.0156 32.8385 25.8229 32.6302 25.4375 32.4844C25.0521 32.3385 24.5 32.2656 23.7812 32.2656V30.5469C24.9583 30.5469 25.9062 30.7656 26.625 31.2031C27.3438 31.6302 27.7031 32.1979 27.7031 32.9062C27.7031 33.4583 27.4844 34.0312 27.0469 34.625C27.349 34.9062 27.5573 35.1875 27.6719 35.4688C27.7865 35.75 27.8438 36.0573 27.8438 36.3906C27.8438 37.3281 27.4688 38.0521 26.7188 38.5625C25.9688 39.0625 24.974 39.3125 23.7344 39.3125ZM15.9531 27.1719L14.6719 26.0469C15.7969 24.7656 17.1042 24.125 18.5938 24.125C20.0833 24.125 21.3906 24.7656 22.5156 26.0469L21.2344 27.1719C20.4427 26.2865 19.5625 25.8438 18.5938 25.8438C17.625 25.8438 16.7448 26.2865 15.9531 27.1719ZM24.5625 43.0938C26.6771 43.0938 28.625 42.724 30.4062 41.9844C32.1979 41.2552 33.75 40.2344 35.0625 38.9219C36.3854 37.599 37.4115 36.0417 38.1406 34.25C38.8802 32.4583 39.25 30.5104 39.25 28.4062C39.25 26.2917 38.8802 24.3438 38.1406 22.5625C37.4115 20.7708 36.3854 19.2188 35.0625 17.9062C33.75 16.5833 32.1979 15.5573 30.4062 14.8281C28.625 14.0885 26.6771 13.7188 24.5625 13.7188C22.4583 13.7188 20.5104 14.0885 18.7188 14.8281C16.9375 15.5573 15.3854 16.5833 14.0625 17.9062C12.7396 19.2188 11.7083 20.7708 10.9688 22.5625C10.2396 24.3438 9.875 26.2917 9.875 28.4062C9.875 30.5104 10.2396 32.4583 10.9688 34.25C11.7083 36.0417 12.7344 37.599 14.0469 38.9219C15.3698 40.2344 16.9271 41.2552 18.7188 41.9844C20.5104 42.724 22.4583 43.0938 24.5625 43.0938ZM15.2344 21.5938L14.1719 20.4375C15.5365 19.1979 17.5677 18.5781 20.2656 18.5781V20.1406C19.0677 20.1406 18.0677 20.2604 17.2656 20.5C16.4635 20.7292 15.7865 21.0938 15.2344 21.5938ZM29.8906 31.9375C29.599 31.8021 29.526 31.5885 29.6719 31.2969L30.4688 29.6562C30.6146 29.375 30.8229 29.2969 31.0938 29.4219C31.3854 29.5573 31.4583 29.7708 31.3125 30.0625L30.5156 31.7031C30.3698 31.9844 30.1615 32.0625 29.8906 31.9375ZM31.6094 32.375C31.3385 32.25 31.2656 32.0417 31.3906 31.75L32.5938 29.2188C32.7188 28.9271 32.9271 28.849 33.2188 28.9844C33.4896 29.1094 33.5625 29.3177 33.4375 29.6094L32.2344 32.1406C32.1094 32.4323 31.901 32.5104 31.6094 32.375ZM33.7344 31.9375C33.4427 31.8021 33.3698 31.5885 33.5156 31.2969L34.3125 29.6562C34.4583 29.375 34.6667 29.2969 34.9375 29.4219C35.2292 29.5573 35.3021 29.7708 35.1562 30.0625L34.3594 31.7031C34.2135 31.9844 34.0052 32.0625 33.7344 31.9375ZM27.8906 27.1719L26.6094 26.0469C27.7344 24.7656 29.0417 24.125 30.5312 24.125C32.0208 24.125 33.3281 24.7656 34.4531 26.0469L33.1719 27.1719C32.3802 26.2865 31.5 25.8438 30.5312 25.8438C29.5625 25.8438 28.6823 26.2865 27.8906 27.1719ZM33.8906 21.5938C33.349 21.0938 32.6771 20.7292 31.875 20.5C31.0729 20.2604 30.0677 20.1406 28.8594 20.1406V18.5781C31.5573 18.5781 33.5885 19.1979 34.9531 20.4375L33.8906 21.5938Z" fill="#222222"/>
</svg>
