<svg width="50" height="58" viewBox="0 0 50 58" fill="none" xmlns="http://www.w3.org/2000/svg">
<rect width="49.6562" height="57.5938" rx="24.8281" fill="#DDF3FE"/>
<path d="M25.0938 44.8125C23.1875 44.8125 21.3594 44.5312 19.6094 43.9688L20.4688 42.4219C21.9375 42.8698 23.4792 43.0938 25.0938 43.0938C27.2083 43.0938 29.1562 42.724 30.9375 41.9844C32.7292 41.2552 34.2812 40.2344 35.5938 38.9219C36.9167 37.599 37.9427 36.0417 38.6719 34.25C39.4115 32.4583 39.7812 30.5104 39.7812 28.4062C39.7812 26.2917 39.4115 24.3438 38.6719 22.5625C37.9427 20.7708 36.9167 19.2188 35.5938 17.9062C34.2812 16.5833 32.7292 15.5573 30.9375 14.8281C29.1562 14.0885 27.2083 13.7188 25.0938 13.7188C22.9896 13.7188 21.0417 14.0885 19.25 14.8281C17.4688 15.5573 15.9167 16.5833 14.5938 17.9062C13.2708 19.2188 12.2396 20.7708 11.5 22.5625C10.7708 24.3438 10.4062 26.2917 10.4062 28.4062C10.4062 29.5729 10.5208 30.6771 10.75 31.7188L8.92188 32.125C8.79688 31.5312 8.69792 30.9271 8.625 30.3125C8.5625 29.6875 8.53125 29.0521 8.53125 28.4062C8.53125 26.0521 8.94271 23.8802 9.76562 21.8906C10.599 19.8906 11.7604 18.151 13.25 16.6719C14.7396 15.1927 16.4896 14.0469 18.5 13.2344C20.5208 12.4115 22.7188 12 25.0938 12C27.4688 12 29.6615 12.4115 31.6719 13.2344C33.6927 14.0469 35.4479 15.1927 36.9375 16.6719C38.4271 18.151 39.5833 19.8906 40.4062 21.8906C41.2396 23.8802 41.6562 26.0521 41.6562 28.4062C41.6562 30.7604 41.2396 32.9375 40.4062 34.9375C39.5833 36.9271 38.4271 38.6615 36.9375 40.1406C35.4479 41.6198 33.6927 42.7656 31.6719 43.5781C29.6615 44.401 27.4688 44.8125 25.0938 44.8125ZM15.3125 45.5938C13.1979 45.5938 11.6198 45.026 10.5781 43.8906C9.53646 42.7552 9.01562 41.276 9.01562 39.4531C9.01562 38.9115 9.0625 38.4375 9.15625 38.0312C9.25 37.625 9.29688 37.2344 9.29688 36.8594C9.29688 36.4323 9.22917 36.0417 9.09375 35.6875C8.95833 35.3229 8.80729 34.9635 8.64062 34.6094C8.47396 34.2656 8.32292 33.9167 8.1875 33.5625C8.0625 33.2083 8 32.8281 8 32.4219C8 31.7969 8.1875 31.2969 8.5625 30.9219C8.94792 30.5469 9.47396 30.3594 10.1406 30.3594C10.8177 30.3594 11.4583 30.5573 12.0625 30.9531C12.6667 31.3385 13.125 31.8698 13.4375 32.5469L13.5625 32.8125C13.7708 33.25 13.9219 33.5365 14.0156 33.6719C14.1198 33.7969 14.2448 33.8594 14.3906 33.8594C14.5573 33.8594 14.75 33.8125 14.9688 33.7188C15.1979 33.6146 15.4635 33.4792 15.7656 33.3125C16.2135 33.0521 16.7604 32.7812 17.4062 32.5C18.0625 32.2083 18.8385 31.9635 19.7344 31.7656C20.6406 31.5573 21.6823 31.4531 22.8594 31.4531C23.7552 31.4531 24.474 31.6146 25.0156 31.9375C25.5677 32.25 25.8438 32.7396 25.8438 33.4062C25.8438 33.7917 25.7552 34.1198 25.5781 34.3906C25.4115 34.6615 25.0729 34.9219 24.5625 35.1719C24.0521 35.4219 23.2865 35.7135 22.2656 36.0469L21.8281 36.1875C21.1927 36.3854 20.5677 36.6354 19.9531 36.9375C19.3385 37.2292 18.6615 37.6823 17.9219 38.2969L17.0469 37.25C17.9323 36.4479 18.7448 35.8542 19.4844 35.4688C20.224 35.0833 20.8958 34.8125 21.5 34.6562L21.7969 34.5781C22.7865 34.3177 23.4479 34.125 23.7812 34C24.1146 33.875 24.2812 33.7292 24.2812 33.5625C24.2812 33.3958 24.1771 33.2656 23.9688 33.1719C23.7604 33.0677 23.3906 33.0156 22.8594 33.0156C21.5365 33.0156 20.3385 33.1927 19.2656 33.5469C18.2031 33.901 17.2865 34.276 16.5156 34.6719C16.0365 34.9115 15.5938 35.1042 15.1875 35.25C14.7917 35.3958 14.4427 35.4688 14.1406 35.4688C13.6823 35.4688 13.3177 35.3125 13.0469 35C12.7865 34.6875 12.4896 34.1771 12.1562 33.4688L12.0312 33.2031C11.8438 32.7969 11.599 32.4792 11.2969 32.25C11.0052 32.0104 10.6979 31.8906 10.375 31.8906C10.1562 31.8906 9.96354 31.9688 9.79688 32.125C9.64062 32.2708 9.5625 32.474 9.5625 32.7344C9.5625 32.9323 9.60938 33.1458 9.70312 33.375C9.79688 33.6042 9.91146 33.8542 10.0469 34.125C10.2344 34.5104 10.4167 34.9323 10.5938 35.3906C10.7708 35.8385 10.8594 36.3281 10.8594 36.8594C10.8594 37.3385 10.8125 37.7865 10.7188 38.2031C10.625 38.6198 10.5781 39.0469 10.5781 39.4844C10.5781 40.8177 10.9688 41.9062 11.75 42.75C12.5417 43.6042 13.7292 44.0312 15.3125 44.0312C16.0104 44.0312 16.7188 43.9531 17.4375 43.7969C18.1667 43.6406 18.776 43.4427 19.2656 43.2031C19.7552 42.974 20 42.75 20 42.5312C20 42.3542 19.9844 42.2292 19.9531 42.1562C19.9323 42.0833 19.8958 42.0312 19.8438 42L20.75 40.7188C21.2917 41.1042 21.5625 41.7083 21.5625 42.5312C21.5625 43.0104 21.3698 43.4375 20.9844 43.8125C20.6094 44.1979 20.1094 44.5208 19.4844 44.7812C18.8698 45.0417 18.1927 45.2396 17.4531 45.375C16.724 45.5208 16.0104 45.5938 15.3125 45.5938ZM18.8125 42.6406L18.625 41.4062C19.625 41.1979 20.125 40.8281 20.125 40.2969C20.125 39.9115 20.0104 39.6615 19.7812 39.5469L20.5 38.3281C20.8021 38.5052 21.0469 38.7812 21.2344 39.1562C21.4323 39.5208 21.5312 39.901 21.5312 40.2969C21.5312 40.9635 21.2865 41.4896 20.7969 41.875C20.3073 42.2708 19.6458 42.526 18.8125 42.6406ZM18.4688 40.5781L18.2656 39.3438C18.7552 39.2917 19.1458 39.1562 19.4375 38.9375C19.7396 38.7188 19.8906 38.4792 19.8906 38.2188C19.8906 37.9479 19.8021 37.7448 19.625 37.6094C19.4479 37.4635 19.2344 37.3906 18.9844 37.3906V35.9844C19.6198 36.0052 20.1615 36.2396 20.6094 36.6875C21.0677 37.125 21.2969 37.6354 21.2969 38.2188C21.2969 38.875 21.0365 39.4062 20.5156 39.8125C19.9948 40.2292 19.3125 40.4844 18.4688 40.5781ZM28.7969 30.8125C27.1302 29.1771 25.2812 28.3594 23.25 28.3594C21.9271 28.3594 20.5156 28.7031 19.0156 29.3906L18.3594 27.9844C20.0781 27.2031 21.7135 26.8125 23.2656 26.8125C25.724 26.8125 27.9323 27.7708 29.8906 29.6875L28.7969 30.8125ZM20.125 22.0781C19.5312 22.0781 19.0208 21.8281 18.5938 21.3281C18.1771 20.8177 17.9688 20.2083 17.9688 19.5C17.9688 18.7917 18.1771 18.1875 18.5938 17.6875C19.0208 17.1771 19.5312 16.9219 20.125 16.9219C20.7083 16.9219 21.2135 17.1771 21.6406 17.6875C22.0677 18.1875 22.2812 18.7917 22.2812 19.5C22.2812 20.1979 22.0677 20.8021 21.6406 21.3125C21.224 21.8229 20.7188 22.0781 20.125 22.0781ZM23.8438 16.2344C23 15.3906 22.151 14.7917 21.2969 14.4375C20.4531 14.0833 19.4375 13.9062 18.25 13.9062V12.3438C19.6458 12.3438 20.8646 12.5625 21.9062 13C22.9479 13.4375 23.9583 14.151 24.9375 15.1406L23.8438 16.2344ZM29.9688 24.7344C29.375 24.7344 28.8646 24.4844 28.4375 23.9844C28.0208 23.474 27.8125 22.8646 27.8125 22.1562C27.8125 21.4479 28.0208 20.8438 28.4375 20.3438C28.8646 19.8333 29.375 19.5781 29.9688 19.5781C30.5521 19.5781 31.0573 19.8333 31.4844 20.3438C31.9115 20.8438 32.125 21.4479 32.125 22.1562C32.125 22.8542 31.9115 23.4583 31.4844 23.9688C31.0677 24.4792 30.5625 24.7344 29.9688 24.7344ZM33.2969 19.0469C32.0052 18.2969 30.6562 17.9219 29.25 17.9219C28.9375 17.9219 28.6146 17.9375 28.2812 17.9688C27.9583 18 27.6302 18.0573 27.2969 18.1406L26.9531 16.6094C27.349 16.526 27.7344 16.4635 28.1094 16.4219C28.4844 16.3802 28.8594 16.3594 29.2344 16.3594C30.9635 16.3594 32.5781 16.8073 34.0781 17.7031L33.2969 19.0469Z" fill="#444444"/>
</svg>
