<svg width="80" height="80" viewBox="0 0 80 80" fill="none" xmlns="http://www.w3.org/2000/svg">
<rect width="80" height="80" rx="40" fill="#E6F8FF"/>
<path d="M26.1602 47.6914L21.8828 26.4805C22.5729 25.543 23.543 24.8268 24.793 24.332C26.043 23.8372 27.4818 23.5898 29.1094 23.5898C29.7995 23.5898 30.6133 23.6419 31.5508 23.7461C32.4883 23.8372 33.4193 23.8828 34.3438 23.8828C34.9427 23.8828 35.5677 23.8372 36.2188 23.7461C36.8698 23.6419 37.6185 23.4336 38.4648 23.1211C39.3112 22.7956 40.3268 22.2943 41.5117 21.6172C42.5924 21.0052 43.6276 20.556 44.6172 20.2695C45.6198 19.9701 46.6549 19.8203 47.7227 19.8203C48.6992 19.8203 49.7214 19.918 50.7891 20.1133C51.8698 20.3086 52.9635 20.5951 54.0703 20.9727C54.487 22.5742 54.8581 24.0846 55.1836 25.5039C55.5221 26.9102 55.8411 28.3424 56.1406 29.8008C56.4401 31.2591 56.7396 32.8477 57.0391 34.5664C57.3516 36.2721 57.6901 38.2253 58.0547 40.4258C57.1823 40.2565 56.4466 40.1263 55.8477 40.0352C55.2487 39.944 54.6888 39.8789 54.168 39.8398C53.6471 39.8008 53.0612 39.7812 52.4102 39.7812C51.6419 39.7812 50.8672 39.8659 50.0859 40.0352C49.3177 40.2044 48.4779 40.4844 47.5664 40.875C46.668 41.2526 45.6263 41.7669 44.4414 42.418C42.8008 43.3164 41.3359 44.0391 40.0469 44.5859C38.7578 45.1198 37.5599 45.5104 36.4531 45.7578C35.3464 45.9922 34.2331 46.1094 33.1133 46.1094C32.5404 46.1094 31.9544 46.0964 31.3555 46.0703C30.7695 46.0443 30.2422 46.0312 29.7734 46.0312C29.0182 46.0312 28.3021 46.1875 27.625 46.5C26.9479 46.7995 26.4596 47.1966 26.1602 47.6914ZM26.668 60.8359C26.4206 60.8359 26.1797 60.7513 25.9453 60.582C25.7109 60.4128 25.5677 60.1523 25.5156 59.8008L20.9648 24.9766C20.9128 24.638 20.9909 24.332 21.1992 24.0586C21.4076 23.7852 21.7201 23.6484 22.1367 23.6484C22.3971 23.6484 22.638 23.7331 22.8594 23.9023C23.0938 24.0716 23.237 24.332 23.2891 24.6836L27.8398 59.5078C27.8919 59.8464 27.8203 60.1523 27.625 60.4258C27.4297 60.6992 27.1107 60.8359 26.668 60.8359Z" fill="#005BAC"/>
</svg>
