<svg width="80" height="80" viewBox="0 0 80 80" fill="none" xmlns="http://www.w3.org/2000/svg">
<rect width="80" height="80" rx="40" fill="#E6F8FF"/>
<path d="M39.5234 60.8359C35.4479 60.8359 32.1146 60.6797 29.5234 60.3672C26.9453 60.0547 24.9466 59.5013 23.5273 58.707C22.1211 57.9258 21.1445 56.8255 20.5977 55.4062C20.0638 54 19.7969 52.1966 19.7969 49.9961C19.7969 47.8216 20.0573 45.5755 20.5781 43.2578C21.112 40.9271 21.8477 38.6354 22.7852 36.3828C23.7357 34.1172 24.849 31.9948 26.125 30.0156C27.4141 28.0234 28.8203 26.2656 30.3438 24.7422C31.8672 23.2057 33.4622 22.0013 35.1289 21.1289C36.7956 20.2565 38.4818 19.8203 40.1875 19.8203C40.9297 19.8203 41.5417 19.944 42.0234 20.1914C42.5052 20.4388 42.9154 20.8424 43.2539 21.4023L45.4023 24.8594C45.8841 25.6536 46.125 26.3698 46.125 27.0078C46.125 28.0365 45.6367 28.7786 44.6602 29.2344C43.6966 29.6771 42.4271 29.8984 40.8516 29.8984C39.3542 29.8984 38.2018 29.651 37.3945 29.1562C36.6003 28.6484 36.2031 27.9714 36.2031 27.125C36.2031 26.3177 36.4831 25.7122 37.043 25.3086C37.6029 24.9049 38.3385 24.7031 39.25 24.7031C39.4323 24.7031 39.6211 24.7161 39.8164 24.7422C40.0117 24.7552 40.2461 24.7812 40.5195 24.8203L40.2852 26.5391C40.0508 26.513 39.849 26.4935 39.6797 26.4805C39.5234 26.4674 39.3802 26.4609 39.25 26.4609C38.8333 26.4609 38.5143 26.5195 38.293 26.6367C38.0716 26.7409 37.9609 26.9036 37.9609 27.125C37.9609 27.3984 38.1953 27.6393 38.6641 27.8477C39.1328 28.043 39.862 28.1406 40.8516 28.1406C41.9974 28.1406 42.7786 28.056 43.1953 27.8867C43.612 27.7044 43.8203 27.4115 43.8203 27.0078C43.8203 26.8516 43.7878 26.6953 43.7227 26.5391C43.6706 26.3828 43.5729 26.181 43.4297 25.9336L41.5156 22.8672C41.3464 22.5938 41.1445 22.3789 40.9102 22.2227C40.6758 22.0534 40.4349 21.9688 40.1875 21.9688C38.6771 21.9688 37.1797 22.3789 35.6953 23.1992C34.224 24.0195 32.8112 25.1458 31.457 26.5781C30.1159 28.0104 28.8789 29.6576 27.7461 31.5195C26.6133 33.3685 25.6237 35.3411 24.7773 37.4375C23.944 39.5339 23.293 41.6562 22.8242 43.8047C22.3685 45.9401 22.1406 48.0039 22.1406 49.9961C22.1406 51.8451 22.362 53.3424 22.8047 54.4883C23.2474 55.6341 24.0742 56.513 25.2852 57.125C26.4961 57.737 28.2474 58.1471 30.5391 58.3555C32.8307 58.5768 35.8255 58.6875 39.5234 58.6875H45.5195C48.6315 58.6875 51.1641 58.3164 53.1172 57.5742C55.0833 56.8451 56.5286 55.8229 57.4531 54.5078C58.3906 53.2057 58.8594 51.7018 58.8594 49.9961C58.8594 48.5508 58.5664 47.2682 57.9805 46.1484C57.3945 45.0156 56.5938 44.0651 55.5781 43.2969C54.5755 42.5156 53.4362 41.9297 52.1602 41.5391C50.8841 41.1354 49.5495 40.9336 48.1562 40.9336C46.6979 40.9336 45.2852 41.1875 43.918 41.6953C42.5508 42.1901 41.3203 42.8802 40.2266 43.7656C39.1328 44.651 38.2474 45.6797 37.5703 46.8516C37.1927 46.8125 36.8346 46.7799 36.4961 46.7539C36.1706 46.7279 35.8646 46.7148 35.5781 46.7148C34.1589 46.7148 33.0586 47.1836 32.2773 48.1211C31.4961 49.0456 31.1055 50.1003 31.1055 51.2852C31.1055 51.7018 31.1315 52.138 31.1836 52.5938C31.2357 53.0495 31.3268 53.5898 31.457 54.2148L29.543 54.6055C29.3997 53.9284 29.2956 53.3294 29.2305 52.8086C29.1784 52.2747 29.1523 51.7669 29.1523 51.2852C29.1523 50.0352 29.4193 48.9023 29.9531 47.8867C30.5 46.8711 31.2552 46.0638 32.2188 45.4648C33.1953 44.8659 34.3151 44.5664 35.5781 44.5664C35.7604 44.5664 35.9362 44.5664 36.1055 44.5664C36.2747 44.5664 36.4635 44.5794 36.6719 44.6055C37.8698 43.2773 39.0742 42.1836 40.2852 41.3242C41.5091 40.4648 42.7721 39.8268 44.0742 39.4102C45.3763 38.9935 46.737 38.7852 48.1562 38.7852C49.9271 38.7852 51.6003 39.0521 53.1758 39.5859C54.7513 40.1068 56.138 40.862 57.3359 41.8516C58.5469 42.8281 59.4909 44.0065 60.168 45.3867C60.8581 46.7539 61.2031 48.2904 61.2031 49.9961C61.2031 52.1576 60.6237 54.0521 59.4648 55.6797C58.306 57.3073 56.5677 58.5703 54.25 59.4688C51.9323 60.3802 49.0221 60.8359 45.5195 60.8359H39.5234ZM46.7695 56.7344C45.0247 56.7344 43.4102 56.4219 41.9258 55.7969C40.4544 55.1719 39.2435 54.306 38.293 53.1992C37.3424 52.0794 36.7826 50.8034 36.6133 49.3711L38.7617 49.0977C38.8659 50.1523 39.2826 51.1094 40.0117 51.9688C40.7409 52.8281 41.6914 53.5117 42.8633 54.0195C44.0482 54.5273 45.3503 54.7812 46.7695 54.7812C47.9023 54.7812 48.9375 54.625 49.875 54.3125C50.8125 54.013 51.6068 53.6029 52.2578 53.082C52.9219 52.5482 53.3971 51.9427 53.6836 51.2656L55.6953 51.9883C55.3568 52.8997 54.7448 53.7135 53.8594 54.4297C52.987 55.1458 51.9388 55.7057 50.7148 56.1094C49.4909 56.526 48.1758 56.7344 46.7695 56.7344ZM30.832 47.3789C31.2487 46.3503 31.5352 45.3216 31.6914 44.293C31.8607 43.2513 31.9453 42.3138 31.9453 41.4805C31.9453 41.1029 31.9128 40.6016 31.8477 39.9766C31.8086 39.625 31.776 39.2604 31.75 38.8828C31.737 38.5052 31.7305 38.1341 31.7305 37.7695C31.7305 36.1029 31.9648 34.625 32.4336 33.3359C32.9154 32.0339 33.5794 31.0443 34.4258 30.3672L35.9102 31.7344C35.2852 32.2292 34.7904 33.0104 34.4258 34.0781C34.0612 35.1458 33.8789 36.3763 33.8789 37.7695C33.8789 38.1732 33.8854 38.5508 33.8984 38.9023C33.9245 39.2409 33.957 39.5794 33.9961 39.918C34.0221 40.1654 34.0417 40.4193 34.0547 40.6797C34.0807 40.9401 34.0938 41.207 34.0938 41.4805C34.0938 42.2487 34.0286 43.0885 33.8984 44C33.7682 44.8984 33.599 45.7188 33.3906 46.4609L30.832 47.3789ZM38.6641 32.75C36.8281 32.75 35.3112 32.4115 34.1133 31.7344C32.9154 31.0443 32.1406 30.1654 31.7891 29.0977L33.4297 28.4141C33.638 29.1432 34.1914 29.7227 35.0898 30.1523C35.9883 30.582 37.1797 30.7969 38.6641 30.7969C39.6016 30.7969 40.2982 30.7383 40.7539 30.6211C41.2227 30.4909 41.457 30.3021 41.457 30.0547C41.457 29.8854 41.3919 29.8008 41.2617 29.8008V28.3359C41.8737 28.3359 42.4141 28.4857 42.8828 28.7852C43.3646 29.0846 43.6055 29.5078 43.6055 30.0547C43.6055 30.9661 43.1367 31.6432 42.1992 32.0859C41.2747 32.5286 40.0964 32.75 38.6641 32.75Z" fill="#005BAC"/>
</svg>
